<?xml version="1.0" encoding="UTF-8"?>
<svg xmlns="http://www.w3.org/2000/svg" xmlns:xlink="http://www.w3.org/1999/xlink" version="1.2" >
<font id="Office Code Pro Regular">
<font-face  font-family="Office Code Pro" units-per-em="1000" ascent="812" descent="-188" font-style="normal" font-weight="400" font-stretch="normal" cap-height="765" x-height="527" underline-position="-75" underline-thickness="50" />
<missing-glyph  horiz-adv-x="500" d="" />
<glyph glyph-name="NULL" d="" />
<glyph glyph-name="CR" unicode="&#xd;" horiz-adv-x="500" d="" />
<glyph glyph-name="space" unicode="&#x20;" horiz-adv-x="640" d="" />
<glyph glyph-name="exclam" unicode="&#x21;" horiz-adv-x="640" d="M270 788 L283 237 L356 237 L370 788 L270 788 Z M253 0 L387 0 L387 134 L253 134 L253 0 Z " />
<glyph glyph-name="quotedbl" unicode="&#x22;" horiz-adv-x="640" d="M341 765 L374 494 L446 494 L479 765 L341 765 Z M142 765 L175 494 L247 494 L280 765 L142 765 Z " />
<glyph glyph-name="numbersign" unicode="&#x23;" horiz-adv-x="640" d="M396 519 L374 369 L240 369 L262 519 L396 519 Z M201 99 L230 298 L364 298 L335 99 L408 99 L437 298 L558 298 L558 369 L447 369 L469 519 L588 519 L588 590 L480 590 L505 764 L432 764 L407 590 L273 590 L298 764 L225 764 L200 590 L81 590 L81 519 L189 519 L167 369 L51 369 L51 298 L157 298 L128 99 L201 99 Z " />
<glyph glyph-name="dollar" unicode="&#x24;" horiz-adv-x="640" d="M287 676 L287 427 L281 428 C212 440 173 476 173 552 C173 615 207 665 287 676 L287 676 Z M359 70 L353 70 L353 330 L364 328 C453 312 486 265 486 201 C486 133 452 82 359 70 L359 70 Z M287 -116 L353 -116 L353 -7 C501 4 575 84 575 209 C575 314 517 386 381 410 L353 415 L353 676 C436 663 467 605 475 540 L562 540 C555 656 485 736 353 747 L353 828 L287 828 L287 747 C167 736 85 655 85 552 C85 431 149 368 270 345 L287 342 L287 70 C193 81 159 143 148 212 L60 212 C79 77 150 4 287 -7 L287 -116 Z " />
<glyph glyph-name="percent" unicode="&#x25;" horiz-adv-x="640" d="M503 774 L64 0 L141 0 L580 774 L503 774 Z M31 601 C31 486 95 429 179 429 C260 429 327 487 327 601 C327 716 260 772 179 772 C98 772 31 716 31 601 L31 601 Z M179 710 C226 710 252 674 252 601 C252 529 226 491 179 491 C130 492 106 528 106 601 C106 674 130 711 179 710 L179 710 Z M464 -7 C547 -7 612 51 612 165 C612 280 547 336 464 336 C384 336 316 280 316 165 C316 51 381 -7 464 -7 L464 -7 Z M463 55 C416 55 391 92 391 165 C391 241 416 274 463 274 C510 274 537 238 537 165 C537 93 510 55 463 55 L463 55 Z " />
<glyph glyph-name="ampersand" unicode="&#x26;" horiz-adv-x="640" d="M193 623 C193 675 228 718 289 718 C344 718 381 683 381 624 C381 546 343 516 268 459 C222 526 193 557 193 623 L193 623 Z M230 354 L236 358 L398 134 C405 126 409 119 414 112 C383 77 341 56 278 56 C197 56 134 107 134 200 C134 262 152 300 230 354 L230 354 Z M569 0 L614 0 L614 78 C566 78 547 83 510 127 C553 208 566 305 571 382 L496 382 C488 314 479 249 460 193 L454 201 L309 404 C408 471 467 532 467 624 C467 719 400 788 288 788 C181 788 108 720 108 618 C108 542 142 488 194 416 C91 347 42 292 42 191 C42 75 123 -16 276 -16 C357 -16 415 12 458 56 C495 15 522 0 569 0 L569 0 Z " />
<glyph glyph-name="quotesingle" unicode="&#x27;" horiz-adv-x="640" d="M264 765 L297 494 L369 494 L402 765 L264 765 Z " />
<glyph glyph-name="parenleft" unicode="&#x28;" horiz-adv-x="640" d="M402 -130 L495 -130 C391 -26 295 131 295 329 C295 527 387 677 495 788 L402 788 C287 676 206 536 206 329 C206 123 289 -20 402 -130 L402 -130 Z " />
<glyph glyph-name="parenright" unicode="&#x29;" horiz-adv-x="640" d="M238 788 L145 788 C249 684 345 527 345 329 C345 130 252 -17 145 -130 L238 -130 C353 -18 434 122 434 329 C434 535 351 678 238 788 L238 788 Z " />
<glyph glyph-name="asterisk" unicode="&#x2a;" horiz-adv-x="640" d="M319 454 L321 454 L430 275 L511 333 L373 492 L373 495 L573 548 L539 644 L352 553 L349 554 L370 765 L269 765 L290 554 L287 553 L99 644 L66 548 L266 495 L266 492 L128 333 L209 275 L319 454 Z " />
<glyph glyph-name="plus" unicode="&#x2b;" horiz-adv-x="640" d="M360 127 L360 319 L550 319 L550 396 L360 396 L360 587 L279 587 L279 396 L90 396 L90 319 L279 319 L279 127 L360 127 Z " />
<glyph glyph-name="comma" unicode="&#x2c;" horiz-adv-x="640" d="M216 -127 L295 -127 L414 134 L270 134 L216 -127 Z " />
<glyph glyph-name="hyphen" unicode="&#x2d;" horiz-adv-x="640" d="M171 372 L171 283 L469 283 L469 372 L171 372 Z " />
<glyph glyph-name="period" unicode="&#x2e;" horiz-adv-x="640" d="M253 134 L253 0 L387 0 L387 134 L253 134 Z " />
<glyph glyph-name="slash" unicode="&#x2f;" horiz-adv-x="640" d="M493 788 L39 -130 L122 -130 L576 788 L493 788 Z " />
<glyph glyph-name="zero" unicode="0" horiz-adv-x="640" d="M67 368 C67 105 156 -15 319 -15 C482 -15 573 105 573 368 C573 631 479 751 319 751 C159 751 67 631 67 368 L67 368 Z M319 60 C215 60 163 162 163 366 C163 578 218 675 319 675 C423 675 477 573 477 366 C477 163 420 60 319 60 L319 60 Z " />
<glyph glyph-name="one" unicode="1" horiz-adv-x="640" d="M106 0 L563 0 L563 75 L378 75 L378 744 L303 744 C303 697 293 671 272 648 C251 627 218 616 173 616 L106 616 L106 546 L288 546 L288 75 L106 75 L106 0 Z " />
<glyph glyph-name="two" unicode="2" horiz-adv-x="640" d="M94 494 L181 494 C178 611 234 677 334 677 C414 677 470 621 470 545 C470 460 424 406 338 320 L84 70 L84 0 L571 0 L571 80 L204 80 L204 82 C208 85 214 91 221 98 C234 110 254 128 286 159 L401 269 C523 386 561 456 561 550 C561 650 490 752 333 752 C186 752 89 649 94 494 L94 494 Z " />
<glyph glyph-name="three" unicode="3" horiz-adv-x="640" d="M264 337 L328 337 C428 337 479 286 479 203 C479 115 410 60 325 60 C234 60 170 108 159 208 L73 208 C78 88 153 -15 317 -15 C477 -15 569 82 569 197 C569 308 500 364 419 383 L419 385 C504 417 551 471 551 560 C551 670 466 752 325 752 C163 752 88 645 85 529 L172 529 C175 630 233 676 325 676 C405 676 461 627 461 548 C461 469 415 416 328 416 L264 416 L264 337 Z " />
<glyph glyph-name="four" unicode="4" horiz-adv-x="640" d="M397 257 L144 257 L350 574 C365 598 376 617 383 631 C387 638 390 645 393 652 L397 652 L397 257 Z M483 182 L580 182 L580 258 L483 258 L483 741 L369 741 L55 252 L55 182 L397 182 L397 0 L483 0 L483 182 Z " />
<glyph glyph-name="five" unicode="5" horiz-adv-x="640" d="M158 196 L71 196 C82 89 144 -15 315 -15 C472 -15 571 84 571 239 C571 415 456 488 336 488 C263 488 215 458 188 427 L186 427 L198 662 L525 662 L525 741 L119 741 L97 346 L178 346 C206 389 252 413 319 413 C408 413 479 351 479 237 C479 114 399 59 315 59 C220 58 170 108 158 196 L158 196 Z " />
<glyph glyph-name="six" unicode="6" horiz-adv-x="640" d="M469 581 L560 581 C543 685 469 752 342 752 C154 752 67 609 67 328 C67 50 192 -15 326 -15 C481 -15 574 92 574 239 C574 406 458 473 350 473 C266 473 197 436 162 373 L159 373 C162 561 206 679 338 679 C414 679 454 641 469 581 L469 581 Z M327 61 C248 61 171 112 171 231 C171 345 236 396 327 396 C411 396 480 340 480 231 C480 112 403 61 327 61 L327 61 Z " />
<glyph glyph-name="seven" unicode="7" horiz-adv-x="640" d="M466 661 L153 0 L248 0 L570 682 L570 741 L71 741 L71 661 L466 661 Z " />
<glyph glyph-name="eight" unicode="8" horiz-adv-x="640" d="M86 553 C86 464 145 397 207 378 L207 376 C146 360 65 305 65 193 C65 72 153 -19 320 -16 C487 -13 576 73 576 193 C576 305 498 360 434 376 L434 378 C496 397 555 462 555 553 C555 664 468 752 320 752 C171 752 86 664 86 553 L86 553 Z M320 680 C395 680 461 637 461 545 C461 455 392 410 320 410 C245 410 179 455 179 545 C179 637 245 680 320 680 L320 680 Z M320 56 C236 56 158 98 158 197 C158 295 236 339 320 339 C407 339 484 295 484 197 C484 98 409 56 320 56 L320 56 Z " />
<glyph glyph-name="nine" unicode="9" horiz-adv-x="640" d="M310 676 C389 676 467 620 467 512 C467 409 401 353 312 353 C229 353 161 409 161 512 C161 627 236 676 310 676 L310 676 Z M168 167 L82 167 C103 36 201 -15 303 -15 C471 -15 568 98 568 415 C568 648 468 752 312 752 C169 752 69 649 69 510 C69 344 193 279 296 279 C380 279 441 312 473 368 L477 368 C477 149 423 58 312 58 C236 58 187 94 168 167 L168 167 Z " />
<glyph glyph-name="colon" unicode="&#x3a;" horiz-adv-x="640" d="M253 393 L387 393 L387 527 L253 527 L253 393 Z M253 0 L387 0 L387 134 L253 134 L253 0 Z " />
<glyph glyph-name="semicolon" unicode="&#x3b;" horiz-adv-x="640" d="M270 393 L404 393 L404 527 L270 527 L270 393 Z M207 -127 L286 -127 L405 134 L261 134 L207 -127 Z " />
<glyph glyph-name="less" unicode="&#x3c;" horiz-adv-x="640" d="M78 302 L546 72 L546 159 L187 333 L546 507 L546 594 L78 364 L78 302 Z " />
<glyph glyph-name="equal" unicode="&#x3d;" horiz-adv-x="640" d="M90 486 L90 410 L550 410 L550 486 L90 486 Z M90 229 L550 229 L550 305 L90 305 L90 229 Z " />
<glyph glyph-name="greater" unicode="&#x3e;" horiz-adv-x="640" d="M561 364 L93 594 L93 507 L452 333 L93 159 L93 72 L561 302 L561 364 Z " />
<glyph glyph-name="question" unicode="&#x3f;" horiz-adv-x="640" d="M455 590 C455 534 431 496 387 460 L345 423 C283 369 273 359 273 291 L273 227 L355 227 L355 276 C355 325 358 328 398 365 L435 397 C488 442 544 494 544 598 C544 695 475 797 318 797 C173 797 75 694 80 539 L165 539 C162 656 220 719 320 719 C403 719 455 666 455 590 L455 590 Z M247 0 L381 0 L381 134 L247 134 L247 0 Z " />
<glyph glyph-name="at" unicode="&#x40;" horiz-adv-x="640" d="M348 -124 C385 -124 430 -118 469 -103 L472 -41 C434 -52 407 -58 353 -58 C164 -58 135 73 135 269 L135 307 C135 366 134 422 145 473 C163 557 212 619 330 619 C466 619 507 524 507 411 L501 411 C477 454 438 476 384 476 C287 476 225 406 225 275 C225 131 295 76 376 76 C440 76 482 101 503 152 L505 152 L505 87 L579 87 L579 413 C579 564 502 682 330 682 C179 682 108 606 78 501 C62 444 61 381 61 312 L61 246 C61 -6 134 -124 348 -124 L348 -124 Z M399 139 C331 139 312 199 312 278 C312 361 339 414 406 414 C457 414 499 367 499 292 L499 254 C499 189 458 139 399 139 L399 139 Z " />
<glyph glyph-name="A" unicode="A" horiz-adv-x="640" d="M313 676 L321 676 C325 661 329 645 332 630 C339 603 345 571 352 548 L420 303 L213 303 L281 548 C292 591 313 671 313 676 L313 676 Z M441 228 L505 0 L605 0 L380 765 L258 765 L35 0 L129 0 L192 228 L441 228 Z " />
<glyph glyph-name="B" unicode="B" horiz-adv-x="640" d="M90 0 L318 0 C473 0 592 49 592 221 C592 316 533 391 434 408 L434 410 C522 431 568 486 568 579 C568 704 477 765 341 765 L90 765 L90 0 Z M324 439 L183 439 L183 691 L336 691 C421 691 472 653 472 569 C472 470 405 439 324 439 L324 439 Z M319 74 L183 74 L183 366 L311 366 C432 366 496 328 496 227 C496 112 431 74 319 74 L319 74 Z " />
<glyph glyph-name="C" unicode="C" horiz-adv-x="640" d="M495 536 L589 536 C573 704 464 776 340 776 C161 776 56 645 56 380 C56 96 157 -16 337 -16 C489 -16 576 94 587 238 L496 238 C488 151 451 60 338 60 C207 60 153 157 153 380 C153 600 207 701 339 701 C444 701 484 613 495 536 L495 536 Z " />
<glyph glyph-name="D" unicode="D" horiz-adv-x="640" d="M75 765 L75 0 L251 0 C459 0 595 113 595 392 C595 672 449 765 240 765 L75 765 Z M249 81 L168 81 L168 686 L255 686 C409 686 498 602 498 389 C498 164 412 81 249 81 L249 81 Z " />
<glyph glyph-name="E" unicode="E" horiz-adv-x="640" d="M105 765 L105 0 L569 0 L569 81 L198 81 L198 347 L512 347 L512 426 L198 426 L198 684 L564 684 L564 765 L105 765 Z " />
<glyph glyph-name="F" unicode="F" horiz-adv-x="640" d="M218 0 L218 326 L551 326 L551 405 L218 405 L218 684 L592 684 L592 765 L125 765 L125 0 L218 0 Z " />
<glyph glyph-name="G" unicode="G" horiz-adv-x="640" d="M335 701 C427 701 477 634 485 562 L579 562 C571 682 476 776 336 776 C157 776 53 647 53 379 C53 94 151 -15 316 -15 C415 -15 472 38 499 92 L503 92 L503 0 L584 0 L584 386 L317 386 L317 310 L499 310 L499 247 C499 172 461 58 330 58 C202 58 150 164 150 380 C150 583 196 701 335 701 L335 701 Z " />
<glyph glyph-name="H" unicode="H" horiz-adv-x="640" d="M168 0 L168 346 L472 346 L472 0 L565 0 L565 765 L472 765 L472 425 L168 425 L168 765 L75 765 L75 0 L168 0 Z " />
<glyph glyph-name="I" unicode="I" horiz-adv-x="640" d="M366 75 L366 690 L540 690 L540 765 L100 765 L100 690 L274 690 L274 75 L100 75 L100 0 L540 0 L540 75 L366 75 Z " />
<glyph glyph-name="J" unicode="J" horiz-adv-x="640" d="M264 -10 C408 -10 506 68 506 212 L506 765 L153 765 L153 686 L413 686 L413 218 C413 129 368 73 263 73 C195 73 143 83 107 92 L107 8 C147 -1 192 -10 264 -10 L264 -10 Z " />
<glyph glyph-name="K" unicode="K" horiz-adv-x="640" d="M187 0 L187 276 L263 369 L495 0 L605 0 L327 442 L589 765 L485 765 L187 396 L187 765 L95 765 L95 0 L187 0 Z " />
<glyph glyph-name="L" unicode="L" horiz-adv-x="640" d="M125 765 L125 0 L598 0 L598 81 L218 81 L218 765 L125 765 Z " />
<glyph glyph-name="M" unicode="M" horiz-adv-x="640" d="M75 765 L75 0 L160 0 L160 654 L168 654 C169 641 171 627 174 612 C178 585 183 550 194 510 L272 183 L363 183 L442 511 C451 551 459 585 463 612 C466 627 468 641 469 654 L477 654 L477 0 L565 -1 L565 765 L435 766 L347 399 C338 362 332 330 329 306 C327 292 326 279 325 268 L317 268 C316 279 314 292 312 306 C308 330 303 362 294 401 L206 765 L75 765 Z " />
<glyph glyph-name="N" unicode="N" horiz-adv-x="640" d="M74 765 L74 0 L157 0 L157 655 L162 655 C164 646 167 637 170 627 C177 610 184 588 196 561 L443 0 L566 0 L566 765 L483 765 L483 110 L477 110 C474 119 471 129 468 140 C461 159 453 180 444 203 L197 765 L74 765 Z " />
<glyph glyph-name="O" unicode="O" horiz-adv-x="640" d="M49 380 C49 87 151 -16 319 -16 C483 -16 591 87 591 380 C591 674 486 776 321 776 C161 776 49 674 49 380 L49 380 Z M320 59 C204 59 148 154 148 380 C148 609 204 701 320 701 C436 701 492 616 492 380 C492 151 440 59 320 59 L320 59 Z " />
<glyph glyph-name="P" unicode="P" horiz-adv-x="640" d="M190 292 L315 292 C471 292 586 368 586 530 C586 695 471 765 323 765 L97 765 L97 0 L190 0 L190 292 Z M315 367 L190 367 L190 690 L318 690 C426 690 490 645 490 530 C490 421 427 367 315 367 L315 367 Z " />
<glyph glyph-name="Q" unicode="Q" horiz-adv-x="640" d="M488 45 L488 50 C547 96 591 190 591 380 C591 674 486 776 321 776 C161 776 49 674 49 380 C49 88 153 -14 321 -14 C361 -14 392 -6 415 -6 C469 -6 512 -45 543 -124 L625 -84 C596 -12 556 28 488 45 L488 45 Z M320 702 C440 702 492 615 492 379 C492 98 412 59 320 59 C200 59 148 152 148 379 C148 609 200 702 320 702 L320 702 Z " />
<glyph glyph-name="R" unicode="R" horiz-adv-x="640" d="M329 401 L184 401 L184 689 L333 689 C421 689 483 645 483 550 C483 445 419 401 329 401 L329 401 Z M325 324 L483 0 L588 0 L419 337 L419 339 C488 358 580 414 580 551 C580 639 545 698 484 731 C443 754 393 765 336 765 L91 765 L91 0 L184 0 L184 324 L325 324 Z " />
<glyph glyph-name="S" unicode="S" horiz-adv-x="640" d="M483 560 L577 560 C566 685 487 776 322 776 C172 776 74 687 74 565 C74 444 131 386 263 357 L370 334 C459 315 495 267 495 199 C495 124 453 59 326 59 C206 59 157 133 146 215 L52 215 C60 80 155 -16 324 -16 C500 -16 590 72 590 209 C590 324 535 388 398 419 L281 445 C206 461 166 492 166 571 C166 640 215 700 321 700 C427 700 475 635 483 560 L483 560 Z " />
<glyph glyph-name="T" unicode="T" horiz-adv-x="640" d="M611 686 L611 765 L28 765 L28 686 L273 686 L273 0 L366 0 L366 686 L611 686 Z " />
<glyph glyph-name="U" unicode="U" horiz-adv-x="640" d="M69 765 L69 255 C69 61 169 -15 320 -15 C469 -15 570 63 570 255 L570 765 L479 765 L479 256 C479 139 437 61 321 61 C205 61 162 139 162 256 L162 765 L69 765 Z " />
<glyph glyph-name="V" unicode="V" horiz-adv-x="640" d="M385 0 L601 765 L508 765 L358 210 C351 187 345 156 338 131 C335 116 331 101 327 86 L319 86 C316 101 312 115 309 130 C302 155 296 186 289 210 L138 765 L39 765 L257 0 L385 0 Z " />
<glyph glyph-name="W" unicode="W" horiz-adv-x="640" d="M91 0 L215 0 L290 345 C297 376 303 412 307 440 C310 457 312 473 314 488 L321 488 C323 473 325 457 328 440 C332 412 338 377 345 345 L420 0 L549 0 L598 765 L514 765 L476 97 L467 97 C466 110 464 125 461 141 C457 168 450 206 442 246 L364 605 L278 605 L200 246 C191 205 185 168 181 141 C178 125 176 110 175 97 L167 97 L129 765 L42 765 L91 0 Z " />
<glyph glyph-name="X" unicode="X" horiz-adv-x="640" d="M266 396 L31 0 L127 0 L314 323 L317 323 L501 0 L609 0 L369 401 L588 765 L492 765 L321 473 L317 473 L154 765 L48 765 L266 396 Z " />
<glyph glyph-name="Y" unicode="Y" horiz-adv-x="640" d="M274 326 L274 0 L366 0 L366 329 L603 765 L509 765 L325 412 L323 412 L140 765 L37 765 L274 326 Z " />
<glyph glyph-name="Z" unicode="Z" horiz-adv-x="640" d="M78 765 L78 685 L469 685 L63 71 L63 0 L587 0 L587 80 L174 80 L579 694 L579 765 L78 765 Z " />
<glyph glyph-name="bracketleft" unicode="&#x5b;" horiz-adv-x="640" d="M203 788 L203 -130 L481 -130 L481 -60 L288 -60 L288 718 L481 718 L481 788 L203 788 Z " />
<glyph glyph-name="backslash" unicode="&#x5c;" horiz-adv-x="640" d="M64 788 L518 -130 L601 -130 L147 788 L64 788 Z " />
<glyph glyph-name="bracketright" unicode="&#x5d;" horiz-adv-x="640" d="M437 -130 L437 788 L159 788 L159 718 L352 718 L352 -60 L159 -60 L159 -130 L437 -130 Z " />
<glyph glyph-name="asciicircum" unicode="&#x5e;" horiz-adv-x="640" d="M543 427 L359 765 L285 765 L97 426 L183 426 L316 667 L323 667 L449 427 L543 427 Z " />
<glyph glyph-name="underscore" unicode="&#x5f;" horiz-adv-x="640" d="M100 -114 L100 -188 L540 -188 L540 -114 L100 -114 Z " />
<glyph glyph-name="grave" unicode="&#x60;" horiz-adv-x="640" d="M325 609 L402 609 L342 788 L207 788 L325 609 Z " />
<glyph glyph-name="a" unicode="a" horiz-adv-x="640" d="M177 149 C177 176 187 197 206 212 C241 237 311 246 426 251 L426 239 C426 108 341 64 274 64 C214 64 177 93 177 149 L177 149 Z M427 95 L433 95 C437 28 464 0 543 0 L571 0 L571 73 L553 73 C521 73 512 81 512 113 L512 347 C512 483 433 540 311 540 C182 540 115 468 110 380 L197 380 C200 420 226 470 311 470 C387 470 426 434 426 345 L426 318 C307 314 222 303 166 274 C111 247 87 203 87 144 C87 49 151 -9 258 -9 C338 -9 396 28 427 95 L427 95 Z " />
<glyph glyph-name="b" unicode="b" horiz-adv-x="640" d="M94 788 L94 0 L179 0 L179 84 L181 84 C210 33 267 -13 355 -13 C479 -13 582 79 582 271 C582 471 479 540 362 540 C278 540 216 497 185 440 L184 440 L184 788 L94 788 Z M342 58 C235 58 181 140 181 244 L181 300 C181 389 241 468 341 468 C456 468 491 383 491 271 C491 132 442 58 342 58 L342 58 Z " />
<glyph glyph-name="c" unicode="c" horiz-adv-x="640" d="M464 368 L557 368 C538 491 445 540 337 540 C180 540 90 431 90 262 C91 87 172 -13 332 -13 C452 -13 544 56 560 172 L469 172 C461 128 425 59 332 59 C221 59 184 139 184 266 C184 389 229 469 332 469 C413 469 456 416 464 368 L464 368 Z " />
<glyph glyph-name="d" unicode="d" horiz-adv-x="640" d="M458 284 L458 228 C458 132 397 58 298 58 C186 58 149 145 149 264 C149 389 199 468 307 468 C398 468 458 397 458 284 L458 284 Z M546 0 L546 788 L455 788 L455 457 L453 457 C426 500 372 540 293 540 C156 540 57 440 57 260 C57 57 166 -13 282 -13 C366 -13 429 31 456 84 L460 84 L460 0 L546 0 Z " />
<glyph glyph-name="e" unicode="e" horiz-adv-x="640" d="M465 317 L465 311 L176 311 C187 407 236 471 327 471 C425 471 462 405 465 317 L465 317 Z M548 138 L462 138 C452 107 428 57 334 57 C228 57 179 130 174 239 L557 239 L557 285 C557 418 492 540 328 540 C170 540 83 417 83 261 C83 104 163 -13 331 -13 C448 -13 528 46 548 138 L548 138 Z " />
<glyph glyph-name="f" unicode="f" horiz-adv-x="640" d="M352 0 L352 452 L558 452 L558 527 L352 527 L352 626 C352 691 386 716 449 716 C500 716 529 708 558 699 L558 775 C527 784 498 791 446 791 C344 791 263 746 263 634 L263 527 L72 527 L72 452 L263 452 L263 0 L352 0 Z " />
<glyph glyph-name="g" unicode="g" horiz-adv-x="640" d="M464 292 L464 239 C464 149 400 75 309 75 C189 75 156 155 156 271 C156 390 202 469 305 469 C402 469 464 397 464 292 L464 292 Z M301 -199 C448 -199 551 -135 551 13 L551 527 L465 527 L465 444 L462 444 C438 493 388 540 296 540 C160 540 64 445 64 271 C64 76 171 4 284 4 C367 4 432 52 461 104 L462 104 L462 26 C462 -90 408 -127 303 -127 C211 -127 175 -98 164 -53 L77 -53 C90 -162 200 -199 301 -199 L301 -199 Z " />
<glyph glyph-name="h" unicode="h" horiz-adv-x="640" d="M444 0 L535 0 L535 367 C535 492 468 540 367 540 C281 540 226 490 202 440 L201 440 L201 788 L110 788 L110 0 L201 0 L201 316 C201 402 245 465 343 465 C378 465 407 455 426 430 C445 405 444 365 444 326 L444 0 Z " />
<glyph glyph-name="i" unicode="i" horiz-adv-x="640" d="M255 760 L255 626 L389 626 L389 760 L255 760 Z M92 0 L569 0 L569 75 L372 75 L372 527 L121 527 L121 455 L286 455 L286 75 L92 75 L92 0 Z " />
<glyph glyph-name="j" unicode="j" horiz-adv-x="640" d="M315 626 L449 626 L449 760 L315 760 L315 626 Z M250 -199 C355 -199 432 -139 432 -27 L432 527 L138 527 L138 453 L346 453 L346 -17 C346 -82 313 -122 241 -122 C194 -122 167 -114 138 -107 L138 -185 C169 -192 198 -199 250 -199 L250 -199 Z " />
<glyph glyph-name="k" unicode="k" horiz-adv-x="640" d="M212 0 L212 160 L304 259 L477 0 L584 0 L365 322 L556 527 L450 527 L212 264 L212 788 L126 788 L126 0 L212 0 Z " />
<glyph glyph-name="l" unicode="l" horiz-adv-x="640" d="M92 0 L569 0 L569 75 L373 75 L373 788 L111 788 L111 716 L284 716 L284 75 L92 75 L92 0 Z " />
<glyph glyph-name="m" unicode="m" horiz-adv-x="640" d="M59 527 L59 0 L146 0 L146 321 C146 418 168 467 224 467 C276 467 279 424 279 380 L279 0 L366 0 L366 321 C366 418 392 467 445 467 C498 467 499 424 499 380 L499 0 L586 0 L586 399 C586 495 554 540 475 540 C410 540 377 504 361 453 L358 453 C347 504 316 540 252 540 C188 540 155 502 140 451 L136 451 L136 527 L59 527 Z " />
<glyph glyph-name="n" unicode="n" horiz-adv-x="640" d="M444 325 L444 0 L535 0 L535 367 C535 492 468 540 367 540 C284 540 221 491 197 438 L195 438 L195 527 L110 527 L110 0 L201 0 L201 316 C201 402 245 465 343 465 C378 465 407 455 426 430 C445 405 444 364 444 325 L444 325 Z " />
<glyph glyph-name="o" unicode="o" horiz-adv-x="640" d="M320 -13 C479 -13 566 88 566 264 C566 439 481 540 320 540 C161 540 74 439 74 264 C74 89 159 -13 320 -13 L320 -13 Z M320 470 C425 470 473 393 473 264 C473 135 429 57 320 57 C213 57 167 135 167 264 C167 393 215 470 320 470 L320 470 Z " />
<glyph glyph-name="p" unicode="p" horiz-adv-x="640" d="M181 244 L181 300 C181 389 242 468 341 468 C456 468 491 383 491 271 C491 132 442 58 342 58 C235 58 181 140 181 244 L181 244 Z M94 527 L94 -188 L184 -188 L184 77 L186 77 C207 30 273 -13 354 -13 C478 -13 582 79 582 271 C582 471 477 540 360 540 C276 540 216 495 183 439 L181 439 L181 527 L94 527 Z " />
<glyph glyph-name="q" unicode="q" horiz-adv-x="640" d="M546 -188 L546 527 L457 527 L457 447 L455 447 C434 496 379 540 295 540 C155 540 57 440 57 260 C57 56 166 -13 282 -13 C368 -13 426 33 452 80 L455 80 L455 -188 L546 -188 Z M298 58 C186 58 149 145 149 264 C149 389 200 468 305 468 C395 468 458 396 458 284 L458 228 C458 132 397 58 298 58 L298 58 Z " />
<glyph glyph-name="r" unicode="r" horiz-adv-x="640" d="M442 453 C497 453 531 442 567 431 L567 516 C542 528 498 537 462 537 C357 537 284 500 245 396 L243 396 L243 527 L158 527 L158 0 L248 0 L248 226 C248 367 314 453 442 453 L442 453 Z " />
<glyph glyph-name="s" unicode="s" horiz-adv-x="640" d="M440 395 L527 395 C519 481 456 540 321 540 C190 540 123 471 123 385 C123 290 178 250 261 237 L348 222 C425 209 450 191 450 143 C450 86 409 57 317 57 C232 57 195 98 188 149 L101 149 C114 31 201 -13 317 -13 C470 -13 538 51 538 152 C538 235 492 280 376 300 L299 313 C239 324 209 344 209 391 C209 440 248 470 320 470 C388 470 431 450 440 395 L440 395 Z " />
<glyph glyph-name="t" unicode="t" horiz-adv-x="640" d="M248 452 L248 147 C248 48 296 -12 425 -12 C477 -12 514 0 543 11 L543 86 C506 73 481 65 431 65 C376 65 337 85 337 154 L337 452 L543 452 L543 527 L337 527 L337 689 L254 689 L254 582 C254 541 240 527 199 527 L57 527 L57 452 L248 452 Z " />
<glyph glyph-name="u" unicode="u" horiz-adv-x="640" d="M197 203 L197 527 L108 527 L108 160 C108 36 176 -13 277 -13 C360 -13 419 36 443 90 L445 90 L445 0 L531 0 L531 527 L441 527 L441 242 C441 125 396 61 297 61 C260 61 233 73 216 96 C197 121 197 164 197 203 L197 203 Z " />
<glyph glyph-name="v" unicode="v" horiz-adv-x="640" d="M71 527 L272 0 L368 0 L569 527 L484 527 L354 178 C346 155 339 135 334 120 C331 111 329 103 326 95 L320 95 C317 103 315 111 312 120 C307 135 300 155 292 178 L162 527 L71 527 Z " />
<glyph glyph-name="w" unicode="w" horiz-adv-x="640" d="M38 527 L135 0 L237 0 L299 295 C304 322 309 351 312 375 C314 389 316 403 317 416 L323 416 C324 403 326 389 328 375 C331 351 334 322 341 295 L403 0 L505 0 L602 527 L519 527 L464 175 C461 160 461 137 458 118 C457 107 456 95 455 83 L449 83 C448 95 446 107 445 118 C442 137 440 160 437 175 L365 527 L278 527 L204 175 C201 160 199 137 196 118 C195 107 193 95 192 83 L186 83 C185 94 185 106 184 117 C183 136 181 159 178 176 L121 527 L38 527 Z " />
<glyph glyph-name="x" unicode="x" horiz-adv-x="640" d="M268 272 L68 0 L163 0 L312 209 L315 209 L465 0 L569 0 L367 276 L551 527 L457 527 L323 339 L319 339 L186 527 L83 527 L268 272 Z " />
<glyph glyph-name="y" unicode="y" horiz-adv-x="640" d="M74 527 L284 0 L273 -28 C244 -105 221 -123 162 -123 C131 -123 105 -118 84 -113 L84 -188 C101 -193 127 -199 167 -199 C264 -199 313 -157 361 -33 L578 527 L487 527 L363 189 C352 162 346 143 341 128 C338 119 336 112 334 105 L330 105 C328 112 326 119 323 127 C318 142 311 162 302 187 L170 527 L74 527 Z " />
<glyph glyph-name="z" unicode="z" horiz-adv-x="640" d="M107 527 L107 454 L433 454 L91 79 L91 0 L545 0 L545 74 L192 74 L537 449 L537 527 L107 527 Z " />
<glyph glyph-name="braceleft" unicode="&#x7b;" horiz-adv-x="640" d="M122 289 L172 289 C233 289 248 268 248 213 L248 45 C248 -89 311 -130 474 -130 L496 -130 L496 -60 C372 -60 333 -43 333 40 L333 206 C333 258 324 315 247 326 L247 330 C324 341 333 398 333 450 L333 616 C333 698 372 718 496 718 L496 788 L474 788 C311 788 248 743 248 610 L248 445 C248 390 233 369 172 369 L122 369 L122 289 Z " />
<glyph glyph-name="bar" unicode="&#x7c;" horiz-adv-x="640" d="M282 788 L282 -130 L357 -130 L357 788 L282 788 Z " />
<glyph glyph-name="braceright" unicode="&#x7d;" horiz-adv-x="640" d="M518 369 L468 369 C406 369 392 389 392 445 L392 613 C392 746 329 788 166 788 L144 788 L144 718 C268 718 307 701 307 618 L307 452 C307 400 316 343 393 332 L393 328 C316 317 307 260 307 208 L307 42 C307 -40 268 -60 144 -60 L144 -130 L166 -130 C329 -130 392 -85 392 48 L392 213 C392 269 406 289 468 289 L518 289 L518 369 Z " />
<glyph glyph-name="asciitilde" unicode="&#x7e;" horiz-adv-x="640" d="M103 292 L174 292 C177 336 200 353 221 353 C260 353 345 294 412 294 C483 294 535 344 535 429 L464 429 C461 385 440 367 417 367 C382 367 292 427 227 427 C156 427 103 377 103 292 L103 292 Z " />
<glyph glyph-name="uni00A0" unicode="&#xa0;" horiz-adv-x="640" d="" />
<glyph glyph-name="exclamdown" unicode="&#xa1;" horiz-adv-x="640" d="M380 -188 L367 363 L294 363 L280 -188 L380 -188 Z M397 600 L263 600 L263 466 L397 466 L397 600 Z " />
<glyph glyph-name="cent" unicode="&#xa2;" horiz-adv-x="640" d="M547 172 L463 172 C460 135 439 72 363 58 L363 471 C422 460 451 415 456 368 L544 368 C536 481 456 531 363 539 L363 635 L301 635 L301 538 C173 522 99 408 99 261 C99 105 169 5 301 -10 L301 -116 L363 -116 L363 -10 C463 1 535 60 547 172 L547 172 Z M301 469 L301 59 C220 76 189 156 189 265 C189 373 228 450 301 469 L301 469 Z " />
<glyph glyph-name="sterling" unicode="&#xa3;" horiz-adv-x="640" d="M573 0 L573 80 L198 80 L198 82 L213 96 C277 158 285 219 263 316 L466 316 L466 387 L244 387 L232 431 C181 616 257 677 353 677 C453 677 482 601 482 529 L574 529 C574 674 486 752 349 752 C213 752 72 647 139 422 L150 387 L70 387 L70 316 L171 316 C203 202 190 162 116 98 L81 69 L81 0 L573 0 Z " />
<glyph glyph-name="currency" unicode="&#xa4;" horiz-adv-x="640" d="M208 347 C208 415 253 467 318 467 C385 467 429 415 429 347 C429 279 385 228 318 228 C253 228 208 279 208 347 L208 347 Z M415 194 L495 113 L552 170 L471 250 C482 266 489 285 493 307 L601 307 L601 387 L493 387 C489 406 482 425 471 444 L555 527 L500 582 L418 498 C401 509 382 518 359 523 L359 630 L279 630 L279 523 C259 519 240 511 221 500 L143 579 L86 522 L165 443 C155 426 148 407 144 387 L38 387 L38 307 L144 307 C148 284 156 267 167 248 L85 167 L140 112 L221 194 C238 183 258 176 279 172 L279 63 L359 63 L359 172 C378 176 396 183 415 194 L415 194 Z " />
<glyph glyph-name="yen" unicode="&#xa5;" horiz-adv-x="640" d="M278 160 L278 0 L362 0 L362 160 L553 160 L553 229 L362 229 L362 322 L551 322 L551 391 L373 391 L583 741 L490 741 L321 451 L319 451 L158 741 L56 741 L264 391 L84 391 L84 322 L278 322 L278 229 L86 229 L86 160 L278 160 Z " />
<glyph glyph-name="brokenbar" unicode="&#xa6;" horiz-adv-x="640" d="M357 387 L357 788 L282 788 L282 387 L357 387 Z M282 -130 L357 -130 L357 308 L282 308 L282 -130 Z " />
<glyph glyph-name="section" unicode="&#xa7;" horiz-adv-x="640" d="M164 365 C164 406 193 439 240 446 C255 438 270 429 287 422 L412 370 C468 347 487 318 487 275 C487 224 463 200 412 188 C401 195 386 203 367 211 L231 269 C180 292 164 318 164 365 L164 365 Z M76 352 C76 262 124 220 216 180 L342 127 C397 104 419 85 419 38 C419 -9 392 -43 309 -43 C229 -43 196 -4 187 65 L100 65 C105 -43 171 -114 306 -114 C441 -114 508 -54 508 46 C508 85 499 112 470 143 L470 146 C527 167 574 210 574 289 C574 356 550 404 439 452 L302 510 C259 527 232 547 232 600 C232 644 263 683 335 683 C410 683 437 641 442 589 L528 589 C521 688 458 752 337 752 C221 752 145 687 145 595 C145 551 154 520 181 493 L181 491 C125 470 76 436 76 352 L76 352 Z " />
<glyph glyph-name="dieresis" unicode="&#xa8;" horiz-adv-x="640" d="M146 755 L146 626 L276 626 L276 755 L146 755 Z M362 626 L491 626 L491 755 L362 755 L362 626 Z " />
<glyph glyph-name="copyright" unicode="&#xa9;" horiz-adv-x="640" d="M50 422 L50 340 C50 129 124 -16 320 -16 C516 -16 590 131 590 340 L590 422 C590 625 517 777 320 777 C123 777 50 626 50 422 L50 422 Z M115 344 L115 418 C115 565 148 722 320 722 C493 722 525 565 525 418 L525 344 C525 189 493 39 320 39 C148 39 115 189 115 344 L115 344 Z M446 311 L375 311 C375 280 368 228 326 228 C275 228 263 274 263 382 C263 490 281 535 324 535 C368 535 375 505 376 461 L445 461 C442 561 391 595 327 595 C235 595 192 538 192 379 C192 219 232 167 325 167 C396 167 439 210 446 311 L446 311 Z " />
<glyph glyph-name="ordfeminine" unicode="&#xaa;" horiz-adv-x="640" d="M278 366 C229 366 204 389 204 434 C204 455 211 475 228 487 C255 506 311 508 406 512 L406 503 C406 403 334 366 278 366 L278 366 Z M407 375 L413 375 C421 319 450 309 505 309 L534 309 L534 376 L516 376 C493 376 484 383 484 412 L484 586 C484 703 425 751 314 751 C209 751 146 697 139 618 L217 618 C222 657 247 688 311 688 C374 688 406 654 406 585 L406 570 C306 566 235 563 188 540 C141 517 120 476 120 429 C120 349 168 301 263 301 C328 301 376 326 407 375 L407 375 Z " />
<glyph glyph-name="guillemotleft" unicode="&#xab;" horiz-adv-x="640" d="M512 464 L424 464 L311 261 L425 57 L516 57 L408 258 L512 464 Z M310 464 L222 464 L109 261 L223 57 L315 57 L206 258 L310 464 Z " />
<glyph glyph-name="logicalnot" unicode="&#xac;" horiz-adv-x="640" d="M469 127 L550 127 L550 397 L90 397 L90 318 L469 318 L469 127 Z " />
<glyph glyph-name="registered" unicode="&#xae;" horiz-adv-x="640" d="M74 527 C74 388 179 280 319 280 C462 280 566 388 566 527 C566 667 462 776 319 776 C179 776 74 667 74 527 L74 527 Z M319 324 C207 324 125 411 125 527 C125 645 207 732 319 732 C432 732 517 645 517 527 C517 411 432 324 319 324 L319 324 Z M323 552 L281 552 L281 625 L324 625 C351 625 367 613 367 590 C367 563 350 552 323 552 L323 552 Z M281 409 L281 511 L313 511 L365 409 L424 409 L367 519 C391 524 421 542 421 590 C421 643 378 664 334 664 L229 664 L229 409 L281 409 Z " />
<glyph glyph-name="macron" unicode="&#xaf;" horiz-adv-x="640" d="M160 719 L160 636 L478 636 L478 719 L160 719 Z " />
<glyph glyph-name="degree" unicode="&#xb0;" horiz-adv-x="640" d="M113 551 C113 433 200 344 319 344 C439 344 526 433 526 551 C526 668 439 758 319 758 C200 758 113 668 113 551 L113 551 Z M319 413 C243 413 191 471 191 551 C191 630 243 690 319 690 C396 690 447 630 447 551 C447 471 396 413 319 413 L319 413 Z " />
<glyph glyph-name="plusminus" unicode="&#xb1;" horiz-adv-x="640" d="M360 157 L360 349 L550 349 L550 426 L360 426 L360 617 L279 617 L279 426 L90 426 L90 349 L279 349 L279 157 L360 157 Z M90 77 L90 0 L550 0 L550 77 L90 77 Z " />
<glyph glyph-name="twosuperior" unicode="&#xb2;" horiz-adv-x="640" d="M133 678 L209 678 C212 766 253 800 316 800 C373 800 412 764 412 711 C412 652 383 617 316 558 L126 387 L126 332 L501 332 L501 402 L238 402 L238 405 C245 410 252 415 259 421 C272 432 290 445 310 462 L376 521 C461 596 492 641 492 713 C492 807 419 863 316 863 C207 863 134 795 133 678 L133 678 Z " />
<glyph glyph-name="threesuperior" unicode="&#xb3;" horiz-adv-x="640" d="M274 565 L322 565 C390 565 428 533 428 477 C428 421 382 386 322 386 C262 386 217 416 209 481 L129 481 C134 397 188 321 317 321 C440 321 507 392 507 474 C507 554 459 589 400 602 L400 604 C459 625 494 661 494 725 C494 803 430 863 321 863 C196 863 138 786 138 704 L218 704 C220 766 254 797 319 797 C375 797 413 767 413 716 C413 665 376 630 320 630 L274 630 L274 565 Z " />
<glyph glyph-name="acute" unicode="&#xb4;" horiz-adv-x="640" d="M305 788 L245 609 L322 609 L440 788 L305 788 Z " />
<glyph glyph-name="paragraph" unicode="&#xb6;" horiz-adv-x="640" d="M522 765 L443 765 L443 0 L522 0 L522 765 Z M283 401 L283 0 L362 0 L362 765 L288 765 C173 765 85 711 85 584 C85 464 167 404 283 401 L283 401 Z " />
<glyph glyph-name="periodcentered" unicode="&#xb7;" horiz-adv-x="640" d="M253 381 L253 247 L387 247 L387 381 L253 381 Z " />
<glyph glyph-name="cedilla" unicode="&#xb8;" horiz-adv-x="640" d="M325 -217 C397 -217 436 -177 436 -125 C436 -69 402 -41 343 -41 L311 -41 L351 46 L299 46 L229 -108 L300 -108 C307 -100 316 -93 331 -93 C354 -93 366 -107 366 -128 C366 -151 353 -163 330 -163 C314 -163 304 -157 299 -146 L222 -146 C231 -194 269 -217 325 -217 L325 -217 Z " />
<glyph glyph-name="onesuperior" unicode="&#xb9;" horiz-adv-x="640" d="M166 332 L499 332 L499 396 L374 396 L374 857 L307 857 C307 820 300 800 281 784 C266 770 240 763 203 763 L169 763 L169 702 L297 702 L297 396 L166 396 L166 332 Z " />
<glyph glyph-name="ordmasculine" unicode="&#xba;" horiz-adv-x="640" d="M319 300 C444 300 522 390 522 526 C522 662 452 751 320 751 C195 751 118 659 118 526 C118 390 188 300 319 300 L319 300 Z M321 365 C237 365 204 425 204 526 C204 626 242 687 319 687 C403 687 436 627 436 526 C436 426 401 365 321 365 L321 365 Z " />
<glyph glyph-name="guillemotright" unicode="&#xbb;" horiz-adv-x="640" d="M128 57 L217 57 L329 261 L216 464 L125 464 L233 263 L128 57 Z M330 57 L418 57 L531 261 L417 464 L327 464 L434 263 L330 57 Z " />
<glyph glyph-name="onequarter" unicode="&#xbc;" horiz-adv-x="1920" d="M1233 780 L665 -40 L747 -40 L1315 780 L1233 780 Z M1555 148 L1374 148 L1517 351 C1528 367 1536 380 1541 390 L1549 406 L1555 405 L1555 148 Z M1627 84 L1711 84 L1711 149 L1627 149 L1627 483 L1532 483 L1295 143 L1295 84 L1552 84 L1552 -40 L1627 -40 L1627 84 Z M166 257 L499 257 L499 321 L374 321 L374 782 L307 782 C307 745 300 725 281 709 C266 695 240 688 203 688 L169 688 L169 627 L297 627 L297 321 L166 321 L166 257 Z " />
<glyph glyph-name="onehalf" unicode="&#xbd;" horiz-adv-x="1920" d="M1203 780 L635 -40 L717 -40 L1285 780 L1203 780 Z M1313 306 L1389 306 C1392 394 1433 428 1496 428 C1553 428 1592 392 1592 339 C1592 280 1563 245 1496 186 L1306 15 L1306 -40 L1681 -40 L1681 30 L1418 30 L1418 33 C1425 38 1432 43 1439 49 C1452 60 1470 73 1490 90 L1556 149 C1641 224 1672 269 1672 341 C1672 435 1599 491 1496 491 C1387 491 1314 423 1313 306 L1313 306 Z M166 257 L499 257 L499 321 L374 321 L374 782 L307 782 C307 745 300 725 281 709 C266 695 240 688 203 688 L169 688 L169 627 L297 627 L297 321 L166 321 L166 257 Z " />
<glyph glyph-name="threequarters" unicode="&#xbe;" horiz-adv-x="1920" d="M1223 780 L655 -40 L737 -40 L1305 780 L1223 780 Z M1555 148 L1374 148 L1517 351 C1528 367 1536 380 1541 390 L1549 406 L1555 405 L1555 148 Z M1627 84 L1711 84 L1711 149 L1627 149 L1627 483 L1532 483 L1295 143 L1295 84 L1552 84 L1552 -40 L1627 -40 L1627 84 Z M274 490 L322 490 C390 490 428 458 428 402 C428 346 382 311 322 311 C262 311 217 341 209 406 L129 406 C134 322 188 246 317 246 C440 246 507 317 507 399 C507 479 459 514 400 527 L400 529 C459 550 494 586 494 650 C494 728 430 788 321 788 C196 788 138 711 138 629 L218 629 C220 691 254 722 319 722 C375 722 413 692 413 641 C413 590 376 555 320 555 L274 555 L274 490 Z " />
<glyph glyph-name="questiondown" unicode="&#xbf;" horiz-adv-x="640" d="M179 10 C179 66 203 104 247 140 L289 177 C351 231 361 241 361 309 L361 373 L279 373 L279 324 C279 275 276 272 236 235 L199 203 C146 158 90 106 90 2 C90 -95 159 -197 316 -197 C461 -197 559 -94 554 61 L469 61 C472 -56 414 -119 314 -119 C231 -119 179 -66 179 10 L179 10 Z M387 600 L253 600 L253 466 L387 466 L387 600 Z " />
<glyph glyph-name="Agrave" unicode="&#xc0;" horiz-adv-x="640" d="M313 676 L321 676 C325 661 329 645 332 630 C339 603 345 571 352 548 L420 303 L213 303 L281 548 C292 591 313 671 313 676 L313 676 Z M441 228 L505 0 L605 0 L380 765 L258 765 L35 0 L129 0 L192 228 L441 228 Z M361 827 L310 960 L175 960 L280 827 L361 827 Z " />
<glyph glyph-name="Aacute" unicode="&#xc1;" horiz-adv-x="640" d="M313 676 L321 676 C325 661 329 645 332 630 C339 603 345 571 352 548 L420 303 L213 303 L281 548 C292 591 313 671 313 676 L313 676 Z M441 228 L505 0 L605 0 L380 765 L258 765 L35 0 L129 0 L192 228 L441 228 Z M335 960 L284 827 L365 827 L470 960 L335 960 Z " />
<glyph glyph-name="Acircumflex" unicode="&#xc2;" horiz-adv-x="640" d="M313 676 L321 676 C325 661 329 645 332 630 C339 603 345 571 352 548 L420 303 L213 303 L281 548 C292 591 313 671 313 676 L313 676 Z M441 228 L505 0 L605 0 L380 765 L258 765 L35 0 L129 0 L192 228 L441 228 Z M474 827 L377 960 L263 960 L166 827 L250 827 L317 893 L320 893 L387 827 L474 827 Z " />
<glyph glyph-name="Atilde" unicode="&#xc3;" horiz-adv-x="640" d="M313 676 L321 676 C325 661 329 645 332 630 C339 603 345 571 352 548 L420 303 L213 303 L281 548 C292 591 313 671 313 676 L313 676 Z M441 228 L505 0 L605 0 L380 765 L258 765 L35 0 L129 0 L192 228 L441 228 Z M138 827 L212 827 C216 868 231 884 254 884 C288 884 331 831 393 831 C462 831 502 887 505 966 L432 966 C428 927 418 909 391 909 C351 909 313 962 249 962 C181 962 141 908 138 827 L138 827 Z " />
<glyph glyph-name="Adieresis" unicode="&#xc4;" horiz-adv-x="640" d="M313 676 L321 676 C325 661 329 645 332 630 C339 603 345 571 352 548 L420 303 L213 303 L281 548 C292 591 313 671 313 676 L313 676 Z M441 228 L505 0 L605 0 L380 765 L258 765 L35 0 L129 0 L192 228 L441 228 Z M362 956 L362 827 L491 827 L491 956 L362 956 Z M146 956 L146 827 L276 827 L276 956 L146 956 Z " />
<glyph glyph-name="Aring" unicode="&#xc5;" horiz-adv-x="640" d="M313 676 L321 676 C325 661 329 645 332 630 C339 603 345 571 352 548 L420 303 L213 303 L281 548 C292 591 313 671 313 676 L313 676 Z M441 228 L505 0 L605 0 L380 765 L258 765 L35 0 L129 0 L192 228 L441 228 Z M316 797 C393 797 446 851 446 924 C446 996 393 1052 316 1052 C240 1052 187 996 187 924 C187 851 240 797 316 797 L316 797 Z M316 998 C357 998 384 965 384 924 C384 881 357 851 316 851 C276 851 249 881 249 924 C249 965 276 998 316 998 L316 998 Z " />
<glyph glyph-name="AE" unicode="&#xc6;" horiz-adv-x="640" d="M319 684 L319 303 L178 303 L299 684 L319 684 Z M81 0 L154 228 L319 228 L319 0 L633 0 L633 81 L406 81 L406 347 L596 347 L596 426 L406 426 L406 684 L628 684 L628 765 L241 765 L-7 0 L81 0 Z " />
<glyph glyph-name="Ccedilla" unicode="&#xc7;" horiz-adv-x="640" d="M327 -219 C399 -219 438 -179 438 -127 C438 -71 404 -43 345 -43 L313 -43 L325 -16 L337 -16 C489 -16 576 94 587 238 L496 238 C488 151 451 60 338 60 C207 60 153 157 153 380 C153 600 207 701 339 701 C444 701 484 613 495 536 L589 536 C573 704 464 776 340 776 C161 776 56 645 56 380 C56 129 135 13 276 -11 L231 -110 L302 -110 C309 -102 318 -95 333 -95 C356 -95 368 -109 368 -130 C368 -153 355 -165 332 -165 C316 -165 306 -159 301 -148 L224 -148 C233 -196 271 -219 327 -219 L327 -219 Z " />
<glyph glyph-name="Egrave" unicode="&#xc8;" horiz-adv-x="640" d="M105 765 L105 0 L569 0 L569 81 L198 81 L198 347 L512 347 L512 426 L198 426 L198 684 L564 684 L564 765 L105 765 Z M390 827 L339 960 L204 960 L309 827 L390 827 Z " />
<glyph glyph-name="Eacute" unicode="&#xc9;" horiz-adv-x="640" d="M105 765 L105 0 L569 0 L569 81 L198 81 L198 347 L512 347 L512 426 L198 426 L198 684 L564 684 L564 765 L105 765 Z M346 960 L295 827 L376 827 L481 960 L346 960 Z " />
<glyph glyph-name="Ecircumflex" unicode="&#xca;" horiz-adv-x="640" d="M105 765 L105 0 L569 0 L569 81 L198 81 L198 347 L512 347 L512 426 L198 426 L198 684 L564 684 L564 765 L105 765 Z M495 827 L398 960 L284 960 L187 827 L271 827 L338 893 L341 893 L408 827 L495 827 Z " />
<glyph glyph-name="Edieresis" unicode="&#xcb;" horiz-adv-x="640" d="M105 765 L105 0 L569 0 L569 81 L198 81 L198 347 L512 347 L512 426 L198 426 L198 684 L564 684 L564 765 L105 765 Z M385 956 L385 827 L514 827 L514 956 L385 956 Z M169 956 L169 827 L299 827 L299 956 L169 956 Z " />
<glyph glyph-name="Igrave" unicode="&#xcc;" horiz-adv-x="640" d="M366 75 L366 690 L540 690 L540 765 L100 765 L100 690 L274 690 L274 75 L100 75 L100 0 L540 0 L540 75 L366 75 Z M361 827 L310 960 L175 960 L280 827 L361 827 Z " />
<glyph glyph-name="Iacute" unicode="&#xcd;" horiz-adv-x="640" d="M366 75 L366 690 L540 690 L540 765 L100 765 L100 690 L274 690 L274 75 L100 75 L100 0 L540 0 L540 75 L366 75 Z M335 960 L284 827 L365 827 L470 960 L335 960 Z " />
<glyph glyph-name="Icircumflex" unicode="&#xce;" horiz-adv-x="640" d="M366 75 L366 690 L540 690 L540 765 L100 765 L100 690 L274 690 L274 75 L100 75 L100 0 L540 0 L540 75 L366 75 Z M474 827 L377 960 L263 960 L166 827 L250 827 L317 893 L320 893 L387 827 L474 827 Z " />
<glyph glyph-name="Idieresis" unicode="&#xcf;" horiz-adv-x="640" d="M366 75 L366 690 L540 690 L540 765 L100 765 L100 690 L274 690 L274 75 L100 75 L100 0 L540 0 L540 75 L366 75 Z M364 956 L364 827 L493 827 L493 956 L364 956 Z M148 956 L148 827 L278 827 L278 956 L148 956 Z " />
<glyph glyph-name="Eth" unicode="&#xd0;" horiz-adv-x="640" d="M77 0 L241 0 C449 0 585 113 585 392 C585 672 439 765 230 765 L77 765 L77 425 L4 425 L4 348 L77 348 L77 0 Z M239 81 L170 81 L170 348 L354 348 L354 425 L170 425 L170 686 L245 686 C399 686 488 602 488 389 C488 164 402 81 239 81 L239 81 Z " />
<glyph glyph-name="Ntilde" unicode="&#xd1;" horiz-adv-x="640" d="M74 765 L74 0 L157 0 L157 655 L162 655 C164 646 167 637 170 627 C177 610 184 588 196 561 L443 0 L566 0 L566 765 L483 765 L483 110 L477 110 C474 119 471 129 468 140 C461 159 453 180 444 203 L197 765 L74 765 Z M157 827 L231 827 C235 868 250 884 273 884 C307 884 350 831 412 831 C481 831 521 887 524 966 L451 966 C447 927 437 909 410 909 C370 909 332 962 268 962 C200 962 160 908 157 827 L157 827 Z " />
<glyph glyph-name="Ograve" unicode="&#xd2;" horiz-adv-x="640" d="M49 380 C49 87 151 -16 319 -16 C483 -16 591 87 591 380 C591 674 486 776 321 776 C161 776 49 674 49 380 L49 380 Z M320 59 C204 59 148 154 148 380 C148 609 204 701 320 701 C436 701 492 616 492 380 C492 151 440 59 320 59 L320 59 Z M361 827 L310 960 L175 960 L280 827 L361 827 Z " />
<glyph glyph-name="Oacute" unicode="&#xd3;" horiz-adv-x="640" d="M49 380 C49 87 151 -16 319 -16 C483 -16 591 87 591 380 C591 674 486 776 321 776 C161 776 49 674 49 380 L49 380 Z M320 59 C204 59 148 154 148 380 C148 609 204 701 320 701 C436 701 492 616 492 380 C492 151 440 59 320 59 L320 59 Z M335 960 L284 827 L365 827 L470 960 L335 960 Z " />
<glyph glyph-name="Ocircumflex" unicode="&#xd4;" horiz-adv-x="640" d="M49 380 C49 87 151 -16 319 -16 C483 -16 591 87 591 380 C591 674 486 776 321 776 C161 776 49 674 49 380 L49 380 Z M320 59 C204 59 148 154 148 380 C148 609 204 701 320 701 C436 701 492 616 492 380 C492 151 440 59 320 59 L320 59 Z M474 827 L377 960 L263 960 L166 827 L250 827 L317 893 L320 893 L387 827 L474 827 Z " />
<glyph glyph-name="Otilde" unicode="&#xd5;" horiz-adv-x="640" d="M49 380 C49 87 151 -16 319 -16 C483 -16 591 87 591 380 C591 674 486 776 321 776 C161 776 49 674 49 380 L49 380 Z M320 59 C204 59 148 154 148 380 C148 609 204 701 320 701 C436 701 492 616 492 380 C492 151 440 59 320 59 L320 59 Z M146 827 L220 827 C224 868 239 884 262 884 C296 884 339 831 401 831 C470 831 510 887 513 966 L440 966 C436 927 426 909 399 909 C359 909 321 962 257 962 C189 962 149 908 146 827 L146 827 Z " />
<glyph glyph-name="Odieresis" unicode="&#xd6;" horiz-adv-x="640" d="M49 380 C49 87 151 -16 319 -16 C483 -16 591 87 591 380 C591 674 486 776 321 776 C161 776 49 674 49 380 L49 380 Z M320 59 C204 59 148 154 148 380 C148 609 204 701 320 701 C436 701 492 616 492 380 C492 151 440 59 320 59 L320 59 Z M364 956 L364 827 L493 827 L493 956 L364 956 Z M148 956 L148 827 L278 827 L278 956 L148 956 Z " />
<glyph glyph-name="multiply" unicode="&#xd7;" horiz-adv-x="640" d="M94 178 L149 123 L318 293 L487 122 L543 178 L373 348 L544 516 L489 571 L321 401 L152 571 L96 515 L265 346 L94 178 Z " />
<glyph glyph-name="Oslash" unicode="&#xd8;" horiz-adv-x="640" d="M320 701 C379 701 421 683 449 636 L162 203 C151 248 146 307 146 380 C146 609 203 701 320 701 L320 701 Z M320 59 C260 59 216 83 189 132 L476 567 C488 520 494 457 494 380 C494 151 440 59 320 59 L320 59 Z M591 380 C591 505 571 593 536 656 L626 793 L553 793 L497 709 C450 756 392 776 321 776 C161 776 49 674 49 380 C49 259 67 172 100 109 L12 -25 L85 -25 L138 55 C185 4 246 -16 319 -16 C483 -16 591 87 591 380 L591 380 Z " />
<glyph glyph-name="Ugrave" unicode="&#xd9;" horiz-adv-x="640" d="M69 765 L69 255 C69 61 169 -15 320 -15 C469 -15 570 63 570 255 L570 765 L479 765 L479 256 C479 139 437 61 321 61 C205 61 162 139 162 256 L162 765 L69 765 Z M369 827 L318 960 L183 960 L288 827 L369 827 Z " />
<glyph glyph-name="Uacute" unicode="&#xda;" horiz-adv-x="640" d="M69 765 L69 255 C69 61 169 -15 320 -15 C469 -15 570 63 570 255 L570 765 L479 765 L479 256 C479 139 437 61 321 61 C205 61 162 139 162 256 L162 765 L69 765 Z M338 960 L287 827 L368 827 L473 960 L338 960 Z " />
<glyph glyph-name="Ucircumflex" unicode="&#xdb;" horiz-adv-x="640" d="M69 765 L69 255 C69 61 169 -15 320 -15 C469 -15 570 63 570 255 L570 765 L479 765 L479 256 C479 139 437 61 321 61 C205 61 162 139 162 256 L162 765 L69 765 Z M477 827 L380 960 L266 960 L169 827 L253 827 L320 893 L323 893 L390 827 L477 827 Z " />
<glyph glyph-name="Udieresis" unicode="&#xdc;" horiz-adv-x="640" d="M69 765 L69 255 C69 61 169 -15 320 -15 C469 -15 570 63 570 255 L570 765 L479 765 L479 256 C479 139 437 61 321 61 C205 61 162 139 162 256 L162 765 L69 765 Z M367 956 L367 827 L496 827 L496 956 L367 956 Z M151 956 L151 827 L281 827 L281 956 L151 956 Z " />
<glyph glyph-name="Yacute" unicode="&#xdd;" horiz-adv-x="640" d="M274 326 L274 0 L366 0 L366 329 L603 765 L509 765 L325 412 L323 412 L140 765 L37 765 L274 326 Z M339 960 L288 827 L369 827 L474 960 L339 960 Z " />
<glyph glyph-name="Thorn" unicode="&#xde;" horiz-adv-x="640" d="M328 249 L321 249 L197 249 L197 528 L324 528 C428 528 472 493 472 390 C472 294 431 252 328 249 L328 249 Z M197 172 L323 172 C474 172 567 242 567 390 C567 539 472 605 331 605 L197 605 L197 765 L104 765 L104 0 L197 0 L197 172 Z " />
<glyph glyph-name="germandbls" unicode="&#xdf;" horiz-adv-x="640" d="M110 565 L110 0 L200 0 L200 560 C200 673 256 711 322 711 C394 711 445 670 445 586 C445 502 400 454 325 454 L305 454 L305 377 L327 377 C428 377 484 317 484 225 C484 121 419 77 327 77 L288 77 L288 0 L325 0 C478 0 575 80 575 225 C575 345 509 405 424 421 L424 423 C496 448 536 509 536 593 C536 717 449 785 322 785 C205 785 110 720 110 565 L110 565 Z " />
<glyph glyph-name="agrave" unicode="&#xe0;" horiz-adv-x="640" d="M177 149 C177 176 187 197 206 212 C241 237 311 246 426 251 L426 239 C426 108 341 64 274 64 C214 64 177 93 177 149 L177 149 Z M427 95 L433 95 C437 28 464 0 543 0 L571 0 L571 73 L553 73 C521 73 512 81 512 113 L512 347 C512 483 433 540 311 540 C182 540 115 468 110 380 L197 380 C200 420 226 470 311 470 C387 470 426 434 426 345 L426 318 C307 314 222 303 166 274 C111 247 87 203 87 144 C87 49 151 -9 258 -9 C338 -9 396 28 427 95 L427 95 Z M287 609 L364 609 L304 788 L169 788 L287 609 Z " />
<glyph glyph-name="aacute" unicode="&#xe1;" horiz-adv-x="640" d="M177 149 C177 176 187 197 206 212 C241 237 311 246 426 251 L426 239 C426 108 341 64 274 64 C214 64 177 93 177 149 L177 149 Z M427 95 L433 95 C437 28 464 0 543 0 L571 0 L571 73 L553 73 C521 73 512 81 512 113 L512 347 C512 483 433 540 311 540 C182 540 115 468 110 380 L197 380 C200 420 226 470 311 470 C387 470 426 434 426 345 L426 318 C307 314 222 303 166 274 C111 247 87 203 87 144 C87 49 151 -9 258 -9 C338 -9 396 28 427 95 L427 95 Z M331 788 L271 609 L348 609 L466 788 L331 788 Z " />
<glyph glyph-name="acircumflex" unicode="&#xe2;" horiz-adv-x="640" d="M177 149 C177 176 187 197 206 212 C241 237 311 246 426 251 L426 239 C426 108 341 64 274 64 C214 64 177 93 177 149 L177 149 Z M427 95 L433 95 C437 28 464 0 543 0 L571 0 L571 73 L553 73 C521 73 512 81 512 113 L512 347 C512 483 433 540 311 540 C182 540 115 468 110 380 L197 380 C200 420 226 470 311 470 C387 470 426 434 426 345 L426 318 C307 314 222 303 166 274 C111 247 87 203 87 144 C87 49 151 -9 258 -9 C338 -9 396 28 427 95 L427 95 Z M483 609 L381 788 L277 788 L175 609 L250 609 L324 713 L325 713 L399 609 L483 609 Z " />
<glyph glyph-name="atilde" unicode="&#xe3;" horiz-adv-x="640" d="M177 149 C177 176 187 197 206 212 C241 237 311 246 426 251 L426 239 C426 108 341 64 274 64 C214 64 177 93 177 149 L177 149 Z M427 95 L433 95 C437 28 464 0 543 0 L571 0 L571 73 L553 73 C521 73 512 81 512 113 L512 347 C512 483 433 540 311 540 C182 540 115 468 110 380 L197 380 C200 420 226 470 311 470 C387 470 426 434 426 345 L426 318 C307 314 222 303 166 274 C111 247 87 203 87 144 C87 49 151 -9 258 -9 C338 -9 396 28 427 95 L427 95 Z M139 619 L213 619 C217 662 233 680 256 680 C291 680 331 624 391 624 C460 624 499 682 502 765 L429 765 C425 724 414 704 387 704 C348 704 311 760 249 760 C181 760 142 704 139 619 L139 619 Z " />
<glyph glyph-name="adieresis" unicode="&#xe4;" horiz-adv-x="640" d="M177 149 C177 176 187 197 206 212 C241 237 311 246 426 251 L426 239 C426 108 341 64 274 64 C214 64 177 93 177 149 L177 149 Z M427 95 L433 95 C437 28 464 0 543 0 L571 0 L571 73 L553 73 C521 73 512 81 512 113 L512 347 C512 483 433 540 311 540 C182 540 115 468 110 380 L197 380 C200 420 226 470 311 470 C387 470 426 434 426 345 L426 318 C307 314 222 303 166 274 C111 247 87 203 87 144 C87 49 151 -9 258 -9 C338 -9 396 28 427 95 L427 95 Z M146 755 L146 626 L276 626 L276 755 L146 755 Z M362 626 L491 626 L491 755 L362 755 L362 626 Z " />
<glyph glyph-name="aring" unicode="&#xe5;" horiz-adv-x="640" d="M177 149 C177 176 187 197 206 212 C241 237 311 246 426 251 L426 239 C426 108 341 64 274 64 C214 64 177 93 177 149 L177 149 Z M427 95 L433 95 C437 28 464 0 543 0 L571 0 L571 73 L553 73 C521 73 512 81 512 113 L512 347 C512 483 433 540 311 540 C182 540 115 468 110 380 L197 380 C200 420 226 470 311 470 C387 470 426 434 426 345 L426 318 C307 314 222 303 166 274 C111 247 87 203 87 144 C87 49 151 -9 258 -9 C338 -9 396 28 427 95 L427 95 Z M191 709 C191 636 244 582 320 582 C397 582 450 636 450 709 C450 781 397 837 320 837 C244 837 191 781 191 709 L191 709 Z M320 636 C280 636 253 666 253 709 C253 750 280 783 320 783 C361 783 388 750 388 709 C388 666 361 636 320 636 L320 636 Z " />
<glyph glyph-name="ae" unicode="&#xe6;" horiz-adv-x="640" d="M523 318 L523 311 L349 311 C350 407 370 468 438 468 C512 468 523 407 523 318 L523 318 Z M174 60 C127 60 103 91 103 152 C103 183 112 207 129 223 C147 241 171 249 265 246 L265 211 C265 115 235 60 174 60 L174 60 Z M603 138 L522 138 C517 106 504 60 444 60 C366 60 350 129 350 245 L609 245 L609 328 C609 444 567 540 451 540 C386 540 340 507 319 460 L315 460 C295 507 259 540 188 540 C79 540 32 467 29 383 L107 383 C110 428 128 469 187 469 C247 469 265 427 265 367 L265 312 C160 312 123 305 84 282 C44 258 14 212 14 147 C14 47 71 -10 156 -10 C239 -10 276 36 300 89 L303 89 C322 32 360 -11 445 -11 C537 -11 592 43 603 138 L603 138 Z " />
<glyph glyph-name="ccedilla" unicode="&#xe7;" horiz-adv-x="640" d="M330 -217 C402 -217 441 -177 441 -125 C441 -69 407 -41 348 -41 L316 -41 L329 -13 L332 -13 C452 -13 544 56 560 172 L469 172 C461 128 425 59 332 59 C221 59 184 139 184 266 C184 389 229 469 332 469 C413 469 456 416 464 368 L557 368 C538 491 445 540 337 540 C180 540 90 431 90 262 C91 107 154 12 279 -9 L234 -108 L305 -108 C312 -100 321 -93 336 -93 C359 -93 371 -107 371 -128 C371 -151 358 -163 335 -163 C319 -163 309 -157 304 -146 L227 -146 C236 -194 274 -217 330 -217 L330 -217 Z " />
<glyph glyph-name="egrave" unicode="&#xe8;" horiz-adv-x="640" d="M465 317 L465 311 L176 311 C187 407 236 471 327 471 C425 471 462 405 465 317 L465 317 Z M548 138 L462 138 C452 107 428 57 334 57 C228 57 179 130 174 239 L557 239 L557 285 C557 418 492 540 328 540 C170 540 83 417 83 261 C83 104 163 -13 331 -13 C448 -13 528 46 548 138 L548 138 Z M295 609 L372 609 L312 788 L177 788 L295 609 Z " />
<glyph glyph-name="eacute" unicode="&#xe9;" horiz-adv-x="640" d="M465 317 L465 311 L176 311 C187 407 236 471 327 471 C425 471 462 405 465 317 L465 317 Z M548 138 L462 138 C452 107 428 57 334 57 C228 57 179 130 174 239 L557 239 L557 285 C557 418 492 540 328 540 C170 540 83 417 83 261 C83 104 163 -13 331 -13 C448 -13 528 46 548 138 L548 138 Z M343 788 L283 609 L360 609 L478 788 L343 788 Z " />
<glyph glyph-name="ecircumflex" unicode="&#xea;" horiz-adv-x="640" d="M465 317 L465 311 L176 311 C187 407 236 471 327 471 C425 471 462 405 465 317 L465 317 Z M548 138 L462 138 C452 107 428 57 334 57 C228 57 179 130 174 239 L557 239 L557 285 C557 418 492 540 328 540 C170 540 83 417 83 261 C83 104 163 -13 331 -13 C448 -13 528 46 548 138 L548 138 Z M489 609 L387 788 L283 788 L181 609 L256 609 L330 713 L331 713 L405 609 L489 609 Z " />
<glyph glyph-name="edieresis" unicode="&#xeb;" horiz-adv-x="640" d="M465 317 L465 311 L176 311 C187 407 236 471 327 471 C425 471 462 405 465 317 L465 317 Z M548 138 L462 138 C452 107 428 57 334 57 C228 57 179 130 174 239 L557 239 L557 285 C557 418 492 540 328 540 C170 540 83 417 83 261 C83 104 163 -13 331 -13 C448 -13 528 46 548 138 L548 138 Z M159 755 L159 626 L289 626 L289 755 L159 755 Z M375 626 L504 626 L504 755 L375 755 L375 626 Z " />
<glyph glyph-name="igrave" unicode="&#xec;" horiz-adv-x="640" d="M92 0 L569 0 L569 75 L372 75 L372 527 L121 527 L121 455 L286 455 L286 75 L92 75 L92 0 Z M285 609 L362 609 L302 788 L167 788 L285 609 Z " />
<glyph glyph-name="iacute" unicode="&#xed;" horiz-adv-x="640" d="M92 0 L569 0 L569 75 L372 75 L372 527 L121 527 L121 455 L286 455 L286 75 L92 75 L92 0 Z M347 788 L287 609 L364 609 L482 788 L347 788 Z " />
<glyph glyph-name="icircumflex" unicode="&#xee;" horiz-adv-x="640" d="M92 0 L569 0 L569 75 L372 75 L372 527 L121 527 L121 455 L286 455 L286 75 L92 75 L92 0 Z M472 609 L370 788 L266 788 L164 609 L239 609 L313 713 L314 713 L388 609 L472 609 Z " />
<glyph glyph-name="idieresis" unicode="&#xef;" horiz-adv-x="640" d="M92 0 L569 0 L569 75 L372 75 L372 527 L121 527 L121 455 L286 455 L286 75 L92 75 L92 0 Z M143 755 L143 626 L273 626 L273 755 L143 755 Z M359 626 L488 626 L488 755 L359 755 L359 626 Z " />
<glyph glyph-name="eth" unicode="&#xf0;" horiz-adv-x="640" d="M319 -13 C478 -13 566 88 566 279 C566 422 509 556 402 667 L500 703 L478 762 L351 715 C318 744 281 769 241 792 L164 763 C200 739 235 712 270 685 L148 640 L169 580 L323 637 C370 592 409 544 434 492 L429 492 C400 521 364 539 307 539 C171 539 74 427 74 264 C74 99 159 -13 319 -13 L319 -13 Z M323 471 C431 471 473 405 473 264 C473 135 426 57 322 57 C214 57 168 135 168 264 C168 393 218 471 323 471 L323 471 Z " />
<glyph glyph-name="ntilde" unicode="&#xf1;" horiz-adv-x="640" d="M444 325 L444 0 L535 0 L535 367 C535 492 468 540 367 540 C284 540 221 491 197 438 L195 438 L195 527 L110 527 L110 0 L201 0 L201 316 C201 402 245 465 343 465 C378 465 407 455 426 430 C445 405 444 364 444 325 L444 325 Z M146 619 L220 619 C224 662 240 680 263 680 C298 680 338 624 398 624 C467 624 506 682 509 765 L436 765 C432 724 421 704 394 704 C355 704 318 760 256 760 C188 760 149 704 146 619 L146 619 Z " />
<glyph glyph-name="ograve" unicode="&#xf2;" horiz-adv-x="640" d="M320 -13 C479 -13 566 88 566 264 C566 439 481 540 320 540 C161 540 74 439 74 264 C74 89 159 -13 320 -13 L320 -13 Z M320 470 C425 470 473 393 473 264 C473 135 429 57 320 57 C213 57 167 135 167 264 C167 393 215 470 320 470 L320 470 Z M282 609 L359 609 L299 788 L164 788 L282 609 Z " />
<glyph glyph-name="oacute" unicode="&#xf3;" horiz-adv-x="640" d="M333 788 L273 609 L350 609 L468 788 L333 788 Z M320 -13 C479 -13 566 88 566 264 C566 439 481 540 320 540 C161 540 74 439 74 264 C74 89 159 -13 320 -13 L320 -13 Z M320 470 C425 470 473 393 473 264 C473 135 429 57 320 57 C213 57 167 135 167 264 C167 393 215 470 320 470 L320 470 Z " />
<glyph glyph-name="ocircumflex" unicode="&#xf4;" horiz-adv-x="640" d="M320 -13 C479 -13 566 88 566 264 C566 439 481 540 320 540 C161 540 74 439 74 264 C74 89 159 -13 320 -13 L320 -13 Z M320 470 C425 470 473 393 473 264 C473 135 429 57 320 57 C213 57 167 135 167 264 C167 393 215 470 320 470 L320 470 Z M478 609 L376 788 L272 788 L170 609 L245 609 L319 713 L320 713 L394 609 L478 609 Z " />
<glyph glyph-name="otilde" unicode="&#xf5;" horiz-adv-x="640" d="M320 -13 C479 -13 566 88 566 264 C566 439 481 540 320 540 C161 540 74 439 74 264 C74 89 159 -13 320 -13 L320 -13 Z M320 470 C425 470 473 393 473 264 C473 135 429 57 320 57 C213 57 167 135 167 264 C167 393 215 470 320 470 L320 470 Z M147 619 L221 619 C225 662 241 680 264 680 C299 680 339 624 399 624 C468 624 507 682 510 765 L437 765 C433 724 422 704 395 704 C356 704 319 760 257 760 C189 760 150 704 147 619 L147 619 Z " />
<glyph glyph-name="odieresis" unicode="&#xf6;" horiz-adv-x="640" d="M320 -13 C479 -13 566 88 566 264 C566 439 481 540 320 540 C161 540 74 439 74 264 C74 89 159 -13 320 -13 L320 -13 Z M320 470 C425 470 473 393 473 264 C473 135 429 57 320 57 C213 57 167 135 167 264 C167 393 215 470 320 470 L320 470 Z M148 755 L148 626 L278 626 L278 755 L148 755 Z M364 626 L493 626 L493 755 L364 755 L364 626 Z " />
<glyph glyph-name="divide" unicode="&#xf7;" horiz-adv-x="640" d="M253 612 L253 478 L387 478 L387 612 L253 612 Z M90 396 L90 319 L550 319 L550 396 L90 396 Z M253 101 L387 101 L387 235 L253 235 L253 101 Z " />
<glyph glyph-name="oslash" unicode="&#xf8;" horiz-adv-x="640" d="M319 471 C364 471 399 460 422 439 L183 142 C171 174 167 213 167 264 C167 393 216 471 319 471 L319 471 Z M321 57 C275 57 240 68 217 89 L456 384 C467 352 471 312 471 264 C471 135 425 57 321 57 L321 57 Z M565 264 C565 341 547 404 512 453 L591 550 L512 550 L469 496 C430 524 381 540 320 540 C167 540 73 428 73 264 C73 187 91 121 127 73 L46 -27 L123 -27 L170 31 C209 3 258 -13 318 -13 C472 -13 565 99 565 264 L565 264 Z " />
<glyph glyph-name="ugrave" unicode="&#xf9;" horiz-adv-x="640" d="M197 203 L197 527 L108 527 L108 160 C108 36 176 -13 277 -13 C360 -13 419 36 443 90 L445 90 L445 0 L531 0 L531 527 L441 527 L441 242 C441 125 396 61 297 61 C260 61 233 73 216 96 C197 121 197 164 197 203 L197 203 Z M287 609 L364 609 L304 788 L169 788 L287 609 Z " />
<glyph glyph-name="uacute" unicode="&#xfa;" horiz-adv-x="640" d="M197 203 L197 527 L108 527 L108 160 C108 36 176 -13 277 -13 C360 -13 419 36 443 90 L445 90 L445 0 L531 0 L531 527 L441 527 L441 242 C441 125 396 61 297 61 C260 61 233 73 216 96 C197 121 197 164 197 203 L197 203 Z M340 788 L280 609 L357 609 L475 788 L340 788 Z " />
<glyph glyph-name="ucircumflex" unicode="&#xfb;" horiz-adv-x="640" d="M197 203 L197 527 L108 527 L108 160 C108 36 176 -13 277 -13 C360 -13 419 36 443 90 L445 90 L445 0 L531 0 L531 527 L441 527 L441 242 C441 125 396 61 297 61 C260 61 233 73 216 96 C197 121 197 164 197 203 L197 203 Z M480 609 L378 788 L274 788 L172 609 L247 609 L321 713 L322 713 L396 609 L480 609 Z " />
<glyph glyph-name="udieresis" unicode="&#xfc;" horiz-adv-x="640" d="M197 203 L197 527 L108 527 L108 160 C108 36 176 -13 277 -13 C360 -13 419 36 443 90 L445 90 L445 0 L531 0 L531 527 L441 527 L441 242 C441 125 396 61 297 61 C260 61 233 73 216 96 C197 121 197 164 197 203 L197 203 Z M150 755 L150 626 L280 626 L280 755 L150 755 Z M366 626 L495 626 L495 755 L366 755 L366 626 Z " />
<glyph glyph-name="yacute" unicode="&#xfd;" horiz-adv-x="640" d="M74 527 L284 0 L273 -28 C244 -105 221 -123 162 -123 C131 -123 105 -118 84 -113 L84 -188 C101 -193 127 -199 167 -199 C264 -199 313 -157 361 -33 L578 527 L487 527 L363 189 C352 162 346 143 341 128 C338 119 336 112 334 105 L330 105 C328 112 326 119 323 127 C318 142 311 162 302 187 L170 527 L74 527 Z M350 788 L290 609 L367 609 L485 788 L350 788 Z " />
<glyph glyph-name="thorn" unicode="&#xfe;" horiz-adv-x="640" d="M181 244 L181 300 C181 389 241 468 340 468 C456 468 491 383 491 271 C491 132 442 58 341 58 C236 58 181 140 181 244 L181 244 Z M95 788 L95 -188 L184 -188 L184 77 L187 77 C205 30 275 -13 353 -13 C478 -13 582 79 582 271 C582 471 476 540 359 540 C279 540 215 497 186 440 L184 440 L184 788 L95 788 Z " />
<glyph glyph-name="ydieresis" unicode="&#xff;" horiz-adv-x="640" d="M74 527 L284 0 L273 -28 C244 -105 221 -123 162 -123 C131 -123 105 -118 84 -113 L84 -188 C101 -193 127 -199 167 -199 C264 -199 313 -157 361 -33 L578 527 L487 527 L363 189 C352 162 346 143 341 128 C338 119 336 112 334 105 L330 105 C328 112 326 119 323 127 C318 142 311 162 302 187 L170 527 L74 527 Z M161 755 L161 626 L291 626 L291 755 L161 755 Z M377 626 L506 626 L506 755 L377 755 L377 626 Z " />
<glyph glyph-name="Amacron" unicode="&#x100;" horiz-adv-x="640" d="M313 676 L321 676 C325 661 329 645 332 630 C339 603 345 571 352 548 L420 303 L213 303 L281 548 C292 591 313 671 313 676 L313 676 Z M441 228 L505 0 L605 0 L380 765 L258 765 L35 0 L129 0 L192 228 L441 228 Z M161 929 L161 846 L479 846 L479 929 L161 929 Z " />
<glyph glyph-name="amacron" unicode="&#x101;" horiz-adv-x="640" d="M177 149 C177 176 187 197 206 212 C241 237 311 246 426 251 L426 239 C426 108 341 64 274 64 C214 64 177 93 177 149 L177 149 Z M427 95 L433 95 C437 28 464 0 543 0 L571 0 L571 73 L553 73 C521 73 512 81 512 113 L512 347 C512 483 433 540 311 540 C182 540 115 468 110 380 L197 380 C200 420 226 470 311 470 C387 470 426 434 426 345 L426 318 C307 314 222 303 166 274 C111 247 87 203 87 144 C87 49 151 -9 258 -9 C338 -9 396 28 427 95 L427 95 Z M157 719 L157 636 L475 636 L475 719 L157 719 Z " />
<glyph glyph-name="Abreve" unicode="&#x102;" horiz-adv-x="640" d="M313 676 L321 676 C325 661 329 645 332 630 C339 603 345 571 352 548 L420 303 L213 303 L281 548 C292 591 313 671 313 676 L313 676 Z M441 228 L505 0 L605 0 L380 765 L258 765 L35 0 L129 0 L192 228 L441 228 Z M244 970 L165 970 C174 871 234 830 319 830 C404 830 465 871 474 970 L400 970 C392 925 362 903 322 903 C282 903 252 925 244 970 L244 970 Z " />
<glyph glyph-name="abreve" unicode="&#x103;" horiz-adv-x="640" d="M177 149 C177 176 187 197 206 212 C241 237 311 246 426 251 L426 239 C426 108 341 64 274 64 C214 64 177 93 177 149 L177 149 Z M427 95 L433 95 C437 28 464 0 543 0 L571 0 L571 73 L553 73 C521 73 512 81 512 113 L512 347 C512 483 433 540 311 540 C182 540 115 468 110 380 L197 380 C200 420 226 470 311 470 C387 470 426 434 426 345 L426 318 C307 314 222 303 166 274 C111 247 87 203 87 144 C87 49 151 -9 258 -9 C338 -9 396 28 427 95 L427 95 Z M248 788 L170 788 C170 673 239 624 325 624 C413 624 481 673 481 788 L408 788 C408 727 375 697 328 697 C281 697 248 727 248 788 L248 788 Z " />
<glyph glyph-name="Aogonek" unicode="&#x104;" horiz-adv-x="640" d="M313 676 L321 676 C325 661 329 645 332 630 C339 603 345 571 352 548 L420 303 L213 303 L281 548 C292 591 313 671 313 676 L313 676 Z M605 -187 L605 -117 C558 -117 541 -103 541 -72 C541 -45 569 -21 605 0 L380 765 L258 765 L35 0 L129 0 L192 228 L441 228 L505 0 L530 0 C481 -27 461 -54 461 -94 C461 -153 507 -187 587 -187 L605 -187 Z " />
<glyph glyph-name="aogonek" unicode="&#x105;" horiz-adv-x="640" d="M572 -188 L572 -118 C527 -117 509 -105 509 -77 C509 -46 534 -23 571 0 L571 73 L553 73 C521 73 512 81 512 113 L512 347 C512 483 433 540 311 540 C182 540 115 468 110 380 L197 380 C200 420 226 470 311 470 C387 470 426 434 426 345 L426 318 C307 314 222 303 166 274 C111 247 87 203 87 144 C87 49 151 -9 259 -9 C339 -9 396 28 427 95 L433 95 C436 43 452 14 503 5 L503 0 C448 -23 428 -59 428 -95 C428 -155 474 -188 554 -188 L572 -188 Z M177 149 C177 176 187 197 206 212 C241 237 311 246 426 251 L426 239 C426 108 341 64 274 64 C214 64 177 93 177 149 L177 149 Z " />
<glyph glyph-name="Cacute" unicode="&#x106;" horiz-adv-x="640" d="M495 536 L589 536 C573 704 464 776 340 776 C161 776 56 645 56 380 C56 96 157 -16 337 -16 C489 -16 576 94 587 238 L496 238 C488 151 451 60 338 60 C207 60 153 157 153 380 C153 600 207 701 339 701 C444 701 484 613 495 536 L495 536 Z M351 960 L300 827 L381 827 L486 960 L351 960 Z " />
<glyph glyph-name="cacute" unicode="&#x107;" horiz-adv-x="640" d="M464 368 L557 368 C538 491 445 540 337 540 C180 540 90 431 90 262 C91 87 172 -13 332 -13 C452 -13 544 56 560 172 L469 172 C461 128 425 59 332 59 C221 59 184 139 184 266 C184 389 229 469 332 469 C413 469 456 416 464 368 L464 368 Z M352 788 L292 609 L369 609 L487 788 L352 788 Z " />
<glyph glyph-name="Ccircumflex" unicode="&#x108;" horiz-adv-x="640" d="M495 536 L589 536 C573 704 464 776 340 776 C161 776 56 645 56 380 C56 96 157 -16 337 -16 C489 -16 576 94 587 238 L496 238 C488 151 451 60 338 60 C207 60 153 157 153 380 C153 600 207 701 339 701 C444 701 484 613 495 536 L495 536 Z M491 827 L394 960 L280 960 L183 827 L267 827 L334 893 L337 893 L404 827 L491 827 Z " />
<glyph glyph-name="ccircumflex" unicode="&#x109;" horiz-adv-x="640" d="M464 368 L557 368 C538 491 445 540 337 540 C180 540 90 431 90 262 C91 87 172 -13 332 -13 C452 -13 544 56 560 172 L469 172 C461 128 425 59 332 59 C221 59 184 139 184 266 C184 389 229 469 332 469 C413 469 456 416 464 368 L464 368 Z M490 609 L388 788 L284 788 L182 609 L257 609 L331 713 L332 713 L406 609 L490 609 Z " />
<glyph glyph-name="Cdotaccent" unicode="&#x10a;" horiz-adv-x="640" d="M495 536 L589 536 C573 704 464 776 340 776 C161 776 56 645 56 380 C56 96 157 -16 337 -16 C489 -16 576 94 587 238 L496 238 C488 151 451 60 338 60 C207 60 153 157 153 380 C153 600 207 701 339 701 C444 701 484 613 495 536 L495 536 Z M272 956 L272 827 L402 827 L402 956 L272 956 Z " />
<glyph glyph-name="cdotaccent" unicode="&#x10b;" horiz-adv-x="640" d="M464 368 L557 368 C538 491 445 540 337 540 C180 540 90 431 90 262 C91 87 172 -13 332 -13 C452 -13 544 56 560 172 L469 172 C461 128 425 59 332 59 C221 59 184 139 184 266 C184 389 229 469 332 469 C413 469 456 416 464 368 L464 368 Z M265 760 L265 626 L399 626 L399 760 L265 760 Z " />
<glyph glyph-name="Ccaron" unicode="&#x10c;" horiz-adv-x="640" d="M495 536 L589 536 C573 704 464 776 340 776 C161 776 56 645 56 380 C56 96 157 -16 337 -16 C489 -16 576 94 587 238 L496 238 C488 151 451 60 338 60 C207 60 153 157 153 380 C153 600 207 701 339 701 C444 701 484 613 495 536 L495 536 Z M184 960 L281 827 L395 827 L492 960 L408 960 L341 894 L338 894 L271 960 L184 960 Z " />
<glyph glyph-name="ccaron" unicode="&#x10d;" horiz-adv-x="640" d="M464 368 L557 368 C538 491 445 540 337 540 C180 540 90 431 90 262 C91 87 172 -13 332 -13 C452 -13 544 56 560 172 L469 172 C461 128 425 59 332 59 C221 59 184 139 184 266 C184 389 229 469 332 469 C413 469 456 416 464 368 L464 368 Z M180 788 L282 609 L386 609 L488 788 L411 788 L337 684 L336 684 L262 788 L180 788 Z " />
<glyph glyph-name="Dcaron" unicode="&#x10e;" horiz-adv-x="640" d="M75 765 L75 0 L251 0 C459 0 595 113 595 392 C595 672 449 765 240 765 L75 765 Z M249 81 L168 81 L168 686 L255 686 C409 686 498 602 498 389 C498 164 412 81 249 81 L249 81 Z M148 960 L245 827 L359 827 L456 960 L372 960 L305 894 L302 894 L235 960 L148 960 Z " />
<glyph glyph-name="dcaron" unicode="&#x10f;" horiz-adv-x="640" d="M426 284 L426 228 C426 132 369 58 273 58 C176 58 134 145 134 264 C134 389 185 468 282 468 C369 468 426 397 426 284 L426 284 Z M514 0 L514 788 L423 788 L423 457 L421 457 C394 505 347 540 271 540 C140 540 42 440 42 260 C42 57 149 -13 260 -13 C347 -13 397 31 424 84 L428 84 L428 0 L514 0 Z M592 788 L568 584 L624 584 L701 788 L592 788 Z " />
<glyph glyph-name="Dcroat" unicode="&#x110;" horiz-adv-x="640" d="M77 0 L241 0 C449 0 585 113 585 392 C585 672 439 765 230 765 L77 765 L77 425 L4 425 L4 348 L77 348 L77 0 Z M239 81 L170 81 L170 348 L354 348 L354 425 L170 425 L170 686 L245 686 C399 686 488 602 488 389 C488 164 402 81 239 81 L239 81 Z " />
<glyph glyph-name="dcroat" unicode="&#x111;" horiz-adv-x="640" d="M458 284 L458 228 C458 132 397 58 298 58 C186 58 149 145 149 264 C149 389 199 468 307 468 C398 468 458 397 458 284 L458 284 Z M456 84 L460 84 L460 0 L546 0 L546 621 L622 621 L622 686 L546 686 L546 788 L455 788 L455 686 L287 686 L287 621 L455 621 L455 457 L453 457 C426 500 372 540 293 540 C156 540 57 440 57 260 C57 57 166 -13 282 -13 C366 -13 429 31 456 84 L456 84 Z " />
<glyph glyph-name="Emacron" unicode="&#x112;" horiz-adv-x="640" d="M105 765 L105 0 L569 0 L569 81 L198 81 L198 347 L512 347 L512 426 L198 426 L198 684 L564 684 L564 765 L105 765 Z M182 929 L182 846 L500 846 L500 929 L182 929 Z " />
<glyph glyph-name="emacron" unicode="&#x113;" horiz-adv-x="640" d="M465 317 L465 311 L176 311 C187 407 236 471 327 471 C425 471 462 405 465 317 L465 317 Z M548 138 L462 138 C452 107 428 57 334 57 C228 57 179 130 174 239 L557 239 L557 285 C557 418 492 540 328 540 C170 540 83 417 83 261 C83 104 163 -13 331 -13 C448 -13 528 46 548 138 L548 138 Z M172 719 L172 636 L490 636 L490 719 L172 719 Z " />
<glyph glyph-name="Ebreve" unicode="&#x114;" horiz-adv-x="640" d="M105 765 L105 0 L569 0 L569 81 L198 81 L198 347 L512 347 L512 426 L198 426 L198 684 L564 684 L564 765 L105 765 Z M265 970 L186 970 C195 871 255 830 340 830 C425 830 486 871 495 970 L421 970 C413 925 383 903 343 903 C303 903 273 925 265 970 L265 970 Z " />
<glyph glyph-name="ebreve" unicode="&#x115;" horiz-adv-x="640" d="M465 317 L465 311 L176 311 C187 407 236 471 327 471 C425 471 462 405 465 317 L465 317 Z M548 138 L462 138 C452 107 428 57 334 57 C228 57 179 130 174 239 L557 239 L557 285 C557 418 492 540 328 540 C170 540 83 417 83 261 C83 104 163 -13 331 -13 C448 -13 528 46 548 138 L548 138 Z M254 788 L176 788 C176 673 245 624 331 624 C419 624 487 673 487 788 L414 788 C414 727 381 697 334 697 C287 697 254 727 254 788 L254 788 Z " />
<glyph glyph-name="Edotaccent" unicode="&#x116;" horiz-adv-x="640" d="M105 765 L105 0 L569 0 L569 81 L198 81 L198 347 L512 347 L512 426 L198 426 L198 684 L564 684 L564 765 L105 765 Z M276 956 L276 827 L406 827 L406 956 L276 956 Z " />
<glyph glyph-name="edotaccent" unicode="&#x117;" horiz-adv-x="640" d="M465 317 L465 311 L176 311 C187 407 236 471 327 471 C425 471 462 405 465 317 L465 317 Z M548 138 L462 138 C452 107 428 57 334 57 C228 57 179 130 174 239 L557 239 L557 285 C557 418 492 540 328 540 C170 540 83 417 83 261 C83 104 163 -13 331 -13 C448 -13 528 46 548 138 L548 138 Z M264 760 L264 626 L398 626 L398 760 L264 760 Z " />
<glyph glyph-name="Eogonek" unicode="&#x118;" horiz-adv-x="640" d="M541 -188 L541 -118 C494 -118 477 -104 477 -73 C477 -46 504 -21 541 0 L569 0 L569 81 L198 81 L198 347 L512 347 L512 426 L198 426 L198 684 L564 684 L564 765 L105 765 L105 0 L468 0 C417 -27 397 -54 397 -95 C397 -154 443 -188 523 -188 L541 -188 Z " />
<glyph glyph-name="eogonek" unicode="&#x119;" horiz-adv-x="640" d="M465 317 L465 311 L176 311 C187 407 236 471 327 471 C425 471 462 405 465 317 L465 317 Z M468 -188 L468 -118 C423 -118 407 -104 407 -73 C407 -40 428 -11 477 29 C518 64 537 93 548 138 L462 138 C452 107 428 57 334 57 C228 57 179 130 174 239 L557 239 L557 285 C557 418 492 540 328 540 C170 540 83 417 83 261 C83 104 163 -13 331 -13 C355 -13 365 -11 388 -7 L388 -11 C343 -36 324 -60 324 -97 C324 -149 370 -188 450 -188 L468 -188 Z " />
<glyph glyph-name="Ecaron" unicode="&#x11a;" horiz-adv-x="640" d="M105 765 L105 0 L569 0 L569 81 L198 81 L198 347 L512 347 L512 426 L198 426 L198 684 L564 684 L564 765 L105 765 Z M188 960 L285 827 L399 827 L496 960 L412 960 L345 894 L342 894 L275 960 L188 960 Z " />
<glyph glyph-name="ecaron" unicode="&#x11b;" horiz-adv-x="640" d="M465 317 L465 311 L176 311 C187 407 236 471 327 471 C425 471 462 405 465 317 L465 317 Z M548 138 L462 138 C452 107 428 57 334 57 C228 57 179 130 174 239 L557 239 L557 285 C557 418 492 540 328 540 C170 540 83 417 83 261 C83 104 163 -13 331 -13 C448 -13 528 46 548 138 L548 138 Z M179 788 L281 609 L385 609 L487 788 L410 788 L336 684 L335 684 L261 788 L179 788 Z " />
<glyph glyph-name="Gcircumflex" unicode="&#x11c;" horiz-adv-x="640" d="M335 701 C427 701 477 634 485 562 L579 562 C571 682 476 776 336 776 C157 776 53 647 53 379 C53 94 151 -15 316 -15 C415 -15 472 38 499 92 L503 92 L503 0 L584 0 L584 386 L317 386 L317 310 L499 310 L499 247 C499 172 461 58 330 58 C202 58 150 164 150 380 C150 583 196 701 335 701 L335 701 Z M486 827 L389 960 L275 960 L178 827 L262 827 L329 893 L332 893 L399 827 L486 827 Z " />
<glyph glyph-name="gcircumflex" unicode="&#x11d;" horiz-adv-x="640" d="M464 292 L464 239 C464 149 400 75 309 75 C189 75 156 155 156 271 C156 390 202 469 305 469 C402 469 464 397 464 292 L464 292 Z M301 -199 C448 -199 551 -135 551 13 L551 527 L465 527 L465 444 L462 444 C438 493 388 540 296 540 C160 540 64 445 64 271 C64 76 171 4 284 4 C367 4 432 52 461 104 L462 104 L462 26 C462 -90 408 -127 303 -127 C211 -127 175 -98 164 -53 L77 -53 C90 -162 200 -199 301 -199 L301 -199 Z M479 609 L377 788 L273 788 L171 609 L246 609 L320 713 L321 713 L395 609 L479 609 Z " />
<glyph glyph-name="Gbreve" unicode="&#x11e;" horiz-adv-x="640" d="M335 701 C427 701 477 634 485 562 L579 562 C571 682 476 776 336 776 C157 776 53 647 53 379 C53 94 151 -15 316 -15 C415 -15 472 38 499 92 L503 92 L503 0 L584 0 L584 386 L317 386 L317 310 L499 310 L499 247 C499 172 461 58 330 58 C202 58 150 164 150 380 C150 583 196 701 335 701 L335 701 Z M256 970 L177 970 C186 871 246 830 331 830 C416 830 477 871 486 970 L412 970 C404 925 374 903 334 903 C294 903 264 925 256 970 L256 970 Z " />
<glyph glyph-name="gbreve" unicode="&#x11f;" horiz-adv-x="640" d="M464 292 L464 239 C464 149 400 75 309 75 C189 75 156 155 156 271 C156 390 202 469 305 469 C402 469 464 397 464 292 L464 292 Z M301 -199 C448 -199 551 -135 551 13 L551 527 L465 527 L465 444 L462 444 C438 493 388 540 296 540 C160 540 64 445 64 271 C64 76 171 4 284 4 C367 4 432 52 461 104 L462 104 L462 26 C462 -90 408 -127 303 -127 C211 -127 175 -98 164 -53 L77 -53 C90 -162 200 -199 301 -199 L301 -199 Z M245 788 L167 788 C167 673 236 624 322 624 C410 624 478 673 478 788 L405 788 C405 727 372 697 325 697 C278 697 245 727 245 788 L245 788 Z " />
<glyph glyph-name="Gdotaccent" unicode="&#x120;" horiz-adv-x="640" d="M335 701 C427 701 477 634 485 562 L579 562 C571 682 476 776 336 776 C157 776 53 647 53 379 C53 94 151 -15 316 -15 C415 -15 472 38 499 92 L503 92 L503 0 L584 0 L584 386 L317 386 L317 310 L499 310 L499 247 C499 172 461 58 330 58 C202 58 150 164 150 380 C150 583 196 701 335 701 L335 701 Z M267 956 L267 827 L397 827 L397 956 L267 956 Z " />
<glyph glyph-name="gdotaccent" unicode="&#x121;" horiz-adv-x="640" d="M464 292 L464 239 C464 149 400 75 309 75 C189 75 156 155 156 271 C156 390 202 469 305 469 C402 469 464 397 464 292 L464 292 Z M301 -199 C448 -199 551 -135 551 13 L551 527 L465 527 L465 444 L462 444 C438 493 388 540 296 540 C160 540 64 445 64 271 C64 76 171 4 284 4 C367 4 432 52 461 104 L462 104 L462 26 C462 -90 408 -127 303 -127 C211 -127 175 -98 164 -53 L77 -53 C90 -162 200 -199 301 -199 L301 -199 Z M256 760 L256 626 L390 626 L390 760 L256 760 Z " />
<glyph glyph-name="Gcommaaccent" unicode="&#x122;" horiz-adv-x="640" d="M335 701 C427 701 477 634 485 562 L579 562 C571 682 476 776 336 776 C157 776 53 647 53 379 C53 94 151 -15 316 -15 C415 -15 472 38 499 92 L503 92 L503 0 L584 0 L584 386 L317 386 L317 310 L499 310 L499 247 C499 172 461 58 330 58 C202 58 150 164 150 380 C150 583 196 701 335 701 L335 701 Z M260 -53 L228 -202 L305 -202 L395 -53 L260 -53 Z " />
<glyph glyph-name="gcommaaccent" unicode="&#x123;" horiz-adv-x="640" d="M464 292 L464 239 C464 149 400 75 309 75 C189 75 156 155 156 271 C156 390 202 469 305 469 C402 469 464 397 464 292 L464 292 Z M301 -199 C448 -199 551 -135 551 13 L551 527 L465 527 L465 444 L462 444 C438 493 388 540 296 540 C160 540 64 445 64 271 C64 76 171 4 284 4 C367 4 432 52 461 104 L462 104 L462 26 C462 -90 408 -127 303 -127 C211 -127 175 -98 164 -53 L77 -53 C90 -162 200 -199 301 -199 L301 -199 Z M388 609 L426 774 L349 774 L253 609 L388 609 Z " />
<glyph glyph-name="Hcircumflex" unicode="&#x124;" horiz-adv-x="640" d="M168 0 L168 346 L472 346 L472 0 L565 0 L565 765 L472 765 L472 425 L168 425 L168 765 L75 765 L75 0 L168 0 Z M474 827 L377 960 L263 960 L166 827 L250 827 L317 893 L320 893 L387 827 L474 827 Z " />
<glyph glyph-name="hcircumflex" unicode="&#x125;" horiz-adv-x="640" d="M444 0 L535 0 L535 367 C535 492 468 540 367 540 C281 540 226 490 202 440 L201 440 L201 788 L110 788 L110 0 L201 0 L201 316 C201 402 245 465 343 465 C378 465 407 455 426 430 C445 405 444 365 444 326 L444 0 Z M486 827 L389 960 L275 960 L178 827 L262 827 L329 893 L332 893 L399 827 L486 827 Z " />
<glyph glyph-name="Hbar" unicode="&#x126;" horiz-adv-x="640" d="M472 425 L168 425 L168 564 L472 564 L472 425 Z M168 0 L168 346 L472 346 L472 0 L565 0 L565 564 L620 564 L620 635 L565 635 L565 765 L472 765 L472 635 L168 635 L168 765 L75 765 L75 635 L20 635 L20 564 L75 564 L75 0 L168 0 Z " />
<glyph glyph-name="hbar" unicode="&#x127;" horiz-adv-x="640" d="M201 0 L201 316 C201 402 245 465 343 465 C378 465 407 455 426 430 C445 405 444 365 444 326 L444 0 L535 0 L535 367 C535 492 468 540 367 540 C281 540 226 490 202 440 L201 440 L201 621 L369 621 L369 686 L201 686 L201 788 L110 788 L110 686 L34 686 L34 621 L110 621 L110 0 L201 0 Z " />
<glyph glyph-name="Itilde" unicode="&#x128;" horiz-adv-x="640" d="M366 75 L366 690 L540 690 L540 765 L100 765 L100 690 L274 690 L274 75 L100 75 L100 0 L540 0 L540 75 L366 75 Z M146 827 L220 827 C224 868 239 884 262 884 C296 884 339 831 401 831 C470 831 510 887 513 966 L440 966 C436 927 426 909 399 909 C359 909 321 962 257 962 C189 962 149 908 146 827 L146 827 Z " />
<glyph glyph-name="itilde" unicode="&#x129;" horiz-adv-x="640" d="M92 0 L569 0 L569 75 L372 75 L372 527 L121 527 L121 455 L286 455 L286 75 L92 75 L92 0 Z M132 619 L206 619 C210 662 226 680 249 680 C284 680 324 624 384 624 C453 624 492 682 495 765 L422 765 C418 724 407 704 380 704 C341 704 304 760 242 760 C174 760 135 704 132 619 L132 619 Z " />
<glyph glyph-name="Imacron" unicode="&#x12a;" horiz-adv-x="640" d="M366 75 L366 690 L540 690 L540 765 L100 765 L100 690 L274 690 L274 75 L100 75 L100 0 L540 0 L540 75 L366 75 Z M161 929 L161 846 L479 846 L479 929 L161 929 Z " />
<glyph glyph-name="imacron" unicode="&#x12b;" horiz-adv-x="640" d="M92 0 L569 0 L569 75 L372 75 L372 527 L121 527 L121 455 L286 455 L286 75 L92 75 L92 0 Z M153 719 L153 636 L471 636 L471 719 L153 719 Z " />
<glyph glyph-name="Ibreve" unicode="&#x12c;" horiz-adv-x="640" d="M366 75 L366 690 L540 690 L540 765 L100 765 L100 690 L274 690 L274 75 L100 75 L100 0 L540 0 L540 75 L366 75 Z M244 970 L165 970 C174 871 234 830 319 830 C404 830 465 871 474 970 L400 970 C392 925 362 903 322 903 C282 903 252 925 244 970 L244 970 Z " />
<glyph glyph-name="ibreve" unicode="&#x12d;" horiz-adv-x="640" d="M92 0 L569 0 L569 75 L372 75 L372 527 L121 527 L121 455 L286 455 L286 75 L92 75 L92 0 Z M234 788 L156 788 C156 673 225 624 311 624 C399 624 467 673 467 788 L394 788 C394 727 361 697 314 697 C267 697 234 727 234 788 L234 788 Z " />
<glyph glyph-name="Iogonek" unicode="&#x12e;" horiz-adv-x="640" d="M503 -188 L503 -118 C456 -118 439 -104 439 -73 C439 -46 466 -21 503 0 L540 0 L540 75 L366 75 L366 690 L540 690 L540 765 L100 765 L100 690 L274 690 L274 75 L100 75 L100 0 L430 0 C379 -27 359 -54 359 -95 C359 -154 405 -188 485 -188 L503 -188 Z " />
<glyph glyph-name="iogonek" unicode="&#x12f;" horiz-adv-x="640" d="M255 760 L255 626 L389 626 L389 760 L255 760 Z M531 -188 L531 -118 C484 -118 467 -104 467 -73 C467 -46 494 -21 531 0 L569 0 L569 75 L372 75 L372 527 L121 527 L121 455 L286 455 L286 75 L92 75 L92 0 L458 0 C407 -27 387 -54 387 -95 C387 -154 433 -188 513 -188 L531 -188 Z " />
<glyph glyph-name="Idotaccent" unicode="&#x130;" horiz-adv-x="640" d="M366 75 L366 690 L540 690 L540 765 L100 765 L100 690 L274 690 L274 75 L100 75 L100 0 L540 0 L540 75 L366 75 Z M255 956 L255 827 L385 827 L385 956 L255 956 Z " />
<glyph glyph-name="dotlessi" unicode="&#x131;" horiz-adv-x="640" d="M92 0 L569 0 L569 75 L372 75 L372 527 L121 527 L121 455 L286 455 L286 75 L92 75 L92 0 Z " />
<glyph glyph-name="IJ" unicode="&#x132;" horiz-adv-x="1280" d="M366 75 L366 690 L540 690 L540 765 L100 765 L100 690 L274 690 L274 75 L100 75 L100 0 L540 0 L540 75 L366 75 Z M904 -10 C1048 -10 1146 68 1146 212 L1146 765 L793 765 L793 686 L1053 686 L1053 218 C1053 129 1008 73 903 73 C835 73 783 83 747 92 L747 8 C787 -1 832 -10 904 -10 L904 -10 Z " />
<glyph glyph-name="ij" unicode="&#x133;" horiz-adv-x="1280" d="M255 760 L255 626 L389 626 L389 760 L255 760 Z M92 0 L569 0 L569 75 L372 75 L372 527 L121 527 L121 455 L286 455 L286 75 L92 75 L92 0 Z M955 626 L1089 626 L1089 760 L955 760 L955 626 Z M890 -199 C995 -199 1072 -139 1072 -27 L1072 527 L778 527 L778 453 L986 453 L986 -17 C986 -82 953 -122 881 -122 C834 -122 807 -114 778 -107 L778 -185 C809 -192 838 -199 890 -199 L890 -199 Z " />
<glyph glyph-name="Jcircumflex" unicode="&#x134;" horiz-adv-x="640" d="M264 -11 C408 -11 506 67 506 211 L506 764 L153 764 L153 685 L413 685 L413 217 C413 128 368 72 263 72 C195 72 143 82 107 91 L107 7 C147 -2 192 -11 264 -11 L264 -11 Z M494 827 L397 960 L283 960 L186 827 L270 827 L337 893 L340 893 L407 827 L494 827 Z " />
<glyph glyph-name="jcircumflex" unicode="&#x135;" horiz-adv-x="640" d="M250 -199 C355 -199 432 -139 432 -27 L432 527 L138 527 L138 453 L345 453 L345 -17 C345 -82 313 -122 241 -122 C194 -122 167 -114 138 -107 L138 -185 C169 -192 198 -199 250 -199 L250 -199 Z M531 609 L429 788 L325 788 L223 609 L298 609 L372 713 L373 713 L447 609 L531 609 Z " />
<glyph glyph-name="Kcommaaccent" unicode="&#x136;" horiz-adv-x="640" d="M187 0 L187 276 L263 369 L495 0 L605 0 L327 442 L589 765 L485 765 L187 396 L187 765 L95 765 L95 0 L187 0 Z M263 -53 L231 -202 L308 -202 L398 -53 L263 -53 Z " />
<glyph glyph-name="kcommaaccent" unicode="&#x137;" horiz-adv-x="640" d="M212 0 L212 160 L304 259 L477 0 L584 0 L365 322 L556 527 L450 527 L212 264 L212 788 L126 788 L126 0 L212 0 Z M273 -53 L241 -202 L318 -202 L408 -53 L273 -53 Z " />
<glyph glyph-name="kgreenlandic" unicode="&#x138;" horiz-adv-x="640" d="M216 0 L216 161 L306 256 L477 0 L584 0 L365 322 L556 527 L450 527 L216 268 L216 527 L126 527 L126 0 L216 0 Z " />
<glyph glyph-name="Lacute" unicode="&#x139;" horiz-adv-x="640" d="M125 765 L125 0 L598 0 L598 81 L218 81 L218 765 L125 765 Z M185 960 L134 827 L215 827 L320 960 L185 960 Z " />
<glyph glyph-name="lacute" unicode="&#x13a;" horiz-adv-x="640" d="M92 0 L569 0 L569 75 L373 75 L373 788 L111 788 L111 716 L284 716 L284 75 L92 75 L92 0 Z M345 960 L294 827 L375 827 L480 960 L345 960 Z " />
<glyph glyph-name="Lcommaaccent" unicode="&#x13b;" horiz-adv-x="640" d="M125 765 L125 0 L598 0 L598 81 L218 81 L218 765 L125 765 Z M292 -53 L260 -202 L337 -202 L427 -53 L292 -53 Z " />
<glyph glyph-name="lcommaaccent" unicode="&#x13c;" horiz-adv-x="640" d="M92 0 L569 0 L569 75 L373 75 L373 788 L111 788 L111 716 L284 716 L284 75 L92 75 L92 0 Z M263 -53 L231 -202 L308 -202 L398 -53 L263 -53 Z " />
<glyph glyph-name="Lcaron" unicode="&#x13d;" horiz-adv-x="640" d="M125 765 L125 0 L598 0 L598 81 L218 81 L218 765 L125 765 Z M343 788 L319 584 L375 584 L452 788 L343 788 Z " />
<glyph glyph-name="lcaron" unicode="&#x13e;" horiz-adv-x="640" d="M92 0 L569 0 L569 75 L373 75 L373 788 L111 788 L111 716 L284 716 L284 75 L92 75 L92 0 Z M481 788 L457 584 L513 584 L590 788 L481 788 Z " />
<glyph glyph-name="Ldot" unicode="&#x13f;" horiz-adv-x="640" d="M424 463 L424 329 L558 329 L558 463 L424 463 Z M125 765 L125 0 L598 0 L598 81 L218 81 L218 765 L125 765 Z " />
<glyph glyph-name="ldot" unicode="&#x140;" horiz-adv-x="640" d="M92 0 L569 0 L569 75 L373 75 L373 788 L111 788 L111 716 L284 716 L284 75 L92 75 L92 0 Z M592 452 L592 341 L703 341 L703 452 L592 452 Z " />
<glyph glyph-name="Lslash" unicode="&#x141;" horiz-adv-x="640" d="M130 0 L603 0 L603 81 L223 81 L223 325 L475 424 L475 507 L223 408 L223 765 L130 765 L130 371 L54 341 L54 258 L130 288 L130 0 Z " />
<glyph glyph-name="lslash" unicode="&#x142;" horiz-adv-x="640" d="M93 0 L570 0 L570 75 L374 75 L374 372 L525 450 L525 531 L374 453 L374 788 L112 788 L112 716 L285 716 L285 406 L136 329 L136 248 L285 325 L285 75 L93 75 L93 0 Z " />
<glyph glyph-name="Nacute" unicode="&#x143;" horiz-adv-x="640" d="M74 765 L74 0 L157 0 L157 655 L162 655 C164 646 167 637 170 627 C177 610 184 588 196 561 L443 0 L566 0 L566 765 L483 765 L483 110 L477 110 C474 119 471 129 468 140 C461 159 453 180 444 203 L197 765 L74 765 Z M341 960 L290 827 L371 827 L476 960 L341 960 Z " />
<glyph glyph-name="nacute" unicode="&#x144;" horiz-adv-x="640" d="M444 325 L444 0 L535 0 L535 367 C535 492 468 540 367 540 C284 540 221 491 197 438 L195 438 L195 527 L110 527 L110 0 L201 0 L201 316 C201 402 245 465 343 465 C378 465 407 455 426 430 C445 405 444 364 444 325 L444 325 Z M352 788 L292 609 L369 609 L487 788 L352 788 Z " />
<glyph glyph-name="Ncommaaccent" unicode="&#x145;" horiz-adv-x="640" d="M74 765 L74 0 L157 0 L157 655 L162 655 C164 646 167 637 170 627 C177 610 184 588 196 561 L443 0 L566 0 L566 765 L483 765 L483 110 L477 110 C474 119 471 129 468 140 C461 159 453 180 444 203 L197 765 L74 765 Z M258 -53 L226 -202 L303 -202 L393 -53 L258 -53 Z " />
<glyph glyph-name="ncommaaccent" unicode="&#x146;" horiz-adv-x="640" d="M444 325 L444 0 L535 0 L535 367 C535 492 468 540 367 540 C284 540 221 491 197 438 L195 438 L195 527 L110 527 L110 0 L201 0 L201 316 C201 402 245 465 343 465 C378 465 407 455 426 430 C445 405 444 364 444 325 L444 325 Z M264 -53 L232 -202 L309 -202 L399 -53 L264 -53 Z " />
<glyph glyph-name="Ncaron" unicode="&#x147;" horiz-adv-x="640" d="M74 765 L74 0 L157 0 L157 655 L162 655 C164 646 167 637 170 627 C177 610 184 588 196 561 L443 0 L566 0 L566 765 L483 765 L483 110 L477 110 C474 119 471 129 468 140 C461 159 453 180 444 203 L197 765 L74 765 Z M173 960 L270 827 L384 827 L481 960 L397 960 L330 894 L327 894 L260 960 L173 960 Z " />
<glyph glyph-name="ncaron" unicode="&#x148;" horiz-adv-x="640" d="M444 325 L444 0 L535 0 L535 367 C535 492 468 540 367 540 C284 540 221 491 197 438 L195 438 L195 527 L110 527 L110 0 L201 0 L201 316 C201 402 245 465 343 465 C378 465 407 455 426 430 C445 405 444 364 444 325 L444 325 Z M181 788 L283 609 L387 609 L489 788 L412 788 L338 684 L337 684 L263 788 L181 788 Z " />
<glyph glyph-name="napostrophe" unicode="&#x149;" horiz-adv-x="640" d="M444 325 L444 0 L535 0 L535 367 C535 492 468 540 367 540 C284 540 221 491 197 438 L195 438 L195 527 L110 527 L110 0 L201 0 L201 316 C201 402 245 465 343 465 C378 465 407 455 426 430 C445 405 444 364 444 325 L444 325 Z M98 564 L208 765 L75 765 L24 564 L98 564 Z " />
<glyph glyph-name="Eng" unicode="&#x14a;" horiz-adv-x="640" d="M303 -188 L335 -188 C487 -188 566 -129 566 16 L566 765 L483 765 L483 110 L477 110 C474 119 471 129 468 139 C461 156 454 178 445 201 L197 765 L74 765 L74 0 L157 0 L157 655 L162 655 C164 646 167 637 170 627 C177 610 184 588 196 561 L443 0 L482 0 C477 -76 442 -109 314 -109 L303 -109 L303 -188 Z " />
<glyph glyph-name="eng" unicode="&#x14b;" horiz-adv-x="640" d="M383 -199 C467 -199 535 -159 535 -54 L535 367 C535 492 468 540 367 540 C284 540 221 491 197 438 L195 438 L195 527 L110 527 L110 0 L201 0 L201 316 C201 402 245 465 343 465 C378 465 407 455 426 430 C445 405 444 364 444 325 L444 -47 C444 -103 420 -122 375 -122 C356 -122 347 -120 335 -117 L335 -193 C348 -197 364 -199 383 -199 L383 -199 Z " />
<glyph glyph-name="Omacron" unicode="&#x14c;" horiz-adv-x="640" d="M49 380 C49 87 151 -16 319 -16 C483 -16 591 87 591 380 C591 674 486 776 321 776 C161 776 49 674 49 380 L49 380 Z M320 59 C204 59 148 154 148 380 C148 609 204 701 320 701 C436 701 492 616 492 380 C492 151 440 59 320 59 L320 59 Z M161 929 L161 846 L479 846 L479 929 L161 929 Z " />
<glyph glyph-name="omacron" unicode="&#x14d;" horiz-adv-x="640" d="M320 -13 C479 -13 566 88 566 264 C566 439 481 540 320 540 C161 540 74 439 74 264 C74 89 159 -13 320 -13 L320 -13 Z M320 470 C425 470 473 393 473 264 C473 135 429 57 320 57 C213 57 167 135 167 264 C167 393 215 470 320 470 L320 470 Z M161 719 L161 636 L479 636 L479 719 L161 719 Z " />
<glyph glyph-name="Obreve" unicode="&#x14e;" horiz-adv-x="640" d="M49 380 C49 87 151 -16 319 -16 C483 -16 591 87 591 380 C591 674 486 776 321 776 C161 776 49 674 49 380 L49 380 Z M320 59 C204 59 148 154 148 380 C148 609 204 701 320 701 C436 701 492 616 492 380 C492 151 440 59 320 59 L320 59 Z M244 970 L165 970 C174 871 234 830 319 830 C404 830 465 871 474 970 L400 970 C392 925 362 903 322 903 C282 903 252 925 244 970 L244 970 Z " />
<glyph glyph-name="obreve" unicode="&#x14f;" horiz-adv-x="640" d="M320 -13 C479 -13 566 88 566 264 C566 439 481 540 320 540 C161 540 74 439 74 264 C74 89 159 -13 320 -13 L320 -13 Z M320 470 C425 470 473 393 473 264 C473 135 429 57 320 57 C213 57 167 135 167 264 C167 393 215 470 320 470 L320 470 Z M243 788 L165 788 C165 673 234 624 320 624 C408 624 476 673 476 788 L403 788 C403 727 370 697 323 697 C276 697 243 727 243 788 L243 788 Z " />
<glyph glyph-name="Ohungarumlaut" unicode="&#x150;" horiz-adv-x="640" d="M49 380 C49 87 151 -16 319 -16 C483 -16 591 87 591 380 C591 674 486 776 321 776 C161 776 49 674 49 380 L49 380 Z M320 59 C204 59 148 154 148 380 C148 609 204 701 320 701 C436 701 492 616 492 380 C492 151 440 59 320 59 L320 59 Z M390 970 L359 827 L435 827 L507 970 L390 970 Z M229 970 L198 827 L274 827 L346 970 L229 970 Z " />
<glyph glyph-name="ohungarumlaut" unicode="&#x151;" horiz-adv-x="640" d="M320 -13 C479 -13 566 88 566 264 C566 439 481 540 320 540 C161 540 74 439 74 264 C74 89 159 -13 320 -13 L320 -13 Z M320 470 C425 470 473 393 473 264 C473 135 429 57 320 57 C213 57 167 135 167 264 C167 393 215 470 320 470 L320 470 Z M424 788 L367 609 L441 609 L536 788 L424 788 Z M264 788 L207 609 L281 609 L376 788 L264 788 Z " />
<glyph glyph-name="OE" unicode="&#x152;" horiz-adv-x="640" d="M316 687 L316 78 C181 78 115 161 115 380 C115 597 183 687 316 687 L316 687 Z M316 0 L633 0 L633 81 L406 81 L406 347 L596 347 L596 426 L406 426 L406 684 L628 684 L628 765 L316 765 C150 765 19 673 19 381 C19 89 150 0 316 0 L316 0 Z " />
<glyph glyph-name="oe" unicode="&#x153;" horiz-adv-x="640" d="M196 57 C132 57 108 115 108 264 C108 412 135 471 196 471 C260 471 275 403 275 264 C275 124 260 57 196 57 L196 57 Z M530 318 L530 311 L356 311 C359 410 377 468 445 468 C519 468 530 408 530 318 L530 318 Z M307 78 L313 78 C342 13 388 -11 453 -11 C544 -11 599 42 610 138 L529 138 C524 106 511 60 450 60 C375 60 357 132 357 244 L616 245 L616 319 C616 447 574 540 458 540 C393 540 348 508 325 457 L322 457 C302 508 264 540 192 540 C80 540 20 457 20 264 C20 69 76 -13 185 -13 C252 -13 292 27 307 78 L307 78 Z " />
<glyph glyph-name="Racute" unicode="&#x154;" horiz-adv-x="640" d="M329 401 L184 401 L184 689 L333 689 C421 689 483 645 483 550 C483 445 419 401 329 401 L329 401 Z M325 324 L483 0 L588 0 L419 337 L419 339 C488 358 580 414 580 551 C580 639 545 698 484 731 C443 754 393 765 336 765 L91 765 L91 0 L184 0 L184 324 L325 324 Z M328 960 L277 827 L358 827 L463 960 L328 960 Z " />
<glyph glyph-name="racute" unicode="&#x155;" horiz-adv-x="640" d="M442 453 C497 453 531 442 567 431 L567 516 C542 528 498 537 462 537 C357 537 284 500 245 396 L243 396 L243 527 L158 527 L158 0 L248 0 L248 226 C248 367 314 453 442 453 L442 453 Z M371 788 L311 609 L388 609 L506 788 L371 788 Z " />
<glyph glyph-name="Rcommaaccent" unicode="&#x156;" horiz-adv-x="640" d="M329 401 L184 401 L184 689 L333 689 C421 689 483 645 483 550 C483 445 419 401 329 401 L329 401 Z M325 324 L483 0 L588 0 L419 337 L419 339 C488 358 580 414 580 551 C580 639 545 698 484 731 C443 754 393 765 336 765 L91 765 L91 0 L184 0 L184 324 L325 324 Z M253 -53 L221 -202 L298 -202 L388 -53 L253 -53 Z " />
<glyph glyph-name="rcommaaccent" unicode="&#x157;" horiz-adv-x="640" d="M442 453 C497 453 531 442 567 431 L567 516 C542 528 498 537 462 537 C357 537 284 500 245 396 L243 396 L243 527 L158 527 L158 0 L248 0 L248 226 C248 367 314 453 442 453 L442 453 Z M135 -53 L103 -202 L180 -202 L270 -53 L135 -53 Z " />
<glyph glyph-name="Rcaron" unicode="&#x158;" horiz-adv-x="640" d="M329 401 L184 401 L184 689 L333 689 C421 689 483 645 483 550 C483 445 419 401 329 401 L329 401 Z M325 324 L483 0 L588 0 L419 337 L419 339 C488 358 580 414 580 551 C580 639 545 698 484 731 C443 754 393 765 336 765 L91 765 L91 0 L184 0 L184 324 L325 324 Z M161 960 L258 827 L372 827 L469 960 L385 960 L318 894 L315 894 L248 960 L161 960 Z " />
<glyph glyph-name="rcaron" unicode="&#x159;" horiz-adv-x="640" d="M442 453 C497 453 531 442 567 431 L567 516 C542 528 498 537 462 537 C357 537 284 500 245 396 L243 396 L243 527 L158 527 L158 0 L248 0 L248 226 C248 367 314 453 442 453 L442 453 Z M195 788 L297 609 L401 609 L503 788 L426 788 L352 684 L351 684 L277 788 L195 788 Z " />
<glyph glyph-name="Sacute" unicode="&#x15a;" horiz-adv-x="640" d="M483 560 L577 560 C566 685 487 776 322 776 C172 776 74 687 74 565 C74 444 131 386 263 357 L370 334 C459 315 495 267 495 199 C495 124 453 59 326 59 C206 59 157 133 146 215 L52 215 C60 80 155 -16 324 -16 C500 -16 590 72 590 209 C590 324 535 388 398 419 L281 445 C206 461 166 492 166 571 C166 640 215 700 321 700 C427 700 475 635 483 560 L483 560 Z M334 960 L283 827 L364 827 L469 960 L334 960 Z " />
<glyph glyph-name="sacute" unicode="&#x15b;" horiz-adv-x="640" d="M440 395 L527 395 C519 481 456 540 321 540 C190 540 123 471 123 385 C123 290 178 250 261 237 L348 222 C425 209 450 191 450 143 C450 86 409 57 317 57 C232 57 195 98 188 149 L101 149 C114 31 201 -13 317 -13 C470 -13 538 51 538 152 C538 235 492 280 376 300 L299 313 C239 324 209 344 209 391 C209 440 248 470 320 470 C388 470 431 450 440 395 L440 395 Z M349 788 L289 609 L366 609 L484 788 L349 788 Z " />
<glyph glyph-name="Scircumflex" unicode="&#x15c;" horiz-adv-x="640" d="M483 560 L577 560 C566 685 487 776 322 776 C172 776 74 687 74 565 C74 444 131 386 263 357 L370 334 C459 315 495 267 495 199 C495 124 453 59 326 59 C206 59 157 133 146 215 L52 215 C60 80 155 -16 324 -16 C500 -16 590 72 590 209 C590 324 535 388 398 419 L281 445 C206 461 166 492 166 571 C166 640 215 700 321 700 C427 700 475 635 483 560 L483 560 Z M480 827 L383 960 L269 960 L172 827 L256 827 L323 893 L326 893 L393 827 L480 827 Z " />
<glyph glyph-name="scircumflex" unicode="&#x15d;" horiz-adv-x="640" d="M440 395 L527 395 C519 481 456 540 321 540 C190 540 123 471 123 385 C123 290 178 250 261 237 L348 222 C425 209 450 191 450 143 C450 86 409 57 317 57 C232 57 195 98 188 149 L101 149 C114 31 201 -13 317 -13 C470 -13 538 51 538 152 C538 235 492 280 376 300 L299 313 C239 324 209 344 209 391 C209 440 248 470 320 470 C388 470 431 450 440 395 L440 395 Z M483 609 L381 788 L277 788 L175 609 L250 609 L324 713 L325 713 L399 609 L483 609 Z " />
<glyph glyph-name="Scedilla" unicode="&#x15e;" horiz-adv-x="640" d="M328 -217 C400 -217 439 -177 439 -125 C439 -69 405 -41 346 -41 L314 -41 L325 -16 C500 -16 590 72 590 209 C590 324 535 388 398 419 L281 445 C206 461 166 492 166 571 C166 640 215 700 321 700 C427 700 475 635 483 560 L577 560 C566 685 487 776 322 776 C172 776 74 687 74 565 C74 444 131 386 263 357 L370 334 C459 315 495 267 495 199 C495 124 453 59 326 59 C206 59 157 133 146 215 L52 215 C59 94 136 4 275 -13 L232 -108 L303 -108 C310 -100 319 -93 334 -93 C357 -93 369 -107 369 -128 C369 -151 356 -163 333 -163 C317 -163 307 -157 302 -146 L225 -146 C234 -194 272 -217 328 -217 L328 -217 Z " />
<glyph glyph-name="scedilla" unicode="&#x15f;" horiz-adv-x="640" d="M321 -217 C393 -217 432 -177 432 -125 C432 -69 398 -41 339 -41 L307 -41 L320 -13 C471 -13 538 51 538 152 C538 235 492 280 376 300 L299 313 C239 324 209 344 209 391 C209 440 248 470 320 470 C388 470 431 450 440 395 L527 395 C519 481 456 540 321 540 C190 540 123 471 123 385 C123 290 178 250 261 237 L348 222 C425 209 450 191 450 143 C450 86 409 57 317 57 C232 57 195 98 188 149 L101 149 C113 48 177 1 269 -10 L225 -108 L296 -108 C303 -100 312 -93 327 -93 C350 -93 362 -107 362 -128 C362 -151 349 -163 326 -163 C310 -163 300 -157 295 -146 L218 -146 C227 -194 265 -217 321 -217 L321 -217 Z " />
<glyph glyph-name="Scaron" unicode="&#x160;" horiz-adv-x="640" d="M483 560 L577 560 C566 685 487 776 322 776 C172 776 74 687 74 565 C74 444 131 386 263 357 L370 334 C459 315 495 267 495 199 C495 124 453 59 326 59 C206 59 157 133 146 215 L52 215 C60 80 155 -16 324 -16 C500 -16 590 72 590 209 C590 324 535 388 398 419 L281 445 C206 461 166 492 166 571 C166 640 215 700 321 700 C427 700 475 635 483 560 L483 560 Z M173 960 L270 827 L384 827 L481 960 L397 960 L330 894 L327 894 L260 960 L173 960 Z " />
<glyph glyph-name="scaron" unicode="&#x161;" horiz-adv-x="640" d="M440 395 L527 395 C519 481 456 540 321 540 C190 540 123 471 123 385 C123 290 178 250 261 237 L348 222 C425 209 450 191 450 143 C450 86 409 57 317 57 C232 57 195 98 188 149 L101 149 C114 31 201 -13 317 -13 C470 -13 538 51 538 152 C538 235 492 280 376 300 L299 313 C239 324 209 344 209 391 C209 440 248 470 320 470 C388 470 431 450 440 395 L440 395 Z M173 788 L275 609 L379 609 L481 788 L404 788 L330 684 L329 684 L255 788 L173 788 Z " />
<glyph glyph-name="Tcommaaccent" unicode="&#x162;" horiz-adv-x="640" d="M611 686 L611 765 L28 765 L28 686 L273 686 L273 0 L366 0 L366 686 L611 686 Z M251 -53 L219 -202 L296 -202 L386 -53 L251 -53 Z " />
<glyph glyph-name="tcommaaccent" unicode="&#x163;" horiz-adv-x="640" d="M248 452 L248 147 C248 48 296 -12 425 -12 C477 -12 514 0 543 11 L543 86 C506 73 481 65 431 65 C376 65 337 85 337 154 L337 452 L543 452 L543 527 L337 527 L337 689 L254 689 L254 582 C254 541 240 527 199 527 L57 527 L57 452 L248 452 Z M329 -53 L297 -202 L374 -202 L464 -53 L329 -53 Z " />
<glyph glyph-name="Tcaron" unicode="&#x164;" horiz-adv-x="640" d="M611 686 L611 765 L28 765 L28 686 L273 686 L273 0 L366 0 L366 686 L611 686 Z M166 960 L263 827 L377 827 L474 960 L390 960 L323 894 L320 894 L253 960 L166 960 Z " />
<glyph glyph-name="tcaron" unicode="&#x165;" horiz-adv-x="640" d="M248 452 L248 147 C248 48 296 -12 425 -12 C477 -12 514 0 543 11 L543 86 C506 73 481 65 431 65 C376 65 337 85 337 154 L337 452 L543 452 L543 527 L337 527 L337 689 L254 689 L254 582 C254 541 240 527 199 527 L57 527 L57 452 L248 452 Z M437 788 L413 584 L469 584 L546 788 L437 788 Z " />
<glyph glyph-name="Tbar" unicode="&#x166;" horiz-adv-x="640" d="M366 0 L366 419 L536 419 L536 494 L366 494 L366 686 L611 686 L611 765 L28 765 L28 686 L273 686 L273 494 L103 494 L103 419 L273 419 L273 0 L366 0 Z " />
<glyph glyph-name="tbar" unicode="&#x167;" horiz-adv-x="640" d="M543 11 L543 86 C506 73 481 65 431 65 C376 65 337 85 337 154 L337 251 L543 251 L543 322 L337 322 L337 452 L543 452 L543 527 L337 527 L337 689 L254 689 L254 582 C254 541 240 527 199 527 L57 527 L57 452 L248 452 L248 322 L57 322 L57 251 L248 251 L248 147 C248 48 296 -12 425 -12 C477 -12 514 0 543 11 L543 11 Z " />
<glyph glyph-name="Utilde" unicode="&#x168;" horiz-adv-x="640" d="M69 765 L69 255 C69 61 169 -15 320 -15 C469 -15 570 63 570 255 L570 765 L479 765 L479 256 C479 139 437 61 321 61 C205 61 162 139 162 256 L162 765 L69 765 Z M149 827 L223 827 C227 868 242 884 265 884 C299 884 342 831 404 831 C473 831 513 887 516 966 L443 966 C439 927 429 909 402 909 C362 909 324 962 260 962 C192 962 152 908 149 827 L149 827 Z " />
<glyph glyph-name="utilde" unicode="&#x169;" horiz-adv-x="640" d="M197 203 L197 527 L108 527 L108 160 C108 36 176 -13 277 -13 C360 -13 419 36 443 90 L445 90 L445 0 L531 0 L531 527 L441 527 L441 242 C441 125 396 61 297 61 C260 61 233 73 216 96 C197 121 197 164 197 203 L197 203 Z M141 619 L215 619 C219 662 235 680 258 680 C293 680 333 624 393 624 C462 624 501 682 504 765 L431 765 C427 724 416 704 389 704 C350 704 313 760 251 760 C183 760 144 704 141 619 L141 619 Z " />
<glyph glyph-name="Umacron" unicode="&#x16a;" horiz-adv-x="640" d="M69 765 L69 255 C69 61 169 -15 320 -15 C469 -15 570 63 570 255 L570 765 L479 765 L479 256 C479 139 437 61 321 61 C205 61 162 139 162 256 L162 765 L69 765 Z M164 929 L164 846 L482 846 L482 929 L164 929 Z " />
<glyph glyph-name="umacron" unicode="&#x16b;" horiz-adv-x="640" d="M197 203 L197 527 L108 527 L108 160 C108 36 176 -13 277 -13 C360 -13 419 36 443 90 L445 90 L445 0 L531 0 L531 527 L441 527 L441 242 C441 125 396 61 297 61 C260 61 233 73 216 96 C197 121 197 164 197 203 L197 203 Z M163 719 L163 636 L481 636 L481 719 L163 719 Z " />
<glyph glyph-name="Ubreve" unicode="&#x16c;" horiz-adv-x="640" d="M69 765 L69 255 C69 61 169 -15 320 -15 C469 -15 570 63 570 255 L570 765 L479 765 L479 256 C479 139 437 61 321 61 C205 61 162 139 162 256 L162 765 L69 765 Z M247 970 L168 970 C177 871 237 830 322 830 C407 830 468 871 477 970 L403 970 C395 925 365 903 325 903 C285 903 255 925 247 970 L247 970 Z " />
<glyph glyph-name="ubreve" unicode="&#x16d;" horiz-adv-x="640" d="M197 203 L197 527 L108 527 L108 160 C108 36 176 -13 277 -13 C360 -13 419 36 443 90 L445 90 L445 0 L531 0 L531 527 L441 527 L441 242 C441 125 396 61 297 61 C260 61 233 73 216 96 C197 121 197 164 197 203 L197 203 Z M245 788 L167 788 C167 673 236 624 322 624 C410 624 478 673 478 788 L405 788 C405 727 372 697 325 697 C278 697 245 727 245 788 L245 788 Z " />
<glyph glyph-name="Uring" unicode="&#x16e;" horiz-adv-x="640" d="M69 765 L69 255 C69 61 169 -15 320 -15 C469 -15 570 63 570 255 L570 765 L479 765 L479 256 C479 139 437 61 321 61 C205 61 162 139 162 256 L162 765 L69 765 Z M319 788 C396 788 449 842 449 915 C449 987 396 1043 319 1043 C243 1043 190 987 190 915 C190 842 243 788 319 788 L319 788 Z M319 989 C360 989 387 956 387 915 C387 872 360 842 319 842 C279 842 252 872 252 915 C252 956 279 989 319 989 L319 989 Z " />
<glyph glyph-name="uring" unicode="&#x16f;" horiz-adv-x="640" d="M197 203 L197 527 L108 527 L108 160 C108 36 176 -13 277 -13 C360 -13 419 36 443 90 L445 90 L445 0 L531 0 L531 527 L441 527 L441 242 C441 125 396 61 297 61 C260 61 233 73 216 96 C197 121 197 164 197 203 L197 203 Z M193 705 C193 632 246 578 322 578 C399 578 452 632 452 705 C452 777 399 833 322 833 C246 833 193 777 193 705 L193 705 Z M322 632 C282 632 255 662 255 705 C255 746 282 779 322 779 C363 779 390 746 390 705 C390 662 363 632 322 632 L322 632 Z " />
<glyph glyph-name="Uhungarumlaut" unicode="&#x170;" horiz-adv-x="640" d="M69 765 L69 255 C69 61 169 -15 320 -15 C469 -15 570 63 570 255 L570 765 L479 765 L479 256 C479 139 437 61 321 61 C205 61 162 139 162 256 L162 765 L69 765 Z M403 970 L372 827 L448 827 L520 970 L403 970 Z M242 970 L211 827 L287 827 L359 970 L242 970 Z " />
<glyph glyph-name="uhungarumlaut" unicode="&#x171;" horiz-adv-x="640" d="M197 203 L197 527 L108 527 L108 160 C108 36 176 -13 277 -13 C360 -13 419 36 443 90 L445 90 L445 0 L531 0 L531 527 L441 527 L441 242 C441 125 396 61 297 61 C260 61 233 73 216 96 C197 121 197 164 197 203 L197 203 Z M426 788 L369 609 L443 609 L538 788 L426 788 Z M266 788 L209 609 L283 609 L378 788 L266 788 Z " />
<glyph glyph-name="Uogonek" unicode="&#x172;" horiz-adv-x="640" d="M385 -188 L403 -188 L403 -118 C358 -118 338 -106 338 -73 C338 -42 365 -18 418 -1 C505 25 570 101 570 255 L570 765 L479 765 L479 256 C479 139 437 61 321 61 C205 61 162 139 162 256 L162 765 L69 765 L69 255 C69 71 157 -12 312 -12 L312 -15 C277 -36 258 -60 258 -95 C258 -155 305 -188 385 -188 L385 -188 Z " />
<glyph glyph-name="uogonek" unicode="&#x173;" horiz-adv-x="640" d="M531 -188 L531 -118 C484 -118 467 -104 467 -73 C467 -45 494 -21 531 0 L531 527 L441 527 L441 242 C441 125 396 61 297 61 C260 61 233 73 216 96 C197 121 197 164 197 203 L197 527 L108 527 L108 160 C108 36 176 -13 277 -13 C360 -13 419 36 443 90 L445 90 L445 0 L468 0 C408 -23 387 -54 387 -95 C387 -154 433 -188 513 -188 L531 -188 Z " />
<glyph glyph-name="Wcircumflex" unicode="&#x174;" horiz-adv-x="640" d="M91 0 L215 0 L290 345 C297 376 303 412 307 440 C310 457 312 473 314 488 L321 488 C323 473 325 457 328 440 C332 412 338 377 345 345 L420 0 L549 0 L598 765 L514 765 L476 97 L467 97 C466 110 464 125 461 141 C457 168 450 206 442 246 L364 605 L278 605 L200 246 C191 205 185 168 181 141 C178 125 176 110 175 97 L167 97 L129 765 L42 765 L91 0 Z M475 827 L378 960 L264 960 L167 827 L251 827 L318 893 L321 893 L388 827 L475 827 Z " />
<glyph glyph-name="wcircumflex" unicode="&#x175;" horiz-adv-x="640" d="M38 527 L135 0 L237 0 L299 295 C304 322 309 351 312 375 C314 389 316 403 317 416 L323 416 C324 403 326 389 328 375 C331 351 334 322 341 295 L403 0 L505 0 L602 527 L519 527 L464 175 C461 160 461 137 458 118 C457 107 456 95 455 83 L449 83 C448 95 446 107 445 118 C442 137 440 160 437 175 L365 527 L278 527 L204 175 C201 160 199 137 196 118 C195 107 193 95 192 83 L186 83 C185 94 185 106 184 117 C183 136 181 159 178 176 L121 527 L38 527 Z M479 609 L377 788 L273 788 L171 609 L246 609 L320 713 L321 713 L395 609 L479 609 Z " />
<glyph glyph-name="Ycircumflex" unicode="&#x176;" horiz-adv-x="640" d="M274 326 L274 0 L366 0 L366 329 L603 765 L509 765 L325 412 L323 412 L140 765 L37 765 L274 326 Z M478 827 L381 960 L267 960 L170 827 L254 827 L321 893 L324 893 L391 827 L478 827 Z " />
<glyph glyph-name="ycircumflex" unicode="&#x177;" horiz-adv-x="640" d="M74 527 L284 0 L273 -28 C244 -105 221 -123 162 -123 C131 -123 105 -118 84 -113 L84 -188 C101 -193 127 -199 167 -199 C264 -199 313 -157 361 -33 L578 527 L487 527 L363 189 C352 162 346 143 341 128 C338 119 336 112 334 105 L330 105 C328 112 326 119 323 127 C318 142 311 162 302 187 L170 527 L74 527 Z M491 609 L389 788 L285 788 L183 609 L258 609 L332 713 L333 713 L407 609 L491 609 Z " />
<glyph glyph-name="Ydieresis" unicode="&#x178;" horiz-adv-x="640" d="M274 326 L274 0 L366 0 L366 329 L603 765 L509 765 L325 412 L323 412 L140 765 L37 765 L274 326 Z M368 956 L368 827 L497 827 L497 956 L368 956 Z M152 956 L152 827 L282 827 L282 956 L152 956 Z " />
<glyph glyph-name="Zacute" unicode="&#x179;" horiz-adv-x="640" d="M78 765 L78 685 L469 685 L63 71 L63 0 L587 0 L587 80 L174 80 L579 694 L579 765 L78 765 Z M332 960 L281 827 L362 827 L467 960 L332 960 Z " />
<glyph glyph-name="zacute" unicode="&#x17a;" horiz-adv-x="640" d="M107 527 L107 454 L433 454 L91 79 L91 0 L545 0 L545 74 L192 74 L537 449 L537 527 L107 527 Z M343 788 L283 609 L360 609 L478 788 L343 788 Z " />
<glyph glyph-name="Zdotaccent" unicode="&#x17b;" horiz-adv-x="640" d="M78 765 L78 685 L469 685 L63 71 L63 0 L587 0 L587 80 L174 80 L579 694 L579 765 L78 765 Z M260 956 L260 827 L390 827 L390 956 L260 956 Z " />
<glyph glyph-name="zdotaccent" unicode="&#x17c;" horiz-adv-x="640" d="M107 527 L107 454 L433 454 L91 79 L91 0 L545 0 L545 74 L192 74 L537 449 L537 527 L107 527 Z M253 760 L253 626 L387 626 L387 760 L253 760 Z " />
<glyph glyph-name="Zcaron" unicode="&#x17d;" horiz-adv-x="640" d="M78 765 L78 685 L469 685 L63 71 L63 0 L587 0 L587 80 L174 80 L579 694 L579 765 L78 765 Z M172 960 L269 827 L383 827 L480 960 L396 960 L329 894 L326 894 L259 960 L172 960 Z " />
<glyph glyph-name="zcaron" unicode="&#x17e;" horiz-adv-x="640" d="M107 527 L107 454 L433 454 L91 79 L91 0 L545 0 L545 74 L192 74 L537 449 L537 527 L107 527 Z M170 788 L272 609 L376 609 L478 788 L401 788 L327 684 L326 684 L252 788 L170 788 Z " />
<glyph glyph-name="florin" unicode="&#x192;" horiz-adv-x="640" d="M270 -188 L345 365 L575 365 L575 440 L355 440 L379 616 C390 701 435 716 486 716 C525 716 543 713 575 706 L575 780 C559 784 531 792 480 792 C379 792 304 748 288 618 L264 440 L60 440 L60 365 L254 365 L180 -188 L270 -188 Z " />
<glyph glyph-name="Aringacute" unicode="&#x1fa;" horiz-adv-x="640" d="M313 676 L321 676 C325 661 329 645 332 630 C339 603 345 571 352 548 L420 303 L213 303 L281 548 C292 591 313 671 313 676 L313 676 Z M441 228 L505 0 L605 0 L380 765 L258 765 L35 0 L129 0 L192 228 L441 228 Z M320 788 C397 788 450 842 450 915 C450 987 397 1043 320 1043 C244 1043 191 987 191 915 C191 842 244 788 320 788 L320 788 Z M320 989 C361 989 388 956 388 915 C388 872 361 842 320 842 C280 842 253 872 253 915 C253 956 280 989 320 989 L320 989 Z M333 1194 L282 1061 L363 1061 L468 1194 L333 1194 Z " />
<glyph glyph-name="aringacute" unicode="&#x1fb;" horiz-adv-x="640" d="M177 149 C177 176 187 197 206 212 C241 237 311 246 426 251 L426 239 C426 108 341 64 274 64 C214 64 177 93 177 149 L177 149 Z M427 95 L433 95 C437 28 464 0 543 0 L571 0 L571 73 L553 73 C521 73 512 81 512 113 L512 347 C512 483 433 540 311 540 C182 540 115 468 110 380 L197 380 C200 420 226 470 311 470 C387 470 426 434 426 345 L426 318 C307 314 222 303 166 274 C111 247 87 203 87 144 C87 49 151 -9 258 -9 C338 -9 396 28 427 95 L427 95 Z M196 700 C196 627 249 573 325 573 C402 573 455 627 455 700 C455 772 402 828 325 828 C249 828 196 772 196 700 L196 700 Z M325 627 C285 627 258 657 258 700 C258 741 285 774 325 774 C366 774 393 741 393 700 C393 657 366 627 325 627 L325 627 Z M340 990 L289 857 L370 857 L475 990 L340 990 Z " />
<glyph glyph-name="AEacute" unicode="&#x1fc;" horiz-adv-x="640" d="M319 684 L319 303 L178 303 L299 684 L319 684 Z M81 0 L154 228 L319 228 L319 0 L633 0 L633 81 L406 81 L406 347 L596 347 L596 426 L406 426 L406 684 L628 684 L628 765 L241 765 L-7 0 L81 0 Z M421 960 L370 827 L451 827 L556 960 L421 960 Z " />
<glyph glyph-name="aeacute" unicode="&#x1fd;" horiz-adv-x="640" d="M523 318 L523 311 L349 311 C350 407 370 468 438 468 C512 468 523 407 523 318 L523 318 Z M174 60 C127 60 103 91 103 152 C103 183 112 207 129 223 C147 241 171 249 265 246 L265 211 C265 115 235 60 174 60 L174 60 Z M603 138 L522 138 C517 106 504 60 444 60 C366 60 350 129 350 245 L609 245 L609 328 C609 444 567 540 451 540 C386 540 340 507 319 460 L315 460 C295 507 259 540 188 540 C79 540 32 467 29 383 L107 383 C110 428 128 469 187 469 C247 469 265 427 265 367 L265 312 C160 312 123 305 84 282 C44 258 14 212 14 147 C14 47 71 -10 156 -10 C239 -10 276 36 300 89 L303 89 C322 32 360 -11 445 -11 C537 -11 592 43 603 138 L603 138 Z M348 788 L288 609 L365 609 L483 788 L348 788 Z " />
<glyph glyph-name="Oslashacute" unicode="&#x1fe;" horiz-adv-x="640" d="M320 701 C379 701 421 683 449 636 L162 203 C151 248 146 307 146 380 C146 609 203 701 320 701 L320 701 Z M320 59 C260 59 216 83 189 132 L476 567 C488 520 494 457 494 380 C494 151 440 59 320 59 L320 59 Z M591 380 C591 505 571 593 536 656 L626 793 L553 793 L497 709 C450 756 392 776 321 776 C161 776 49 674 49 380 C49 259 67 172 100 109 L12 -25 L85 -25 L138 55 C185 4 246 -16 319 -16 C483 -16 591 87 591 380 L591 380 Z M334 960 L283 827 L364 827 L469 960 L334 960 Z " />
<glyph glyph-name="oslashacute" unicode="&#x1ff;" horiz-adv-x="640" d="M319 471 C364 471 399 460 422 439 L183 142 C171 174 167 213 167 264 C167 393 216 471 319 471 L319 471 Z M321 57 C275 57 240 68 217 89 L456 384 C467 352 471 312 471 264 C471 135 425 57 321 57 L321 57 Z M565 264 C565 341 547 404 512 453 L591 550 L512 550 L469 496 C430 524 381 540 320 540 C167 540 73 428 73 264 C73 187 91 121 127 73 L46 -27 L123 -27 L170 31 C209 3 258 -13 318 -13 C472 -13 565 99 565 264 L565 264 Z M342 788 L282 609 L359 609 L477 788 L342 788 Z " />
<glyph glyph-name="Scommaaccent" unicode="&#x218;" horiz-adv-x="640" d="M483 560 L577 560 C566 685 487 776 322 776 C172 776 74 687 74 565 C74 444 131 386 263 357 L370 334 C459 315 495 267 495 199 C495 124 453 59 326 59 C206 59 157 133 146 215 L52 215 C60 80 155 -16 324 -16 C500 -16 590 72 590 209 C590 324 535 388 398 419 L281 445 C206 461 166 492 166 571 C166 640 215 700 321 700 C427 700 475 635 483 560 L483 560 Z M262 -53 L230 -202 L307 -202 L397 -53 L262 -53 Z " />
<glyph glyph-name="scommaaccent" unicode="&#x219;" horiz-adv-x="640" d="M440 395 L527 395 C519 481 456 540 321 540 C190 540 123 471 123 385 C123 290 178 250 261 237 L348 222 C425 209 450 191 450 143 C450 86 409 57 317 57 C232 57 195 98 188 149 L101 149 C114 31 201 -13 317 -13 C470 -13 538 51 538 152 C538 235 492 280 376 300 L299 313 C239 324 209 344 209 391 C209 440 248 470 320 470 C388 470 431 450 440 395 L440 395 Z M257 -53 L225 -202 L302 -202 L392 -53 L257 -53 Z " />
<glyph glyph-name="uni021A" unicode="&#x21a;" horiz-adv-x="640" d="M611 686 L611 765 L28 765 L28 686 L273 686 L273 0 L366 0 L366 686 L611 686 Z M251 -53 L219 -202 L296 -202 L386 -53 L251 -53 Z " />
<glyph glyph-name="uni021B" unicode="&#x21b;" horiz-adv-x="640" d="M248 452 L248 147 C248 48 296 -12 425 -12 C477 -12 514 0 543 11 L543 86 C506 73 481 65 431 65 C376 65 337 85 337 154 L337 452 L543 452 L543 527 L337 527 L337 689 L254 689 L254 582 C254 541 240 527 199 527 L57 527 L57 452 L248 452 Z M329 -53 L297 -202 L374 -202 L464 -53 L329 -53 Z " />
<glyph glyph-name="uni0237" unicode="&#x237;" horiz-adv-x="640" d="M250 -199 C355 -199 432 -139 432 -27 L432 527 L138 527 L138 453 L345 453 L345 -17 C345 -82 313 -122 241 -122 C194 -122 167 -114 138 -107 L138 -185 C169 -192 198 -199 250 -199 L250 -199 Z " />
<glyph glyph-name="circumflex" unicode="&#x2c6;" horiz-adv-x="640" d="M474 609 L372 788 L268 788 L166 609 L241 609 L315 713 L316 713 L390 609 L474 609 Z " />
<glyph glyph-name="caron" unicode="&#x2c7;" horiz-adv-x="640" d="M166 788 L268 609 L372 609 L474 788 L397 788 L323 684 L322 684 L248 788 L166 788 Z " />
<glyph glyph-name="breve" unicode="&#x2d8;" horiz-adv-x="640" d="M242 788 L164 788 C164 673 233 624 319 624 C407 624 475 673 475 788 L402 788 C402 727 369 697 322 697 C275 697 242 727 242 788 L242 788 Z " />
<glyph glyph-name="dotaccent" unicode="&#x2d9;" horiz-adv-x="640" d="M254 760 L254 626 L388 626 L388 760 L254 760 Z " />
<glyph glyph-name="ring" unicode="&#x2da;" horiz-adv-x="640" d="M187 709 C187 636 240 582 316 582 C393 582 446 636 446 709 C446 781 393 837 316 837 C240 837 187 781 187 709 L187 709 Z M316 636 C276 636 249 666 249 709 C249 750 276 783 316 783 C357 783 384 750 384 709 C384 666 357 636 316 636 L316 636 Z " />
<glyph glyph-name="ogonek" unicode="&#x2db;" horiz-adv-x="640" d="M401 0 L384 25 C292 -10 257 -40 257 -95 C257 -154 303 -188 383 -188 L401 -188 L401 -118 C354 -118 337 -104 337 -73 C337 -46 364 -21 401 0 L401 0 Z " />
<glyph glyph-name="tilde" unicode="&#x2dc;" horiz-adv-x="640" d="M140 619 L214 619 C218 662 234 680 257 680 C292 680 332 624 392 624 C461 624 500 682 503 765 L430 765 C426 724 415 704 388 704 C349 704 312 760 250 760 C182 760 143 704 140 619 L140 619 Z " />
<glyph glyph-name="hungarumlaut" unicode="&#x2dd;" horiz-adv-x="640" d="M377 788 L320 609 L394 609 L489 788 L377 788 Z M217 788 L160 609 L234 609 L329 788 L217 788 Z " />
<glyph glyph-name="Wgrave" unicode="&#x1e80;" horiz-adv-x="640" d="M91 0 L215 0 L290 345 C297 376 303 412 307 440 C310 457 312 473 314 488 L321 488 C323 473 325 457 328 440 C332 412 338 377 345 345 L420 0 L549 0 L598 765 L514 765 L476 97 L467 97 C466 110 464 125 461 141 C457 168 450 206 442 246 L364 605 L278 605 L200 246 C191 205 185 168 181 141 C178 125 176 110 175 97 L167 97 L129 765 L42 765 L91 0 Z M356 827 L305 960 L170 960 L275 827 L356 827 Z " />
<glyph glyph-name="wgrave" unicode="&#x1e81;" horiz-adv-x="640" d="M38 527 L135 0 L237 0 L299 295 C304 322 309 351 312 375 C314 389 316 403 317 416 L323 416 C324 403 326 389 328 375 C331 351 334 322 341 295 L403 0 L505 0 L602 527 L519 527 L464 175 C461 160 461 137 458 118 C457 107 456 95 455 83 L449 83 C448 95 446 107 445 118 C442 137 440 160 437 175 L365 527 L278 527 L204 175 C201 160 199 137 196 118 C195 107 193 95 192 83 L186 83 C185 94 185 106 184 117 C183 136 181 159 178 176 L121 527 L38 527 Z M283 609 L360 609 L300 788 L165 788 L283 609 Z " />
<glyph glyph-name="Wacute" unicode="&#x1e82;" horiz-adv-x="640" d="M91 0 L215 0 L290 345 C297 376 303 412 307 440 C310 457 312 473 314 488 L321 488 C323 473 325 457 328 440 C332 412 338 377 345 345 L420 0 L549 0 L598 765 L514 765 L476 97 L467 97 C466 110 464 125 461 141 C457 168 450 206 442 246 L364 605 L278 605 L200 246 C191 205 185 168 181 141 C178 125 176 110 175 97 L167 97 L129 765 L42 765 L91 0 Z M340 960 L289 827 L370 827 L475 960 L340 960 Z " />
<glyph glyph-name="wacute" unicode="&#x1e83;" horiz-adv-x="640" d="M38 527 L135 0 L237 0 L299 295 C304 322 309 351 312 375 C314 389 316 403 317 416 L323 416 C324 403 326 389 328 375 C331 351 334 322 341 295 L403 0 L505 0 L602 527 L519 527 L464 175 C461 160 461 137 458 118 C457 107 456 95 455 83 L449 83 C448 95 446 107 445 118 C442 137 440 160 437 175 L365 527 L278 527 L204 175 C201 160 199 137 196 118 C195 107 193 95 192 83 L186 83 C185 94 185 106 184 117 C183 136 181 159 178 176 L121 527 L38 527 Z M345 788 L285 609 L362 609 L480 788 L345 788 Z " />
<glyph glyph-name="Wdieresis" unicode="&#x1e84;" horiz-adv-x="640" d="M91 0 L215 0 L290 345 C297 376 303 412 307 440 C310 457 312 473 314 488 L321 488 C323 473 325 457 328 440 C332 412 338 377 345 345 L420 0 L549 0 L598 765 L514 765 L476 97 L467 97 C466 110 464 125 461 141 C457 168 450 206 442 246 L364 605 L278 605 L200 246 C191 205 185 168 181 141 C178 125 176 110 175 97 L167 97 L129 765 L42 765 L91 0 Z M365 956 L365 827 L494 827 L494 956 L365 956 Z M149 956 L149 827 L279 827 L279 956 L149 956 Z " />
<glyph glyph-name="wdieresis" unicode="&#x1e85;" horiz-adv-x="640" d="M38 527 L135 0 L237 0 L299 295 C304 322 309 351 312 375 C314 389 316 403 317 416 L323 416 C324 403 326 389 328 375 C331 351 334 322 341 295 L403 0 L505 0 L602 527 L519 527 L464 175 C461 160 461 137 458 118 C457 107 456 95 455 83 L449 83 C448 95 446 107 445 118 C442 137 440 160 437 175 L365 527 L278 527 L204 175 C201 160 199 137 196 118 C195 107 193 95 192 83 L186 83 C185 94 185 106 184 117 C183 136 181 159 178 176 L121 527 L38 527 Z M149 755 L149 626 L279 626 L279 755 L149 755 Z M365 626 L494 626 L494 755 L365 755 L365 626 Z " />
<glyph glyph-name="Ygrave" unicode="&#x1ef2;" horiz-adv-x="640" d="M274 326 L274 0 L366 0 L366 329 L603 765 L509 765 L325 412 L323 412 L140 765 L37 765 L274 326 Z M370 827 L319 960 L184 960 L289 827 L370 827 Z " />
<glyph glyph-name="ygrave" unicode="&#x1ef3;" horiz-adv-x="640" d="M74 527 L284 0 L273 -28 C244 -105 221 -123 162 -123 C131 -123 105 -118 84 -113 L84 -188 C101 -193 127 -199 167 -199 C264 -199 313 -157 361 -33 L578 527 L487 527 L363 189 C352 162 346 143 341 128 C338 119 336 112 334 105 L330 105 C328 112 326 119 323 127 C318 142 311 162 302 187 L170 527 L74 527 Z M304 609 L381 609 L321 788 L186 788 L304 609 Z " />
<glyph glyph-name="uni2009" unicode="&#x2009;" d="" />
<glyph glyph-name="endash" unicode="&#x2013;" horiz-adv-x="640" d="M140 366 L140 289 L500 289 L500 366 L140 366 Z " />
<glyph glyph-name="emdash" unicode="&#x2014;" horiz-adv-x="640" d="M10 366 L10 289 L630 289 L630 366 L10 366 Z " />
<glyph glyph-name="quoteleft" unicode="&#x2018;" horiz-adv-x="640" d="M335 765 L216 504 L360 504 L414 765 L335 765 Z " />
<glyph glyph-name="quoteright" unicode="&#x2019;" horiz-adv-x="640" d="M305 504 L424 765 L280 765 L226 504 L305 504 Z " />
<glyph glyph-name="quotesinglbase" unicode="&#x201a;" horiz-adv-x="640" d="M226 -127 L305 -127 L424 134 L280 134 L226 -127 Z " />
<glyph glyph-name="quotedblleft" unicode="&#x201c;" horiz-adv-x="640" d="M430 765 L311 504 L455 504 L509 765 L430 765 Z M231 765 L112 504 L256 504 L310 765 L231 765 Z " />
<glyph glyph-name="quotedblright" unicode="&#x201d;" horiz-adv-x="640" d="M390 504 L509 765 L365 765 L311 504 L390 504 Z M191 504 L310 765 L166 765 L112 504 L191 504 Z " />
<glyph glyph-name="quotedblbase" unicode="&#x201e;" horiz-adv-x="640" d="M316 -127 L395 -127 L514 134 L370 134 L316 -127 Z M117 -127 L196 -127 L315 134 L171 134 L117 -127 Z " />
<glyph glyph-name="dagger" unicode="&#x2020;" horiz-adv-x="640" d="M362 -80 L362 442 L560 442 L560 518 L362 518 L362 765 L279 765 L279 518 L81 518 L81 442 L279 442 L279 -80 L362 -80 Z " />
<glyph glyph-name="daggerdbl" unicode="&#x2021;" horiz-adv-x="640" d="M362 -80 L362 172 L560 172 L560 248 L362 248 L362 452 L560 452 L560 528 L362 528 L362 765 L279 765 L279 528 L81 528 L81 452 L279 452 L279 248 L81 248 L81 172 L279 172 L279 -80 L362 -80 Z " />
<glyph glyph-name="bullet" unicode="&#x2022;" horiz-adv-x="640" d="M319 188 C385 188 438 235 438 308 C438 379 391 428 320 428 C256 428 202 377 202 308 C202 235 251 188 319 188 L319 188 Z " />
<glyph glyph-name="ellipsis" unicode="&#x2026;" horiz-adv-x="640" d="M253 134 L253 0 L387 0 L387 134 L253 134 Z M468 134 L468 0 L602 0 L602 134 L468 134 Z M38 134 L38 0 L172 0 L172 134 L38 134 Z " />
<glyph glyph-name="perthousand" unicode="&#x2030;" horiz-adv-x="640" d="M21 611 C21 503 65 449 134 449 C206 449 252 502 252 611 C252 719 208 772 136 772 C68 772 21 719 21 611 L21 611 Z M135 506 C101 506 84 541 84 611 C84 680 101 715 135 715 C170 715 188 680 188 611 C188 541 170 506 135 506 L135 506 Z M20 324 L20 255 L490 520 L490 589 L20 324 Z M512 -7 C584 -7 629 47 629 155 C629 263 585 316 513 316 C445 316 398 263 398 155 C398 44 443 -7 512 -7 L512 -7 Z M242 -7 C314 -7 360 44 360 155 C360 263 316 316 244 316 C176 316 129 263 129 155 C129 47 173 -7 242 -7 L242 -7 Z M512 50 C478 50 461 85 461 155 C461 224 478 259 512 259 C547 259 565 224 565 155 C565 86 547 51 512 50 L512 50 Z M243 50 C209 50 192 85 192 155 C192 224 209 259 243 259 C278 259 296 224 296 155 C296 85 278 50 243 50 L243 50 Z " />
<glyph glyph-name="uni2032" unicode="&#x2032;" horiz-adv-x="640" d="M272 765 L243 468 L315 468 L391 765 L272 765 Z " />
<glyph glyph-name="uni2033" unicode="&#x2033;" horiz-adv-x="640" d="M362 765 L333 468 L405 468 L481 765 L362 765 Z M182 765 L153 468 L225 468 L301 765 L182 765 Z " />
<glyph glyph-name="guilsinglleft" unicode="&#x2039;" horiz-adv-x="640" d="M277 262 L463 464 L354 464 L160 260 L354 57 L463 57 L277 262 Z " />
<glyph glyph-name="guilsinglright" unicode="&#x203a;" horiz-adv-x="640" d="M363 259 L177 57 L286 57 L480 261 L286 464 L177 464 L363 259 Z " />
<glyph glyph-name="fraction" unicode="&#x2044;" horiz-adv-x="640" d="M563 780 L-5 -40 L77 -40 L645 780 L563 780 Z " />
<glyph glyph-name="Euro" unicode="&#x20ac;" horiz-adv-x="640" d="M595 207 L509 207 C498 122 455 59 367 59 C280 59 227 123 208 251 L430 251 L430 322 L202 322 C201 337 201 352 201 368 C201 384 201 398 202 413 L428 413 L428 484 L208 484 C225 609 274 678 366 678 C452 678 492 603 500 528 L588 528 C575 677 474 752 366 752 C229 752 142 667 117 484 L17 484 L17 413 L111 413 C110 398 110 384 110 368 C110 352 110 337 111 322 L19 322 L19 251 L117 251 C142 62 233 -16 366 -16 C498 -16 579 72 595 207 L595 207 Z " />
<glyph glyph-name="trademark" unicode="&#x2122;" horiz-adv-x="640" d="M239 716 L239 765 L23 765 L23 716 L103 716 L103 439 L159 439 L159 716 L239 716 Z M284 765 L284 439 L336 439 L336 694 L340 694 C341 689 342 682 343 675 C346 663 348 645 355 626 L412 439 L459 439 L515 627 C520 646 525 663 528 675 C530 682 531 689 532 694 L536 694 L536 439 L592 439 L592 765 L510 765 L450 562 C446 547 444 534 441 525 C440 520 439 515 439 510 L436 510 C435 515 435 520 434 525 C431 534 430 547 426 562 L367 765 L284 765 Z " />
<glyph glyph-name="onethird" unicode="&#x2153;" horiz-adv-x="1920" d="M1203 780 L635 -40 L717 -40 L1285 780 L1203 780 Z M1454 193 L1502 193 C1570 193 1608 161 1608 105 C1608 49 1562 14 1502 14 C1442 14 1397 44 1389 109 L1309 109 C1314 25 1368 -51 1497 -51 C1620 -51 1687 20 1687 102 C1687 182 1639 217 1580 230 L1580 232 C1639 253 1674 289 1674 353 C1674 431 1610 491 1501 491 C1376 491 1318 414 1318 332 L1398 332 C1400 394 1434 425 1499 425 C1555 425 1593 395 1593 344 C1593 293 1556 258 1500 258 L1454 258 L1454 193 Z M166 257 L499 257 L499 321 L374 321 L374 782 L307 782 C307 745 300 725 281 709 C266 695 240 688 203 688 L169 688 L169 627 L297 627 L297 321 L166 321 L166 257 Z " />
<glyph glyph-name="twothirds" unicode="&#x2154;" horiz-adv-x="1920" d="M1203 780 L635 -40 L717 -40 L1285 780 L1203 780 Z M1454 193 L1502 193 C1570 193 1608 161 1608 105 C1608 49 1562 14 1502 14 C1442 14 1397 44 1389 109 L1309 109 C1314 25 1368 -51 1497 -51 C1620 -51 1687 20 1687 102 C1687 182 1639 217 1580 230 L1580 232 C1639 253 1674 289 1674 353 C1674 431 1610 491 1501 491 C1376 491 1318 414 1318 332 L1398 332 C1400 394 1434 425 1499 425 C1555 425 1593 395 1593 344 C1593 293 1556 258 1500 258 L1454 258 L1454 193 Z M133 603 L209 603 C212 691 253 725 316 725 C373 725 412 689 412 636 C412 577 383 542 316 483 L126 312 L126 257 L501 257 L501 327 L238 327 L238 330 C245 335 252 340 259 346 C272 357 290 370 310 387 L376 446 C461 521 492 566 492 638 C492 732 419 788 316 788 C207 788 134 720 133 603 L133 603 Z " />
<glyph glyph-name="oneeighth" unicode="&#x215b;" horiz-adv-x="1920" d="M1203 780 L635 -40 L717 -40 L1285 780 L1203 780 Z M1322 348 C1322 284 1361 244 1408 229 L1408 227 C1359 213 1306 177 1306 100 C1306 13 1374 -51 1500 -51 C1628 -51 1692 15 1692 100 C1692 179 1642 214 1593 227 L1593 229 C1640 244 1676 284 1676 348 C1676 428 1617 491 1500 491 C1384 491 1322 428 1322 348 L1322 348 Z M1500 430 C1555 430 1597 402 1597 342 C1597 282 1553 255 1500 255 C1445 255 1402 282 1402 342 C1402 402 1444 430 1500 430 L1500 430 Z M1500 9 C1439 9 1387 38 1387 103 C1387 167 1437 194 1500 194 C1564 194 1614 167 1614 103 C1614 38 1565 9 1500 9 L1500 9 Z M166 257 L499 257 L499 321 L374 321 L374 782 L307 782 C307 745 300 725 281 709 C266 695 240 688 203 688 L169 688 L169 627 L297 627 L297 321 L166 321 L166 257 Z " />
<glyph glyph-name="threeeighths" unicode="&#x215c;" horiz-adv-x="1920" d="M1203 780 L635 -40 L717 -40 L1285 780 L1203 780 Z M1322 348 C1322 284 1361 244 1408 229 L1408 227 C1359 213 1306 177 1306 100 C1306 13 1374 -51 1500 -51 C1628 -51 1692 15 1692 100 C1692 179 1642 214 1593 227 L1593 229 C1640 244 1676 284 1676 348 C1676 428 1617 491 1500 491 C1384 491 1322 428 1322 348 L1322 348 Z M1500 430 C1555 430 1597 402 1597 342 C1597 282 1553 255 1500 255 C1445 255 1402 282 1402 342 C1402 402 1444 430 1500 430 L1500 430 Z M1500 9 C1439 9 1387 38 1387 103 C1387 167 1437 194 1500 194 C1564 194 1614 167 1614 103 C1614 38 1565 9 1500 9 L1500 9 Z M274 490 L322 490 C390 490 428 458 428 402 C428 346 382 311 322 311 C262 311 217 341 209 406 L129 406 C134 322 188 246 317 246 C440 246 507 317 507 399 C507 479 459 514 400 527 L400 529 C459 550 494 586 494 650 C494 728 430 788 321 788 C196 788 138 711 138 629 L218 629 C220 691 254 722 319 722 C375 722 413 692 413 641 C413 590 376 555 320 555 L274 555 L274 490 Z " />
<glyph glyph-name="fiveeighths" unicode="&#x215d;" horiz-adv-x="1920" d="M1203 780 L635 -40 L717 -40 L1285 780 L1203 780 Z M1322 348 C1322 284 1361 244 1408 229 L1408 227 C1359 213 1306 177 1306 100 C1306 13 1374 -51 1500 -51 C1628 -51 1692 15 1692 100 C1692 179 1642 214 1593 227 L1593 229 C1640 244 1676 284 1676 348 C1676 428 1617 491 1500 491 C1384 491 1322 428 1322 348 L1322 348 Z M1500 430 C1555 430 1597 402 1597 342 C1597 282 1553 255 1500 255 C1445 255 1402 282 1402 342 C1402 402 1444 430 1500 430 L1500 430 Z M1500 9 C1439 9 1387 38 1387 103 C1387 167 1437 194 1500 194 C1564 194 1614 167 1614 103 C1614 38 1565 9 1500 9 L1500 9 Z M431 425 C431 346 382 311 319 311 C256 311 215 338 208 398 L130 398 C135 322 184 246 315 246 C435 246 510 319 510 427 C510 550 430 604 337 604 C285 604 246 582 227 559 L222 559 L229 709 L482 709 L482 780 L163 780 L149 495 L218 495 C238 524 276 539 321 539 C388 539 431 498 431 425 L431 425 Z " />
<glyph glyph-name="seveneighths" unicode="&#x215e;" horiz-adv-x="1920" d="M1183 780 L615 -40 L697 -40 L1265 780 L1183 780 Z M1322 348 C1322 284 1361 244 1408 229 L1408 227 C1359 213 1306 177 1306 100 C1306 13 1374 -51 1500 -51 C1628 -51 1692 15 1692 100 C1692 179 1642 214 1593 227 L1593 229 C1640 244 1676 284 1676 348 C1676 428 1617 491 1500 491 C1384 491 1322 428 1322 348 L1322 348 Z M1500 430 C1555 430 1597 402 1597 342 C1597 282 1553 255 1500 255 C1445 255 1402 282 1402 342 C1402 402 1444 430 1500 430 L1500 430 Z M1500 9 C1439 9 1387 38 1387 103 C1387 167 1437 194 1500 194 C1564 194 1614 167 1614 103 C1614 38 1565 9 1500 9 L1500 9 Z M416 706 L184 257 L266 257 L510 731 L510 780 L128 780 L128 706 L416 706 Z " />
<glyph glyph-name="minus" unicode="&#x2212;" horiz-adv-x="640" d="M90 397 L90 318 L550 318 L550 397 L90 397 Z " />
<glyph glyph-name="approxequal" unicode="&#x2248;" horiz-adv-x="640" d="M90 390 L163 390 C166 434 188 451 211 451 C251 451 363 393 429 393 C501 393 550 443 550 528 L477 528 C474 484 452 466 429 466 C395 466 278 525 212 525 C140 525 90 475 90 390 L90 390 Z M211 271 C251 271 363 213 430 213 C502 213 550 263 550 348 L477 348 C474 304 452 286 429 286 C395 286 278 345 212 345 C140 345 90 295 90 210 L163 210 C166 254 188 271 211 271 L211 271 Z " />
<glyph glyph-name="notequal" unicode="&#x2260;" horiz-adv-x="640" d="M236 109 L296 229 L550 229 L550 305 L334 305 L387 410 L550 410 L550 486 L425 486 L485 606 L404 606 L344 486 L90 486 L90 410 L306 410 L253 305 L90 305 L90 229 L215 229 L155 109 L236 109 Z " />
<glyph glyph-name="lessequal" unicode="&#x2264;" horiz-adv-x="640" d="M83 328 L551 132 L551 219 L198 363 L551 507 L551 594 L83 398 L83 328 Z M83 0 L551 0 L551 77 L83 77 L83 0 Z " />
<glyph glyph-name="greaterequal" unicode="&#x2265;" horiz-adv-x="640" d="M556 398 L88 594 L88 507 L441 363 L88 219 L88 132 L556 328 L556 398 Z M88 0 L556 0 L556 77 L88 77 L88 0 Z " />
<glyph glyph-name="uni24C5" unicode="&#x24c5;" horiz-adv-x="640" d="M50 422 L50 340 C50 134 124 -16 320 -16 C516 -16 590 136 590 340 L590 422 C590 620 517 777 320 777 C123 777 50 621 50 422 L50 422 Z M320 39 C148 39 115 189 115 344 L115 418 C115 565 148 722 320 722 C493 722 525 565 525 418 L525 344 C525 189 493 39 320 39 L320 39 Z M284 326 L323 326 C403 326 465 361 465 460 C465 559 406 591 329 591 L214 591 L214 171 L284 171 L284 326 Z M328 381 L284 381 L284 536 L329 536 C368 536 395 516 395 459 C395 402 367 381 328 381 L328 381 Z " />
<glyph glyph-name="fi" unicode="&#xfb01;" horiz-adv-x="1280" d="M352 0 L352 452 L558 452 L558 527 L352 527 L352 626 C352 691 386 716 449 716 C500 716 529 708 558 699 L558 775 C527 784 498 791 446 791 C344 791 263 746 263 634 L263 527 L72 527 L72 452 L263 452 L263 0 L352 0 Z M896 760 L896 626 L1030 626 L1030 760 L896 760 Z M733 0 L1210 0 L1210 75 L1013 75 L1013 527 L762 527 L762 455 L927 455 L927 75 L733 75 L733 0 Z " />
<glyph glyph-name="fl" unicode="&#xfb02;" horiz-adv-x="1280" d="M352 0 L352 452 L558 452 L558 527 L352 527 L352 626 C352 691 386 716 449 716 C500 716 529 708 558 699 L558 775 C527 784 498 791 446 791 C344 791 263 746 263 634 L263 527 L72 527 L72 452 L263 452 L263 0 L352 0 Z M732 0 L1209 0 L1209 75 L1013 75 L1013 788 L751 788 L751 716 L924 716 L924 75 L732 75 L732 0 Z " />
</font>
</svg>
