<?xml version="1.0" encoding="UTF-8"?>
<svg xmlns="http://www.w3.org/2000/svg" xmlns:xlink="http://www.w3.org/1999/xlink" version="1.2" >
<font id="Office Code Pro Light">
<font-face  font-family="Office Code Pro" units-per-em="1000" ascent="812" descent="-188" font-style="normal" font-weight="300" font-stretch="normal" cap-height="765" x-height="524" underline-position="-75" underline-thickness="50" />
<missing-glyph  horiz-adv-x="500" d="" />
<glyph glyph-name="NULL" d="" />
<glyph glyph-name="CR" unicode="&#xd;" horiz-adv-x="500" d="" />
<glyph glyph-name="space" unicode="&#x20;" horiz-adv-x="640" d="" />
<glyph glyph-name="exclam" unicode="&#x21;" horiz-adv-x="640" d="M282 788 L292 221 L348 221 L358 788 L282 788 Z M265 0 L375 0 L375 115 L265 115 L265 0 Z " />
<glyph glyph-name="quotedbl" unicode="&#x22;" horiz-adv-x="640" d="M352 765 L376 504 L438 504 L461 765 L352 765 Z M170 765 L194 504 L256 504 L279 765 L170 765 Z " />
<glyph glyph-name="numbersign" unicode="&#x23;" horiz-adv-x="640" d="M405 527 L381 361 L230 361 L255 527 L405 527 Z M193 99 L223 308 L374 308 L343 99 L400 99 L430 308 L553 308 L553 361 L438 361 L462 527 L584 527 L584 581 L470 581 L497 765 L440 765 L413 581 L262 581 L290 765 L233 765 L206 581 L88 581 L88 527 L197 527 L173 361 L57 361 L57 308 L165 308 L135 99 L193 99 Z " />
<glyph glyph-name="dollar" unicode="&#x24;" horiz-adv-x="640" d="M291 694 L291 414 L277 416 C196 429 154 472 154 553 C154 629 198 683 291 694 L291 694 Z M352 53 L345 52 L345 339 L371 335 C467 319 499 272 499 205 C499 128 459 64 352 53 L352 53 Z M291 -116 L345 -116 L345 -6 C496 5 568 91 568 208 C568 315 507 378 385 398 L345 405 L345 694 C446 683 480 617 488 541 L555 541 C548 664 476 740 345 749 L345 839 L291 839 L291 749 C166 738 86 661 86 553 C86 440 141 373 268 352 L291 348 L291 52 C181 63 141 134 130 211 L64 211 C75 91 145 2 291 -6 L291 -116 Z " />
<glyph glyph-name="percent" unicode="&#x25;" horiz-adv-x="640" d="M522 774 L58 0 L121 0 L586 774 L522 774 Z M30 602 C30 494 93 432 177 432 C260 432 325 494 325 602 C325 711 260 771 177 771 C96 771 30 711 30 602 L30 602 Z M177 723 C226 723 265 682 265 602 C265 522 226 481 177 481 C128 481 90 521 90 602 C90 686 128 723 177 723 L177 723 Z M464 -6 C547 -6 611 56 611 164 C611 273 547 333 464 333 C383 333 317 273 317 164 C317 56 380 -6 464 -6 L464 -6 Z M464 43 C413 43 377 83 377 163 C377 247 413 285 464 285 C513 285 552 244 552 163 C552 83 513 43 464 43 L464 43 Z " />
<glyph glyph-name="ampersand" unicode="&#x26;" horiz-adv-x="640" d="M181 621 C181 684 221 732 289 732 C357 732 391 687 391 628 C391 557 355 518 260 449 C206 522 181 555 181 621 L181 621 Z M232 367 L238 371 L431 107 C396 64 348 39 273 39 C200 39 115 83 115 193 C115 267 146 303 232 367 L232 367 Z M580 0 L613 0 L613 59 C556 59 546 60 503 116 C546 193 560 291 567 382 L508 382 C500 306 492 230 465 167 L292 404 C403 483 456 540 456 632 C456 716 399 787 290 787 C185 787 114 717 114 616 C114 537 152 486 205 415 C88 332 45 280 45 185 C45 71 129 -16 272 -16 C360 -16 421 15 465 63 C504 13 533 0 580 0 L580 0 Z " />
<glyph glyph-name="quotesingle" unicode="&#x27;" horiz-adv-x="640" d="M271 765 L295 504 L357 504 L380 765 L271 765 Z " />
<glyph glyph-name="parenleft" unicode="&#x28;" horiz-adv-x="640" d="M418 -130 L495 -130 C372 -26 276 122 276 329 C276 536 370 679 495 788 L418 788 C296 687 206 531 206 329 C206 129 296 -32 418 -130 L418 -130 Z " />
<glyph glyph-name="parenright" unicode="&#x29;" horiz-adv-x="640" d="M222 788 L145 788 C268 684 364 536 364 329 C364 122 269 -22 145 -130 L222 -130 C344 -29 434 127 434 329 C434 530 344 687 222 788 L222 788 Z " />
<glyph glyph-name="asterisk" unicode="&#x2a;" horiz-adv-x="640" d="M320 470 L322 470 L443 281 L505 325 L361 498 L361 501 L564 564 L539 635 L345 546 L343 547 L359 765 L282 765 L297 546 L294 545 L100 636 L74 562 L278 500 L278 498 L135 326 L196 282 L320 470 Z " />
<glyph glyph-name="plus" unicode="&#x2b;" horiz-adv-x="640" d="M350 131 L350 328 L548 328 L548 387 L350 387 L350 583 L289 583 L289 387 L92 387 L92 328 L289 328 L289 131 L350 131 Z " />
<glyph glyph-name="comma" unicode="&#x2c;" horiz-adv-x="640" d="M233 -129 L297 -129 L397 117 L285 117 L233 -129 Z " />
<glyph glyph-name="hyphen" unicode="&#x2d;" horiz-adv-x="640" d="M171 366 L171 299 L469 299 L469 366 L171 366 Z " />
<glyph glyph-name="period" unicode="&#x2e;" horiz-adv-x="640" d="M265 115 L265 0 L375 0 L375 115 L265 115 Z " />
<glyph glyph-name="slash" unicode="&#x2f;" horiz-adv-x="640" d="M510 788 L40 -130 L105 -130 L576 788 L510 788 Z " />
<glyph glyph-name="zero" unicode="0" horiz-adv-x="640" d="M66 368 C66 105 160 -16 320 -16 C479 -16 574 105 574 368 C574 631 477 752 320 752 C161 752 66 631 66 368 L66 368 Z M320 42 C203 42 139 142 139 367 C139 595 204 693 320 693 C436 693 501 592 501 367 C501 143 436 42 320 42 L320 42 Z " />
<glyph glyph-name="one" unicode="1" horiz-adv-x="640" d="M113 0 L551 0 L551 57 L367 57 L367 744 L309 744 C308 691 302 662 281 641 C262 621 232 616 187 616 L124 616 L124 560 L299 560 L299 57 L113 57 L113 0 Z " />
<glyph glyph-name="two" unicode="2" horiz-adv-x="640" d="M101 502 L168 502 C168 633 236 694 336 694 C429 694 489 636 489 548 C489 455 443 406 349 314 L86 58 L86 0 L573 0 L573 60 L175 60 L175 63 C182 69 190 76 199 85 C215 100 239 123 274 156 L410 286 C517 391 559 452 559 551 C559 654 488 752 334 752 C203 752 96 662 101 502 L101 502 Z " />
<glyph glyph-name="three" unicode="3" horiz-adv-x="640" d="M262 347 L330 347 C426 347 495 300 495 199 C495 102 422 43 326 43 C216 43 156 97 146 205 L79 205 C84 89 150 -15 321 -15 C470 -15 565 80 565 198 C565 305 500 362 415 381 L415 383 C495 410 545 470 545 562 C545 677 457 752 326 752 C171 752 97 652 97 532 L164 532 C168 647 228 693 324 693 C417 693 476 639 476 554 C476 477 428 407 327 407 L262 407 L262 347 Z " />
<glyph glyph-name="four" unicode="4" horiz-adv-x="640" d="M406 246 L129 246 L352 580 C368 603 380 626 389 643 C394 653 398 662 402 670 L406 670 L406 246 Z M473 188 L576 188 L576 247 L473 247 L473 741 L390 741 L59 243 L59 188 L406 188 L406 0 L473 0 L473 188 Z " />
<glyph glyph-name="five" unicode="5" horiz-adv-x="640" d="M137 200 L70 200 C78 92 147 -15 312 -15 C460 -15 564 77 564 239 C564 408 452 482 331 482 C255 482 198 455 169 416 L167 416 L183 679 L524 679 L524 741 L124 741 L100 351 L166 351 C196 400 248 424 321 424 C414 424 494 364 494 235 C494 90 396 43 312 43 C212 43 149 96 137 200 L137 200 Z " />
<glyph glyph-name="six" unicode="6" horiz-adv-x="640" d="M486 587 L553 587 C540 673 476 752 342 752 C171 752 74 619 74 331 C74 64 188 -15 329 -15 C482 -15 573 93 573 233 C573 404 460 473 343 473 C244 473 179 422 146 354 L143 354 C146 557 194 696 340 696 C432 696 473 642 486 587 L486 587 Z M330 42 C229 42 156 117 156 234 C156 350 225 414 329 414 C429 414 503 353 503 228 C503 107 423 42 330 42 L330 42 Z " />
<glyph glyph-name="seven" unicode="7" horiz-adv-x="640" d="M487 680 L163 0 L235 0 L564 694 L564 741 L75 741 L75 680 L487 680 Z " />
<glyph glyph-name="eight" unicode="8" horiz-adv-x="640" d="M94 557 C94 460 158 402 222 383 L222 379 C163 366 73 315 73 191 C73 67 163 -16 319 -16 C476 -16 567 69 567 191 C567 313 480 365 418 379 L418 383 C483 402 544 460 544 557 C544 664 462 752 319 752 C177 752 94 664 94 557 L94 557 Z M319 697 C398 697 474 653 474 552 C474 452 396 408 319 408 C240 408 164 452 164 552 C164 653 239 697 319 697 L319 697 Z M319 39 C223 39 144 84 144 194 C144 304 227 351 319 351 C414 351 496 304 496 194 C496 84 417 39 319 39 L319 39 Z " />
<glyph glyph-name="nine" unicode="9" horiz-adv-x="640" d="M312 693 C405 693 483 629 483 513 C483 402 410 336 313 336 C220 336 145 398 145 513 C145 640 229 693 312 693 L312 693 Z M152 160 L86 160 C105 41 194 -16 301 -16 C472 -16 561 98 561 420 C561 652 461 751 313 751 C173 751 76 651 76 513 C76 350 186 278 304 278 C392 278 460 319 491 390 L495 390 C490 142 443 40 306 40 C226 40 171 80 152 160 L152 160 Z " />
<glyph glyph-name="colon" unicode="&#x3a;" horiz-adv-x="640" d="M265 392 L375 392 L375 507 L265 507 L265 392 Z M265 0 L375 0 L375 115 L265 115 L265 0 Z " />
<glyph glyph-name="semicolon" unicode="&#x3b;" horiz-adv-x="640" d="M272 392 L382 392 L382 507 L272 507 L272 392 Z M213 -129 L278 -129 L378 117 L265 117 L213 -129 Z " />
<glyph glyph-name="less" unicode="&#x3c;" horiz-adv-x="640" d="M86 295 L545 73 L545 141 L166 322 L545 503 L545 571 L86 348 L86 295 Z " />
<glyph glyph-name="equal" unicode="&#x3d;" horiz-adv-x="640" d="M92 478 L92 418 L548 418 L548 478 L92 478 Z M92 237 L548 237 L548 297 L92 297 L92 237 Z " />
<glyph glyph-name="greater" unicode="&#x3e;" horiz-adv-x="640" d="M554 347 L95 570 L95 502 L474 321 L95 140 L95 73 L554 296 L554 347 Z " />
<glyph glyph-name="question" unicode="&#x3f;" horiz-adv-x="640" d="M473 599 C473 538 450 495 402 455 L360 418 C294 360 283 347 283 259 L283 216 L346 216 L346 253 C346 321 352 326 400 372 L434 403 C493 456 542 505 542 606 C542 703 475 797 320 797 C181 797 81 703 86 547 L151 547 C148 668 215 738 319 738 C415 738 473 684 473 599 L473 599 Z M260 0 L370 0 L370 115 L260 115 L260 0 Z " />
<glyph glyph-name="at" unicode="&#x40;" horiz-adv-x="640" d="M349 -124 C388 -124 430 -119 469 -104 L470 -53 C431 -64 403 -71 354 -71 C159 -71 121 68 121 268 L121 308 C121 383 128 453 149 510 C173 579 227 630 331 630 C478 630 515 526 520 408 L514 408 C489 451 447 476 391 476 C290 476 227 407 227 274 C227 130 301 74 383 74 C446 74 491 101 516 154 L521 154 L521 85 L578 85 L578 398 C578 559 508 682 332 682 C198 682 127 619 93 529 C69 466 62 393 62 312 L62 246 C62 -2 144 -124 349 -124 L349 -124 Z M396 128 C320 128 296 193 296 277 C296 366 328 423 404 423 C463 423 514 374 514 291 L514 251 C514 182 464 128 396 128 L396 128 Z " />
<glyph glyph-name="A" unicode="A" horiz-adv-x="640" d="M312 695 L321 695 C323 684 325 673 328 661 C332 641 339 615 346 592 L429 308 L204 308 L287 591 C300 636 312 690 312 695 L312 695 Z M446 250 L518 0 L594 0 L365 765 L272 765 L43 0 L114 0 L187 250 L446 250 Z " />
<glyph glyph-name="B" unicode="B" horiz-adv-x="640" d="M93 0 L314 0 C466 0 585 57 585 221 C585 314 525 391 422 407 L422 409 C514 428 562 487 562 582 C562 706 469 765 341 765 L93 765 L93 0 Z M330 435 L164 435 L164 706 L339 706 C430 706 489 664 489 572 C489 465 415 435 330 435 L330 435 Z M311 59 L164 59 L164 377 L324 377 C437 377 511 329 511 221 C511 108 444 59 311 59 L311 59 Z " />
<glyph glyph-name="C" unicode="C" horiz-adv-x="640" d="M508 545 L580 545 C567 697 466 777 338 777 C155 777 62 647 62 379 C62 95 164 -16 335 -16 C476 -16 565 80 578 222 L508 222 C500 133 453 42 339 42 C196 42 137 156 137 379 C137 594 182 719 337 719 C453 719 500 628 508 545 L508 545 Z " />
<glyph glyph-name="D" unicode="D" horiz-adv-x="640" d="M78 765 L78 0 L263 0 C447 0 592 112 592 388 C592 661 440 765 256 765 L78 765 Z M256 62 L149 62 L149 704 L260 704 C402 704 517 614 517 385 C517 140 403 62 256 62 L256 62 Z " />
<glyph glyph-name="E" unicode="E" horiz-adv-x="640" d="M106 765 L106 0 L556 0 L556 62 L177 62 L177 360 L507 360 L507 420 L177 420 L177 703 L552 703 L552 765 L106 765 Z " />
<glyph glyph-name="F" unicode="F" horiz-adv-x="640" d="M196 0 L196 334 L538 334 L538 394 L196 394 L196 703 L577 703 L577 765 L125 765 L125 0 L196 0 Z " />
<glyph glyph-name="G" unicode="G" horiz-adv-x="640" d="M340 718 C444 718 495 646 503 561 L574 561 C566 678 483 776 340 776 C169 776 62 653 62 379 C62 83 160 -16 323 -16 C427 -16 489 46 513 113 L517 113 L517 0 L580 0 L580 378 L326 378 L326 317 L513 317 L513 256 C513 149 455 41 332 41 C190 41 137 147 137 377 C137 597 193 718 340 718 L340 718 Z " />
<glyph glyph-name="H" unicode="H" horiz-adv-x="640" d="M152 0 L152 359 L488 359 L488 0 L559 0 L559 765 L488 765 L488 420 L152 420 L152 765 L81 765 L81 0 L152 0 Z " />
<glyph glyph-name="I" unicode="I" horiz-adv-x="640" d="M355 58 L355 707 L534 707 L534 765 L106 765 L106 707 L285 707 L285 58 L106 58 L106 0 L534 0 L534 58 L355 58 Z " />
<glyph glyph-name="J" unicode="J" horiz-adv-x="640" d="M263 -9 C399 -9 497 61 497 216 L497 765 L157 765 L157 704 L426 704 L426 224 C426 105 371 55 263 55 C199 55 148 64 112 75 L112 10 C147 1 190 -9 263 -9 L263 -9 Z " />
<glyph glyph-name="K" unicode="K" horiz-adv-x="640" d="M173 0 L173 268 L269 386 L525 0 L611 0 L318 441 L583 765 L500 765 L173 361 L173 765 L102 765 L102 0 L173 0 Z " />
<glyph glyph-name="L" unicode="L" horiz-adv-x="640" d="M129 765 L129 0 L590 0 L590 62 L201 62 L201 765 L129 765 Z " />
<glyph glyph-name="M" unicode="M" horiz-adv-x="640" d="M81 765 L81 0 L147 0 L147 675 L155 675 C157 663 159 650 162 637 C166 614 173 582 182 550 L286 185 L351 185 L455 551 C464 583 470 614 475 637 C478 650 480 663 482 675 L491 675 L491 0 L559 0 L559 765 L458 765 L345 365 C337 337 332 311 329 292 C327 281 326 270 325 261 L317 261 C316 270 314 281 312 292 C309 311 304 337 296 366 L182 765 L81 765 Z " />
<glyph glyph-name="N" unicode="N" horiz-adv-x="640" d="M80 765 L80 0 L145 0 L145 684 L150 684 C153 674 157 663 161 652 C168 632 179 606 192 578 L463 0 L560 0 L560 765 L495 765 L495 81 L489 81 C486 89 483 98 480 108 C473 125 465 148 453 175 L177 765 L80 765 Z " />
<glyph glyph-name="O" unicode="O" horiz-adv-x="640" d="M55 380 C55 87 151 -16 319 -16 C476 -16 585 87 585 380 C585 674 486 776 321 776 C166 776 55 674 55 380 L55 380 Z M320 41 C188 41 130 142 130 380 C130 622 193 719 320 719 C452 719 510 629 510 380 C510 139 450 41 320 41 L320 41 Z " />
<glyph glyph-name="P" unicode="P" horiz-adv-x="640" d="M170 304 L321 304 C485 304 581 390 581 538 C581 686 484 765 325 765 L99 765 L99 0 L170 0 L170 304 Z M323 362 L170 362 L170 707 L325 707 C441 707 508 650 508 537 C508 414 430 362 323 362 L323 362 Z " />
<glyph glyph-name="Q" unicode="Q" horiz-adv-x="640" d="M474 34 L474 39 C545 90 585 197 585 380 C585 674 486 776 321 776 C166 776 55 674 55 380 C55 87 152 -15 320 -15 C360 -15 392 -8 417 -8 C466 -8 514 -42 546 -121 L611 -89 C582 -24 541 17 474 34 L474 34 Z M320 719 C453 719 510 628 510 380 C510 116 438 41 320 41 C187 41 130 142 130 380 C130 622 192 719 320 719 L320 719 Z " />
<glyph glyph-name="R" unicode="R" horiz-adv-x="640" d="M335 385 L162 385 L162 705 L334 705 C443 705 507 652 507 552 C507 433 430 385 335 385 L335 385 Z M341 326 L509 0 L589 0 L413 336 L413 338 C501 359 581 425 581 553 C581 641 544 699 484 732 C441 755 389 765 333 765 L90 765 L90 0 L162 0 L162 326 L341 326 Z " />
<glyph glyph-name="S" unicode="S" horiz-adv-x="640" d="M499 561 L570 561 C559 690 485 776 330 776 C190 776 90 696 90 572 C90 458 140 398 281 366 L380 343 C476 320 508 279 508 199 C508 116 459 44 324 44 C194 44 142 121 131 212 L62 212 C73 81 157 -15 320 -15 C490 -15 581 74 581 205 C581 316 530 378 399 409 L291 434 C201 455 160 488 160 574 C160 665 225 717 329 717 C446 717 491 646 499 561 L499 561 Z " />
<glyph glyph-name="T" unicode="T" horiz-adv-x="640" d="M604 704 L604 765 L35 765 L35 704 L284 704 L284 0 L355 0 L355 704 L604 704 Z " />
<glyph glyph-name="U" unicode="U" horiz-adv-x="640" d="M75 765 L75 247 C75 57 170 -15 320 -15 C468 -15 565 57 565 246 L565 765 L495 765 L495 250 C495 123 452 47 322 47 C191 47 146 123 146 250 L146 765 L75 765 Z " />
<glyph glyph-name="V" unicode="V" horiz-adv-x="640" d="M368 0 L594 765 L524 765 L352 172 C345 148 339 123 334 103 C331 91 329 80 326 70 L317 70 C315 81 313 92 310 103 C305 122 299 147 292 171 L120 765 L46 765 L272 0 L368 0 Z " />
<glyph glyph-name="W" unicode="W" horiz-adv-x="640" d="M117 0 L213 0 L299 414 C304 441 309 467 312 487 C314 499 315 510 316 521 L322 521 C323 510 324 499 326 487 C329 467 332 441 339 414 L425 0 L523 0 L598 765 L535 765 L470 79 L463 79 C462 88 460 98 459 109 C456 128 453 150 448 174 L357 605 L286 605 L195 175 C190 150 186 128 183 109 C181 98 180 88 179 79 L173 79 L107 765 L41 765 L117 0 Z " />
<glyph glyph-name="X" unicode="X" horiz-adv-x="640" d="M277 390 L42 0 L115 0 L315 337 L317 337 L517 0 L598 0 L356 395 L575 765 L501 765 L320 449 L316 449 L138 765 L57 765 L277 390 Z " />
<glyph glyph-name="Y" unicode="Y" horiz-adv-x="640" d="M285 337 L285 0 L356 0 L356 338 L599 765 L525 765 L323 400 L322 400 L122 765 L42 765 L285 337 Z " />
<glyph glyph-name="Z" unicode="Z" horiz-adv-x="640" d="M77 765 L77 704 L496 704 L62 55 L62 0 L586 0 L586 61 L146 61 L580 710 L580 765 L77 765 Z " />
<glyph glyph-name="bracketleft" unicode="&#x5b;" horiz-adv-x="640" d="M215 788 L215 -130 L471 -130 L471 -76 L281 -76 L281 734 L471 734 L471 788 L215 788 Z " />
<glyph glyph-name="backslash" unicode="&#x5c;" horiz-adv-x="640" d="M64 788 L534 -130 L600 -130 L131 788 L64 788 Z " />
<glyph glyph-name="bracketright" unicode="&#x5d;" horiz-adv-x="640" d="M425 -130 L425 788 L169 788 L169 734 L359 734 L359 -76 L169 -76 L169 -130 L425 -130 Z " />
<glyph glyph-name="asciicircum" unicode="&#x5e;" horiz-adv-x="640" d="M536 427 L352 765 L291 765 L104 426 L172 426 L318 695 L322 695 L462 427 L536 427 Z " />
<glyph glyph-name="underscore" unicode="&#x5f;" horiz-adv-x="640" d="M100 -130 L100 -188 L540 -188 L540 -130 L100 -130 Z " />
<glyph glyph-name="grave" unicode="&#x60;" horiz-adv-x="640" d="M334 609 L392 609 L327 788 L223 788 L334 609 Z " />
<glyph glyph-name="a" unicode="a" horiz-adv-x="640" d="M163 143 C163 175 176 200 201 218 C234 241 303 250 438 258 L438 236 C438 107 353 48 273 48 C206 48 163 79 163 143 L163 143 Z M439 101 L442 101 C445 32 467 0 544 0 L568 0 L568 56 L549 56 C516 56 505 68 505 104 L505 338 C505 454 458 537 309 537 C187 537 122 464 114 383 L181 383 C186 433 222 481 310 481 C414 481 439 427 439 334 L439 312 C306 305 220 295 167 266 C120 241 93 200 93 140 C93 47 158 -8 261 -8 C345 -8 408 32 439 101 L439 101 Z " />
<glyph glyph-name="b" unicode="b" horiz-adv-x="640" d="M97 788 L97 0 L162 0 L162 90 L164 90 C191 37 249 -13 339 -13 C465 -13 571 75 571 265 C571 468 464 537 350 537 C266 537 201 498 168 434 L167 434 L167 788 L97 788 Z M334 43 C218 43 165 134 165 226 L165 308 C165 396 224 481 336 481 C459 481 500 384 500 265 C500 126 446 43 334 43 L334 43 Z " />
<glyph glyph-name="c" unicode="c" horiz-adv-x="640" d="M480 378 L550 378 C534 494 436 538 340 538 C184 538 97 423 97 259 C98 91 176 -13 335 -13 C448 -13 533 48 552 161 L482 161 C471 104 432 43 336 43 C219 43 170 125 170 264 C170 401 231 481 339 481 C427 481 472 429 480 378 L480 378 Z " />
<glyph glyph-name="d" unicode="d" horiz-adv-x="640" d="M476 301 L476 219 C476 130 421 43 306 43 C190 43 141 132 141 263 C141 391 196 481 313 481 C416 481 476 399 476 301 L476 301 Z M544 0 L544 788 L474 788 L474 442 L472 442 C444 498 385 537 305 537 C165 537 70 438 70 259 C70 50 191 -13 300 -13 C389 -13 449 35 475 90 L478 90 L478 0 L544 0 Z " />
<glyph glyph-name="e" unicode="e" horiz-adv-x="640" d="M480 305 L480 300 L162 300 C173 408 226 482 330 482 C450 482 480 388 480 305 L480 305 Z M541 131 L475 131 C464 102 434 43 335 43 C216 43 165 118 160 246 L550 246 L550 289 C550 413 493 537 331 537 C175 537 91 418 91 258 C91 94 168 -13 333 -13 C446 -13 521 47 541 131 L541 131 Z " />
<glyph glyph-name="f" unicode="f" horiz-adv-x="640" d="M343 0 L343 467 L555 467 L555 524 L343 524 L343 628 C343 704 377 728 445 728 C488 728 524 721 555 712 L555 771 C522 782 487 787 444 787 C344 787 274 738 274 633 L274 524 L79 524 L79 467 L274 467 L274 0 L343 0 Z " />
<glyph glyph-name="g" unicode="g" horiz-adv-x="640" d="M480 303 L480 230 C480 139 418 58 311 58 C186 58 143 148 143 269 C143 393 197 481 310 481 C425 481 480 395 480 303 L480 303 Z M313 -199 C449 -199 548 -131 548 21 L548 524 L482 524 L482 435 L480 435 C456 486 399 537 306 537 C170 537 71 444 71 269 C71 69 189 2 293 2 C380 2 445 45 477 105 L479 105 L479 22 C479 -104 407 -143 314 -143 C218 -143 174 -111 161 -56 L93 -56 C108 -149 190 -199 313 -199 L313 -199 Z " />
<glyph glyph-name="h" unicode="h" horiz-adv-x="640" d="M460 0 L530 0 L530 351 C530 475 473 537 358 537 C264 537 213 490 187 432 L185 432 L185 788 L116 788 L116 0 L185 0 L185 309 C185 399 233 478 343 478 C386 478 418 465 437 439 C456 414 460 378 460 335 L460 0 Z " />
<glyph glyph-name="i" unicode="i" horiz-adv-x="640" d="M267 748 L267 634 L378 634 L378 748 L267 748 Z M99 0 L563 0 L563 57 L363 57 L363 524 L127 524 L127 468 L295 468 L295 57 L99 57 L99 0 Z " />
<glyph glyph-name="j" unicode="j" horiz-adv-x="640" d="M324 634 L435 634 L435 748 L324 748 L324 634 Z M251 -197 C352 -197 420 -144 420 -37 L420 524 L141 524 L141 467 L353 467 L353 -29 C353 -105 319 -136 247 -136 C207 -136 172 -130 141 -121 L141 -182 C174 -191 208 -197 251 -197 L251 -197 Z " />
<glyph glyph-name="k" unicode="k" horiz-adv-x="640" d="M206 0 L206 168 L307 275 L498 0 L580 0 L355 323 L546 524 L463 524 L206 251 L206 788 L139 788 L139 0 L206 0 Z " />
<glyph glyph-name="l" unicode="l" horiz-adv-x="640" d="M92 0 L558 0 L558 57 L358 57 L358 788 L121 788 L121 731 L289 731 L289 57 L92 57 L92 0 Z " />
<glyph glyph-name="m" unicode="m" horiz-adv-x="640" d="M65 524 L65 0 L133 0 L133 328 C133 416 158 479 222 479 C274 479 287 439 287 379 L287 0 L355 0 L355 327 C355 416 380 479 443 479 C496 479 508 438 508 378 L508 0 L577 0 L577 393 C577 493 540 537 464 537 C400 537 363 500 348 443 L345 443 C336 496 305 537 241 537 C178 537 142 499 127 446 L124 446 L124 524 L65 524 Z " />
<glyph glyph-name="n" unicode="n" horiz-adv-x="640" d="M460 334 L460 0 L530 0 L530 351 C530 475 473 537 358 537 C265 537 211 491 183 431 L181 431 L181 524 L116 524 L116 0 L185 0 L185 309 C185 399 233 478 343 478 C386 478 418 465 437 439 C456 414 460 377 460 334 L460 334 Z " />
<glyph glyph-name="o" unicode="o" horiz-adv-x="640" d="M320 -13 C475 -13 559 94 559 262 C559 430 476 537 320 537 C165 537 81 430 81 262 C81 95 164 -13 320 -13 L320 -13 Z M320 482 C433 482 489 398 489 262 C489 127 435 42 320 42 C205 42 151 127 151 262 C151 398 207 482 320 482 L320 482 Z " />
<glyph glyph-name="p" unicode="p" horiz-adv-x="640" d="M165 228 L165 304 C165 395 224 481 336 481 C459 481 500 386 500 268 C500 129 445 43 334 43 C218 43 165 134 165 228 L165 228 Z M97 524 L97 -188 L167 -188 L167 87 L169 87 C188 36 254 -13 338 -13 C464 -13 571 78 571 268 C571 471 464 537 349 537 C264 537 200 496 165 431 L163 431 L163 524 L97 524 Z " />
<glyph glyph-name="q" unicode="q" horiz-adv-x="640" d="M544 -188 L544 524 L477 524 L477 436 L475 436 C450 499 387 537 306 537 C165 537 70 438 70 259 C70 49 191 -13 300 -13 C390 -13 446 37 471 86 L474 86 L474 -188 L544 -188 Z M306 43 C190 43 141 132 141 263 C141 391 196 481 312 481 C416 481 476 399 476 301 L476 219 C476 130 421 43 306 43 L306 43 Z " />
<glyph glyph-name="r" unicode="r" horiz-adv-x="640" d="M422 469 C473 469 510 460 546 445 L546 511 C516 526 478 534 433 534 C322 534 256 482 228 397 L226 397 L226 524 L161 524 L161 0 L231 0 L231 256 C231 397 307 469 422 469 L422 469 Z " />
<glyph glyph-name="s" unicode="s" horiz-adv-x="640" d="M455 398 L522 398 C511 485 446 537 323 537 C194 537 130 470 130 386 C130 294 186 256 274 243 L365 230 C444 219 466 195 466 144 C466 76 412 41 316 41 C225 41 179 79 171 147 L104 147 C117 28 203 -13 316 -13 C463 -13 534 52 534 149 C534 229 494 276 381 291 L291 303 C231 311 196 333 196 390 C196 450 243 483 322 483 C402 483 443 455 455 398 L455 398 Z " />
<glyph glyph-name="t" unicode="t" horiz-adv-x="640" d="M254 467 L254 140 C254 46 297 -12 422 -12 C474 -12 513 -3 541 8 L541 67 C504 55 468 48 425 48 C361 48 323 72 323 141 L323 467 L541 467 L541 524 L323 524 L323 685 L257 685 L257 587 C257 538 246 524 197 524 L61 524 L61 467 L254 467 Z " />
<glyph glyph-name="u" unicode="u" horiz-adv-x="640" d="M180 189 L180 524 L111 524 L111 166 C111 47 169 -13 284 -13 C373 -13 429 38 456 97 L458 97 L458 0 L523 0 L523 524 L454 524 L454 241 C454 122 402 45 298 45 C254 45 222 57 203 82 C184 107 180 146 180 189 L180 189 Z " />
<glyph glyph-name="v" unicode="v" horiz-adv-x="640" d="M71 524 L281 0 L359 0 L569 524 L502 524 L355 154 C347 135 341 114 334 97 C331 87 328 77 325 68 L320 68 C317 77 313 87 310 97 C303 114 296 135 289 154 L142 524 L71 524 Z " />
<glyph glyph-name="w" unicode="w" horiz-adv-x="640" d="M39 524 L148 0 L229 0 L301 342 C305 365 310 388 313 407 C315 418 317 429 318 439 L322 439 C323 429 325 418 327 407 C330 388 334 365 339 342 L412 0 L492 0 L601 524 L536 524 L463 138 C460 127 460 111 457 96 C456 88 455 80 454 71 L450 71 C449 80 447 88 446 96 C443 111 442 127 439 138 L358 524 L285 524 L203 138 C200 125 198 108 195 95 L192 71 L188 71 C187 79 186 87 185 94 C182 107 182 123 179 138 L105 524 L39 524 Z " />
<glyph glyph-name="x" unicode="x" horiz-adv-x="640" d="M280 271 L80 0 L153 0 L315 222 L318 222 L478 0 L559 0 L358 274 L539 524 L467 524 L324 323 L320 323 L174 524 L95 524 L280 271 Z " />
<glyph glyph-name="y" unicode="y" horiz-adv-x="640" d="M86 524 L293 -1 L275 -45 C246 -112 226 -141 161 -141 C130 -141 107 -135 87 -130 L87 -188 C103 -192 127 -199 163 -199 C254 -199 300 -159 345 -42 L566 524 L496 524 L360 161 C352 141 345 120 340 104 C337 95 334 86 331 78 L328 78 C325 87 322 95 319 104 C314 119 307 139 299 160 L159 524 L86 524 Z " />
<glyph glyph-name="z" unicode="z" horiz-adv-x="640" d="M116 524 L116 466 L449 466 L99 61 L99 0 L538 0 L538 58 L178 58 L530 465 L530 524 L116 524 Z " />
<glyph glyph-name="braceleft" unicode="&#x7b;" horiz-adv-x="640" d="M138 298 L181 298 C245 298 264 276 264 219 L264 23 C264 -84 321 -130 468 -130 L489 -130 L489 -74 C356 -74 330 -47 330 36 L330 209 C330 258 318 316 249 327 L249 331 C318 342 330 397 330 449 L330 622 C330 705 356 732 489 732 L489 788 L468 788 C321 788 264 737 264 634 L264 440 C264 383 245 361 181 361 L138 361 L138 298 Z " />
<glyph glyph-name="bar" unicode="&#x7c;" horiz-adv-x="640" d="M289 788 L289 -130 L350 -130 L350 788 L289 788 Z " />
<glyph glyph-name="braceright" unicode="&#x7d;" horiz-adv-x="640" d="M502 360 L459 360 C395 360 376 382 376 439 L376 635 C376 742 319 788 172 788 L151 788 L151 732 C284 732 310 705 310 622 L310 449 C310 400 322 342 391 331 L391 327 C322 316 310 259 310 209 L310 36 C310 -47 284 -74 151 -74 L151 -130 L172 -130 C319 -130 376 -82 376 21 L376 218 C376 275 395 297 459 297 L502 297 L502 360 Z " />
<glyph glyph-name="asciitilde" unicode="&#x7e;" horiz-adv-x="640" d="M100 297 L154 297 C157 348 181 366 208 366 C263 366 352 298 427 298 C495 298 538 349 538 425 L483 425 C480 374 457 355 430 355 C380 355 285 424 211 424 C143 424 99 373 100 297 L100 297 Z " />
<glyph glyph-name="uni00A0" unicode="&#xa0;" horiz-adv-x="640" d="" />
<glyph glyph-name="exclamdown" unicode="&#xa1;" horiz-adv-x="640" d="M362 -188 L352 379 L296 379 L286 -188 L362 -188 Z M379 600 L269 600 L269 485 L379 485 L379 600 Z " />
<glyph glyph-name="cent" unicode="&#xa2;" horiz-adv-x="640" d="M546 161 L479 161 C468 113 443 51 359 43 L359 482 C431 474 471 427 476 378 L545 378 C532 486 450 532 359 537 L359 635 L305 635 L305 536 C174 520 101 405 101 258 C101 105 169 3 305 -12 L305 -116 L359 -116 L359 -12 C458 -4 531 54 546 161 L546 161 Z M305 480 L305 44 C212 59 172 140 172 263 C172 384 221 463 305 480 L305 480 Z " />
<glyph glyph-name="sterling" unicode="&#xa3;" horiz-adv-x="640" d="M573 0 L573 61 L166 61 L166 63 L192 83 C264 142 292 211 258 327 L473 327 L473 382 L239 382 L219 438 C157 610 232 695 351 695 C465 695 500 616 503 536 L571 536 C570 668 493 752 349 752 C195 752 70 632 150 424 L166 382 L71 382 L71 327 L186 327 C228 205 203 155 123 91 L81 57 L81 0 L573 0 Z " />
<glyph glyph-name="currency" unicode="&#xa4;" horiz-adv-x="640" d="M190 346 C190 422 246 481 319 481 C392 481 448 422 448 346 C448 271 392 212 319 212 C246 212 190 271 190 346 L190 346 Z M425 198 L502 120 L544 163 L467 240 C482 263 493 288 498 317 L602 317 L602 377 L497 377 C492 405 482 430 467 453 L548 534 L507 575 L426 494 C403 509 377 521 349 526 L349 630 L289 630 L289 526 C260 521 235 510 212 495 L136 572 L94 530 L171 452 C156 430 145 405 140 377 L37 377 L37 317 L139 317 C144 288 156 262 171 239 L91 160 L133 119 L211 198 C234 183 260 172 289 167 L289 63 L349 63 L349 167 C376 172 402 182 425 198 L425 198 Z " />
<glyph glyph-name="yen" unicode="&#xa5;" horiz-adv-x="640" d="M287 174 L287 0 L353 0 L353 174 L553 174 L553 228 L353 228 L353 325 L551 325 L551 380 L363 380 L575 741 L502 741 L321 422 L319 422 L143 741 L65 741 L276 380 L84 380 L84 325 L287 325 L287 228 L86 228 L86 174 L287 174 Z " />
<glyph glyph-name="brokenbar" unicode="&#xa6;" horiz-adv-x="640" d="M350 384 L350 788 L289 788 L289 384 L350 384 Z M289 -130 L350 -130 L350 312 L289 312 L289 -130 Z " />
<glyph glyph-name="section" unicode="&#xa7;" horiz-adv-x="640" d="M149 370 C149 419 187 451 234 462 C250 453 261 446 285 435 L415 376 C476 348 497 320 497 273 C497 221 466 193 413 178 C398 186 384 194 360 205 L228 266 C169 293 149 317 149 370 L149 370 Z M81 361 C81 277 121 241 205 203 L343 140 C410 108 433 89 433 35 C433 -17 400 -56 312 -56 C216 -56 179 -7 171 61 L105 61 C108 -39 170 -112 308 -112 C439 -112 502 -48 502 40 C502 83 492 112 457 141 L457 144 C520 167 565 210 565 285 C565 349 536 393 448 433 L292 505 C240 529 213 547 213 604 C213 659 254 697 331 697 C417 697 445 648 450 592 L517 592 C514 691 445 751 332 751 C219 751 146 688 146 599 C146 555 156 527 187 498 L187 496 C128 475 81 434 81 361 L81 361 Z " />
<glyph glyph-name="dieresis" unicode="&#xa8;" horiz-adv-x="640" d="M164 746 L164 634 L273 634 L273 746 L164 746 Z M365 634 L473 634 L473 746 L365 746 L365 634 Z " />
<glyph glyph-name="copyright" unicode="&#xa9;" horiz-adv-x="640" d="M50 422 L50 340 C50 129 124 -16 320 -16 C516 -16 590 131 590 340 L590 422 C590 625 517 777 320 777 C123 777 50 626 50 422 L50 422 Z M104 341 L104 422 C104 587 153 730 320 730 C487 730 536 587 536 422 L536 341 C536 169 487 30 320 30 C155 30 104 169 104 341 L104 341 Z M449 302 L390 302 C387 253 371 212 328 212 C272 212 249 253 249 381 C249 509 279 551 326 551 C375 551 388 516 389 469 L447 469 C447 567 387 602 327 602 C239 602 189 541 189 378 C189 220 231 161 327 161 C398 161 444 207 449 302 L449 302 Z " />
<glyph glyph-name="ordfeminine" unicode="&#xaa;" horiz-adv-x="640" d="M275 359 C224 359 192 385 192 436 C192 461 201 480 219 493 C247 514 314 513 414 520 L414 510 C414 414 354 359 275 359 L275 359 Z M413 386 L417 386 C424 334 447 312 511 312 L530 312 L530 364 L514 364 C486 364 477 378 477 410 L477 587 C477 714 405 751 313 751 C214 751 146 695 143 621 L206 621 C211 664 242 700 309 700 C381 700 414 664 414 592 L414 569 C314 562 239 562 192 539 C149 519 124 482 124 433 C124 353 173 306 265 306 C332 306 381 335 413 386 L413 386 Z " />
<glyph glyph-name="guillemotleft" unicode="&#xab;" horiz-adv-x="640" d="M506 464 L436 464 L310 260 L437 57 L509 57 L384 259 L506 464 Z M312 464 L243 464 L116 260 L244 57 L315 57 L191 259 L312 464 Z " />
<glyph glyph-name="logicalnot" unicode="&#xac;" horiz-adv-x="640" d="M487 131 L548 131 L548 388 L92 388 L92 327 L487 327 L487 131 Z " />
<glyph glyph-name="registered" unicode="&#xae;" horiz-adv-x="640" d="M74 527 C74 388 178 280 319 280 C461 280 566 388 566 527 C566 667 461 776 319 776 C178 776 74 667 74 527 L74 527 Z M319 318 C204 318 119 408 119 527 C119 647 204 738 319 738 C434 738 521 647 521 527 C521 408 434 318 319 318 L319 318 Z M326 550 L277 550 L277 628 L328 628 C355 628 373 614 373 591 C373 562 354 550 326 550 L326 550 Z M277 408 L277 513 L316 513 L371 408 L422 408 L364 518 C387 523 419 541 419 591 C419 643 376 664 331 664 L232 664 L232 408 L277 408 Z " />
<glyph glyph-name="macron" unicode="&#xaf;" horiz-adv-x="640" d="M174 711 L174 647 L465 647 L465 711 L174 711 Z " />
<glyph glyph-name="degree" unicode="&#xb0;" horiz-adv-x="640" d="M113 551 C113 433 200 344 319 344 C438 344 526 433 526 551 C526 668 438 758 319 758 C200 758 113 668 113 551 L113 551 Z M319 397 C234 397 175 463 175 551 C175 638 234 705 319 705 C404 705 463 638 463 551 C463 463 404 397 319 397 L319 397 Z " />
<glyph glyph-name="plusminus" unicode="&#xb1;" horiz-adv-x="640" d="M350 145 L350 341 L548 341 L548 400 L350 400 L350 596 L289 596 L289 400 L92 400 L92 341 L289 341 L289 145 L350 145 Z M92 59 L92 0 L548 0 L548 59 L92 59 Z " />
<glyph glyph-name="twosuperior" unicode="&#xb2;" horiz-adv-x="640" d="M141 682 L202 682 C205 774 255 811 319 811 C384 811 427 772 427 712 C427 652 400 616 325 552 L129 379 L129 332 L500 332 L500 387 L217 387 L217 389 C224 394 231 399 238 405 C251 416 268 430 288 447 L382 528 C462 600 491 644 491 714 C491 798 428 863 319 863 C218 863 141 797 141 682 L141 682 Z " />
<glyph glyph-name="threesuperior" unicode="&#xb3;" horiz-adv-x="640" d="M275 572 L328 572 C395 572 440 541 440 474 C440 411 388 373 323 373 C251 373 204 408 199 479 L136 479 C139 399 191 321 319 321 C433 321 504 390 504 473 C504 552 456 587 396 601 L396 603 C453 622 490 662 490 726 C490 807 426 863 323 863 C206 863 147 789 147 706 L211 706 C212 779 253 810 321 810 C384 810 425 776 425 719 C425 667 390 624 325 624 L275 624 L275 572 Z " />
<glyph glyph-name="acute" unicode="&#xb4;" horiz-adv-x="640" d="M320 788 L254 609 L313 609 L423 788 L320 788 Z " />
<glyph glyph-name="paragraph" unicode="&#xb6;" horiz-adv-x="640" d="M504 765 L441 765 L441 0 L504 0 L504 765 Z M291 403 L291 0 L354 0 L354 765 L296 765 C183 765 94 712 94 585 C94 466 175 406 291 403 L291 403 Z " />
<glyph glyph-name="periodcentered" unicode="&#xb7;" horiz-adv-x="640" d="M265 359 L265 245 L376 245 L376 359 L265 359 Z " />
<glyph glyph-name="cedilla" unicode="&#xb8;" horiz-adv-x="640" d="M328 -216 C396 -216 433 -174 433 -126 C433 -75 399 -46 346 -46 L310 -46 L346 33 L302 33 L243 -103 L298 -103 C307 -94 319 -89 334 -89 C359 -89 375 -104 375 -129 C375 -156 359 -171 332 -171 C312 -171 302 -166 295 -147 L235 -147 C239 -187 271 -216 328 -216 L328 -216 Z " />
<glyph glyph-name="onesuperior" unicode="&#xb9;" horiz-adv-x="640" d="M168 332 L495 332 L495 383 L366 383 L366 856 L313 856 C313 817 309 797 290 781 C275 767 250 760 214 760 L175 760 L175 713 L304 713 L304 383 L168 383 L168 332 Z " />
<glyph glyph-name="ordmasculine" unicode="&#xba;" horiz-adv-x="640" d="M318 305 C446 305 520 397 520 528 C520 659 457 751 319 751 C195 751 120 657 120 528 C120 397 185 305 318 305 L318 305 Z M321 358 C229 358 186 419 186 528 C186 637 234 699 318 699 C410 699 453 637 453 528 C453 419 408 358 321 358 L321 358 Z " />
<glyph glyph-name="guillemotright" unicode="&#xbb;" horiz-adv-x="640" d="M134 57 L205 57 L330 261 L204 464 L132 464 L256 262 L134 57 Z M328 57 L397 57 L524 261 L396 464 L326 464 L449 262 L328 57 Z " />
<glyph glyph-name="onequarter" unicode="&#xbc;" horiz-adv-x="1920" d="M1243 780 L673 -40 L738 -40 L1307 780 L1243 780 Z M1561 140 L1365 140 L1522 358 C1533 374 1541 389 1548 400 C1551 407 1554 412 1557 417 L1561 417 L1561 140 Z M1619 88 L1705 88 L1705 141 L1619 141 L1619 483 L1549 483 L1302 136 L1302 88 L1559 88 L1559 -40 L1619 -40 L1619 88 Z M168 257 L495 257 L495 308 L366 308 L366 781 L313 781 C313 742 309 722 290 706 C275 692 250 685 214 685 L175 685 L175 638 L304 638 L304 308 L168 308 L168 257 Z " />
<glyph glyph-name="onehalf" unicode="&#xbd;" horiz-adv-x="1920" d="M1213 780 L643 -40 L708 -40 L1277 780 L1213 780 Z M1321 310 L1382 310 C1385 402 1435 439 1499 439 C1564 439 1607 400 1607 340 C1607 280 1580 244 1505 180 L1309 7 L1309 -40 L1680 -40 L1680 15 L1397 15 L1397 17 C1404 22 1411 27 1418 33 C1431 44 1448 58 1468 75 L1562 156 C1642 228 1671 272 1671 342 C1671 426 1608 491 1499 491 C1398 491 1321 425 1321 310 L1321 310 Z M168 257 L495 257 L495 308 L366 308 L366 781 L313 781 C313 742 309 722 290 706 C275 692 250 685 214 685 L175 685 L175 638 L304 638 L304 308 L168 308 L168 257 Z " />
<glyph glyph-name="threequarters" unicode="&#xbe;" horiz-adv-x="1920" d="M1233 780 L663 -40 L728 -40 L1297 780 L1233 780 Z M1561 140 L1365 140 L1522 358 C1533 374 1541 389 1548 400 C1551 407 1554 412 1557 417 L1561 417 L1561 140 Z M1619 88 L1705 88 L1705 141 L1619 141 L1619 483 L1549 483 L1302 136 L1302 88 L1559 88 L1559 -40 L1619 -40 L1619 88 Z M275 497 L328 497 C395 497 440 466 440 399 C440 336 388 298 323 298 C251 298 204 333 199 404 L136 404 C139 324 191 246 319 246 C433 246 504 315 504 398 C504 477 456 512 396 526 L396 528 C453 547 490 587 490 651 C490 732 426 788 323 788 C206 788 147 714 147 631 L211 631 C212 704 253 735 321 735 C384 735 425 701 425 644 C425 592 390 549 325 549 L275 549 L275 497 Z " />
<glyph glyph-name="questiondown" unicode="&#xbf;" horiz-adv-x="640" d="M172 1 C172 62 195 105 243 145 L285 182 C351 240 362 253 362 341 L362 384 L299 384 L299 347 C299 279 293 274 245 228 L211 197 C152 144 103 95 103 -6 C103 -103 170 -197 325 -197 C464 -197 564 -103 559 53 L494 53 C497 -68 430 -138 326 -138 C230 -138 172 -84 172 1 L172 1 Z M385 600 L275 600 L275 485 L385 485 L385 600 Z " />
<glyph glyph-name="Agrave" unicode="&#xc0;" horiz-adv-x="640" d="M312 695 L321 695 C323 684 325 673 328 661 C332 641 339 615 346 592 L429 308 L204 308 L287 591 C300 636 312 690 312 695 L312 695 Z M446 250 L518 0 L594 0 L365 765 L272 765 L43 0 L114 0 L187 250 L446 250 Z M353 827 L296 960 L194 960 L292 827 L353 827 Z " />
<glyph glyph-name="Aacute" unicode="&#xc1;" horiz-adv-x="640" d="M312 695 L321 695 C323 684 325 673 328 661 C332 641 339 615 346 592 L429 308 L204 308 L287 591 C300 636 312 690 312 695 L312 695 Z M446 250 L518 0 L594 0 L365 765 L272 765 L43 0 L114 0 L187 250 L446 250 Z M350 960 L293 827 L354 827 L452 960 L350 960 Z " />
<glyph glyph-name="Acircumflex" unicode="&#xc2;" horiz-adv-x="640" d="M312 695 L321 695 C323 684 325 673 328 661 C332 641 339 615 346 592 L429 308 L204 308 L287 591 C300 636 312 690 312 695 L312 695 Z M446 250 L518 0 L594 0 L365 765 L272 765 L43 0 L114 0 L187 250 L446 250 Z M467 827 L360 960 L277 960 L173 827 L238 827 L316 903 L318 903 L398 827 L467 827 Z " />
<glyph glyph-name="Atilde" unicode="&#xc3;" horiz-adv-x="640" d="M312 695 L321 695 C323 684 325 673 328 661 C332 641 339 615 346 592 L429 308 L204 308 L287 591 C300 636 312 690 312 695 L312 695 Z M446 250 L518 0 L594 0 L365 765 L272 765 L43 0 L114 0 L187 250 L446 250 Z M141 827 L200 827 C203 874 214 899 247 899 C289 899 329 829 395 829 C468 829 498 892 501 964 L443 964 C439 917 430 892 395 892 C351 892 314 961 247 961 C174 961 144 902 141 827 L141 827 Z " />
<glyph glyph-name="Adieresis" unicode="&#xc4;" horiz-adv-x="640" d="M312 695 L321 695 C323 684 325 673 328 661 C332 641 339 615 346 592 L429 308 L204 308 L287 591 C300 636 312 690 312 695 L312 695 Z M446 250 L518 0 L594 0 L365 765 L272 765 L43 0 L114 0 L187 250 L446 250 Z M365 947 L365 834 L473 834 L473 947 L365 947 Z M164 947 L164 834 L273 834 L273 947 L164 947 Z " />
<glyph glyph-name="Aring" unicode="&#xc5;" horiz-adv-x="640" d="M312 695 L321 695 C323 684 325 673 328 661 C332 641 339 615 346 592 L429 308 L204 308 L287 591 C300 636 312 690 312 695 L312 695 Z M446 250 L518 0 L594 0 L365 765 L272 765 L43 0 L114 0 L187 250 L446 250 Z M318 799 C393 799 443 850 443 922 C443 993 394 1046 318 1046 C243 1046 194 994 194 922 C194 850 243 799 318 799 L318 799 Z M318 1002 C365 1002 391 967 391 922 C391 875 363 844 318 844 C273 844 246 875 246 922 C246 967 274 1002 318 1002 L318 1002 Z " />
<glyph glyph-name="AE" unicode="&#xc6;" horiz-adv-x="640" d="M330 703 L330 296 L171 296 L311 703 L330 703 Z M70 0 L152 239 L330 239 L330 0 L629 0 L629 62 L396 62 L396 360 L588 360 L588 420 L396 420 L396 703 L625 703 L625 765 L268 765 L2 0 L70 0 Z " />
<glyph glyph-name="Ccedilla" unicode="&#xc7;" horiz-adv-x="640" d="M332 -217 C400 -217 437 -175 437 -127 C437 -76 403 -47 350 -47 L314 -47 L328 -16 L335 -16 C476 -16 565 80 578 222 L508 222 C500 133 453 42 339 42 C196 42 137 156 137 379 C137 594 182 719 337 719 C453 719 500 628 508 545 L580 545 C567 697 466 777 338 777 C155 777 62 647 62 379 C62 124 145 6 287 -13 L247 -104 L302 -104 C311 -95 323 -90 338 -90 C363 -90 379 -105 379 -130 C379 -157 363 -172 336 -172 C316 -172 306 -167 299 -148 L239 -148 C243 -188 275 -217 332 -217 L332 -217 Z " />
<glyph glyph-name="Egrave" unicode="&#xc8;" horiz-adv-x="640" d="M378 827 L321 960 L219 960 L317 827 L378 827 Z M106 765 L106 0 L556 0 L556 62 L177 62 L177 360 L507 360 L507 420 L177 420 L177 703 L552 703 L552 765 L106 765 Z " />
<glyph glyph-name="Eacute" unicode="&#xc9;" horiz-adv-x="640" d="M352 960 L295 827 L356 827 L454 960 L352 960 Z M106 765 L106 0 L556 0 L556 62 L177 62 L177 360 L507 360 L507 420 L177 420 L177 703 L552 703 L552 765 L106 765 Z " />
<glyph glyph-name="Ecircumflex" unicode="&#xca;" horiz-adv-x="640" d="M482 827 L375 960 L292 960 L188 827 L253 827 L331 903 L333 903 L413 827 L482 827 Z M106 765 L106 0 L556 0 L556 62 L177 62 L177 360 L507 360 L507 420 L177 420 L177 703 L552 703 L552 765 L106 765 Z " />
<glyph glyph-name="Edieresis" unicode="&#xcb;" horiz-adv-x="640" d="M106 765 L106 0 L556 0 L556 62 L177 62 L177 360 L507 360 L507 420 L177 420 L177 703 L552 703 L552 765 L106 765 Z M388 947 L388 834 L496 834 L496 947 L388 947 Z M187 947 L187 834 L296 834 L296 947 L187 947 Z " />
<glyph glyph-name="Igrave" unicode="&#xcc;" horiz-adv-x="640" d="M355 58 L355 707 L534 707 L534 765 L106 765 L106 707 L285 707 L285 58 L106 58 L106 0 L534 0 L534 58 L355 58 Z M353 827 L296 960 L194 960 L292 827 L353 827 Z " />
<glyph glyph-name="Iacute" unicode="&#xcd;" horiz-adv-x="640" d="M355 58 L355 707 L534 707 L534 765 L106 765 L106 707 L285 707 L285 58 L106 58 L106 0 L534 0 L534 58 L355 58 Z M353 960 L296 827 L357 827 L455 960 L353 960 Z " />
<glyph glyph-name="Icircumflex" unicode="&#xce;" horiz-adv-x="640" d="M355 58 L355 707 L534 707 L534 765 L106 765 L106 707 L285 707 L285 58 L106 58 L106 0 L534 0 L534 58 L355 58 Z M467 827 L360 960 L277 960 L173 827 L238 827 L316 903 L318 903 L398 827 L467 827 Z " />
<glyph glyph-name="Idieresis" unicode="&#xcf;" horiz-adv-x="640" d="M355 58 L355 707 L534 707 L534 765 L106 765 L106 707 L285 707 L285 58 L106 58 L106 0 L534 0 L534 58 L355 58 Z M367 947 L367 834 L475 834 L475 947 L367 947 Z M166 947 L166 834 L275 834 L275 947 L166 947 Z " />
<glyph glyph-name="Eth" unicode="&#xd0;" horiz-adv-x="640" d="M86 0 L258 0 C442 0 587 112 587 388 C587 661 435 765 252 765 L86 765 L86 420 L11 420 L11 360 L86 360 L86 0 Z M252 62 L157 62 L157 360 L354 360 L354 420 L157 420 L157 704 L256 704 C398 704 512 614 512 385 C512 140 399 62 252 62 L252 62 Z " />
<glyph glyph-name="Ntilde" unicode="&#xd1;" horiz-adv-x="640" d="M157 827 L216 827 C219 874 230 899 263 899 C305 899 345 829 411 829 C484 829 514 892 517 964 L459 964 C455 917 446 892 411 892 C367 892 330 961 263 961 C190 961 160 902 157 827 L157 827 Z M80 765 L80 0 L145 0 L145 684 L150 684 C153 674 157 663 161 652 C168 632 179 606 192 578 L463 0 L560 0 L560 765 L495 765 L495 81 L489 81 C486 89 483 98 480 108 C473 125 465 148 453 175 L177 765 L80 765 Z " />
<glyph glyph-name="Ograve" unicode="&#xd2;" horiz-adv-x="640" d="M355 827 L298 960 L196 960 L294 827 L355 827 Z M55 380 C55 87 151 -16 319 -16 C476 -16 585 87 585 380 C585 674 486 776 321 776 C166 776 55 674 55 380 L55 380 Z M320 41 C188 41 130 142 130 380 C130 622 193 719 320 719 C452 719 510 629 510 380 C510 139 450 41 320 41 L320 41 Z " />
<glyph glyph-name="Oacute" unicode="&#xd3;" horiz-adv-x="640" d="M345 960 L288 827 L349 827 L447 960 L345 960 Z M55 380 C55 87 151 -16 319 -16 C476 -16 585 87 585 380 C585 674 486 776 321 776 C166 776 55 674 55 380 L55 380 Z M320 41 C188 41 130 142 130 380 C130 622 193 719 320 719 C452 719 510 629 510 380 C510 139 450 41 320 41 L320 41 Z " />
<glyph glyph-name="Ocircumflex" unicode="&#xd4;" horiz-adv-x="640" d="M467 827 L360 960 L277 960 L173 827 L238 827 L316 903 L318 903 L398 827 L467 827 Z M55 380 C55 87 151 -16 319 -16 C476 -16 585 87 585 380 C585 674 486 776 321 776 C166 776 55 674 55 380 L55 380 Z M320 41 C188 41 130 142 130 380 C130 622 193 719 320 719 C452 719 510 629 510 380 C510 139 450 41 320 41 L320 41 Z " />
<glyph glyph-name="Otilde" unicode="&#xd5;" horiz-adv-x="640" d="M149 827 L208 827 C211 874 222 899 255 899 C297 899 337 829 403 829 C476 829 506 892 509 964 L451 964 C447 917 438 892 403 892 C359 892 322 961 255 961 C182 961 152 902 149 827 L149 827 Z M55 380 C55 87 151 -16 319 -16 C476 -16 585 87 585 380 C585 674 486 776 321 776 C166 776 55 674 55 380 L55 380 Z M320 41 C188 41 130 142 130 380 C130 622 193 719 320 719 C452 719 510 629 510 380 C510 139 450 41 320 41 L320 41 Z " />
<glyph glyph-name="Odieresis" unicode="&#xd6;" horiz-adv-x="640" d="M367 947 L367 834 L475 834 L475 947 L367 947 Z M166 947 L166 834 L275 834 L275 947 L166 947 Z M55 380 C55 87 151 -16 319 -16 C476 -16 585 87 585 380 C585 674 486 776 321 776 C166 776 55 674 55 380 L55 380 Z M320 41 C188 41 130 142 130 380 C130 622 193 719 320 719 C452 719 510 629 510 380 C510 139 450 41 320 41 L320 41 Z " />
<glyph glyph-name="multiply" unicode="&#xd7;" horiz-adv-x="640" d="M107 179 L150 136 L319 308 L489 134 L533 177 L362 351 L532 522 L489 565 L320 393 L150 566 L107 523 L277 350 L107 179 Z " />
<glyph glyph-name="Oslash" unicode="&#xd8;" horiz-adv-x="640" d="M320 719 C387 719 434 698 465 647 L152 172 C136 224 129 292 129 380 C129 622 193 719 320 719 L320 719 Z M320 41 C252 41 206 65 175 118 L488 593 C504 541 511 472 511 380 C511 139 451 41 320 41 L320 41 Z M585 380 C585 505 566 595 531 659 L620 793 L561 793 L501 702 C456 754 396 776 321 776 C166 776 55 674 55 380 C55 255 73 167 106 103 L22 -25 L81 -25 L136 59 C181 6 243 -16 319 -16 C476 -16 585 87 585 380 L585 380 Z " />
<glyph glyph-name="Ugrave" unicode="&#xd9;" horiz-adv-x="640" d="M361 827 L304 960 L202 960 L300 827 L361 827 Z M75 765 L75 247 C75 57 170 -15 320 -15 C468 -15 565 57 565 246 L565 765 L495 765 L495 250 C495 123 452 47 322 47 C191 47 146 123 146 250 L146 765 L75 765 Z " />
<glyph glyph-name="Uacute" unicode="&#xda;" horiz-adv-x="640" d="M348 960 L291 827 L352 827 L450 960 L348 960 Z M75 765 L75 247 C75 57 170 -15 320 -15 C468 -15 565 57 565 246 L565 765 L495 765 L495 250 C495 123 452 47 322 47 C191 47 146 123 146 250 L146 765 L75 765 Z " />
<glyph glyph-name="Ucircumflex" unicode="&#xdb;" horiz-adv-x="640" d="M470 827 L363 960 L280 960 L176 827 L241 827 L319 903 L321 903 L401 827 L470 827 Z M75 765 L75 247 C75 57 170 -15 320 -15 C468 -15 565 57 565 246 L565 765 L495 765 L495 250 C495 123 452 47 322 47 C191 47 146 123 146 250 L146 765 L75 765 Z " />
<glyph glyph-name="Udieresis" unicode="&#xdc;" horiz-adv-x="640" d="M75 765 L75 247 C75 57 170 -15 320 -15 C468 -15 565 57 565 246 L565 765 L495 765 L495 250 C495 123 452 47 322 47 C191 47 146 123 146 250 L146 765 L75 765 Z M370 947 L370 834 L478 834 L478 947 L370 947 Z M169 947 L169 834 L278 834 L278 947 L169 947 Z " />
<glyph glyph-name="Yacute" unicode="&#xdd;" horiz-adv-x="640" d="M285 337 L285 0 L356 0 L356 338 L599 765 L525 765 L323 400 L322 400 L122 765 L42 765 L285 337 Z M357 960 L300 827 L361 827 L459 960 L357 960 Z " />
<glyph glyph-name="Thorn" unicode="&#xde;" horiz-adv-x="640" d="M330 237 L324 237 L186 237 L186 539 L328 539 C437 539 495 500 495 389 C495 285 441 240 330 237 L330 237 Z M186 177 L321 177 C470 177 567 245 567 389 C567 540 469 599 328 599 L186 599 L186 765 L116 765 L116 0 L186 0 L186 177 Z " />
<glyph glyph-name="germandbls" unicode="&#xdf;" horiz-adv-x="640" d="M119 566 L119 0 L188 0 L188 558 C188 682 247 726 323 726 C403 726 457 681 457 588 C457 501 407 446 324 446 L305 446 L305 385 L325 385 C440 385 499 324 499 221 C499 106 426 58 322 58 L287 58 L287 0 L322 0 C466 0 570 75 570 224 C570 348 497 404 415 420 L415 422 C491 450 528 512 528 591 C528 722 441 783 322 783 C218 783 119 726 119 566 L119 566 Z " />
<glyph glyph-name="agrave" unicode="&#xe0;" horiz-adv-x="640" d="M163 143 C163 175 176 200 201 218 C234 241 303 250 438 258 L438 236 C438 107 353 48 273 48 C206 48 163 79 163 143 L163 143 Z M439 101 L442 101 C445 32 467 0 544 0 L568 0 L568 56 L549 56 C516 56 505 68 505 104 L505 338 C505 454 458 537 309 537 C187 537 122 464 114 383 L181 383 C186 433 222 481 310 481 C414 481 439 427 439 334 L439 312 C306 305 220 295 167 266 C120 241 93 200 93 140 C93 47 158 -8 261 -8 C345 -8 408 32 439 101 L439 101 Z M296 609 L354 609 L289 788 L185 788 L296 609 Z " />
<glyph glyph-name="aacute" unicode="&#xe1;" horiz-adv-x="640" d="M163 143 C163 175 176 200 201 218 C234 241 303 250 438 258 L438 236 C438 107 353 48 273 48 C206 48 163 79 163 143 L163 143 Z M439 101 L442 101 C445 32 467 0 544 0 L568 0 L568 56 L549 56 C516 56 505 68 505 104 L505 338 C505 454 458 537 309 537 C187 537 122 464 114 383 L181 383 C186 433 222 481 310 481 C414 481 439 427 439 334 L439 312 C306 305 220 295 167 266 C120 241 93 200 93 140 C93 47 158 -8 261 -8 C345 -8 408 32 439 101 L439 101 Z M348 788 L282 609 L341 609 L451 788 L348 788 Z " />
<glyph glyph-name="acircumflex" unicode="&#xe2;" horiz-adv-x="640" d="M163 143 C163 175 176 200 201 218 C234 241 303 250 438 258 L438 236 C438 107 353 48 273 48 C206 48 163 79 163 143 L163 143 Z M439 101 L442 101 C445 32 467 0 544 0 L568 0 L568 56 L549 56 C516 56 505 68 505 104 L505 338 C505 454 458 537 309 537 C187 537 122 464 114 383 L181 383 C186 433 222 481 310 481 C414 481 439 427 439 334 L439 312 C306 305 220 295 167 266 C120 241 93 200 93 140 C93 47 158 -8 261 -8 C345 -8 408 32 439 101 L439 101 Z M470 609 L363 788 L278 788 L174 609 L233 609 L316 731 L320 731 L404 609 L470 609 Z " />
<glyph glyph-name="atilde" unicode="&#xe3;" horiz-adv-x="640" d="M163 143 C163 175 176 200 201 218 C234 241 303 250 438 258 L438 236 C438 107 353 48 273 48 C206 48 163 79 163 143 L163 143 Z M439 101 L442 101 C445 32 467 0 544 0 L568 0 L568 56 L549 56 C516 56 505 68 505 104 L505 338 C505 454 458 537 309 537 C187 537 122 464 114 383 L181 383 C186 433 222 481 310 481 C414 481 439 427 439 334 L439 312 C306 305 220 295 167 266 C120 241 93 200 93 140 C93 47 158 -8 261 -8 C345 -8 408 32 439 101 L439 101 Z M142 623 L200 623 C203 671 216 697 248 697 C288 697 328 626 394 626 C463 626 498 686 498 761 L441 761 C438 714 428 689 393 689 C348 689 312 759 246 759 C175 759 142 697 142 623 L142 623 Z " />
<glyph glyph-name="adieresis" unicode="&#xe4;" horiz-adv-x="640" d="M163 143 C163 175 176 200 201 218 C234 241 303 250 438 258 L438 236 C438 107 353 48 273 48 C206 48 163 79 163 143 L163 143 Z M439 101 L442 101 C445 32 467 0 544 0 L568 0 L568 56 L549 56 C516 56 505 68 505 104 L505 338 C505 454 458 537 309 537 C187 537 122 464 114 383 L181 383 C186 433 222 481 310 481 C414 481 439 427 439 334 L439 312 C306 305 220 295 167 266 C120 241 93 200 93 140 C93 47 158 -8 261 -8 C345 -8 408 32 439 101 L439 101 Z M164 746 L164 634 L273 634 L273 746 L164 746 Z M365 634 L473 634 L473 746 L365 746 L365 634 Z " />
<glyph glyph-name="aring" unicode="&#xe5;" horiz-adv-x="640" d="M163 143 C163 175 176 200 201 218 C234 241 303 250 438 258 L438 236 C438 107 353 48 273 48 C206 48 163 79 163 143 L163 143 Z M439 101 L442 101 C445 32 467 0 544 0 L568 0 L568 56 L549 56 C516 56 505 68 505 104 L505 338 C505 454 458 537 309 537 C187 537 122 464 114 383 L181 383 C186 433 222 481 310 481 C414 481 439 427 439 334 L439 312 C306 305 220 295 167 266 C120 241 93 200 93 140 C93 47 158 -8 261 -8 C345 -8 408 32 439 101 L439 101 Z M192 709 C192 637 241 586 316 586 C391 586 441 637 441 709 C441 781 392 834 316 834 C242 834 192 781 192 709 L192 709 Z M316 631 C271 631 244 664 244 709 C244 756 272 789 316 789 C363 789 389 756 389 709 C389 664 361 631 316 631 L316 631 Z " />
<glyph glyph-name="ae" unicode="&#xe6;" horiz-adv-x="640" d="M542 307 L542 300 L342 300 C345 408 365 481 445 481 C528 481 542 406 542 307 L542 307 Z M167 45 C112 45 85 80 85 144 C85 181 96 208 118 225 C143 244 166 249 278 249 L278 213 C278 106 234 45 167 45 L167 45 Z M603 131 L539 131 C534 99 513 45 450 45 C366 45 343 114 342 247 L609 248 L609 304 C609 436 570 537 453 537 C382 537 341 498 321 449 L317 449 C301 494 265 537 189 537 C90 537 36 468 36 385 L98 385 C99 441 128 482 189 482 C254 482 278 434 278 367 L278 301 C161 301 129 295 88 273 C47 250 17 204 17 139 C17 47 71 -10 155 -10 C234 -10 276 30 303 102 L306 102 C325 34 363 -10 448 -10 C535 -10 588 44 603 131 L603 131 Z " />
<glyph glyph-name="ccedilla" unicode="&#xe7;" horiz-adv-x="640" d="M331 -216 C399 -216 436 -174 436 -126 C436 -75 402 -46 349 -46 L313 -46 L328 -13 L335 -13 C448 -13 533 48 552 161 L482 161 C471 104 432 43 336 43 C219 43 170 125 170 264 C170 401 231 481 339 481 C427 481 472 429 480 378 L550 378 C534 494 436 538 340 538 C184 538 97 423 97 259 C98 108 159 10 287 -9 L246 -103 L301 -103 C310 -94 322 -89 337 -89 C362 -89 378 -104 378 -129 C378 -156 362 -171 335 -171 C315 -171 305 -166 298 -147 L238 -147 C242 -187 274 -216 331 -216 L331 -216 Z " />
<glyph glyph-name="egrave" unicode="&#xe8;" horiz-adv-x="640" d="M480 305 L480 300 L162 300 C173 408 226 482 330 482 C450 482 480 388 480 305 L480 305 Z M541 131 L475 131 C464 102 434 43 335 43 C216 43 165 118 160 246 L550 246 L550 289 C550 413 493 537 331 537 C175 537 91 418 91 258 C91 94 168 -13 333 -13 C446 -13 521 47 541 131 L541 131 Z M306 609 L364 609 L299 788 L195 788 L306 609 Z " />
<glyph glyph-name="eacute" unicode="&#xe9;" horiz-adv-x="640" d="M361 788 L295 609 L354 609 L464 788 L361 788 Z M480 305 L480 300 L162 300 C173 408 226 482 330 482 C450 482 480 388 480 305 L480 305 Z M541 131 L475 131 C464 102 434 43 335 43 C216 43 165 118 160 246 L550 246 L550 289 C550 413 493 537 331 537 C175 537 91 418 91 258 C91 94 168 -13 333 -13 C446 -13 521 47 541 131 L541 131 Z " />
<glyph glyph-name="ecircumflex" unicode="&#xea;" horiz-adv-x="640" d="M483 609 L376 788 L291 788 L187 609 L246 609 L329 731 L333 731 L417 609 L483 609 Z M480 305 L480 300 L162 300 C173 408 226 482 330 482 C450 482 480 388 480 305 L480 305 Z M541 131 L475 131 C464 102 434 43 335 43 C216 43 165 118 160 246 L550 246 L550 289 C550 413 493 537 331 537 C175 537 91 418 91 258 C91 94 168 -13 333 -13 C446 -13 521 47 541 131 L541 131 Z " />
<glyph glyph-name="edieresis" unicode="&#xeb;" horiz-adv-x="640" d="M177 746 L177 634 L286 634 L286 746 L177 746 Z M378 634 L486 634 L486 746 L378 746 L378 634 Z M480 305 L480 300 L162 300 C173 408 226 482 330 482 C450 482 480 388 480 305 L480 305 Z M541 131 L475 131 C464 102 434 43 335 43 C216 43 165 118 160 246 L550 246 L550 289 C550 413 493 537 331 537 C175 537 91 418 91 258 C91 94 168 -13 333 -13 C446 -13 521 47 541 131 L541 131 Z " />
<glyph glyph-name="igrave" unicode="&#xec;" horiz-adv-x="640" d="M99 0 L563 0 L563 57 L363 57 L363 524 L127 524 L127 468 L295 468 L295 57 L99 57 L99 0 Z M294 609 L352 609 L287 788 L183 788 L294 609 Z " />
<glyph glyph-name="iacute" unicode="&#xed;" horiz-adv-x="640" d="M362 788 L296 609 L355 609 L465 788 L362 788 Z M99 0 L563 0 L563 57 L363 57 L363 524 L127 524 L127 468 L295 468 L295 57 L99 57 L99 0 Z " />
<glyph glyph-name="icircumflex" unicode="&#xee;" horiz-adv-x="640" d="M464 609 L357 788 L272 788 L168 609 L227 609 L310 731 L314 731 L398 609 L464 609 Z M99 0 L563 0 L563 57 L363 57 L363 524 L127 524 L127 468 L295 468 L295 57 L99 57 L99 0 Z " />
<glyph glyph-name="idieresis" unicode="&#xef;" horiz-adv-x="640" d="M161 746 L161 634 L270 634 L270 746 L161 746 Z M362 634 L470 634 L470 746 L362 746 L362 634 Z M99 0 L563 0 L563 57 L363 57 L363 524 L127 524 L127 468 L295 468 L295 57 L99 57 L99 0 Z " />
<glyph glyph-name="eth" unicode="&#xf0;" horiz-adv-x="640" d="M319 -13 C476 -13 558 97 558 274 C558 425 487 565 387 670 L487 705 L470 754 L346 710 C310 741 273 767 234 790 L171 768 C212 742 249 715 281 687 L159 644 L176 595 L325 648 C373 599 413 546 442 489 L437 489 C406 518 372 537 313 537 C169 537 79 426 79 262 C79 102 156 -13 319 -13 L319 -13 Z M319 483 C430 483 486 418 486 263 C486 128 431 42 320 42 C205 42 150 127 150 262 C150 397 207 483 319 483 L319 483 Z " />
<glyph glyph-name="ntilde" unicode="&#xf1;" horiz-adv-x="640" d="M460 334 L460 0 L530 0 L530 351 C530 475 473 537 358 537 C265 537 211 491 183 431 L181 431 L181 524 L116 524 L116 0 L185 0 L185 309 C185 399 233 478 343 478 C386 478 418 465 437 439 C456 414 460 377 460 334 L460 334 Z M148 623 L206 623 C209 671 222 697 254 697 C294 697 334 626 400 626 C469 626 504 686 504 761 L447 761 C444 714 434 689 399 689 C354 689 318 759 252 759 C181 759 148 697 148 623 L148 623 Z " />
<glyph glyph-name="ograve" unicode="&#xf2;" horiz-adv-x="640" d="M320 -13 C475 -13 559 94 559 262 C559 430 476 537 320 537 C165 537 81 430 81 262 C81 95 164 -13 320 -13 L320 -13 Z M320 482 C433 482 489 398 489 262 C489 127 435 42 320 42 C205 42 151 127 151 262 C151 398 207 482 320 482 L320 482 Z M293 609 L351 609 L286 788 L182 788 L293 609 Z " />
<glyph glyph-name="oacute" unicode="&#xf3;" horiz-adv-x="640" d="M349 788 L283 609 L342 609 L452 788 L349 788 Z M320 -13 C475 -13 559 94 559 262 C559 430 476 537 320 537 C165 537 81 430 81 262 C81 95 164 -13 320 -13 L320 -13 Z M320 482 C433 482 489 398 489 262 C489 127 435 42 320 42 C205 42 151 127 151 262 C151 398 207 482 320 482 L320 482 Z " />
<glyph glyph-name="ocircumflex" unicode="&#xf4;" horiz-adv-x="640" d="M472 609 L365 788 L280 788 L176 609 L235 609 L318 731 L322 731 L406 609 L472 609 Z M320 -13 C475 -13 559 94 559 262 C559 430 476 537 320 537 C165 537 81 430 81 262 C81 95 164 -13 320 -13 L320 -13 Z M320 482 C433 482 489 398 489 262 C489 127 435 42 320 42 C205 42 151 127 151 262 C151 398 207 482 320 482 L320 482 Z " />
<glyph glyph-name="otilde" unicode="&#xf5;" horiz-adv-x="640" d="M320 -13 C475 -13 559 94 559 262 C559 430 476 537 320 537 C165 537 81 430 81 262 C81 95 164 -13 320 -13 L320 -13 Z M320 482 C433 482 489 398 489 262 C489 127 435 42 320 42 C205 42 151 127 151 262 C151 398 207 482 320 482 L320 482 Z M146 623 L204 623 C207 671 220 697 252 697 C292 697 332 626 398 626 C467 626 502 686 502 761 L445 761 C442 714 432 689 397 689 C352 689 316 759 250 759 C179 759 146 697 146 623 L146 623 Z " />
<glyph glyph-name="odieresis" unicode="&#xf6;" horiz-adv-x="640" d="M166 746 L166 634 L275 634 L275 746 L166 746 Z M367 634 L475 634 L475 746 L367 746 L367 634 Z M320 -13 C475 -13 559 94 559 262 C559 430 476 537 320 537 C165 537 81 430 81 262 C81 95 164 -13 320 -13 L320 -13 Z M320 482 C433 482 489 398 489 262 C489 127 435 42 320 42 C205 42 151 127 151 262 C151 398 207 482 320 482 L320 482 Z " />
<glyph glyph-name="divide" unicode="&#xf7;" horiz-adv-x="640" d="M264 595 L264 484 L375 484 L375 595 L264 595 Z M92 387 L92 328 L548 328 L548 387 L92 387 Z M264 119 L375 119 L375 231 L264 231 L264 119 Z " />
<glyph glyph-name="oslash" unicode="&#xf8;" horiz-adv-x="640" d="M320 483 C369 483 407 469 434 442 L177 121 C158 157 151 205 151 262 C151 397 208 483 320 483 L320 483 Z M320 42 C272 42 235 55 208 80 L463 400 C480 365 488 319 488 262 C488 126 433 42 320 42 L320 42 Z M559 262 C559 339 541 402 504 451 L577 542 L513 542 L470 488 C431 519 381 537 320 537 C167 537 80 425 80 262 C80 185 98 118 137 70 L64 -21 L127 -21 L171 35 C210 3 260 -13 319 -13 C473 -13 559 98 559 262 L559 262 Z " />
<glyph glyph-name="ugrave" unicode="&#xf9;" horiz-adv-x="640" d="M180 189 L180 524 L111 524 L111 166 C111 47 169 -13 284 -13 C373 -13 429 38 456 97 L458 97 L458 0 L523 0 L523 524 L454 524 L454 241 C454 122 402 45 298 45 C254 45 222 57 203 82 C184 107 180 146 180 189 L180 189 Z M297 609 L355 609 L290 788 L186 788 L297 609 Z " />
<glyph glyph-name="uacute" unicode="&#xfa;" horiz-adv-x="640" d="M354 788 L288 609 L347 609 L457 788 L354 788 Z M180 189 L180 524 L111 524 L111 166 C111 47 169 -13 284 -13 C373 -13 429 38 456 97 L458 97 L458 0 L523 0 L523 524 L454 524 L454 241 C454 122 402 45 298 45 C254 45 222 57 203 82 C184 107 180 146 180 189 L180 189 Z " />
<glyph glyph-name="ucircumflex" unicode="&#xfb;" horiz-adv-x="640" d="M474 609 L367 788 L282 788 L178 609 L237 609 L320 731 L324 731 L408 609 L474 609 Z M180 189 L180 524 L111 524 L111 166 C111 47 169 -13 284 -13 C373 -13 429 38 456 97 L458 97 L458 0 L523 0 L523 524 L454 524 L454 241 C454 122 402 45 298 45 C254 45 222 57 203 82 C184 107 180 146 180 189 L180 189 Z " />
<glyph glyph-name="udieresis" unicode="&#xfc;" horiz-adv-x="640" d="M168 746 L168 634 L277 634 L277 746 L168 746 Z M369 634 L477 634 L477 746 L369 746 L369 634 Z M180 189 L180 524 L111 524 L111 166 C111 47 169 -13 284 -13 C373 -13 429 38 456 97 L458 97 L458 0 L523 0 L523 524 L454 524 L454 241 C454 122 402 45 298 45 C254 45 222 57 203 82 C184 107 180 146 180 189 L180 189 Z " />
<glyph glyph-name="yacute" unicode="&#xfd;" horiz-adv-x="640" d="M86 524 L293 -1 L275 -45 C246 -112 226 -141 161 -141 C130 -141 107 -135 87 -130 L87 -188 C103 -192 127 -199 163 -199 C254 -199 300 -159 345 -42 L566 524 L496 524 L360 161 C352 141 345 120 340 104 C337 95 334 86 331 78 L328 78 C325 87 322 95 319 104 C314 119 307 139 299 160 L159 524 L86 524 Z M365 788 L299 609 L358 609 L468 788 L365 788 Z " />
<glyph glyph-name="thorn" unicode="&#xfe;" horiz-adv-x="640" d="M165 226 L165 304 C165 396 224 481 337 481 C457 481 500 384 500 267 C500 126 446 43 333 43 C221 43 165 134 165 226 L165 226 Z M98 788 L98 -188 L167 -188 L167 87 L169 87 C188 36 253 -13 339 -13 C465 -13 571 76 571 268 C571 467 462 537 350 537 C266 537 198 497 169 433 L167 433 L167 788 L98 788 Z " />
<glyph glyph-name="ydieresis" unicode="&#xff;" horiz-adv-x="640" d="M86 524 L293 -1 L275 -45 C246 -112 226 -141 161 -141 C130 -141 107 -135 87 -130 L87 -188 C103 -192 127 -199 163 -199 C254 -199 300 -159 345 -42 L566 524 L496 524 L360 161 C352 141 345 120 340 104 C337 95 334 86 331 78 L328 78 C325 87 322 95 319 104 C314 119 307 139 299 160 L159 524 L86 524 Z M179 746 L179 634 L288 634 L288 746 L179 746 Z M380 634 L488 634 L488 746 L380 746 L380 634 Z " />
<glyph glyph-name="Amacron" unicode="&#x100;" horiz-adv-x="640" d="M312 695 L321 695 C323 684 325 673 328 661 C332 641 339 615 346 592 L429 308 L204 308 L287 591 C300 636 312 690 312 695 L312 695 Z M446 250 L518 0 L594 0 L365 765 L272 765 L43 0 L114 0 L187 250 L446 250 Z M174 919 L174 855 L465 855 L465 919 L174 919 Z " />
<glyph glyph-name="amacron" unicode="&#x101;" horiz-adv-x="640" d="M163 143 C163 175 176 200 201 218 C234 241 303 250 438 258 L438 236 C438 107 353 48 273 48 C206 48 163 79 163 143 L163 143 Z M439 101 L442 101 C445 32 467 0 544 0 L568 0 L568 56 L549 56 C516 56 505 68 505 104 L505 338 C505 454 458 537 309 537 C187 537 122 464 114 383 L181 383 C186 433 222 481 310 481 C414 481 439 427 439 334 L439 312 C306 305 220 295 167 266 C120 241 93 200 93 140 C93 47 158 -8 261 -8 C345 -8 408 32 439 101 L439 101 Z M171 711 L171 647 L462 647 L462 711 L171 711 Z " />
<glyph glyph-name="Abreve" unicode="&#x102;" horiz-adv-x="640" d="M312 695 L321 695 C323 684 325 673 328 661 C332 641 339 615 346 592 L429 308 L204 308 L287 591 C300 636 312 690 312 695 L312 695 Z M446 250 L518 0 L594 0 L365 765 L272 765 L43 0 L114 0 L187 250 L446 250 Z M236 970 L173 970 C181 871 240 830 321 830 C402 830 463 871 471 970 L413 970 C405 914 371 889 324 889 C277 889 244 914 236 970 L236 970 Z " />
<glyph glyph-name="abreve" unicode="&#x103;" horiz-adv-x="640" d="M163 143 C163 175 176 200 201 218 C234 241 303 250 438 258 L438 236 C438 107 353 48 273 48 C206 48 163 79 163 143 L163 143 Z M439 101 L442 101 C445 32 467 0 544 0 L568 0 L568 56 L549 56 C516 56 505 68 505 104 L505 338 C505 454 458 537 309 537 C187 537 122 464 114 383 L181 383 C186 433 222 481 310 481 C414 481 439 427 439 334 L439 312 C306 305 220 295 167 266 C120 241 93 200 93 140 C93 47 158 -8 261 -8 C345 -8 408 32 439 101 L439 101 Z M238 785 L177 785 C177 670 242 621 326 621 C411 621 477 670 477 785 L420 785 C420 712 382 680 329 680 C276 680 238 712 238 785 L238 785 Z " />
<glyph glyph-name="Aogonek" unicode="&#x104;" horiz-adv-x="640" d="M312 695 L321 695 C323 684 325 673 328 661 C332 641 339 615 346 592 L429 308 L204 308 L287 591 C300 636 312 690 312 695 L312 695 Z M579 -188 L594 -188 L594 -134 C539 -133 516 -120 516 -81 C516 -49 545 -23 594 0 L365 765 L272 765 L43 0 L114 0 L187 250 L446 250 L519 -3 C472 -30 452 -57 452 -96 C452 -160 503 -188 579 -188 L579 -188 Z " />
<glyph glyph-name="aogonek" unicode="&#x105;" horiz-adv-x="640" d="M569 -188 L569 -134 C514 -133 491 -120 491 -83 C491 -48 519 -23 568 0 L568 56 L549 56 C516 56 505 68 505 105 L505 338 C505 454 458 537 309 537 C187 537 122 464 114 383 L181 383 C186 433 222 481 310 481 C414 481 439 427 439 334 L439 312 C306 305 220 295 167 266 C120 241 93 200 93 140 C93 47 158 -8 262 -8 C346 -8 408 32 439 101 L442 101 C445 41 459 15 506 4 L506 1 C450 -22 427 -56 427 -96 C427 -161 477 -188 553 -188 L569 -188 Z M163 143 C163 175 176 200 201 218 C234 241 303 250 438 258 L438 236 C438 107 353 48 273 48 C206 48 163 79 163 143 L163 143 Z " />
<glyph glyph-name="Cacute" unicode="&#x106;" horiz-adv-x="640" d="M508 545 L580 545 C567 697 466 777 338 777 C155 777 62 647 62 379 C62 95 164 -16 335 -16 C476 -16 565 80 578 222 L508 222 C500 133 453 42 339 42 C196 42 137 156 137 379 C137 594 182 719 337 719 C453 719 500 628 508 545 L508 545 Z M365 960 L308 827 L369 827 L467 960 L365 960 Z " />
<glyph glyph-name="cacute" unicode="&#x107;" horiz-adv-x="640" d="M369 788 L303 609 L362 609 L472 788 L369 788 Z M480 378 L550 378 C534 494 436 538 340 538 C184 538 97 423 97 259 C98 91 176 -13 335 -13 C448 -13 533 48 552 161 L482 161 C471 104 432 43 336 43 C219 43 170 125 170 264 C170 401 231 481 339 481 C427 481 472 429 480 378 L480 378 Z " />
<glyph glyph-name="Ccircumflex" unicode="&#x108;" horiz-adv-x="640" d="M484 827 L377 960 L294 960 L190 827 L255 827 L333 903 L335 903 L415 827 L484 827 Z M508 545 L580 545 C567 697 466 777 338 777 C155 777 62 647 62 379 C62 95 164 -16 335 -16 C476 -16 565 80 578 222 L508 222 C500 133 453 42 339 42 C196 42 137 156 137 379 C137 594 182 719 337 719 C453 719 500 628 508 545 L508 545 Z " />
<glyph glyph-name="ccircumflex" unicode="&#x109;" horiz-adv-x="640" d="M484 609 L377 788 L292 788 L188 609 L247 609 L330 731 L334 731 L418 609 L484 609 Z M480 378 L550 378 C534 494 436 538 340 538 C184 538 97 423 97 259 C98 91 176 -13 335 -13 C448 -13 533 48 552 161 L482 161 C471 104 432 43 336 43 C219 43 170 125 170 264 C170 401 231 481 339 481 C427 481 472 429 480 378 L480 378 Z " />
<glyph glyph-name="Cdotaccent" unicode="&#x10a;" horiz-adv-x="640" d="M508 545 L580 545 C567 697 466 777 338 777 C155 777 62 647 62 379 C62 95 164 -16 335 -16 C476 -16 565 80 578 222 L508 222 C500 133 453 42 339 42 C196 42 137 156 137 379 C137 594 182 719 337 719 C453 719 500 628 508 545 L508 545 Z M283 947 L283 834 L391 834 L391 947 L283 947 Z " />
<glyph glyph-name="cdotaccent" unicode="&#x10b;" horiz-adv-x="640" d="M480 378 L550 378 C534 494 436 538 340 538 C184 538 97 423 97 259 C98 91 176 -13 335 -13 C448 -13 533 48 552 161 L482 161 C471 104 432 43 336 43 C219 43 170 125 170 264 C170 401 231 481 339 481 C427 481 472 429 480 378 L480 378 Z M280 748 L280 634 L391 634 L391 748 L280 748 Z " />
<glyph glyph-name="Ccaron" unicode="&#x10c;" horiz-adv-x="640" d="M191 960 L298 827 L381 827 L485 960 L420 960 L342 884 L340 884 L260 960 L191 960 Z M508 545 L580 545 C567 697 466 777 338 777 C155 777 62 647 62 379 C62 95 164 -16 335 -16 C476 -16 565 80 578 222 L508 222 C500 133 453 42 339 42 C196 42 137 156 137 379 C137 594 182 719 337 719 C453 719 500 628 508 545 L508 545 Z " />
<glyph glyph-name="ccaron" unicode="&#x10d;" horiz-adv-x="640" d="M186 788 L293 609 L378 609 L482 788 L422 788 L339 666 L335 666 L251 788 L186 788 Z M480 378 L550 378 C534 494 436 538 340 538 C184 538 97 423 97 259 C98 91 176 -13 335 -13 C448 -13 533 48 552 161 L482 161 C471 104 432 43 336 43 C219 43 170 125 170 264 C170 401 231 481 339 481 C427 481 472 429 480 378 L480 378 Z " />
<glyph glyph-name="Dcaron" unicode="&#x10e;" horiz-adv-x="640" d="M147 960 L254 827 L337 827 L441 960 L376 960 L298 884 L296 884 L216 960 L147 960 Z M78 765 L78 0 L263 0 C447 0 592 112 592 388 C592 661 440 765 256 765 L78 765 Z M256 62 L149 62 L149 704 L260 704 C402 704 517 614 517 385 C517 140 403 62 256 62 L256 62 Z " />
<glyph glyph-name="dcaron" unicode="&#x10f;" horiz-adv-x="640" d="M456 301 L456 219 C456 130 403 43 295 43 C187 43 140 132 140 263 C140 391 193 481 302 481 C399 481 456 399 456 301 L456 301 Z M524 0 L524 788 L454 788 L454 448 L452 448 C425 499 373 537 296 537 C164 537 69 438 69 259 C69 50 186 -13 289 -13 C378 -13 429 35 455 90 L459 90 L459 0 L524 0 Z M608 788 L582 587 L631 587 L699 788 L608 788 Z " />
<glyph glyph-name="Dcroat" unicode="&#x110;" horiz-adv-x="640" d="M86 0 L258 0 C442 0 587 112 587 388 C587 661 435 765 252 765 L86 765 L86 420 L11 420 L11 360 L86 360 L86 0 Z M252 62 L157 62 L157 360 L354 360 L354 420 L157 420 L157 704 L256 704 C398 704 512 614 512 385 C512 140 399 62 252 62 L252 62 Z " />
<glyph glyph-name="dcroat" unicode="&#x111;" horiz-adv-x="640" d="M476 300 L476 218 C476 129 421 42 306 42 C190 42 141 131 141 262 C141 390 196 480 313 480 C416 480 476 398 476 300 L476 300 Z M475 89 L478 89 L478 -1 L544 -1 L544 629 L620 629 L620 682 L544 682 L544 787 L474 787 L474 682 L299 682 L299 629 L474 629 L474 441 L472 441 C444 497 385 536 305 536 C165 536 70 437 70 258 C70 49 191 -14 300 -14 C389 -14 449 34 475 89 L475 89 Z " />
<glyph glyph-name="Emacron" unicode="&#x112;" horiz-adv-x="640" d="M106 765 L106 0 L556 0 L556 62 L177 62 L177 360 L507 360 L507 420 L177 420 L177 703 L552 703 L552 765 L106 765 Z M196 919 L196 855 L487 855 L487 919 L196 919 Z " />
<glyph glyph-name="emacron" unicode="&#x113;" horiz-adv-x="640" d="M480 305 L480 300 L162 300 C173 408 226 482 330 482 C450 482 480 388 480 305 L480 305 Z M541 131 L475 131 C464 102 434 43 335 43 C216 43 165 118 160 246 L550 246 L550 289 C550 413 493 537 331 537 C175 537 91 418 91 258 C91 94 168 -13 333 -13 C446 -13 521 47 541 131 L541 131 Z M186 711 L186 647 L477 647 L477 711 L186 711 Z " />
<glyph glyph-name="Ebreve" unicode="&#x114;" horiz-adv-x="640" d="M106 765 L106 0 L556 0 L556 62 L177 62 L177 360 L507 360 L507 420 L177 420 L177 703 L552 703 L552 765 L106 765 Z M258 970 L195 970 C203 871 262 830 343 830 C424 830 485 871 493 970 L435 970 C427 914 393 889 346 889 C299 889 266 914 258 970 L258 970 Z " />
<glyph glyph-name="ebreve" unicode="&#x115;" horiz-adv-x="640" d="M480 305 L480 300 L162 300 C173 408 226 482 330 482 C450 482 480 388 480 305 L480 305 Z M541 131 L475 131 C464 102 434 43 335 43 C216 43 165 118 160 246 L550 246 L550 289 C550 413 493 537 331 537 C175 537 91 418 91 258 C91 94 168 -13 333 -13 C446 -13 521 47 541 131 L541 131 Z M242 785 L181 785 C181 670 246 621 330 621 C415 621 481 670 481 785 L424 785 C424 712 386 680 333 680 C280 680 242 712 242 785 L242 785 Z " />
<glyph glyph-name="Edotaccent" unicode="&#x116;" horiz-adv-x="640" d="M289 947 L289 834 L397 834 L397 947 L289 947 Z M106 765 L106 0 L556 0 L556 62 L177 62 L177 360 L507 360 L507 420 L177 420 L177 703 L552 703 L552 765 L106 765 Z " />
<glyph glyph-name="edotaccent" unicode="&#x117;" horiz-adv-x="640" d="M480 305 L480 300 L162 300 C173 408 226 482 330 482 C450 482 480 388 480 305 L480 305 Z M541 131 L475 131 C464 102 434 43 335 43 C216 43 165 118 160 246 L550 246 L550 289 C550 413 493 537 331 537 C175 537 91 418 91 258 C91 94 168 -13 333 -13 C446 -13 521 47 541 131 L541 131 Z M277 748 L277 634 L388 634 L388 748 L277 748 Z " />
<glyph glyph-name="Eogonek" unicode="&#x118;" horiz-adv-x="640" d="M527 -188 L527 -134 C472 -133 449 -120 449 -81 C449 -49 478 -23 527 0 L556 0 L556 62 L177 62 L177 360 L507 360 L507 420 L177 420 L177 703 L552 703 L552 765 L106 765 L106 0 L458 0 C407 -27 385 -56 385 -96 C385 -160 436 -188 512 -188 L527 -188 Z " />
<glyph glyph-name="eogonek" unicode="&#x119;" horiz-adv-x="640" d="M480 305 L480 300 L162 300 C173 408 226 482 330 482 C450 482 480 388 480 305 L480 305 Z M446 -188 L446 -134 C394 -134 371 -120 371 -81 C371 -42 407 -15 458 20 C505 51 528 83 541 131 L475 131 C464 102 434 43 335 43 C216 43 165 118 160 246 L550 246 L550 289 C550 413 493 537 331 537 C175 537 91 418 91 258 C91 94 168 -13 333 -13 C348 -13 355 -13 370 -10 L370 -13 C323 -38 306 -66 306 -99 C306 -159 355 -188 431 -188 L446 -188 Z " />
<glyph glyph-name="Ecaron" unicode="&#x11a;" horiz-adv-x="640" d="M185 960 L292 827 L375 827 L479 960 L414 960 L336 884 L334 884 L254 960 L185 960 Z M106 765 L106 0 L556 0 L556 62 L177 62 L177 360 L507 360 L507 420 L177 420 L177 703 L552 703 L552 765 L106 765 Z " />
<glyph glyph-name="ecaron" unicode="&#x11b;" horiz-adv-x="640" d="M181 788 L288 609 L373 609 L477 788 L417 788 L334 666 L330 666 L246 788 L181 788 Z M480 305 L480 300 L162 300 C173 408 226 482 330 482 C450 482 480 388 480 305 L480 305 Z M541 131 L475 131 C464 102 434 43 335 43 C216 43 165 118 160 246 L550 246 L550 289 C550 413 493 537 331 537 C175 537 91 418 91 258 C91 94 168 -13 333 -13 C446 -13 521 47 541 131 L541 131 Z " />
<glyph glyph-name="Gcircumflex" unicode="&#x11c;" horiz-adv-x="640" d="M479 827 L372 960 L289 960 L185 827 L250 827 L328 903 L330 903 L410 827 L479 827 Z M340 718 C444 718 495 646 503 561 L574 561 C566 678 483 776 340 776 C169 776 62 653 62 379 C62 83 160 -16 323 -16 C427 -16 489 46 513 113 L517 113 L517 0 L580 0 L580 378 L326 378 L326 317 L513 317 L513 256 C513 149 455 41 332 41 C190 41 137 147 137 377 C137 597 193 718 340 718 L340 718 Z " />
<glyph glyph-name="gcircumflex" unicode="&#x11d;" horiz-adv-x="640" d="M469 609 L362 788 L277 788 L173 609 L232 609 L315 731 L319 731 L403 609 L469 609 Z M480 303 L480 230 C480 139 418 58 311 58 C186 58 143 148 143 269 C143 393 197 481 310 481 C425 481 480 395 480 303 L480 303 Z M313 -199 C449 -199 548 -131 548 21 L548 524 L482 524 L482 435 L480 435 C456 486 399 537 306 537 C170 537 71 444 71 269 C71 69 189 2 293 2 C380 2 445 45 477 105 L479 105 L479 22 C479 -104 407 -143 314 -143 C218 -143 174 -111 161 -56 L93 -56 C108 -149 190 -199 313 -199 L313 -199 Z " />
<glyph glyph-name="Gbreve" unicode="&#x11e;" horiz-adv-x="640" d="M248 970 L185 970 C193 871 252 830 333 830 C414 830 475 871 483 970 L425 970 C417 914 383 889 336 889 C289 889 256 914 248 970 L248 970 Z M340 718 C444 718 495 646 503 561 L574 561 C566 678 483 776 340 776 C169 776 62 653 62 379 C62 83 160 -16 323 -16 C427 -16 489 46 513 113 L517 113 L517 0 L580 0 L580 378 L326 378 L326 317 L513 317 L513 256 C513 149 455 41 332 41 C190 41 137 147 137 377 C137 597 193 718 340 718 L340 718 Z " />
<glyph glyph-name="gbreve" unicode="&#x11f;" horiz-adv-x="640" d="M480 303 L480 230 C480 139 418 58 311 58 C186 58 143 148 143 269 C143 393 197 481 310 481 C425 481 480 395 480 303 L480 303 Z M313 -199 C449 -199 548 -131 548 21 L548 524 L482 524 L482 435 L480 435 C456 486 399 537 306 537 C170 537 71 444 71 269 C71 69 189 2 293 2 C380 2 445 45 477 105 L479 105 L479 22 C479 -104 407 -143 314 -143 C218 -143 174 -111 161 -56 L93 -56 C108 -149 190 -199 313 -199 L313 -199 Z M238 785 L177 785 C177 670 242 621 326 621 C411 621 477 670 477 785 L420 785 C420 712 382 680 329 680 C276 680 238 712 238 785 L238 785 Z " />
<glyph glyph-name="Gdotaccent" unicode="&#x120;" horiz-adv-x="640" d="M278 947 L278 834 L386 834 L386 947 L278 947 Z M340 718 C444 718 495 646 503 561 L574 561 C566 678 483 776 340 776 C169 776 62 653 62 379 C62 83 160 -16 323 -16 C427 -16 489 46 513 113 L517 113 L517 0 L580 0 L580 378 L326 378 L326 317 L513 317 L513 256 C513 149 455 41 332 41 C190 41 137 147 137 377 C137 597 193 718 340 718 L340 718 Z " />
<glyph glyph-name="gdotaccent" unicode="&#x121;" horiz-adv-x="640" d="M480 303 L480 230 C480 139 418 58 311 58 C186 58 143 148 143 269 C143 393 197 481 310 481 C425 481 480 395 480 303 L480 303 Z M313 -199 C449 -199 548 -131 548 21 L548 524 L482 524 L482 435 L480 435 C456 486 399 537 306 537 C170 537 71 444 71 269 C71 69 189 2 293 2 C380 2 445 45 477 105 L479 105 L479 22 C479 -104 407 -143 314 -143 C218 -143 174 -111 161 -56 L93 -56 C108 -149 190 -199 313 -199 L313 -199 Z M270 748 L270 634 L381 634 L381 748 L270 748 Z " />
<glyph glyph-name="Gcommaaccent" unicode="&#x122;" horiz-adv-x="640" d="M274 -53 L238 -202 L297 -202 L381 -53 L274 -53 Z M340 718 C444 718 495 646 503 561 L574 561 C566 678 483 776 340 776 C169 776 62 653 62 379 C62 83 160 -16 323 -16 C427 -16 489 46 513 113 L517 113 L517 0 L580 0 L580 378 L326 378 L326 317 L513 317 L513 256 C513 149 455 41 332 41 C190 41 137 147 137 377 C137 597 193 718 340 718 L340 718 Z " />
<glyph glyph-name="gcommaaccent" unicode="&#x123;" horiz-adv-x="640" d="M388 620 L429 782 L370 782 L282 620 L388 620 Z M480 303 L480 230 C480 139 418 58 311 58 C186 58 143 148 143 269 C143 393 197 481 310 481 C425 481 480 395 480 303 L480 303 Z M313 -199 C449 -199 548 -131 548 21 L548 524 L482 524 L482 435 L480 435 C456 486 399 537 306 537 C170 537 71 444 71 269 C71 69 189 2 293 2 C380 2 445 45 477 105 L479 105 L479 22 C479 -104 407 -143 314 -143 C218 -143 174 -111 161 -56 L93 -56 C108 -149 190 -199 313 -199 L313 -199 Z " />
<glyph glyph-name="Hcircumflex" unicode="&#x124;" horiz-adv-x="640" d="M152 0 L152 359 L488 359 L488 0 L559 0 L559 765 L488 765 L488 420 L152 420 L152 765 L81 765 L81 0 L152 0 Z M467 827 L360 960 L277 960 L173 827 L238 827 L316 903 L318 903 L398 827 L467 827 Z " />
<glyph glyph-name="hcircumflex" unicode="&#x125;" horiz-adv-x="640" d="M460 0 L530 0 L530 351 C530 475 473 537 358 537 C264 537 213 490 187 432 L185 432 L185 788 L116 788 L116 0 L185 0 L185 309 C185 399 233 478 343 478 C386 478 418 465 437 439 C456 414 460 378 460 335 L460 0 Z M484 827 L377 960 L294 960 L190 827 L255 827 L333 903 L335 903 L415 827 L484 827 Z " />
<glyph glyph-name="Hbar" unicode="&#x126;" horiz-adv-x="640" d="M488 420 L152 420 L152 574 L488 574 L488 420 Z M152 0 L152 359 L488 359 L488 0 L559 0 L559 574 L620 574 L620 628 L559 628 L559 765 L488 765 L488 628 L152 628 L152 765 L81 765 L81 628 L20 628 L20 574 L81 574 L81 0 L152 0 Z " />
<glyph glyph-name="hbar" unicode="&#x127;" horiz-adv-x="640" d="M185 0 L185 309 C185 399 233 478 343 478 C386 478 418 465 437 439 C456 414 460 378 460 335 L460 0 L530 0 L530 351 C530 475 473 537 358 537 C264 537 213 490 187 432 L185 432 L185 629 L361 629 L361 682 L185 682 L185 788 L116 788 L116 682 L39 682 L39 629 L116 629 L116 0 L185 0 Z " />
<glyph glyph-name="Itilde" unicode="&#x128;" horiz-adv-x="640" d="M355 58 L355 707 L534 707 L534 765 L106 765 L106 707 L285 707 L285 58 L106 58 L106 0 L534 0 L534 58 L355 58 Z M149 827 L208 827 C211 874 222 899 255 899 C297 899 337 829 403 829 C476 829 506 892 509 964 L451 964 C447 917 438 892 403 892 C359 892 322 961 255 961 C182 961 152 902 149 827 L149 827 Z " />
<glyph glyph-name="itilde" unicode="&#x129;" horiz-adv-x="640" d="M99 0 L563 0 L563 57 L363 57 L363 524 L127 524 L127 468 L295 468 L295 57 L99 57 L99 0 Z M141 623 L199 623 C202 671 215 697 247 697 C287 697 327 626 393 626 C462 626 497 686 497 761 L440 761 C437 714 427 689 392 689 C347 689 311 759 245 759 C174 759 141 697 141 623 L141 623 Z " />
<glyph glyph-name="Imacron" unicode="&#x12a;" horiz-adv-x="640" d="M355 58 L355 707 L534 707 L534 765 L106 765 L106 707 L285 707 L285 58 L106 58 L106 0 L534 0 L534 58 L355 58 Z M175 919 L175 855 L466 855 L466 919 L175 919 Z " />
<glyph glyph-name="imacron" unicode="&#x12b;" horiz-adv-x="640" d="M99 0 L563 0 L563 57 L363 57 L363 524 L127 524 L127 468 L295 468 L295 57 L99 57 L99 0 Z M166 711 L166 647 L457 647 L457 711 L166 711 Z " />
<glyph glyph-name="Ibreve" unicode="&#x12c;" horiz-adv-x="640" d="M355 58 L355 707 L534 707 L534 765 L106 765 L106 707 L285 707 L285 58 L106 58 L106 0 L534 0 L534 58 L355 58 Z M236 970 L173 970 C181 871 240 830 321 830 C402 830 463 871 471 970 L413 970 C405 914 371 889 324 889 C277 889 244 914 236 970 L236 970 Z " />
<glyph glyph-name="ibreve" unicode="&#x12d;" horiz-adv-x="640" d="M99 0 L563 0 L563 57 L363 57 L363 524 L127 524 L127 468 L295 468 L295 57 L99 57 L99 0 Z M231 785 L170 785 C170 670 235 621 319 621 C404 621 470 670 470 785 L413 785 C413 712 375 680 322 680 C269 680 231 712 231 785 L231 785 Z " />
<glyph glyph-name="Iogonek" unicode="&#x12e;" horiz-adv-x="640" d="M500 -188 L500 -134 C445 -133 422 -120 422 -81 C422 -49 451 -23 500 0 L534 0 L534 58 L355 58 L355 707 L534 707 L534 765 L106 765 L106 707 L285 707 L285 58 L106 58 L106 0 L431 0 C380 -27 358 -56 358 -96 C358 -160 409 -188 485 -188 L500 -188 Z " />
<glyph glyph-name="iogonek" unicode="&#x12f;" horiz-adv-x="640" d="M267 748 L267 634 L378 634 L378 748 L267 748 Z M528 -188 L528 -134 C473 -133 450 -120 450 -81 C450 -49 479 -23 528 0 L563 0 L563 57 L363 57 L363 524 L127 524 L127 468 L295 468 L295 57 L99 57 L99 0 L459 0 C408 -27 386 -56 386 -96 C386 -160 437 -188 513 -188 L528 -188 Z " />
<glyph glyph-name="Idotaccent" unicode="&#x130;" horiz-adv-x="640" d="M355 58 L355 707 L534 707 L534 765 L106 765 L106 707 L285 707 L285 58 L106 58 L106 0 L534 0 L534 58 L355 58 Z M266 947 L266 834 L374 834 L374 947 L266 947 Z " />
<glyph glyph-name="dotlessi" unicode="&#x131;" horiz-adv-x="640" d="M99 0 L563 0 L563 57 L363 57 L363 524 L127 524 L127 468 L295 468 L295 57 L99 57 L99 0 Z " />
<glyph glyph-name="IJ" unicode="&#x132;" horiz-adv-x="1280" d="M355 58 L355 707 L534 707 L534 765 L106 765 L106 707 L285 707 L285 58 L106 58 L106 0 L534 0 L534 58 L355 58 Z M903 -9 C1039 -9 1137 61 1137 216 L1137 765 L797 765 L797 704 L1066 704 L1066 224 C1066 105 1011 55 903 55 C839 55 788 64 752 75 L752 10 C787 1 830 -9 903 -9 L903 -9 Z " />
<glyph glyph-name="ij" unicode="&#x133;" horiz-adv-x="1280" d="M267 748 L267 634 L378 634 L378 748 L267 748 Z M99 0 L563 0 L563 57 L363 57 L363 524 L127 524 L127 468 L295 468 L295 57 L99 57 L99 0 Z M964 634 L1075 634 L1075 748 L964 748 L964 634 Z M891 -197 C992 -197 1060 -144 1060 -37 L1060 524 L781 524 L781 467 L993 467 L993 -29 C993 -105 959 -136 887 -136 C847 -136 812 -130 781 -121 L781 -182 C814 -191 848 -197 891 -197 L891 -197 Z " />
<glyph glyph-name="Jcircumflex" unicode="&#x134;" horiz-adv-x="640" d="M484 827 L377 960 L294 960 L190 827 L255 827 L333 903 L335 903 L415 827 L484 827 Z M263 -9 C399 -9 497 61 497 216 L497 765 L157 765 L157 704 L426 704 L426 224 C426 105 371 55 263 55 C199 55 148 64 112 75 L112 10 C147 1 190 -9 263 -9 L263 -9 Z " />
<glyph glyph-name="jcircumflex" unicode="&#x135;" horiz-adv-x="640" d="M260 -197 C359 -197 420 -143 420 -38 L420 524 L165 524 L165 466 L352 466 L352 -26 C352 -105 322 -137 254 -137 C207 -137 172 -125 147 -118 L147 -179 C178 -188 209 -197 260 -197 L260 -197 Z M520 609 L413 788 L328 788 L224 609 L283 609 L366 731 L370 731 L454 609 L520 609 Z " />
<glyph glyph-name="Kcommaaccent" unicode="&#x136;" horiz-adv-x="640" d="M286 -53 L250 -202 L309 -202 L393 -53 L286 -53 Z M173 0 L173 268 L269 386 L525 0 L611 0 L318 441 L583 765 L500 765 L173 361 L173 765 L102 765 L102 0 L173 0 Z " />
<glyph glyph-name="kcommaaccent" unicode="&#x137;" horiz-adv-x="640" d="M294 -53 L258 -202 L317 -202 L401 -53 L294 -53 Z M206 0 L206 168 L307 275 L498 0 L580 0 L355 323 L546 524 L463 524 L206 251 L206 788 L139 788 L139 0 L206 0 Z " />
<glyph glyph-name="kgreenlandic" unicode="&#x138;" horiz-adv-x="640" d="M208 0 L208 168 L308 273 L498 0 L580 0 L355 323 L546 524 L463 524 L208 253 L208 524 L139 524 L139 0 L208 0 Z " />
<glyph glyph-name="Lacute" unicode="&#x139;" horiz-adv-x="640" d="M194 960 L137 827 L198 827 L296 960 L194 960 Z M129 765 L129 0 L590 0 L590 62 L201 62 L201 765 L129 765 Z " />
<glyph glyph-name="lacute" unicode="&#x13a;" horiz-adv-x="640" d="M355 960 L298 827 L359 827 L457 960 L355 960 Z M92 0 L558 0 L558 57 L358 57 L358 788 L121 788 L121 731 L289 731 L289 57 L92 57 L92 0 Z " />
<glyph glyph-name="Lcommaaccent" unicode="&#x13b;" horiz-adv-x="640" d="M307 -53 L271 -202 L330 -202 L414 -53 L307 -53 Z M129 765 L129 0 L590 0 L590 62 L201 62 L201 765 L129 765 Z " />
<glyph glyph-name="lcommaaccent" unicode="&#x13c;" horiz-adv-x="640" d="M270 -53 L234 -202 L293 -202 L377 -53 L270 -53 Z M92 0 L558 0 L558 57 L358 57 L358 788 L121 788 L121 731 L289 731 L289 57 L92 57 L92 0 Z " />
<glyph glyph-name="Lcaron" unicode="&#x13d;" horiz-adv-x="640" d="M332 788 L306 587 L355 587 L423 788 L332 788 Z M129 765 L129 0 L590 0 L590 62 L201 62 L201 765 L129 765 Z " />
<glyph glyph-name="lcaron" unicode="&#x13e;" horiz-adv-x="640" d="M477 788 L451 587 L500 587 L568 788 L477 788 Z M92 0 L558 0 L558 57 L358 57 L358 788 L121 788 L121 731 L289 731 L289 57 L92 57 L92 0 Z " />
<glyph glyph-name="Ldot" unicode="&#x13f;" horiz-adv-x="640" d="M429 449 L429 335 L540 335 L540 449 L429 449 Z M129 765 L129 0 L590 0 L590 62 L201 62 L201 765 L129 765 Z " />
<glyph glyph-name="ldot" unicode="&#x140;" horiz-adv-x="640" d="M92 0 L558 0 L558 57 L358 57 L358 788 L121 788 L121 731 L289 731 L289 57 L92 57 L92 0 Z M592 442 L592 336 L694 336 L694 442 L592 442 Z " />
<glyph glyph-name="Lslash" unicode="&#x141;" horiz-adv-x="640" d="M134 0 L595 0 L595 62 L206 62 L206 328 L467 445 L467 510 L206 393 L206 765 L134 765 L134 361 L46 322 L46 256 L134 296 L134 0 Z " />
<glyph glyph-name="lslash" unicode="&#x142;" horiz-adv-x="640" d="M92 0 L558 0 L558 57 L358 57 L358 373 L521 458 L521 522 L358 436 L358 788 L121 788 L121 731 L289 731 L289 400 L132 317 L132 254 L289 336 L289 57 L92 57 L92 0 Z " />
<glyph glyph-name="Nacute" unicode="&#x143;" horiz-adv-x="640" d="M359 960 L302 827 L363 827 L461 960 L359 960 Z M80 765 L80 0 L145 0 L145 684 L150 684 C153 674 157 663 161 652 C168 632 179 606 192 578 L463 0 L560 0 L560 765 L495 765 L495 81 L489 81 C486 89 483 98 480 108 C473 125 465 148 453 175 L177 765 L80 765 Z " />
<glyph glyph-name="nacute" unicode="&#x144;" horiz-adv-x="640" d="M370 788 L304 609 L363 609 L473 788 L370 788 Z M460 334 L460 0 L530 0 L530 351 C530 475 473 537 358 537 C265 537 211 491 183 431 L181 431 L181 524 L116 524 L116 0 L185 0 L185 309 C185 399 233 478 343 478 C386 478 418 465 437 439 C456 414 460 377 460 334 L460 334 Z " />
<glyph glyph-name="Ncommaaccent" unicode="&#x145;" horiz-adv-x="640" d="M272 -53 L236 -202 L295 -202 L379 -53 L272 -53 Z M80 765 L80 0 L145 0 L145 684 L150 684 C153 674 157 663 161 652 C168 632 179 606 192 578 L463 0 L560 0 L560 765 L495 765 L495 81 L489 81 C486 89 483 98 480 108 C473 125 465 148 453 175 L177 765 L80 765 Z " />
<glyph glyph-name="ncommaaccent" unicode="&#x146;" horiz-adv-x="640" d="M276 -53 L240 -202 L299 -202 L383 -53 L276 -53 Z M460 334 L460 0 L530 0 L530 351 C530 475 473 537 358 537 C265 537 211 491 183 431 L181 431 L181 524 L116 524 L116 0 L185 0 L185 309 C185 399 233 478 343 478 C386 478 418 465 437 439 C456 414 460 377 460 334 L460 334 Z " />
<glyph glyph-name="Ncaron" unicode="&#x147;" horiz-adv-x="640" d="M180 960 L287 827 L370 827 L474 960 L409 960 L331 884 L329 884 L249 960 L180 960 Z M80 765 L80 0 L145 0 L145 684 L150 684 C153 674 157 663 161 652 C168 632 179 606 192 578 L463 0 L560 0 L560 765 L495 765 L495 81 L489 81 C486 89 483 98 480 108 C473 125 465 148 453 175 L177 765 L80 765 Z " />
<glyph glyph-name="ncaron" unicode="&#x148;" horiz-adv-x="640" d="M187 788 L294 609 L379 609 L483 788 L423 788 L340 666 L336 666 L252 788 L187 788 Z M460 334 L460 0 L530 0 L530 351 C530 475 473 537 358 537 C265 537 211 491 183 431 L181 431 L181 524 L116 524 L116 0 L185 0 L185 309 C185 399 233 478 343 478 C386 478 418 465 437 439 C456 414 460 377 460 334 L460 334 Z " />
<glyph glyph-name="napostrophe" unicode="&#x149;" horiz-adv-x="640" d="M86 549 L183 766 L77 766 L26 549 L86 549 Z M460 334 L460 0 L530 0 L530 351 C530 475 473 537 358 537 C265 537 211 491 183 431 L181 431 L181 524 L116 524 L116 0 L185 0 L185 309 C185 399 233 478 343 478 C386 478 418 465 437 439 C456 414 460 377 460 334 L460 334 Z " />
<glyph glyph-name="Eng" unicode="&#x14a;" horiz-adv-x="640" d="M305 -188 L331 -188 C510 -188 560 -108 560 17 L560 765 L495 765 L495 81 L489 81 C486 89 483 98 480 108 C473 125 466 147 454 174 L177 765 L80 765 L80 0 L145 0 L145 684 L151 684 C154 674 157 663 161 652 C168 633 177 606 192 578 L463 0 L494 0 C491 -84 458 -127 317 -127 L305 -127 L305 -188 Z " />
<glyph glyph-name="eng" unicode="&#x14b;" horiz-adv-x="640" d="M391 -197 C475 -197 530 -153 530 -60 L530 351 C530 475 473 537 358 537 C265 537 211 491 183 431 L181 431 L181 524 L116 524 L116 0 L185 0 L185 309 C185 399 233 478 343 478 C386 478 418 465 437 439 C456 414 460 377 460 334 L460 -50 C460 -114 438 -138 387 -138 C367 -138 354 -136 341 -133 L341 -191 C360 -195 372 -197 391 -197 L391 -197 Z " />
<glyph glyph-name="Omacron" unicode="&#x14c;" horiz-adv-x="640" d="M175 919 L175 855 L466 855 L466 919 L175 919 Z M55 380 C55 87 151 -16 319 -16 C476 -16 585 87 585 380 C585 674 486 776 321 776 C166 776 55 674 55 380 L55 380 Z M320 41 C188 41 130 142 130 380 C130 622 193 719 320 719 C452 719 510 629 510 380 C510 139 450 41 320 41 L320 41 Z " />
<glyph glyph-name="omacron" unicode="&#x14d;" horiz-adv-x="640" d="M175 711 L175 647 L466 647 L466 711 L175 711 Z M320 -13 C475 -13 559 94 559 262 C559 430 476 537 320 537 C165 537 81 430 81 262 C81 95 164 -13 320 -13 L320 -13 Z M320 482 C433 482 489 398 489 262 C489 127 435 42 320 42 C205 42 151 127 151 262 C151 398 207 482 320 482 L320 482 Z " />
<glyph glyph-name="Obreve" unicode="&#x14e;" horiz-adv-x="640" d="M236 970 L173 970 C181 871 240 830 321 830 C402 830 463 871 471 970 L413 970 C405 914 371 889 324 889 C277 889 244 914 236 970 L236 970 Z M55 380 C55 87 151 -16 319 -16 C476 -16 585 87 585 380 C585 674 486 776 321 776 C166 776 55 674 55 380 L55 380 Z M320 41 C188 41 130 142 130 380 C130 622 193 719 320 719 C452 719 510 629 510 380 C510 139 450 41 320 41 L320 41 Z " />
<glyph glyph-name="obreve" unicode="&#x14f;" horiz-adv-x="640" d="M320 -13 C475 -13 559 94 559 262 C559 430 476 537 320 537 C165 537 81 430 81 262 C81 95 164 -13 320 -13 L320 -13 Z M320 482 C433 482 489 398 489 262 C489 127 435 42 320 42 C205 42 151 127 151 262 C151 398 207 482 320 482 L320 482 Z M233 785 L172 785 C172 670 237 621 321 621 C406 621 472 670 472 785 L415 785 C415 712 377 680 324 680 C271 680 233 712 233 785 L233 785 Z " />
<glyph glyph-name="Ohungarumlaut" unicode="&#x150;" horiz-adv-x="640" d="M403 970 L367 827 L421 827 L493 970 L403 970 Z M250 970 L214 827 L269 827 L340 970 L250 970 Z M55 380 C55 87 151 -16 319 -16 C476 -16 585 87 585 380 C585 674 486 776 321 776 C166 776 55 674 55 380 L55 380 Z M320 41 C188 41 130 142 130 380 C130 622 193 719 320 719 C452 719 510 629 510 380 C510 139 450 41 320 41 L320 41 Z " />
<glyph glyph-name="ohungarumlaut" unicode="&#x151;" horiz-adv-x="640" d="M432 788 L373 609 L430 609 L522 788 L432 788 Z M278 788 L218 609 L275 609 L367 788 L278 788 Z M320 -13 C475 -13 559 94 559 262 C559 430 476 537 320 537 C165 537 81 430 81 262 C81 95 164 -13 320 -13 L320 -13 Z M320 482 C433 482 489 398 489 262 C489 127 435 42 320 42 C205 42 151 127 151 262 C151 398 207 482 320 482 L320 482 Z " />
<glyph glyph-name="OE" unicode="&#x152;" horiz-adv-x="640" d="M324 706 L324 58 C172 58 104 153 104 381 C104 613 179 706 324 706 L324 706 Z M324 0 L623 0 L623 62 L392 62 L392 360 L583 360 L583 420 L392 420 L392 703 L619 703 L619 765 L324 765 C156 765 30 669 30 382 C30 93 145 0 324 0 L324 0 Z " />
<glyph glyph-name="oe" unicode="&#x153;" horiz-adv-x="640" d="M188 42 C120 42 89 104 89 262 C89 421 121 483 190 483 C261 483 286 402 286 262 C286 123 259 42 188 42 L188 42 Z M548 309 L548 301 L351 301 C355 424 385 481 452 481 C525 481 548 426 548 309 L548 309 Z M313 94 L316 94 C341 19 388 -12 457 -12 C541 -12 596 46 609 131 L545 131 C540 102 520 44 458 44 C381 44 353 119 350 248 L616 248 L616 305 C616 450 570 537 458 537 C389 537 345 498 322 433 L320 433 C300 496 260 537 188 537 C73 537 20 447 20 262 C20 71 76 -13 183 -13 C251 -13 293 30 313 94 L313 94 Z " />
<glyph glyph-name="Racute" unicode="&#x154;" horiz-adv-x="640" d="M332 960 L275 827 L336 827 L434 960 L332 960 Z M335 385 L162 385 L162 705 L334 705 C443 705 507 652 507 552 C507 433 430 385 335 385 L335 385 Z M341 326 L509 0 L589 0 L413 336 L413 338 C501 359 581 425 581 553 C581 641 544 699 484 732 C441 755 389 765 333 765 L90 765 L90 0 L162 0 L162 326 L341 326 Z " />
<glyph glyph-name="racute" unicode="&#x155;" horiz-adv-x="640" d="M386 788 L320 609 L379 609 L489 788 L386 788 Z M422 469 C473 469 510 460 546 445 L546 511 C516 526 478 534 433 534 C322 534 256 482 228 397 L226 397 L226 524 L161 524 L161 0 L231 0 L231 256 C231 397 307 469 422 469 L422 469 Z " />
<glyph glyph-name="Rcommaaccent" unicode="&#x156;" horiz-adv-x="640" d="M275 -53 L239 -202 L298 -202 L382 -53 L275 -53 Z M335 385 L162 385 L162 705 L334 705 C443 705 507 652 507 552 C507 433 430 385 335 385 L335 385 Z M341 326 L509 0 L589 0 L413 336 L413 338 C501 359 581 425 581 553 C581 641 544 699 484 732 C441 755 389 765 333 765 L90 765 L90 0 L162 0 L162 326 L341 326 Z " />
<glyph glyph-name="rcommaaccent" unicode="&#x157;" horiz-adv-x="640" d="M142 -53 L106 -202 L165 -202 L249 -53 L142 -53 Z M422 469 C473 469 510 460 546 445 L546 511 C516 526 478 534 433 534 C322 534 256 482 228 397 L226 397 L226 524 L161 524 L161 0 L231 0 L231 256 C231 397 307 469 422 469 L422 469 Z " />
<glyph glyph-name="Rcaron" unicode="&#x158;" horiz-adv-x="640" d="M168 960 L275 827 L358 827 L462 960 L397 960 L319 884 L317 884 L237 960 L168 960 Z M335 385 L162 385 L162 705 L334 705 C443 705 507 652 507 552 C507 433 430 385 335 385 L335 385 Z M341 326 L509 0 L589 0 L413 336 L413 338 C501 359 581 425 581 553 C581 641 544 699 484 732 C441 755 389 765 333 765 L90 765 L90 0 L162 0 L162 326 L341 326 Z " />
<glyph glyph-name="rcaron" unicode="&#x159;" horiz-adv-x="640" d="M201 788 L308 609 L393 609 L497 788 L437 788 L354 666 L350 666 L266 788 L201 788 Z M422 469 C473 469 510 460 546 445 L546 511 C516 526 478 534 433 534 C322 534 256 482 228 397 L226 397 L226 524 L161 524 L161 0 L231 0 L231 256 C231 397 307 469 422 469 L422 469 Z " />
<glyph glyph-name="Sacute" unicode="&#x15a;" horiz-adv-x="640" d="M499 561 L570 561 C559 690 485 776 330 776 C190 776 90 696 90 572 C90 458 140 398 281 366 L380 343 C476 320 508 279 508 199 C508 116 459 44 324 44 C194 44 142 121 131 212 L62 212 C73 81 157 -15 320 -15 C490 -15 581 74 581 205 C581 316 530 378 399 409 L291 434 C201 455 160 488 160 574 C160 665 225 717 329 717 C446 717 491 646 499 561 L499 561 Z M350 960 L293 827 L354 827 L452 960 L350 960 Z " />
<glyph glyph-name="sacute" unicode="&#x15b;" horiz-adv-x="640" d="M360 788 L294 609 L353 609 L463 788 L360 788 Z M455 398 L522 398 C511 485 446 537 323 537 C194 537 130 470 130 386 C130 294 186 256 274 243 L365 230 C444 219 466 195 466 144 C466 76 412 41 316 41 C225 41 179 79 171 147 L104 147 C117 28 203 -13 316 -13 C463 -13 534 52 534 149 C534 229 494 276 381 291 L291 303 C231 311 196 333 196 390 C196 450 243 483 322 483 C402 483 443 455 455 398 L455 398 Z " />
<glyph glyph-name="Scircumflex" unicode="&#x15c;" horiz-adv-x="640" d="M473 827 L366 960 L283 960 L179 827 L244 827 L322 903 L324 903 L404 827 L473 827 Z M499 561 L570 561 C559 690 485 776 330 776 C190 776 90 696 90 572 C90 458 140 398 281 366 L380 343 C476 320 508 279 508 199 C508 116 459 44 324 44 C194 44 142 121 131 212 L62 212 C73 81 157 -15 320 -15 C490 -15 581 74 581 205 C581 316 530 378 399 409 L291 434 C201 455 160 488 160 574 C160 665 225 717 329 717 C446 717 491 646 499 561 L499 561 Z " />
<glyph glyph-name="scircumflex" unicode="&#x15d;" horiz-adv-x="640" d="M474 609 L367 788 L282 788 L178 609 L237 609 L320 731 L324 731 L408 609 L474 609 Z M455 398 L522 398 C511 485 446 537 323 537 C194 537 130 470 130 386 C130 294 186 256 274 243 L365 230 C444 219 466 195 466 144 C466 76 412 41 316 41 C225 41 179 79 171 147 L104 147 C117 28 203 -13 316 -13 C463 -13 534 52 534 149 C534 229 494 276 381 291 L291 303 C231 311 196 333 196 390 C196 450 243 483 322 483 C402 483 443 455 455 398 L455 398 Z " />
<glyph glyph-name="Scedilla" unicode="&#x15e;" horiz-adv-x="640" d="M328 -216 C396 -216 433 -174 433 -126 C433 -75 399 -46 346 -46 L310 -46 L324 -15 C489 -15 581 74 581 205 C581 316 530 378 399 409 L291 434 C201 455 160 488 160 574 C160 665 225 717 329 717 C446 717 491 646 499 561 L570 561 C559 690 485 776 330 776 C190 776 90 696 90 572 C90 458 140 398 281 366 L380 343 C476 320 508 279 508 199 C508 116 459 44 324 44 C194 44 142 121 131 212 L62 212 C73 92 142 0 282 -13 L243 -103 L298 -103 C307 -94 319 -89 334 -89 C359 -89 375 -104 375 -129 C375 -156 359 -171 332 -171 C312 -171 302 -166 295 -147 L235 -147 C239 -187 271 -216 328 -216 L328 -216 Z " />
<glyph glyph-name="scedilla" unicode="&#x15f;" horiz-adv-x="640" d="M318 -216 C386 -216 423 -174 423 -126 C423 -75 389 -46 336 -46 L300 -46 L315 -13 L316 -13 C463 -13 534 52 534 149 C534 229 494 276 381 291 L291 303 C231 311 196 333 196 390 C196 450 243 483 322 483 C402 483 443 455 455 398 L522 398 C511 485 446 537 323 537 C194 537 130 470 130 386 C130 294 186 256 274 243 L365 230 C444 219 466 195 466 144 C466 76 412 41 316 41 C225 41 179 79 171 147 L104 147 C115 44 182 -2 273 -11 L233 -103 L288 -103 C297 -94 309 -89 324 -89 C349 -89 365 -104 365 -129 C365 -156 349 -171 322 -171 C302 -171 292 -166 285 -147 L225 -147 C229 -187 261 -216 318 -216 L318 -216 Z " />
<glyph glyph-name="Scaron" unicode="&#x160;" horiz-adv-x="640" d="M177 960 L284 827 L367 827 L471 960 L406 960 L328 884 L326 884 L246 960 L177 960 Z M499 561 L570 561 C559 690 485 776 330 776 C190 776 90 696 90 572 C90 458 140 398 281 366 L380 343 C476 320 508 279 508 199 C508 116 459 44 324 44 C194 44 142 121 131 212 L62 212 C73 81 157 -15 320 -15 C490 -15 581 74 581 205 C581 316 530 378 399 409 L291 434 C201 455 160 488 160 574 C160 665 225 717 329 717 C446 717 491 646 499 561 L499 561 Z " />
<glyph glyph-name="scaron" unicode="&#x161;" horiz-adv-x="640" d="M174 788 L281 609 L366 609 L470 788 L410 788 L327 666 L323 666 L239 788 L174 788 Z M455 398 L522 398 C511 485 446 537 323 537 C194 537 130 470 130 386 C130 294 186 256 274 243 L365 230 C444 219 466 195 466 144 C466 76 412 41 316 41 C225 41 179 79 171 147 L104 147 C117 28 203 -13 316 -13 C463 -13 534 52 534 149 C534 229 494 276 381 291 L291 303 C231 311 196 333 196 390 C196 450 243 483 322 483 C402 483 443 455 455 398 L455 398 Z " />
<glyph glyph-name="Tcommaaccent" unicode="&#x162;" horiz-adv-x="640" d="M265 -53 L229 -202 L288 -202 L372 -53 L265 -53 Z M604 704 L604 765 L35 765 L35 704 L284 704 L284 0 L355 0 L355 704 L604 704 Z " />
<glyph glyph-name="tcommaaccent" unicode="&#x163;" horiz-adv-x="640" d="M343 -53 L307 -202 L366 -202 L450 -53 L343 -53 Z M254 467 L254 140 C254 46 297 -12 422 -12 C474 -12 513 -3 541 8 L541 67 C504 55 468 48 425 48 C361 48 323 72 323 141 L323 467 L541 467 L541 524 L323 524 L323 685 L257 685 L257 587 C257 538 246 524 197 524 L61 524 L61 467 L254 467 Z " />
<glyph glyph-name="Tcaron" unicode="&#x164;" horiz-adv-x="640" d="M173 960 L280 827 L363 827 L467 960 L402 960 L324 884 L322 884 L242 960 L173 960 Z M604 704 L604 765 L35 765 L35 704 L284 704 L284 0 L355 0 L355 704 L604 704 Z " />
<glyph glyph-name="tcaron" unicode="&#x165;" horiz-adv-x="640" d="M428 788 L402 587 L451 587 L519 788 L428 788 Z M254 467 L254 140 C254 46 297 -12 422 -12 C474 -12 513 -3 541 8 L541 67 C504 55 468 48 425 48 C361 48 323 72 323 141 L323 467 L541 467 L541 524 L323 524 L323 685 L257 685 L257 587 C257 538 246 524 197 524 L61 524 L61 467 L254 467 Z " />
<glyph glyph-name="Tbar" unicode="&#x166;" horiz-adv-x="640" d="M355 0 L355 438 L532 438 L532 495 L355 495 L355 704 L604 704 L604 765 L35 765 L35 704 L284 704 L284 495 L107 495 L107 438 L284 438 L284 0 L355 0 Z " />
<glyph glyph-name="tbar" unicode="&#x167;" horiz-adv-x="640" d="M541 8 L541 67 C504 55 468 48 425 48 C361 48 323 72 323 141 L323 260 L541 260 L541 316 L323 316 L323 467 L541 467 L541 524 L323 524 L323 685 L257 685 L257 587 C257 538 246 524 197 524 L61 524 L61 467 L254 467 L254 316 L61 316 L61 260 L254 260 L254 140 C254 46 297 -12 422 -12 C474 -12 513 -3 541 8 L541 8 Z " />
<glyph glyph-name="Utilde" unicode="&#x168;" horiz-adv-x="640" d="M75 765 L75 247 C75 57 170 -15 320 -15 C468 -15 565 57 565 246 L565 765 L495 765 L495 250 C495 123 452 47 322 47 C191 47 146 123 146 250 L146 765 L75 765 Z M152 827 L211 827 C214 874 225 899 258 899 C300 899 340 829 406 829 C479 829 509 892 512 964 L454 964 C450 917 441 892 406 892 C362 892 325 961 258 961 C185 961 155 902 152 827 L152 827 Z " />
<glyph glyph-name="utilde" unicode="&#x169;" horiz-adv-x="640" d="M180 189 L180 524 L111 524 L111 166 C111 47 169 -13 284 -13 C373 -13 429 38 456 97 L458 97 L458 0 L523 0 L523 524 L454 524 L454 241 C454 122 402 45 298 45 C254 45 222 57 203 82 C184 107 180 146 180 189 L180 189 Z M144 623 L202 623 C205 671 218 697 250 697 C290 697 330 626 396 626 C465 626 500 686 500 761 L443 761 C440 714 430 689 395 689 C350 689 314 759 248 759 C177 759 144 697 144 623 L144 623 Z " />
<glyph glyph-name="Umacron" unicode="&#x16a;" horiz-adv-x="640" d="M75 765 L75 247 C75 57 170 -15 320 -15 C468 -15 565 57 565 246 L565 765 L495 765 L495 250 C495 123 452 47 322 47 C191 47 146 123 146 250 L146 765 L75 765 Z M178 919 L178 855 L469 855 L469 919 L178 919 Z " />
<glyph glyph-name="umacron" unicode="&#x16b;" horiz-adv-x="640" d="M180 189 L180 524 L111 524 L111 166 C111 47 169 -13 284 -13 C373 -13 429 38 456 97 L458 97 L458 0 L523 0 L523 524 L454 524 L454 241 C454 122 402 45 298 45 C254 45 222 57 203 82 C184 107 180 146 180 189 L180 189 Z M177 711 L177 647 L468 647 L468 711 L177 711 Z " />
<glyph glyph-name="Ubreve" unicode="&#x16c;" horiz-adv-x="640" d="M75 765 L75 247 C75 57 170 -15 320 -15 C468 -15 565 57 565 246 L565 765 L495 765 L495 250 C495 123 452 47 322 47 C191 47 146 123 146 250 L146 765 L75 765 Z M239 970 L176 970 C184 871 243 830 324 830 C405 830 466 871 474 970 L416 970 C408 914 374 889 327 889 C280 889 247 914 239 970 L239 970 Z " />
<glyph glyph-name="ubreve" unicode="&#x16d;" horiz-adv-x="640" d="M180 189 L180 524 L111 524 L111 166 C111 47 169 -13 284 -13 C373 -13 429 38 456 97 L458 97 L458 0 L523 0 L523 524 L454 524 L454 241 C454 122 402 45 298 45 C254 45 222 57 203 82 C184 107 180 146 180 189 L180 189 Z M235 785 L174 785 C174 670 239 621 323 621 C408 621 474 670 474 785 L417 785 C417 712 379 680 326 680 C273 680 235 712 235 785 L235 785 Z " />
<glyph glyph-name="Uring" unicode="&#x16e;" horiz-adv-x="640" d="M75 765 L75 247 C75 57 170 -15 320 -15 C468 -15 565 57 565 246 L565 765 L495 765 L495 250 C495 123 452 47 322 47 C191 47 146 123 146 250 L146 765 L75 765 Z M322 787 C397 787 447 838 447 910 C447 981 398 1034 322 1034 C247 1034 198 982 198 910 C198 838 247 787 322 787 L322 787 Z M322 990 C369 990 395 955 395 910 C395 863 367 832 322 832 C277 832 250 863 250 910 C250 955 278 990 322 990 L322 990 Z " />
<glyph glyph-name="uring" unicode="&#x16f;" horiz-adv-x="640" d="M197 702 C197 630 246 579 321 579 C396 579 446 630 446 702 C446 774 397 827 321 827 C247 827 197 774 197 702 L197 702 Z M321 624 C276 624 249 657 249 702 C249 749 277 782 321 782 C368 782 394 749 394 702 C394 657 366 624 321 624 L321 624 Z M180 189 L180 524 L111 524 L111 166 C111 47 169 -13 284 -13 C373 -13 429 38 456 97 L458 97 L458 0 L523 0 L523 524 L454 524 L454 241 C454 122 402 45 298 45 C254 45 222 57 203 82 C184 107 180 146 180 189 L180 189 Z " />
<glyph glyph-name="Uhungarumlaut" unicode="&#x170;" horiz-adv-x="640" d="M405 970 L369 827 L423 827 L495 970 L405 970 Z M252 970 L216 827 L271 827 L342 970 L252 970 Z M75 765 L75 247 C75 57 170 -15 320 -15 C468 -15 565 57 565 246 L565 765 L495 765 L495 250 C495 123 452 47 322 47 C191 47 146 123 146 250 L146 765 L75 765 Z " />
<glyph glyph-name="uhungarumlaut" unicode="&#x171;" horiz-adv-x="640" d="M180 189 L180 524 L111 524 L111 166 C111 47 169 -13 284 -13 C373 -13 429 38 456 97 L458 97 L458 0 L523 0 L523 524 L454 524 L454 241 C454 122 402 45 298 45 C254 45 222 57 203 82 C184 107 180 146 180 189 L180 189 Z M428 788 L369 609 L426 609 L518 788 L428 788 Z M274 788 L214 609 L271 609 L363 788 L274 788 Z " />
<glyph glyph-name="Uogonek" unicode="&#x172;" horiz-adv-x="640" d="M390 -188 L405 -188 L405 -134 C352 -133 327 -118 327 -79 C327 -44 352 -22 415 -3 C512 25 565 106 565 246 L565 765 L495 765 L495 250 C495 123 452 47 322 47 C191 47 146 123 146 250 L146 765 L75 765 L75 247 C75 60 165 -13 317 -13 L317 -16 C278 -37 263 -61 263 -96 C263 -161 314 -188 390 -188 L390 -188 Z " />
<glyph glyph-name="uogonek" unicode="&#x173;" horiz-adv-x="640" d="M508 -188 L523 -188 L523 -134 C468 -133 445 -120 445 -81 C445 -49 474 -23 523 0 L523 524 L454 524 L454 241 C454 122 402 45 298 45 C254 45 222 57 203 82 C184 107 180 146 180 189 L180 524 L111 524 L111 166 C111 47 169 -13 284 -13 C373 -13 429 38 456 97 L458 97 L458 0 L463 2 C404 -23 381 -56 381 -96 C381 -160 432 -188 508 -188 L508 -188 Z " />
<glyph glyph-name="Wcircumflex" unicode="&#x174;" horiz-adv-x="640" d="M468 827 L361 960 L278 960 L174 827 L239 827 L317 903 L319 903 L399 827 L468 827 Z M117 0 L213 0 L299 414 C304 441 309 467 312 487 C314 499 315 510 316 521 L322 521 C323 510 324 499 326 487 C329 467 332 441 339 414 L425 0 L523 0 L598 765 L535 765 L470 79 L463 79 C462 88 460 98 459 109 C456 128 453 150 448 174 L357 605 L286 605 L195 175 C190 150 186 128 183 109 C181 98 180 88 179 79 L173 79 L107 765 L41 765 L117 0 Z " />
<glyph glyph-name="wcircumflex" unicode="&#x175;" horiz-adv-x="640" d="M473 609 L366 788 L281 788 L177 609 L236 609 L319 731 L323 731 L407 609 L473 609 Z M39 524 L148 0 L229 0 L301 342 C305 365 310 388 313 407 C315 418 317 429 318 439 L322 439 C323 429 325 418 327 407 C330 388 334 365 339 342 L412 0 L492 0 L601 524 L536 524 L463 138 C460 127 460 111 457 96 C456 88 455 80 454 71 L450 71 C449 80 447 88 446 96 C443 111 442 127 439 138 L358 524 L285 524 L203 138 C200 125 198 108 195 95 L192 71 L188 71 C187 79 186 87 185 94 C182 107 182 123 179 138 L105 524 L39 524 Z " />
<glyph glyph-name="Ycircumflex" unicode="&#x176;" horiz-adv-x="640" d="M285 337 L285 0 L356 0 L356 338 L599 765 L525 765 L323 400 L322 400 L122 765 L42 765 L285 337 Z M471 827 L364 960 L281 960 L177 827 L242 827 L320 903 L322 903 L402 827 L471 827 Z " />
<glyph glyph-name="ycircumflex" unicode="&#x177;" horiz-adv-x="640" d="M86 524 L293 -1 L275 -45 C246 -112 226 -141 161 -141 C130 -141 107 -135 87 -130 L87 -188 C103 -192 127 -199 163 -199 C254 -199 300 -159 345 -42 L566 524 L496 524 L360 161 C352 141 345 120 340 104 C337 95 334 86 331 78 L328 78 C325 87 322 95 319 104 C314 119 307 139 299 160 L159 524 L86 524 Z M485 609 L378 788 L293 788 L189 609 L248 609 L331 731 L335 731 L419 609 L485 609 Z " />
<glyph glyph-name="Ydieresis" unicode="&#x178;" horiz-adv-x="640" d="M285 337 L285 0 L356 0 L356 338 L599 765 L525 765 L323 400 L322 400 L122 765 L42 765 L285 337 Z M371 947 L371 834 L479 834 L479 947 L371 947 Z M170 947 L170 834 L279 834 L279 947 L170 947 Z " />
<glyph glyph-name="Zacute" unicode="&#x179;" horiz-adv-x="640" d="M354 960 L297 827 L358 827 L456 960 L354 960 Z M77 765 L77 704 L496 704 L62 55 L62 0 L586 0 L586 61 L146 61 L580 710 L580 765 L77 765 Z " />
<glyph glyph-name="zacute" unicode="&#x17a;" horiz-adv-x="640" d="M357 788 L291 609 L350 609 L460 788 L357 788 Z M116 524 L116 466 L449 466 L99 61 L99 0 L538 0 L538 58 L178 58 L530 465 L530 524 L116 524 Z " />
<glyph glyph-name="Zdotaccent" unicode="&#x17b;" horiz-adv-x="640" d="M77 765 L77 704 L496 704 L62 55 L62 0 L586 0 L586 61 L146 61 L580 710 L580 765 L77 765 Z M271 947 L271 834 L379 834 L379 947 L271 947 Z " />
<glyph glyph-name="zdotaccent" unicode="&#x17c;" horiz-adv-x="640" d="M116 524 L116 466 L449 466 L99 61 L99 0 L538 0 L538 58 L178 58 L530 465 L530 524 L116 524 Z M269 748 L269 634 L380 634 L380 748 L269 748 Z " />
<glyph glyph-name="Zcaron" unicode="&#x17d;" horiz-adv-x="640" d="M179 960 L286 827 L369 827 L473 960 L408 960 L330 884 L328 884 L248 960 L179 960 Z M77 765 L77 704 L496 704 L62 55 L62 0 L586 0 L586 61 L146 61 L580 710 L580 765 L77 765 Z " />
<glyph glyph-name="zcaron" unicode="&#x17e;" horiz-adv-x="640" d="M177 788 L284 609 L369 609 L473 788 L413 788 L330 666 L326 666 L242 788 L177 788 Z M116 524 L116 466 L449 466 L99 61 L99 0 L538 0 L538 58 L178 58 L530 465 L530 524 L116 524 Z " />
<glyph glyph-name="florin" unicode="&#x192;" horiz-adv-x="640" d="M258 -188 L335 373 L575 373 L575 431 L344 431 L371 630 C382 711 426 733 485 733 C520 733 540 729 575 720 L575 779 C552 786 524 792 481 792 C392 792 319 748 303 637 L275 431 L61 431 L61 373 L267 373 L190 -188 L258 -188 Z " />
<glyph glyph-name="Aringacute" unicode="&#x1fa;" horiz-adv-x="640" d="M312 695 L321 695 C323 684 325 673 328 661 C332 641 339 615 346 592 L429 308 L204 308 L287 591 C300 636 312 690 312 695 L312 695 Z M446 250 L518 0 L594 0 L365 765 L272 765 L43 0 L114 0 L187 250 L446 250 Z M351 1194 L294 1061 L355 1061 L453 1194 L351 1194 Z M320 792 C395 792 445 843 445 915 C445 986 396 1039 320 1039 C245 1039 196 987 196 915 C196 843 245 792 320 792 L320 792 Z M320 995 C367 995 393 960 393 915 C393 868 365 837 320 837 C275 837 248 868 248 915 C248 960 276 995 320 995 L320 995 Z " />
<glyph glyph-name="aringacute" unicode="&#x1fb;" horiz-adv-x="640" d="M163 143 C163 175 176 200 201 218 C234 241 303 250 438 258 L438 236 C438 107 353 48 273 48 C206 48 163 79 163 143 L163 143 Z M439 101 L442 101 C445 32 467 0 544 0 L568 0 L568 56 L549 56 C516 56 505 68 505 104 L505 338 C505 454 458 537 309 537 C187 537 122 464 114 383 L181 383 C186 433 222 481 310 481 C414 481 439 427 439 334 L439 312 C306 305 220 295 167 266 C120 241 93 200 93 140 C93 47 158 -8 261 -8 C345 -8 408 32 439 101 L439 101 Z M195 700 C195 628 244 577 319 577 C394 577 444 628 444 700 C444 772 395 825 319 825 C245 825 195 772 195 700 L195 700 Z M319 622 C274 622 247 655 247 700 C247 747 275 780 319 780 C366 780 392 747 392 700 C392 655 364 622 319 622 L319 622 Z M349 991 L292 858 L353 858 L451 991 L349 991 Z " />
<glyph glyph-name="AEacute" unicode="&#x1fc;" horiz-adv-x="640" d="M439 960 L382 827 L443 827 L541 960 L439 960 Z M330 703 L330 296 L171 296 L311 703 L330 703 Z M70 0 L152 239 L330 239 L330 0 L629 0 L629 62 L396 62 L396 360 L588 360 L588 420 L396 420 L396 703 L625 703 L625 765 L268 765 L2 0 L70 0 Z " />
<glyph glyph-name="aeacute" unicode="&#x1fd;" horiz-adv-x="640" d="M363 788 L297 609 L356 609 L466 788 L363 788 Z M542 307 L542 300 L342 300 C345 408 365 481 445 481 C528 481 542 406 542 307 L542 307 Z M167 45 C112 45 85 80 85 144 C85 181 96 208 118 225 C143 244 166 249 278 249 L278 213 C278 106 234 45 167 45 L167 45 Z M603 131 L539 131 C534 99 513 45 450 45 C366 45 343 114 342 247 L609 248 L609 304 C609 436 570 537 453 537 C382 537 341 498 321 449 L317 449 C301 494 265 537 189 537 C90 537 36 468 36 385 L98 385 C99 441 128 482 189 482 C254 482 278 434 278 367 L278 301 C161 301 129 295 88 273 C47 250 17 204 17 139 C17 47 71 -10 155 -10 C234 -10 276 30 303 102 L306 102 C325 34 363 -10 448 -10 C535 -10 588 44 603 131 L603 131 Z " />
<glyph glyph-name="Oslashacute" unicode="&#x1fe;" horiz-adv-x="640" d="M320 719 C387 719 434 698 465 647 L152 172 C136 224 129 292 129 380 C129 622 193 719 320 719 L320 719 Z M320 41 C252 41 206 65 175 118 L488 593 C504 541 511 472 511 380 C511 139 451 41 320 41 L320 41 Z M585 380 C585 505 566 595 531 659 L620 793 L561 793 L501 702 C456 754 396 776 321 776 C166 776 55 674 55 380 C55 255 73 167 106 103 L22 -25 L81 -25 L136 59 C181 6 243 -16 319 -16 C476 -16 585 87 585 380 L585 380 Z M352 960 L295 827 L356 827 L454 960 L352 960 Z " />
<glyph glyph-name="oslashacute" unicode="&#x1ff;" horiz-adv-x="640" d="M320 483 C369 483 407 469 434 442 L177 121 C158 157 151 205 151 262 C151 397 208 483 320 483 L320 483 Z M320 42 C272 42 235 55 208 80 L463 400 C480 365 488 319 488 262 C488 126 433 42 320 42 L320 42 Z M559 262 C559 339 541 402 504 451 L577 542 L513 542 L470 488 C431 519 381 537 320 537 C167 537 80 425 80 262 C80 185 98 118 137 70 L64 -21 L127 -21 L171 35 C210 3 260 -13 319 -13 C473 -13 559 98 559 262 L559 262 Z M358 788 L292 609 L351 609 L461 788 L358 788 Z " />
<glyph glyph-name="Scommaaccent" unicode="&#x218;" horiz-adv-x="640" d="M274 -53 L238 -202 L297 -202 L381 -53 L274 -53 Z M499 561 L570 561 C559 690 485 776 330 776 C190 776 90 696 90 572 C90 458 140 398 281 366 L380 343 C476 320 508 279 508 199 C508 116 459 44 324 44 C194 44 142 121 131 212 L62 212 C73 81 157 -15 320 -15 C490 -15 581 74 581 205 C581 316 530 378 399 409 L291 434 C201 455 160 488 160 574 C160 665 225 717 329 717 C446 717 491 646 499 561 L499 561 Z " />
<glyph glyph-name="scommaaccent" unicode="&#x219;" horiz-adv-x="640" d="M269 -52 L233 -201 L292 -201 L376 -52 L269 -52 Z M455 398 L522 398 C511 485 446 537 323 537 C194 537 130 470 130 386 C130 294 186 256 274 243 L365 230 C444 219 466 195 466 144 C466 76 412 41 316 41 C225 41 179 79 171 147 L104 147 C117 28 203 -13 316 -13 C463 -13 534 52 534 149 C534 229 494 276 381 291 L291 303 C231 311 196 333 196 390 C196 450 243 483 322 483 C402 483 443 455 455 398 L455 398 Z " />
<glyph glyph-name="uni021A" unicode="&#x21a;" horiz-adv-x="640" d="M265 -53 L229 -202 L288 -202 L372 -53 L265 -53 Z M604 704 L604 765 L35 765 L35 704 L284 704 L284 0 L355 0 L355 704 L604 704 Z " />
<glyph glyph-name="uni021B" unicode="&#x21b;" horiz-adv-x="640" d="M343 -53 L307 -202 L366 -202 L450 -53 L343 -53 Z M254 467 L254 140 C254 46 297 -12 422 -12 C474 -12 513 -3 541 8 L541 67 C504 55 468 48 425 48 C361 48 323 72 323 141 L323 467 L541 467 L541 524 L323 524 L323 685 L257 685 L257 587 C257 538 246 524 197 524 L61 524 L61 467 L254 467 Z " />
<glyph glyph-name="uni0237" unicode="&#x237;" horiz-adv-x="640" d="M260 -197 C359 -197 420 -143 420 -38 L420 524 L165 524 L165 466 L352 466 L352 -26 C352 -105 322 -137 254 -137 C207 -137 172 -125 147 -118 L147 -179 C178 -188 209 -197 260 -197 L260 -197 Z " />
<glyph glyph-name="circumflex" unicode="&#x2c6;" horiz-adv-x="640" d="M468 609 L361 788 L276 788 L172 609 L231 609 L314 731 L318 731 L402 609 L468 609 Z " />
<glyph glyph-name="caron" unicode="&#x2c7;" horiz-adv-x="640" d="M172 788 L279 609 L364 609 L468 788 L408 788 L325 666 L321 666 L237 788 L172 788 Z " />
<glyph glyph-name="breve" unicode="&#x2d8;" horiz-adv-x="640" d="M232 785 L171 785 C171 670 236 621 320 621 C405 621 471 670 471 785 L414 785 C414 712 376 680 323 680 C270 680 232 712 232 785 L232 785 Z " />
<glyph glyph-name="dotaccent" unicode="&#x2d9;" horiz-adv-x="640" d="M266 748 L266 634 L377 634 L377 748 L266 748 Z " />
<glyph glyph-name="ring" unicode="&#x2da;" horiz-adv-x="640" d="M194 712 C194 640 243 589 318 589 C393 589 443 640 443 712 C443 784 394 837 318 837 C244 837 194 784 194 712 L194 712 Z M318 634 C273 634 246 667 246 712 C246 759 274 792 318 792 C365 792 391 759 391 712 C391 667 363 634 318 634 L318 634 Z " />
<glyph glyph-name="ogonek" unicode="&#x2db;" horiz-adv-x="640" d="M401 0 L387 23 C295 -9 259 -44 259 -96 C259 -160 310 -188 386 -188 L401 -188 L401 -134 C346 -133 323 -120 323 -81 C323 -49 352 -23 401 0 L401 0 Z " />
<glyph glyph-name="tilde" unicode="&#x2dc;" horiz-adv-x="640" d="M143 623 L201 623 C204 671 217 697 249 697 C289 697 329 626 395 626 C464 626 499 686 499 761 L442 761 C439 714 429 689 394 689 C349 689 313 759 247 759 C176 759 143 697 143 623 L143 623 Z " />
<glyph glyph-name="hungarumlaut" unicode="&#x2dd;" horiz-adv-x="640" d="M385 788 L326 609 L383 609 L475 788 L385 788 Z M231 788 L171 609 L228 609 L320 788 L231 788 Z " />
<glyph glyph-name="Wgrave" unicode="&#x1e80;" horiz-adv-x="640" d="M348 827 L291 960 L189 960 L287 827 L348 827 Z M117 0 L213 0 L299 414 C304 441 309 467 312 487 C314 499 315 510 316 521 L322 521 C323 510 324 499 326 487 C329 467 332 441 339 414 L425 0 L523 0 L598 765 L535 765 L470 79 L463 79 C462 88 460 98 459 109 C456 128 453 150 448 174 L357 605 L286 605 L195 175 C190 150 186 128 183 109 C181 98 180 88 179 79 L173 79 L107 765 L41 765 L117 0 Z " />
<glyph glyph-name="wgrave" unicode="&#x1e81;" horiz-adv-x="640" d="M39 524 L148 0 L229 0 L301 342 C305 365 310 388 313 407 C315 418 317 429 318 439 L322 439 C323 429 325 418 327 407 C330 388 334 365 339 342 L412 0 L492 0 L601 524 L536 524 L463 138 C460 127 460 111 457 96 C456 88 455 80 454 71 L450 71 C449 80 447 88 446 96 C443 111 442 127 439 138 L358 524 L285 524 L203 138 C200 125 198 108 195 95 L192 71 L188 71 C187 79 186 87 185 94 C182 107 182 123 179 138 L105 524 L39 524 Z M292 609 L350 609 L285 788 L181 788 L292 609 Z " />
<glyph glyph-name="Wacute" unicode="&#x1e82;" horiz-adv-x="640" d="M358 960 L301 827 L362 827 L460 960 L358 960 Z M117 0 L213 0 L299 414 C304 441 309 467 312 487 C314 499 315 510 316 521 L322 521 C323 510 324 499 326 487 C329 467 332 441 339 414 L425 0 L523 0 L598 765 L535 765 L470 79 L463 79 C462 88 460 98 459 109 C456 128 453 150 448 174 L357 605 L286 605 L195 175 C190 150 186 128 183 109 C181 98 180 88 179 79 L173 79 L107 765 L41 765 L117 0 Z " />
<glyph glyph-name="wacute" unicode="&#x1e83;" horiz-adv-x="640" d="M360 788 L294 609 L353 609 L463 788 L360 788 Z M39 524 L148 0 L229 0 L301 342 C305 365 310 388 313 407 C315 418 317 429 318 439 L322 439 C323 429 325 418 327 407 C330 388 334 365 339 342 L412 0 L492 0 L601 524 L536 524 L463 138 C460 127 460 111 457 96 C456 88 455 80 454 71 L450 71 C449 80 447 88 446 96 C443 111 442 127 439 138 L358 524 L285 524 L203 138 C200 125 198 108 195 95 L192 71 L188 71 C187 79 186 87 185 94 C182 107 182 123 179 138 L105 524 L39 524 Z " />
<glyph glyph-name="Wdieresis" unicode="&#x1e84;" horiz-adv-x="640" d="M368 947 L368 834 L476 834 L476 947 L368 947 Z M167 947 L167 834 L276 834 L276 947 L167 947 Z M117 0 L213 0 L299 414 C304 441 309 467 312 487 C314 499 315 510 316 521 L322 521 C323 510 324 499 326 487 C329 467 332 441 339 414 L425 0 L523 0 L598 765 L535 765 L470 79 L463 79 C462 88 460 98 459 109 C456 128 453 150 448 174 L357 605 L286 605 L195 175 C190 150 186 128 183 109 C181 98 180 88 179 79 L173 79 L107 765 L41 765 L117 0 Z " />
<glyph glyph-name="wdieresis" unicode="&#x1e85;" horiz-adv-x="640" d="M167 746 L167 634 L276 634 L276 746 L167 746 Z M368 634 L476 634 L476 746 L368 746 L368 634 Z M39 524 L148 0 L229 0 L301 342 C305 365 310 388 313 407 C315 418 317 429 318 439 L322 439 C323 429 325 418 327 407 C330 388 334 365 339 342 L412 0 L492 0 L601 524 L536 524 L463 138 C460 127 460 111 457 96 C456 88 455 80 454 71 L450 71 C449 80 447 88 446 96 C443 111 442 127 439 138 L358 524 L285 524 L203 138 C200 125 198 108 195 95 L192 71 L188 71 C187 79 186 87 185 94 C182 107 182 123 179 138 L105 524 L39 524 Z " />
<glyph glyph-name="Ygrave" unicode="&#x1ef2;" horiz-adv-x="640" d="M285 337 L285 0 L356 0 L356 338 L599 765 L525 765 L323 400 L322 400 L122 765 L42 765 L285 337 Z M359 827 L302 960 L200 960 L298 827 L359 827 Z " />
<glyph glyph-name="ygrave" unicode="&#x1ef3;" horiz-adv-x="640" d="M86 524 L293 -1 L275 -45 C246 -112 226 -141 161 -141 C130 -141 107 -135 87 -130 L87 -188 C103 -192 127 -199 163 -199 C254 -199 300 -159 345 -42 L566 524 L496 524 L360 161 C352 141 345 120 340 104 C337 95 334 86 331 78 L328 78 C325 87 322 95 319 104 C314 119 307 139 299 160 L159 524 L86 524 Z M308 609 L366 609 L301 788 L197 788 L308 609 Z " />
<glyph glyph-name="uni2009" unicode="&#x2009;" d="" />
<glyph glyph-name="endash" unicode="&#x2013;" horiz-adv-x="640" d="M140 362 L140 302 L500 302 L500 362 L140 362 Z " />
<glyph glyph-name="emdash" unicode="&#x2014;" horiz-adv-x="640" d="M10 362 L10 302 L630 302 L630 362 L10 362 Z " />
<glyph glyph-name="quoteleft" unicode="&#x2018;" horiz-adv-x="640" d="M338 765 L234 514 L348 514 L402 765 L338 765 Z " />
<glyph glyph-name="quoteright" unicode="&#x2019;" horiz-adv-x="640" d="M304 514 L408 765 L294 765 L240 514 L304 514 Z " />
<glyph glyph-name="quotesinglbase" unicode="&#x201a;" horiz-adv-x="640" d="M245 -129 L310 -129 L408 117 L294 117 L245 -129 Z " />
<glyph glyph-name="quotedblleft" unicode="&#x201c;" horiz-adv-x="640" d="M424 765 L320 514 L434 514 L488 765 L424 765 Z M241 765 L137 514 L251 514 L305 765 L241 765 Z " />
<glyph glyph-name="quotedblright" unicode="&#x201d;" horiz-adv-x="640" d="M385 514 L489 765 L375 765 L321 514 L385 514 Z M203 514 L307 765 L193 765 L139 514 L203 514 Z " />
<glyph glyph-name="quotedblbase" unicode="&#x201e;" horiz-adv-x="640" d="M328 -129 L393 -129 L491 117 L377 117 L328 -129 Z M146 -129 L211 -129 L309 117 L195 117 L146 -129 Z " />
<glyph glyph-name="dagger" unicode="&#x2020;" horiz-adv-x="640" d="M351 -81 L351 453 L560 453 L560 509 L351 509 L351 765 L288 765 L288 509 L80 509 L80 453 L288 453 L288 -81 L351 -81 Z " />
<glyph glyph-name="daggerdbl" unicode="&#x2021;" horiz-adv-x="640" d="M351 -81 L351 178 L560 178 L560 234 L351 234 L351 466 L560 466 L560 522 L351 522 L351 765 L288 765 L288 522 L80 522 L80 466 L288 466 L288 234 L80 234 L80 178 L288 178 L288 -81 L351 -81 Z " />
<glyph glyph-name="bullet" unicode="&#x2022;" horiz-adv-x="640" d="M319 192 C383 192 435 239 435 308 C435 376 388 424 320 424 C257 424 205 376 205 308 C205 237 252 192 319 192 L319 192 Z " />
<glyph glyph-name="ellipsis" unicode="&#x2026;" horiz-adv-x="640" d="M265 115 L265 0 L375 0 L375 115 L265 115 Z M479 115 L479 0 L590 0 L590 115 L479 115 Z M50 115 L50 0 L161 0 L161 115 L50 115 Z " />
<glyph glyph-name="perthousand" unicode="&#x2030;" horiz-adv-x="640" d="M24 611 C24 503 68 449 137 449 C209 449 255 503 255 611 C255 719 211 772 139 772 C71 772 24 719 24 611 L24 611 Z M138 496 C98 496 78 534 78 611 C78 691 97 725 138 725 C179 725 200 687 200 611 C200 535 179 497 138 496 L138 496 Z M17 317 L17 261 L487 526 L487 582 L17 317 Z M509 -7 C581 -7 626 47 626 155 C626 263 582 316 510 316 C442 316 395 260 395 155 C395 46 440 -7 509 -7 L509 -7 Z M239 -7 C311 -7 357 46 357 155 C357 260 313 316 241 316 C173 316 126 263 126 155 C126 47 170 -7 239 -7 L239 -7 Z M509 40 C469 40 449 78 449 155 C449 235 469 269 509 269 C550 268 571 230 571 155 C571 79 550 41 509 40 L509 40 Z M240 40 C200 40 180 78 180 155 C180 235 200 269 240 269 C281 269 302 231 302 155 C302 78 281 40 240 40 L240 40 Z " />
<glyph glyph-name="uni2032" unicode="&#x2032;" horiz-adv-x="640" d="M285 765 L252 479 L308 479 L377 765 L285 765 Z " />
<glyph glyph-name="uni2033" unicode="&#x2033;" horiz-adv-x="640" d="M373 765 L340 479 L396 479 L465 765 L373 765 Z M198 765 L165 479 L221 479 L290 765 L198 765 Z " />
<glyph glyph-name="guilsinglleft" unicode="&#x2039;" horiz-adv-x="640" d="M258 262 L443 464 L360 464 L169 260 L360 57 L445 57 L258 262 Z " />
<glyph glyph-name="guilsinglright" unicode="&#x203a;" horiz-adv-x="640" d="M382 259 L197 57 L280 57 L471 261 L280 464 L195 464 L382 259 Z " />
<glyph glyph-name="fraction" unicode="&#x2044;" horiz-adv-x="640" d="M573 780 L3 -40 L68 -40 L637 780 L573 780 Z " />
<glyph glyph-name="Euro" unicode="&#x20ac;" horiz-adv-x="640" d="M591 204 L525 204 C517 109 469 41 371 41 C258 41 206 131 190 263 L434 263 L434 320 L185 320 C184 336 184 352 184 368 C184 384 184 400 185 415 L432 415 L432 471 L189 471 C205 599 251 695 371 695 C466 695 517 617 522 532 L589 532 C578 687 473 752 371 752 C221 752 141 642 120 471 L24 471 L24 415 L115 415 C114 400 114 384 114 368 C114 352 114 335 115 320 L25 320 L25 263 L120 263 C140 90 216 -16 371 -16 C500 -16 580 69 591 204 L591 204 Z " />
<glyph glyph-name="trademark" unicode="&#x2122;" horiz-adv-x="640" d="M248 724 L248 765 L21 765 L21 724 L110 724 L110 439 L159 439 L159 724 L248 724 Z M288 765 L288 439 L332 439 L332 708 L337 708 C338 703 339 697 340 690 C342 677 346 662 352 644 L416 439 L457 439 L517 641 C522 660 527 677 530 689 C532 696 533 703 534 708 L539 708 L539 439 L585 439 L585 765 L514 765 L453 561 C448 546 445 532 442 520 C440 513 439 506 438 500 L435 500 C434 506 433 513 432 520 C429 532 427 546 423 561 L360 765 L288 765 Z " />
<glyph glyph-name="onethird" unicode="&#x2153;" horiz-adv-x="1920" d="M1455 200 L1508 200 C1575 200 1620 169 1620 102 C1620 39 1568 1 1503 1 C1431 1 1384 36 1379 107 L1316 107 C1319 27 1371 -51 1499 -51 C1613 -51 1684 18 1684 101 C1684 180 1636 215 1576 229 L1576 231 C1633 250 1670 290 1670 354 C1670 435 1606 491 1503 491 C1386 491 1327 417 1327 334 L1391 334 C1392 407 1433 438 1501 438 C1564 438 1605 404 1605 347 C1605 295 1570 252 1505 252 L1455 252 L1455 200 Z M1213 780 L643 -40 L708 -40 L1277 780 L1213 780 Z M168 257 L495 257 L495 308 L366 308 L366 781 L313 781 C313 742 309 722 290 706 C275 692 250 685 214 685 L175 685 L175 638 L304 638 L304 308 L168 308 L168 257 Z " />
<glyph glyph-name="twothirds" unicode="&#x2154;" horiz-adv-x="1920" d="M1455 200 L1508 200 C1575 200 1620 169 1620 102 C1620 39 1568 1 1503 1 C1431 1 1384 36 1379 107 L1316 107 C1319 27 1371 -51 1499 -51 C1613 -51 1684 18 1684 101 C1684 180 1636 215 1576 229 L1576 231 C1633 250 1670 290 1670 354 C1670 435 1606 491 1503 491 C1386 491 1327 417 1327 334 L1391 334 C1392 407 1433 438 1501 438 C1564 438 1605 404 1605 347 C1605 295 1570 252 1505 252 L1455 252 L1455 200 Z M1213 780 L643 -40 L708 -40 L1277 780 L1213 780 Z M141 607 L202 607 C205 699 255 736 319 736 C384 736 427 697 427 637 C427 577 400 541 325 477 L129 304 L129 257 L500 257 L500 312 L217 312 L217 314 C224 319 231 324 238 330 C251 341 268 355 288 372 L382 453 C462 525 491 569 491 639 C491 723 428 788 319 788 C218 788 141 722 141 607 L141 607 Z " />
<glyph glyph-name="oneeighth" unicode="&#x215b;" horiz-adv-x="1920" d="M1327 350 C1327 281 1371 243 1417 229 L1417 227 C1372 216 1312 181 1312 98 C1312 9 1379 -51 1499 -51 C1619 -51 1687 10 1687 98 C1687 181 1630 216 1582 227 C1585 227 1585 229 1582 229 C1629 244 1671 282 1671 350 C1671 430 1608 491 1499 491 C1390 491 1327 430 1327 350 L1327 350 Z M1499 442 C1559 442 1608 413 1608 346 C1608 279 1557 251 1499 251 C1440 251 1391 279 1391 346 C1391 414 1439 442 1499 442 L1499 442 Z M1499 -3 C1431 -3 1376 28 1376 100 C1376 171 1432 202 1499 202 C1568 202 1623 171 1623 100 C1623 27 1571 -3 1499 -3 L1499 -3 Z M1213 780 L643 -40 L708 -40 L1277 780 L1213 780 Z M168 257 L495 257 L495 308 L366 308 L366 781 L313 781 C313 742 309 722 290 706 C275 692 250 685 214 685 L175 685 L175 638 L304 638 L304 308 L168 308 L168 257 Z " />
<glyph glyph-name="threeeighths" unicode="&#x215c;" horiz-adv-x="1920" d="M1327 350 C1327 281 1371 243 1417 229 L1417 227 C1372 216 1312 181 1312 98 C1312 9 1379 -51 1499 -51 C1619 -51 1687 10 1687 98 C1687 181 1630 216 1582 227 C1585 227 1585 229 1582 229 C1629 244 1671 282 1671 350 C1671 430 1608 491 1499 491 C1390 491 1327 430 1327 350 L1327 350 Z M1499 442 C1559 442 1608 413 1608 346 C1608 279 1557 251 1499 251 C1440 251 1391 279 1391 346 C1391 414 1439 442 1499 442 L1499 442 Z M1499 -3 C1431 -3 1376 28 1376 100 C1376 171 1432 202 1499 202 C1568 202 1623 171 1623 100 C1623 27 1571 -3 1499 -3 L1499 -3 Z M1213 780 L643 -40 L708 -40 L1277 780 L1213 780 Z M275 497 L328 497 C395 497 440 466 440 399 C440 336 388 298 323 298 C251 298 204 333 199 404 L136 404 C139 324 191 246 319 246 C433 246 504 315 504 398 C504 477 456 512 396 526 L396 528 C453 547 490 587 490 651 C490 732 426 788 323 788 C206 788 147 714 147 631 L211 631 C212 704 253 735 321 735 C384 735 425 701 425 644 C425 592 390 549 325 549 L275 549 L275 497 Z " />
<glyph glyph-name="fiveeighths" unicode="&#x215d;" horiz-adv-x="1920" d="M1327 350 C1327 281 1371 243 1417 229 L1417 227 C1372 216 1312 181 1312 98 C1312 9 1379 -51 1499 -51 C1619 -51 1687 10 1687 98 C1687 181 1630 216 1582 227 C1585 227 1585 229 1582 229 C1629 244 1671 282 1671 350 C1671 430 1608 491 1499 491 C1390 491 1327 430 1327 350 L1327 350 Z M1499 442 C1559 442 1608 413 1608 346 C1608 279 1557 251 1499 251 C1440 251 1391 279 1391 346 C1391 414 1439 442 1499 442 L1499 442 Z M1499 -3 C1431 -3 1376 28 1376 100 C1376 171 1432 202 1499 202 C1568 202 1623 171 1623 100 C1623 27 1571 -3 1499 -3 L1499 -3 Z M1213 780 L643 -40 L708 -40 L1277 780 L1213 780 Z M441 425 C441 332 379 299 317 299 C250 299 204 330 197 398 L135 398 C140 323 189 247 314 247 C429 247 504 315 504 427 C504 550 421 602 334 602 C281 602 240 580 217 555 L214 555 L223 725 L479 725 L479 781 L171 781 L157 502 L211 502 C234 533 271 549 322 549 C389 549 441 508 441 425 L441 425 Z " />
<glyph glyph-name="seveneighths" unicode="&#x215e;" horiz-adv-x="1920" d="M1327 350 C1327 281 1371 243 1417 229 L1417 227 C1372 216 1312 181 1312 98 C1312 9 1379 -51 1499 -51 C1619 -51 1687 10 1687 98 C1687 181 1630 216 1582 227 C1585 227 1585 229 1582 229 C1629 244 1671 282 1671 350 C1671 430 1608 491 1499 491 C1390 491 1327 430 1327 350 L1327 350 Z M1499 442 C1559 442 1608 413 1608 346 C1608 279 1557 251 1499 251 C1440 251 1391 279 1391 346 C1391 414 1439 442 1499 442 L1499 442 Z M1499 -3 C1431 -3 1376 28 1376 100 C1376 171 1432 202 1499 202 C1568 202 1623 171 1623 100 C1623 27 1571 -3 1499 -3 L1499 -3 Z M1193 780 L623 -40 L688 -40 L1257 780 L1193 780 Z M434 724 L195 258 L259 258 L506 741 L506 781 L134 781 L134 724 L434 724 Z " />
<glyph glyph-name="minus" unicode="&#x2212;" horiz-adv-x="640" d="M92 388 L92 327 L548 327 L548 388 L92 388 Z " />
<glyph glyph-name="approxequal" unicode="&#x2248;" horiz-adv-x="640" d="M94 396 L152 396 C155 441 181 461 209 461 C265 461 354 398 429 398 C500 398 542 447 545 520 L488 520 C485 475 459 455 430 455 C377 455 283 518 211 518 C140 518 97 468 94 396 L94 396 Z M209 281 C265 281 357 219 429 219 C501 219 542 268 545 340 L488 340 C485 295 459 275 430 275 C376 275 285 339 211 339 C140 339 97 289 94 217 L152 217 C155 261 181 281 209 281 L209 281 Z " />
<glyph glyph-name="notequal" unicode="&#x2260;" horiz-adv-x="640" d="M226 117 L287 237 L548 237 L548 296 L318 296 L381 419 L548 419 L548 478 L411 478 L473 599 L413 599 L351 478 L92 478 L92 419 L321 419 L258 296 L92 296 L92 237 L227 237 L166 117 L226 117 Z " />
<glyph glyph-name="lessequal" unicode="&#x2264;" horiz-adv-x="640" d="M88 329 L547 132 L547 200 L171 357 L547 513 L547 581 L88 385 L88 329 Z M88 0 L547 0 L547 59 L88 59 L88 0 Z " />
<glyph glyph-name="greaterequal" unicode="&#x2265;" horiz-adv-x="640" d="M551 385 L92 581 L92 513 L468 356 L92 200 L92 132 L551 329 L551 385 Z M92 0 L551 0 L551 59 L92 59 L92 0 Z " />
<glyph glyph-name="uni24C5" unicode="&#x24c5;" horiz-adv-x="640" d="M50 422 L50 340 C50 131 124 -16 320 -16 C516 -16 590 133 590 340 L590 422 C590 623 517 777 320 777 C123 777 50 625 50 422 L50 422 Z M320 30 C155 30 104 169 104 341 L104 422 C104 587 153 730 320 730 C487 730 536 587 536 422 L536 341 C536 169 487 30 320 30 L320 30 Z M271 333 L328 333 C412 333 467 373 467 465 C467 557 414 595 330 595 L213 595 L213 165 L271 165 L271 333 Z M328 382 L271 382 L271 547 L332 547 C376 547 408 526 408 465 C408 402 376 382 328 382 L328 382 Z " />
<glyph glyph-name="fi" unicode="&#xfb01;" horiz-adv-x="1280" d="M908 748 L908 634 L1019 634 L1019 748 L908 748 Z M740 0 L1204 0 L1204 57 L1004 57 L1004 524 L768 524 L768 468 L936 468 L936 57 L740 57 L740 0 Z M343 0 L343 467 L555 467 L555 524 L343 524 L343 628 C343 704 377 728 445 728 C488 728 524 721 555 712 L555 771 C522 782 487 787 444 787 C344 787 274 738 274 633 L274 524 L79 524 L79 467 L274 467 L274 0 L343 0 Z " />
<glyph glyph-name="fl" unicode="&#xfb02;" horiz-adv-x="1280" d="M732 0 L1198 0 L1198 57 L998 57 L998 788 L761 788 L761 731 L929 731 L929 57 L732 57 L732 0 Z M343 0 L343 467 L555 467 L555 524 L343 524 L343 628 C343 704 377 728 445 728 C488 728 524 721 555 712 L555 771 C522 782 487 787 444 787 C344 787 274 738 274 633 L274 524 L79 524 L79 467 L274 467 L274 0 L343 0 Z " />
</font>
</svg>
