<?xml version="1.0" encoding="UTF-8"?>
<svg xmlns="http://www.w3.org/2000/svg" xmlns:xlink="http://www.w3.org/1999/xlink" version="1.2" >
<font id="Office Code Pro Italic">
<font-face  font-family="Office Code Pro" units-per-em="1000" ascent="812" descent="-188" font-style="italic" font-weight="400" font-stretch="normal" slope="-10" cap-height="765" x-height="527" underline-position="-75" underline-thickness="50" />
<missing-glyph  horiz-adv-x="500" d="" />
<glyph glyph-name="NULL" d="" />
<glyph glyph-name="CR" unicode="&#xd;" horiz-adv-x="500" d="" />
<glyph glyph-name="space" unicode="&#x20;" horiz-adv-x="640" d="" />
<glyph glyph-name="exclam" unicode="&#x21;" horiz-adv-x="640" d="M362 788 L278 237 L351 237 L462 788 L362 788 Z M206 0 L340 0 L364 134 L230 134 L206 0 Z " />
<glyph glyph-name="quotedbl" unicode="&#x22;" horiz-adv-x="640" d="M428 765 L411 494 L483 494 L566 765 L428 765 Z M229 765 L212 494 L284 494 L367 765 L229 765 Z " />
<glyph glyph-name="numbersign" unicode="&#x23;" horiz-adv-x="640" d="M453 519 L405 369 L271 369 L319 519 L453 519 Z M184 99 L248 298 L382 298 L318 99 L391 99 L455 298 L576 298 L589 369 L478 369 L526 519 L645 519 L658 590 L550 590 L605 764 L532 764 L477 590 L343 590 L398 764 L325 764 L270 590 L151 590 L138 519 L246 519 L198 369 L82 369 L69 298 L175 298 L111 99 L184 99 Z " />
<glyph glyph-name="dollar" unicode="&#x24;" horiz-adv-x="640" d="M371 678 L327 437 C258 460 239 491 239 552 C239 628 299 670 371 678 L371 678 Z M328 67 L326 67 L374 334 C451 302 473 270 473 206 C473 122 403 78 328 67 L328 67 Z M227 -116 L293 -116 L313 -7 C453 4 560 83 560 215 C560 314 521 367 404 410 L389 415 L435 675 C507 660 539 605 534 533 L618 533 C626 660 552 731 448 747 L463 828 L398 828 L384 750 C248 742 153 665 153 544 C153 457 193 396 288 365 L313 356 L260 67 C176 76 133 122 136 222 L53 222 C48 76 130 5 247 -6 L227 -116 Z " />
<glyph glyph-name="percent" unicode="&#x25;" horiz-adv-x="640" d="M586 774 L14 0 L95 0 L667 774 L586 774 Z M186 429 C320 429 355 562 355 641 C355 712 317 772 225 772 C97 772 60 640 60 560 C60 490 100 429 186 429 L186 429 Z M190 485 C140 485 127 523 127 561 C127 622 151 716 225 716 C274 716 288 678 288 641 C288 589 270 485 190 485 L190 485 Z M446 -7 C580 -7 615 126 615 205 C615 276 577 336 485 336 C357 336 320 204 320 124 C320 54 360 -7 446 -7 L446 -7 Z M450 49 C400 49 387 87 387 125 C387 186 411 280 485 280 C534 280 548 242 548 205 C548 153 530 49 450 49 L450 49 Z " />
<glyph glyph-name="ampersand" unicode="&#x26;" horiz-adv-x="640" d="M256 599 C256 674 303 718 366 718 C423 718 456 684 456 632 C456 545 382 505 298 459 C274 506 256 548 256 599 L256 599 Z M250 360 L385 117 C348 81 303 59 240 59 C156 59 112 111 112 187 C112 257 138 307 250 360 L250 360 Z M556 0 L568 0 L583 78 C520 78 507 79 483 122 C530 191 564 281 597 384 L510 384 C489 313 468 251 441 196 L330 396 C456 463 540 529 540 632 C540 731 467 787 368 787 C257 787 169 707 169 592 C169 520 190 474 217 425 C93 366 19 297 19 182 C19 55 112 -14 226 -14 C310 -14 371 10 422 53 C449 12 473 0 556 0 L556 0 Z " />
<glyph glyph-name="quotesingle" unicode="&#x27;" horiz-adv-x="640" d="M328 765 L311 494 L383 494 L466 765 L328 765 Z " />
<glyph glyph-name="parenleft" unicode="&#x28;" horiz-adv-x="640" d="M351 -130 L432 -130 C344 1 307 111 307 245 C307 515 445 668 602 788 L509 788 C330 668 218 486 218 246 C218 89 286 -52 351 -130 L351 -130 Z " />
<glyph glyph-name="parenright" unicode="&#x29;" horiz-adv-x="640" d="M300 788 L219 788 C308 656 344 558 344 413 C344 144 206 -10 49 -130 L142 -130 C321 -10 433 172 433 412 C433 569 365 710 300 788 L300 788 Z " />
<glyph glyph-name="asterisk" unicode="&#x2a;" horiz-adv-x="640" d="M351 461 L353 461 L429 266 L519 309 L410 489 L411 492 L617 510 L600 610 L400 553 L397 554 L455 759 L355 776 L339 565 L336 564 L167 686 L118 598 L305 511 L305 508 L141 375 L211 304 L351 461 Z " />
<glyph glyph-name="plus" unicode="&#x2b;" horiz-adv-x="640" d="M348 127 L386 319 L569 319 L583 396 L401 396 L438 587 L352 587 L315 396 L132 396 L118 319 L300 319 L262 127 L348 127 Z " />
<glyph glyph-name="comma" unicode="&#x2c;" horiz-adv-x="640" d="M150 -127 L229 -127 L394 134 L250 134 L150 -127 Z " />
<glyph glyph-name="hyphen" unicode="&#x2d;" horiz-adv-x="640" d="M186 372 L170 283 L468 283 L484 372 L186 372 Z " />
<glyph glyph-name="period" unicode="&#x2e;" horiz-adv-x="640" d="M230 134 L206 0 L340 0 L364 134 L230 134 Z " />
<glyph glyph-name="slash" unicode="&#x2f;" horiz-adv-x="640" d="M582 788 L-31 -130 L56 -130 L669 788 L582 788 Z " />
<glyph glyph-name="zero" unicode="0" horiz-adv-x="640" d="M281 -16 C540 -16 605 328 605 503 C605 668 527 752 399 752 C139 752 74 408 74 233 C74 81 140 -16 281 -16 L281 -16 Z M511 509 C511 370 459 60 291 60 C187 60 168 149 168 227 C168 366 220 676 388 676 C487 676 511 597 511 509 L511 509 Z " />
<glyph glyph-name="one" unicode="1" horiz-adv-x="640" d="M76 0 L533 0 L546 75 L361 75 L479 744 L404 744 C396 697 381 670 353 645 C330 626 297 616 252 616 L185 616 L172 546 L355 546 L272 75 L89 75 L76 0 Z " />
<glyph glyph-name="two" unicode="2" horiz-adv-x="640" d="M132 500 L218 500 C226 637 303 676 378 676 C461 676 505 632 505 556 C505 453 428 389 329 306 L49 69 L36 0 L532 0 L547 79 L176 79 L176 81 C183 86 192 92 201 99 C217 111 241 129 272 156 L420 278 C530 370 596 445 596 565 C596 688 503 752 384 752 C247 752 135 666 132 500 L132 500 Z " />
<glyph glyph-name="three" unicode="3" horiz-adv-x="640" d="M276 337 L335 337 C424 337 459 285 459 214 C459 128 396 62 295 62 C194 62 146 113 145 208 L56 208 C48 73 137 -15 290 -15 C431 -15 548 77 548 213 C548 305 505 353 437 373 L437 377 C522 393 598 464 598 567 C598 681 514 752 387 752 C251 752 146 662 135 529 L223 529 C238 634 303 676 384 676 C456 676 508 637 508 561 C508 469 443 417 347 417 L292 417 L276 337 Z " />
<glyph glyph-name="four" unicode="4" horiz-adv-x="640" d="M407 257 L162 257 L410 554 C429 577 442 597 453 613 C459 622 464 631 469 639 L475 639 L407 257 Z M480 180 L574 180 L587 258 L494 258 L579 741 L472 741 L63 252 L52 180 L394 180 L362 0 L448 0 L480 180 Z " />
<glyph glyph-name="five" unicode="5" horiz-adv-x="640" d="M162 193 L74 193 C66 57 155 -15 296 -15 C470 -15 584 112 584 279 C584 399 509 486 378 486 C313 486 253 460 229 429 L226 429 L267 662 L603 662 L617 741 L197 741 L128 347 L210 347 C241 387 279 413 351 413 C446 413 489 353 489 273 C489 173 431 61 306 61 C213 61 159 102 162 193 L162 193 Z " />
<glyph glyph-name="six" unicode="6" horiz-adv-x="640" d="M523 574 L609 574 C606 675 533 752 415 752 C119 752 71 354 71 234 C71 99 136 -15 300 -15 C463 -15 572 110 572 265 C572 389 491 473 368 473 C285 473 223 439 184 379 L177 379 C209 547 278 678 411 678 C479 678 520 638 523 574 L523 574 Z M165 210 C165 314 232 397 341 397 C425 397 480 350 480 258 C480 162 422 61 305 61 C218 61 165 118 165 210 L165 210 Z " />
<glyph glyph-name="seven" unicode="7" horiz-adv-x="640" d="M529 658 L107 0 L209 0 L639 676 L651 741 L152 741 L137 658 L529 658 Z " />
<glyph glyph-name="eight" unicode="8" horiz-adv-x="640" d="M293 -18 C434 -18 560 67 560 214 C560 298 507 348 454 367 L454 369 C537 390 602 472 602 564 C602 679 508 754 388 754 C259 754 143 663 143 531 C143 459 182 405 229 385 L229 382 C130 358 57 280 57 177 C57 56 152 -18 293 -18 L293 -18 Z M360 409 C288 409 234 450 234 525 C234 613 289 681 385 681 C453 681 511 637 511 564 C511 473 450 409 360 409 L360 409 Z M296 55 C214 55 149 94 149 179 C149 271 212 338 320 338 C396 338 468 299 468 214 C468 120 405 55 296 55 L296 55 Z " />
<glyph glyph-name="nine" unicode="9" horiz-adv-x="640" d="M507 535 C507 435 447 355 330 355 C245 355 201 412 201 493 C201 575 252 678 367 678 C448 678 507 623 507 535 L507 535 Z M256 -15 C533 -15 596 331 596 513 C596 630 535 752 371 752 C213 752 110 629 110 489 C110 363 194 282 314 282 C383 282 450 307 490 367 L496 367 C459 184 396 59 263 59 C183 59 142 103 142 167 L57 167 C52 68 124 -15 256 -15 L256 -15 Z " />
<glyph glyph-name="colon" unicode="&#x3a;" horiz-adv-x="640" d="M275 393 L409 393 L433 527 L299 527 L275 393 Z M206 0 L340 0 L364 134 L230 134 L206 0 Z " />
<glyph glyph-name="semicolon" unicode="&#x3b;" horiz-adv-x="640" d="M285 393 L419 393 L442 527 L308 527 L285 393 Z M130 -127 L209 -127 L374 134 L230 134 L130 -127 Z " />
<glyph glyph-name="less" unicode="&#x3c;" horiz-adv-x="640" d="M94 306 L509 77 L525 157 L207 329 L593 496 L608 586 L106 364 L94 306 Z " />
<glyph glyph-name="equal" unicode="&#x3d;" horiz-adv-x="640" d="M147 486 L132 410 L586 410 L601 486 L147 486 Z M97 229 L551 229 L566 305 L112 305 L97 229 Z " />
<glyph glyph-name="greater" unicode="&#x3e;" horiz-adv-x="640" d="M573 357 L158 586 L142 507 L460 335 L74 168 L59 77 L561 299 L573 357 Z " />
<glyph glyph-name="question" unicode="&#x3f;" horiz-adv-x="640" d="M516 603 C516 532 483 493 432 458 L382 423 C307 372 293 359 279 291 L267 227 L350 227 L360 276 C371 324 376 322 425 357 L469 388 C532 430 606 492 606 611 C606 714 533 797 397 797 C251 797 149 707 141 539 L228 539 C240 660 289 722 393 722 C470 722 516 675 516 603 L516 603 Z M204 0 L338 0 L362 134 L228 134 L204 0 Z " />
<glyph glyph-name="at" unicode="&#x40;" horiz-adv-x="640" d="M314 -122 C357 -122 391 -119 431 -106 L442 -46 C405 -54 374 -60 333 -60 C165 -60 98 43 129 242 L139 306 C163 462 202 620 370 620 C501 620 546 530 527 404 L524 404 C505 443 473 475 405 475 C253 475 223 323 223 216 C223 125 275 76 360 76 C420 76 455 102 482 141 L485 141 L475 87 L542 87 L596 394 C628 569 540 682 372 682 C151 682 96 497 69 325 L57 249 C20 6 124 -122 314 -122 L314 -122 Z M378 136 C329 136 305 166 305 226 C305 265 313 417 418 417 C479 417 518 368 503 292 L497 254 C486 182 441 136 378 136 L378 136 Z " />
<glyph glyph-name="A" unicode="A" horiz-adv-x="640" d="M387 682 L395 682 C396 666 397 650 398 633 C401 605 402 571 405 548 L430 303 L224 303 L334 548 C353 591 385 677 387 682 L387 682 Z M437 228 L461 0 L559 0 L469 765 L348 765 L-8 0 L87 0 L190 228 L437 228 Z " />
<glyph glyph-name="B" unicode="B" horiz-adv-x="640" d="M43 0 L283 0 C461 0 587 77 587 245 C587 328 538 384 458 404 L458 410 C539 429 604 479 604 591 C604 690 541 765 382 765 L178 765 L43 0 Z M343 441 L213 441 L258 691 L387 691 C463 691 511 659 511 584 C511 477 434 441 343 441 L343 441 Z M291 74 L149 74 L201 366 L335 366 C435 366 493 333 493 245 C493 115 400 74 291 74 L291 74 Z " />
<glyph glyph-name="C" unicode="C" horiz-adv-x="640" d="M545 537 L639 537 C647 686 560 776 418 776 C78 776 67 305 67 257 C67 65 164 -16 308 -16 C477 -16 569 110 590 239 L498 239 C475 132 407 61 308 61 C226 61 161 115 161 245 C161 329 184 700 411 700 C519 700 548 617 545 537 L545 537 Z " />
<glyph glyph-name="D" unicode="D" horiz-adv-x="640" d="M163 765 L28 0 L236 0 C514 0 624 225 624 470 C624 674 499 765 334 765 L163 765 Z M250 80 L135 80 L242 685 L328 685 C453 685 529 623 529 475 C529 377 506 80 250 80 L250 80 Z " />
<glyph glyph-name="E" unicode="E" horiz-adv-x="640" d="M193 765 L58 0 L522 0 L536 81 L165 81 L212 347 L526 347 L540 426 L226 426 L272 684 L638 684 L652 765 L193 765 Z " />
<glyph glyph-name="F" unicode="F" horiz-adv-x="640" d="M171 0 L229 326 L548 326 L562 405 L242 405 L292 684 L653 684 L667 765 L213 765 L78 0 L171 0 Z " />
<glyph glyph-name="G" unicode="G" horiz-adv-x="640" d="M409 701 C508 701 543 639 540 562 L629 562 C634 699 548 776 409 776 C133 776 56 436 56 252 C56 56 148 -15 284 -15 C369 -15 425 26 464 87 L468 87 L453 0 L534 0 L602 386 L335 386 L321 310 L503 310 L492 247 C479 172 432 58 292 58 C201 58 150 111 150 240 C150 357 189 701 409 701 L409 701 Z " />
<glyph glyph-name="H" unicode="H" horiz-adv-x="640" d="M120 0 L181 346 L485 346 L424 0 L517 0 L652 765 L559 765 L499 425 L195 425 L255 765 L162 765 L27 0 L120 0 Z " />
<glyph glyph-name="I" unicode="I" horiz-adv-x="640" d="M332 75 L441 690 L615 690 L628 765 L188 765 L175 690 L349 690 L240 75 L66 75 L53 0 L493 0 L506 75 L332 75 Z " />
<glyph glyph-name="J" unicode="J" horiz-adv-x="640" d="M217 -10 C374 -10 471 59 498 212 L596 765 L243 765 L229 686 L489 686 L406 218 C390 126 342 73 231 73 C163 73 113 83 78 92 L63 8 C102 -1 145 -10 217 -10 L217 -10 Z " />
<glyph glyph-name="K" unicode="K" horiz-adv-x="640" d="M140 0 L188 273 L290 377 L470 0 L568 0 L358 441 L677 765 L566 765 L211 404 L275 765 L183 765 L48 0 L140 0 Z " />
<glyph glyph-name="L" unicode="L" horiz-adv-x="640" d="M213 765 L78 0 L551 0 L565 81 L185 81 L306 765 L213 765 Z " />
<glyph glyph-name="M" unicode="M" horiz-adv-x="640" d="M163 765 L28 0 L112 0 L228 661 L238 661 C237 647 236 633 235 618 C234 593 233 560 236 529 L258 183 L345 183 L488 527 C501 559 514 591 523 618 C528 633 533 647 537 661 L547 661 L431 0 L518 0 L653 765 L518 765 L361 390 C346 358 338 328 331 305 C327 292 324 279 321 268 L313 268 C314 279 314 292 315 305 C316 328 318 358 315 390 L291 765 L163 765 Z " />
<glyph glyph-name="N" unicode="N" horiz-adv-x="640" d="M162 765 L27 0 L111 0 L227 662 L233 662 C234 653 236 642 238 631 C241 612 245 588 252 561 L396 0 L519 0 L654 765 L570 765 L454 103 L448 103 C447 113 445 124 443 135 C440 154 435 180 428 207 L285 765 L162 765 Z " />
<glyph glyph-name="O" unicode="O" horiz-adv-x="640" d="M55 252 C55 43 160 -16 288 -16 C566 -16 623 358 623 507 C623 717 517 776 390 776 C113 776 55 404 55 252 L55 252 Z M290 62 C202 62 149 112 149 245 C149 365 191 698 388 698 C476 698 529 648 529 515 C529 395 487 62 290 62 L290 62 Z " />
<glyph glyph-name="P" unicode="P" horiz-adv-x="640" d="M191 292 L359 292 C514 292 635 384 635 559 C635 699 539 765 415 765 L182 765 L47 0 L140 0 L191 292 Z M352 368 L205 368 L262 689 L402 689 C490 689 542 646 542 555 C542 427 469 368 352 368 L352 368 Z " />
<glyph glyph-name="Q" unicode="Q" horiz-adv-x="640" d="M450 48 L450 53 C562 117 623 345 623 507 C623 715 517 776 390 776 C113 776 55 404 55 252 C55 43 160 -16 288 -16 C327 -16 345 -11 376 -11 C448 -11 474 -36 517 -113 L598 -69 C559 3 519 37 450 48 L450 48 Z M290 62 C202 62 149 112 149 245 C149 365 191 698 388 698 C476 698 529 648 529 515 C529 395 487 62 290 62 L290 62 Z " />
<glyph glyph-name="R" unicode="R" horiz-adv-x="640" d="M356 401 L208 401 L258 689 L409 689 C484 689 532 647 532 567 C532 458 464 401 356 401 L356 401 Z M343 324 L454 0 L551 0 L430 338 L430 341 C520 357 628 412 628 568 C628 693 546 765 413 765 L179 765 L44 0 L137 0 L194 324 L343 324 Z " />
<glyph glyph-name="S" unicode="S" horiz-adv-x="640" d="M119 214 L32 215 C24 55 136 -16 287 -16 C451 -16 571 73 571 221 C571 323 526 371 406 414 L315 447 C253 469 211 494 211 569 C211 655 284 701 371 701 C480 701 528 644 527 559 L615 559 C620 703 523 775 374 775 C222 775 120 686 120 558 C120 449 181 403 274 368 L369 333 C446 304 478 275 478 210 C478 106 384 60 295 60 C177 60 118 111 119 214 L119 214 Z " />
<glyph glyph-name="T" unicode="T" horiz-adv-x="640" d="M685 686 L699 765 L116 765 L102 686 L347 686 L226 0 L319 0 L440 686 L685 686 Z " />
<glyph glyph-name="U" unicode="U" horiz-adv-x="640" d="M160 765 L72 274 C32 58 143 -15 292 -15 C453 -15 537 63 566 228 L661 765 L570 765 L474 226 C458 132 411 61 297 61 C184 61 139 122 166 273 L253 765 L160 765 Z " />
<glyph glyph-name="V" unicode="V" horiz-adv-x="640" d="M339 0 L688 765 L593 765 L346 210 C335 187 323 156 312 131 C305 116 299 101 294 86 L285 86 C284 101 283 115 282 130 C279 155 279 186 276 210 L222 765 L127 765 L210 0 L339 0 Z " />
<glyph glyph-name="W" unicode="W" horiz-adv-x="640" d="M45 0 L173 0 L317 374 C328 401 336 427 343 450 C347 463 351 475 355 487 L360 487 C359 475 359 463 358 451 C357 429 357 403 358 374 L374 0 L501 0 L686 765 L600 765 L443 99 L435 99 C435 112 435 126 436 142 C436 169 437 206 436 246 L424 605 L334 605 L184 221 C169 186 160 157 153 134 C149 121 145 110 142 99 L136 99 L215 765 L130 765 L45 0 Z " />
<glyph glyph-name="X" unicode="X" horiz-adv-x="640" d="M87 0 L328 319 L329 319 L458 0 L560 0 L393 397 L677 765 L573 765 L356 476 L355 476 L238 765 L137 765 L292 404 L-17 0 L87 0 Z " />
<glyph glyph-name="Y" unicode="Y" horiz-adv-x="640" d="M286 323 L229 0 L321 0 L378 326 L691 765 L590 765 L347 413 L345 413 L222 765 L125 765 L286 323 Z " />
<glyph glyph-name="Z" unicode="Z" horiz-adv-x="640" d="M166 765 L152 685 L537 685 L29 71 L16 0 L540 0 L554 80 L145 80 L654 694 L667 765 L166 765 Z " />
<glyph glyph-name="bracketleft" unicode="&#x5b;" horiz-adv-x="640" d="M330 788 L168 -130 L446 -130 L458 -60 L265 -60 L403 718 L596 718 L608 788 L330 788 Z " />
<glyph glyph-name="backslash" unicode="&#x5c;" horiz-adv-x="640" d="M167 788 L460 -130 L535 -130 L243 788 L167 788 Z " />
<glyph glyph-name="bracketright" unicode="&#x5d;" horiz-adv-x="640" d="M330 -130 L492 788 L214 788 L202 718 L395 718 L257 -60 L64 -60 L52 -130 L330 -130 Z " />
<glyph glyph-name="asciicircum" unicode="&#x5e;" horiz-adv-x="640" d="M585 427 L400 765 L328 765 L139 426 L225 426 L359 667 L364 667 L491 427 L585 427 Z " />
<glyph glyph-name="underscore" unicode="&#x5f;" horiz-adv-x="640" d="M61 -114 L48 -188 L488 -188 L501 -114 L61 -114 Z " />
<glyph glyph-name="grave" unicode="&#x60;" horiz-adv-x="640" d="M370 609 L447 609 L399 788 L267 788 L370 609 Z " />
<glyph glyph-name="a" unicode="a" horiz-adv-x="640" d="M433 254 L427 222 C409 130 345 63 260 63 C200 63 169 87 169 147 C169 190 192 219 239 234 C284 249 337 254 433 254 L433 254 Z M409 86 L412 86 L412 82 C412 27 442 0 503 0 L536 0 L548 73 L523 73 C500 73 486 83 493 114 L532 332 C553 454 494 540 349 540 C223 540 141 473 136 380 L223 380 C230 443 279 471 342 471 C433 471 462 423 447 339 L443 318 C344 318 298 314 233 303 C140 286 77 231 77 139 C77 42 142 -8 241 -8 C320 -8 376 31 409 86 L409 86 Z " />
<glyph glyph-name="b" unicode="b" horiz-adv-x="640" d="M189 788 L50 0 L135 0 L150 81 L154 81 C182 25 229 -13 318 -13 C493 -13 581 152 581 327 C581 452 517 539 394 539 C305 539 252 493 220 445 L218 445 L279 788 L189 788 Z M309 56 C199 56 163 140 179 237 L192 309 C203 376 260 468 366 468 C453 468 488 408 488 328 C488 214 448 56 309 56 L309 56 Z " />
<glyph glyph-name="c" unicode="c" horiz-adv-x="640" d="M480 368 L567 368 C570 467 502 540 366 540 C166 540 88 368 88 209 C88 79 159 -13 307 -13 C447 -13 531 73 544 172 L452 172 C441 107 391 60 312 60 C219 60 180 120 180 215 C180 312 220 469 364 469 C453 469 480 416 480 368 L480 368 Z " />
<glyph glyph-name="d" unicode="d" horiz-adv-x="640" d="M464 284 L454 228 C438 143 391 59 281 59 C194 59 156 119 156 200 C156 319 207 471 343 471 C450 471 480 377 464 284 L464 284 Z M423 72 L427 72 L415 0 L501 0 L640 788 L549 788 L489 446 L487 446 C465 492 422 540 326 540 C158 540 63 371 63 202 C63 73 130 -12 255 -12 C336 -12 384 21 423 72 L423 72 Z " />
<glyph glyph-name="e" unicode="e" horiz-adv-x="640" d="M472 310 L179 310 C198 395 249 470 357 470 C445 470 489 410 472 310 L472 310 Z M526 138 L433 138 C418 93 374 61 307 61 C215 61 169 110 169 208 C169 219 169 228 170 239 L549 239 L554 261 C589 403 528 540 360 540 C162 540 79 367 79 206 C79 82 144 -13 301 -13 C421 -13 499 46 526 138 L526 138 Z " />
<glyph glyph-name="f" unicode="f" horiz-adv-x="640" d="M303 0 L383 452 L589 452 L602 527 L396 527 L412 617 C424 686 460 715 528 715 C567 715 602 709 633 700 L645 771 C610 784 572 790 529 790 C422 790 346 750 324 632 L305 527 L116 527 L103 452 L292 452 L212 0 L303 0 Z " />
<glyph glyph-name="g" unicode="g" horiz-adv-x="640" d="M475 292 L465 239 C449 149 383 76 288 76 C188 76 163 134 163 213 C163 306 211 470 345 470 C452 470 491 379 475 292 L475 292 Z M246 -199 C381 -199 489 -137 518 33 L605 527 L519 527 L504 444 L501 444 C481 493 429 538 344 538 C156 538 69 370 69 199 C69 64 159 4 259 4 C350 4 401 42 438 101 L441 101 L431 43 C407 -90 347 -129 253 -129 C168 -129 136 -94 133 -50 L48 -50 C45 -151 137 -199 246 -199 L246 -199 Z " />
<glyph glyph-name="h" unicode="h" horiz-adv-x="640" d="M454 325 L397 0 L487 0 L546 335 C569 468 508 540 405 540 C304 540 251 475 232 431 L229 431 L293 788 L202 788 L63 0 L154 0 L204 285 C223 386 284 466 370 466 C453 466 470 417 454 325 L454 325 Z " />
<glyph glyph-name="i" unicode="i" horiz-adv-x="640" d="M337 760 L313 626 L447 626 L471 760 L337 760 Z M45 0 L522 0 L535 75 L338 75 L418 527 L167 527 L154 455 L317 455 L250 75 L58 75 L45 0 Z " />
<glyph glyph-name="j" unicode="j" horiz-adv-x="640" d="M368 626 L502 626 L526 760 L392 760 L368 626 Z M169 -199 C296 -199 355 -138 378 -10 L473 527 L179 527 L166 455 L372 455 L292 4 C276 -90 250 -123 173 -123 C142 -123 110 -118 74 -103 L53 -176 C91 -191 130 -199 169 -199 L169 -199 Z " />
<glyph glyph-name="k" unicode="k" horiz-adv-x="640" d="M165 0 L192 155 L296 252 L449 0 L551 0 L360 306 L601 527 L488 527 L213 270 L304 788 L218 788 L79 0 L165 0 Z " />
<glyph glyph-name="l" unicode="l" horiz-adv-x="640" d="M45 0 L522 0 L535 75 L339 75 L465 788 L203 788 L190 716 L363 716 L250 75 L58 75 L45 0 Z " />
<glyph glyph-name="m" unicode="m" horiz-adv-x="640" d="M105 527 L12 0 L97 0 L147 284 C171 417 213 467 260 467 C304 467 309 429 301 385 L233 0 L318 0 L368 284 C392 417 434 467 481 467 C525 467 530 429 522 385 L454 0 L539 0 L609 399 C626 495 589 540 510 540 C450 540 413 500 393 447 L390 447 C387 497 364 540 295 540 C228 540 191 496 172 445 L168 445 L182 527 L105 527 Z " />
<glyph glyph-name="n" unicode="n" horiz-adv-x="640" d="M454 326 L396 0 L487 0 L545 328 C569 465 516 539 404 539 C303 539 250 475 223 423 L221 423 L240 527 L155 527 L62 0 L153 0 L203 285 C222 386 284 466 370 466 C453 466 470 418 454 326 L454 326 Z " />
<glyph glyph-name="o" unicode="o" horiz-adv-x="640" d="M292 -13 C484 -13 569 156 569 329 C569 454 496 539 347 539 C155 539 71 368 71 197 C71 72 143 -13 292 -13 L292 -13 Z M295 57 C201 57 164 116 164 196 C164 301 205 469 344 469 C437 469 476 410 476 330 C476 225 433 57 295 57 L295 57 Z " />
<glyph glyph-name="p" unicode="p" horiz-adv-x="640" d="M180 238 L191 300 C204 380 256 468 364 468 C449 468 488 410 488 325 C488 216 440 56 308 56 C193 56 164 148 180 238 L180 238 Z M107 -188 L153 75 L155 75 C182 27 224 -13 316 -13 C488 -13 581 154 581 323 C581 456 510 539 393 539 C304 539 253 494 218 443 L216 443 L230 527 L143 527 L17 -188 L107 -188 Z " />
<glyph glyph-name="q" unicode="q" horiz-adv-x="640" d="M468 -188 L594 527 L507 527 L492 444 L490 444 C469 492 422 539 329 539 C155 539 63 372 63 202 C63 73 134 -12 257 -12 C340 -12 385 25 419 69 L421 69 L377 -188 L468 -188 Z M464 284 L454 228 C438 137 386 59 281 59 C197 59 156 119 156 200 C156 319 206 471 341 471 C446 471 480 381 464 284 L464 284 Z " />
<glyph glyph-name="r" unicode="r" horiz-adv-x="640" d="M473 454 C520 454 553 449 592 437 L608 518 C580 529 549 537 502 537 C399 537 325 498 265 389 L263 389 L287 527 L202 527 L109 0 L201 0 L238 217 C257 334 347 454 473 454 L473 454 Z " />
<glyph glyph-name="s" unicode="s" horiz-adv-x="640" d="M456 380 L540 380 C543 492 451 539 346 539 C212 539 147 466 147 385 C147 298 202 262 274 243 L345 224 C401 209 429 187 429 148 C429 84 376 57 296 57 C195 57 164 99 164 152 L81 152 C74 47 156 -13 295 -13 C450 -13 515 65 515 156 C515 239 467 272 368 299 L313 314 C256 330 233 350 233 387 C233 440 271 470 344 470 C413 470 453 440 456 380 L456 380 Z " />
<glyph glyph-name="t" unicode="t" horiz-adv-x="640" d="M271 452 L223 177 C200 42 253 -12 389 -12 C429 -12 462 -4 497 8 L510 82 C475 71 450 65 401 65 C335 65 294 81 310 173 L360 452 L576 452 L589 527 L373 527 L402 689 L319 689 L300 582 C293 541 276 527 235 527 L103 527 L90 452 L271 452 Z " />
<glyph glyph-name="u" unicode="u" horiz-adv-x="640" d="M186 195 L244 527 L154 527 L95 191 C71 50 131 -13 240 -13 C337 -13 386 53 413 98 L417 98 L399 0 L484 0 L577 527 L487 527 L442 269 C419 137 354 61 270 61 C189 61 170 104 186 195 L186 195 Z " />
<glyph glyph-name="v" unicode="v" horiz-adv-x="640" d="M115 527 L225 0 L322 0 L614 527 L523 527 L333 178 C321 155 311 135 304 119 C300 110 296 101 292 93 L286 93 C285 101 284 110 282 119 C279 135 275 155 271 178 L201 527 L115 527 Z " />
<glyph glyph-name="w" unicode="w" horiz-adv-x="640" d="M84 527 L87 0 L189 0 L305 300 C316 327 325 356 332 380 C336 394 340 408 344 421 L350 421 C349 408 349 394 348 380 C347 356 346 327 347 300 L357 0 L460 0 L647 527 L565 527 L447 175 C442 160 436 137 431 118 C428 107 426 95 423 83 L417 83 C418 95 418 107 419 118 C420 137 421 160 421 175 L411 527 L322 527 L186 175 C179 160 173 137 168 118 C165 107 163 95 160 83 L154 83 C155 94 156 106 157 117 C160 136 161 159 161 176 L164 527 L84 527 Z " />
<glyph glyph-name="x" unicode="x" horiz-adv-x="640" d="M270 272 L26 0 L129 0 L308 203 L311 203 L429 0 L524 0 L368 266 L604 527 L502 527 L330 333 L327 333 L215 527 L120 527 L270 272 Z " />
<glyph glyph-name="y" unicode="y" horiz-adv-x="640" d="M106 527 L224 0 L193 -49 C160 -102 128 -123 76 -123 C45 -123 16 -118 -20 -105 L-41 -176 C-5 -191 32 -198 69 -198 C156 -198 216 -167 271 -72 L610 527 L514 527 L330 189 C317 165 306 142 299 126 C294 117 290 108 287 100 L283 100 C282 108 281 117 280 126 C278 142 274 162 269 187 L196 527 L106 527 Z " />
<glyph glyph-name="z" unicode="z" horiz-adv-x="640" d="M146 527 L133 453 L456 453 L57 74 L44 0 L498 0 L511 73 L166 73 L565 450 L579 527 L146 527 Z " />
<glyph glyph-name="braceleft" unicode="&#x7b;" horiz-adv-x="640" d="M136 294 L186 294 C241 294 259 274 248 218 L219 57 C193 -86 250 -137 433 -126 L446 -61 C314 -66 287 -42 300 41 L332 211 C343 268 338 323 269 331 L270 335 C350 346 364 375 377 455 L403 617 C419 716 448 738 587 725 L599 790 C427 809 344 782 317 614 L291 450 C282 395 261 374 200 374 L150 374 L136 294 Z " />
<glyph glyph-name="bar" unicode="&#x7c;" horiz-adv-x="640" d="M387 788 L225 -130 L300 -130 L462 788 L387 788 Z " />
<glyph glyph-name="braceright" unicode="&#x7d;" horiz-adv-x="640" d="M524 369 L474 369 C419 369 401 389 412 445 L441 606 C468 750 410 801 227 790 L214 725 C344 730 373 704 360 622 L328 452 C317 395 322 340 391 332 L390 328 C310 317 296 288 283 208 L257 46 C241 -56 210 -66 73 -61 L61 -126 C233 -137 315 -120 342 44 L369 213 C378 268 397 289 460 289 L510 289 L524 369 Z " />
<glyph glyph-name="asciitilde" unicode="&#x7e;" horiz-adv-x="640" d="M101 292 L174 292 C177 336 200 351 221 351 C261 351 347 294 412 294 C483 294 537 344 537 429 L464 429 C461 385 440 369 417 369 C382 369 292 427 227 427 C158 427 101 377 101 292 L101 292 Z " />
<glyph glyph-name="uni00A0" unicode="&#xa0;" horiz-adv-x="640" d="" />
<glyph glyph-name="exclamdown" unicode="&#xa1;" horiz-adv-x="640" d="M288 -188 L372 363 L299 363 L188 -188 L288 -188 Z M444 600 L310 600 L286 466 L420 466 L444 600 Z " />
<glyph glyph-name="cent" unicode="&#xa2;" horiz-adv-x="640" d="M334 468 L263 65 C203 82 174 133 174 205 C174 297 213 446 334 468 L334 468 Z M539 172 L448 172 C437 111 393 65 324 60 L395 467 C458 455 483 409 482 368 L568 368 C571 456 523 523 408 538 L425 635 L363 635 L346 540 C160 529 83 355 83 199 C83 86 137 10 250 -9 L231 -116 L293 -116 L311 -13 C443 -13 526 73 539 172 L539 172 Z " />
<glyph glyph-name="sterling" unicode="&#xa3;" horiz-adv-x="640" d="M519 0 L534 80 L166 80 L166 82 L187 97 C273 158 299 214 291 316 L484 316 L498 387 L281 387 L267 475 C251 576 291 678 416 678 C512 678 544 621 529 529 L617 529 C644 660 566 752 421 752 C237 752 146 614 178 438 L187 387 L97 387 L83 316 L200 316 C216 216 200 179 90 98 L49 69 L36 0 L519 0 Z " />
<glyph glyph-name="currency" unicode="&#xa4;" horiz-adv-x="640" d="M218 347 C219 416 264 468 331 468 C399 468 442 416 441 347 C440 278 395 227 327 227 C260 227 217 278 218 347 L218 347 Z M398 180 L463 86 L529 132 L463 225 C476 240 487 258 495 278 L601 259 L615 338 L509 356 C508 378 504 398 497 416 L594 483 L549 547 L454 479 C438 494 420 505 400 513 L419 619 L340 633 L322 528 C300 527 279 522 260 515 L197 606 L131 560 L195 468 C183 453 172 436 165 417 L60 435 L46 356 L150 339 C151 315 156 294 163 276 L68 210 L113 147 L207 213 C223 200 240 189 260 181 L241 74 L320 60 L339 168 C360 169 380 173 398 180 L398 180 Z " />
<glyph glyph-name="yen" unicode="&#xa5;" horiz-adv-x="640" d="M259 160 L231 0 L315 0 L343 160 L534 160 L546 229 L356 229 L372 322 L561 322 L573 391 L398 391 L665 741 L571 741 L355 451 L353 451 L234 741 L140 741 L290 391 L106 391 L94 322 L288 322 L272 229 L79 229 L67 160 L259 160 Z " />
<glyph glyph-name="brokenbar" unicode="&#xa6;" horiz-adv-x="640" d="M391 387 L462 788 L387 788 L316 387 L391 387 Z M225 -130 L300 -130 L377 308 L302 308 L225 -130 Z " />
<glyph glyph-name="section" unicode="&#xa7;" horiz-adv-x="640" d="M287 445 C298 438 307 431 316 426 L424 359 C467 332 478 308 478 276 C478 217 435 194 384 189 C376 194 366 201 355 208 L246 276 C203 303 192 322 192 357 C192 416 235 440 287 445 L287 445 Z M106 347 C106 272 143 236 218 191 L325 125 C358 104 372 84 372 45 C372 -15 316 -47 256 -47 C173 -47 143 -2 148 63 L62 63 C54 -62 136 -114 247 -114 C372 -114 459 -44 459 56 C459 87 451 114 434 137 L434 138 C521 158 564 208 564 288 C564 357 528 398 453 443 L346 509 C311 532 296 552 296 589 C296 657 348 685 400 685 C475 685 502 645 498 589 L585 589 C593 697 510 752 410 752 C294 752 210 687 210 584 C210 549 219 520 236 497 L236 496 C149 476 106 426 106 347 L106 347 Z " />
<glyph glyph-name="dieresis" unicode="&#xa8;" horiz-adv-x="640" d="M446 755 L423 626 L552 626 L575 755 L446 755 Z M230 755 L207 626 L337 626 L360 755 L230 755 Z " />
<glyph glyph-name="copyright" unicode="&#xa9;" horiz-adv-x="640" d="M83 468 L68 388 C60 344 55 299 55 262 C58 81 142 -15 301 -15 C470 -15 561 107 596 294 L611 374 C619 414 623 458 623 494 C623 669 542 775 377 775 C209 775 117 654 83 468 L83 468 Z M129 381 L143 454 C170 596 229 720 380 720 C507 720 561 626 561 500 C561 461 556 420 549 381 L536 308 C509 164 448 40 298 40 C171 40 117 134 117 260 C117 297 121 338 129 381 L129 381 Z M413 461 L482 461 C498 561 442 595 378 595 C291 595 242 538 215 379 C186 219 230 165 317 165 C394 165 439 213 452 309 L384 309 C379 273 363 226 322 226 C271 226 266 269 286 382 C305 496 327 535 374 535 C407 535 420 510 413 461 L413 461 Z " />
<glyph glyph-name="ordfeminine" unicode="&#xaa;" horiz-adv-x="640" d="M299 362 C252 362 226 382 226 430 C226 455 237 476 256 488 C284 508 334 513 441 512 L439 501 C423 407 350 362 299 362 L299 362 Z M418 375 L422 375 C419 319 446 309 501 309 L529 309 L542 375 L524 375 C501 375 491 382 498 411 L529 570 C552 685 491 751 371 751 C269 751 198 703 190 620 L268 620 C275 663 305 690 366 690 C427 690 467 658 455 587 L452 570 C324 570 274 566 223 542 C169 519 142 479 142 422 C142 347 190 301 273 301 C346 301 391 339 418 375 L418 375 Z " />
<glyph glyph-name="guillemotleft" unicode="&#xab;" horiz-adv-x="640" d="M351 464 L256 464 L98 267 L183 57 L273 57 L194 259 L351 464 Z M562 464 L466 464 L308 267 L393 57 L484 57 L405 259 L562 464 Z " />
<glyph glyph-name="logicalnot" unicode="&#xac;" horiz-adv-x="640" d="M460 127 L541 127 L589 397 L129 397 L115 318 L494 318 L460 127 Z " />
<glyph glyph-name="registered" unicode="&#xae;" horiz-adv-x="640" d="M124 527 C119 388 220 280 360 280 C504 280 611 388 616 527 C621 666 521 776 378 776 C237 776 129 667 124 527 L124 527 Z M362 324 C251 324 170 411 175 527 C178 645 265 732 376 732 C490 732 570 645 567 527 C562 411 476 324 362 324 L362 324 Z M334 552 L347 625 L395 625 C416 625 427 615 427 594 C427 566 411 552 379 552 L334 552 Z M301 664 L257 409 L309 409 L327 511 L366 511 L404 409 L459 409 L414 522 C445 527 480 549 480 598 C480 642 450 664 403 664 L301 664 Z " />
<glyph glyph-name="macron" unicode="&#xaf;" horiz-adv-x="640" d="M241 719 L226 636 L544 636 L559 719 L241 719 Z " />
<glyph glyph-name="degree" unicode="&#xb0;" horiz-adv-x="640" d="M154 539 C154 422 237 344 352 344 C477 344 567 438 567 561 C567 677 482 758 371 758 C243 758 154 663 154 539 L154 539 Z M352 413 C283 413 232 467 232 539 C232 626 285 690 369 690 C440 690 488 634 488 563 C488 475 436 413 352 413 L352 413 Z " />
<glyph glyph-name="plusminus" unicode="&#xb1;" horiz-adv-x="640" d="M349 157 L386 349 L569 349 L584 426 L401 426 L438 617 L352 617 L315 426 L133 426 L118 349 L300 349 L263 157 L349 157 Z M65 77 L51 0 L502 0 L516 77 L65 77 Z " />
<glyph glyph-name="twosuperior" unicode="&#xb2;" horiz-adv-x="640" d="M223 696 L298 696 C303 787 356 820 412 820 C468 820 503 787 503 735 C503 674 468 637 404 588 L163 406 L152 344 L533 344 L545 412 L278 412 L278 415 C287 420 296 425 305 431 C321 442 343 455 366 472 L457 541 C542 604 583 656 583 739 C583 824 521 884 417 884 C306 884 223 812 223 696 L223 696 Z " />
<glyph glyph-name="threesuperior" unicode="&#xb3;" horiz-adv-x="640" d="M336 582 L389 582 C450 582 477 551 477 500 C477 441 431 397 358 397 C287 397 254 432 254 495 L177 495 C172 396 240 333 354 333 C466 333 555 398 555 499 C555 563 524 596 472 611 L472 616 C536 629 588 672 588 748 C588 836 521 884 424 884 C313 884 239 816 231 723 L308 723 C317 794 362 821 422 821 C473 821 510 794 510 741 C510 684 467 648 398 648 L349 648 L336 582 Z " />
<glyph glyph-name="acute" unicode="&#xb4;" horiz-adv-x="640" d="M378 788 L286 609 L363 609 L513 788 L378 788 Z " />
<glyph glyph-name="paragraph" unicode="&#xb6;" horiz-adv-x="640" d="M606 765 L528 765 L393 0 L471 0 L606 765 Z M307 401 L236 0 L314 0 L449 765 L370 765 C244 765 147 686 147 564 C147 467 214 404 307 401 L307 401 Z " />
<glyph glyph-name="periodcentered" unicode="&#xb7;" horiz-adv-x="640" d="M265 381 L241 247 L375 247 L399 381 L265 381 Z " />
<glyph glyph-name="cedilla" unicode="&#xb8;" horiz-adv-x="640" d="M290 -213 C363 -213 407 -173 407 -117 C407 -70 377 -41 316 -41 L294 -41 L350 46 L298 46 L203 -104 L272 -104 C281 -95 292 -91 305 -91 C326 -91 337 -101 337 -122 C337 -149 320 -159 297 -159 C278 -159 262 -150 261 -135 L188 -135 C181 -183 223 -213 290 -213 L290 -213 Z " />
<glyph glyph-name="onesuperior" unicode="&#xb9;" horiz-adv-x="640" d="M180 344 L519 344 L532 410 L403 410 L493 878 L427 878 C420 843 408 822 388 805 C369 790 342 782 307 782 L262 782 L251 725 L385 725 L324 410 L193 410 L180 344 Z " />
<glyph glyph-name="ordmasculine" unicode="&#xba;" horiz-adv-x="640" d="M325 301 C485 301 554 440 554 580 C554 681 497 751 373 751 C213 751 144 612 144 472 C144 369 201 301 325 301 L325 301 Z M472 578 C472 495 438 363 328 363 C253 363 226 409 226 473 C226 556 261 689 370 689 C445 689 472 643 472 578 L472 578 Z " />
<glyph glyph-name="guillemotright" unicode="&#xbb;" horiz-adv-x="640" d="M78 57 L174 57 L322 254 L227 464 L136 464 L225 262 L78 57 Z M289 57 L384 57 L532 254 L437 464 L347 464 L436 262 L289 57 Z " />
<glyph glyph-name="onequarter" unicode="&#xbc;" horiz-adv-x="1920" d="M1299 780 L608 -40 L692 -40 L1383 780 L1299 780 Z M1491 151 L1313 151 L1466 326 C1487 350 1504 372 1515 388 C1522 397 1527 406 1532 413 L1538 413 L1491 151 Z M1555 86 L1638 86 L1649 151 L1567 151 L1627 493 L1533 493 L1228 146 L1218 86 L1479 86 L1456 -40 L1533 -40 L1555 86 Z M161 257 L500 257 L513 323 L384 323 L474 791 L408 791 C401 756 389 735 369 718 C350 703 323 695 288 695 L243 695 L232 638 L366 638 L305 323 L174 323 L161 257 Z " />
<glyph glyph-name="onehalf" unicode="&#xbd;" horiz-adv-x="1920" d="M1280 780 L589 -40 L673 -40 L1364 780 L1280 780 Z M1334 312 L1409 312 C1414 403 1467 436 1523 436 C1579 436 1614 403 1614 351 C1614 290 1579 253 1515 204 L1274 22 L1263 -40 L1644 -40 L1656 28 L1389 28 L1389 31 C1398 36 1407 41 1416 47 C1432 58 1454 71 1477 88 L1568 157 C1653 220 1694 272 1694 355 C1694 440 1632 500 1528 500 C1417 500 1334 428 1334 312 L1334 312 Z M161 257 L500 257 L513 323 L384 323 L474 791 L408 791 C401 756 389 735 369 718 C350 703 323 695 288 695 L243 695 L232 638 L366 638 L305 323 L174 323 L161 257 Z " />
<glyph glyph-name="threequarters" unicode="&#xbe;" horiz-adv-x="1920" d="M1300 780 L609 -40 L693 -40 L1384 780 L1300 780 Z M1501 151 L1323 151 L1476 326 C1497 350 1514 372 1525 388 C1532 397 1537 406 1542 413 L1548 413 L1501 151 Z M1565 86 L1648 86 L1659 151 L1577 151 L1637 493 L1543 493 L1238 146 L1228 86 L1489 86 L1466 -40 L1543 -40 L1565 86 Z M311 495 L364 495 C425 495 452 464 452 413 C452 354 406 310 333 310 C262 310 229 345 229 408 L152 408 C147 309 215 246 329 246 C441 246 530 311 530 412 C530 476 499 509 447 524 L447 529 C511 542 563 585 563 661 C563 749 496 797 399 797 C288 797 214 729 206 636 L283 636 C292 707 337 734 397 734 C448 734 485 707 485 654 C485 597 442 561 373 561 L324 561 L311 495 Z " />
<glyph glyph-name="questiondown" unicode="&#xbf;" horiz-adv-x="640" d="M156 -3 C156 68 189 107 240 142 L290 177 C365 228 379 241 393 309 L405 373 L322 373 L312 324 C301 276 296 278 247 243 L203 212 C140 170 66 108 66 -11 C66 -114 139 -197 275 -197 C421 -197 523 -107 531 61 L444 61 C432 -60 383 -122 279 -122 C202 -122 156 -75 156 -3 L156 -3 Z M468 600 L334 600 L310 466 L444 466 L468 600 Z " />
<glyph glyph-name="Agrave" unicode="&#xc0;" horiz-adv-x="640" d="M387 682 L395 682 C396 666 397 650 398 633 C401 605 402 571 405 548 L430 303 L224 303 L334 548 C353 591 385 677 387 682 L387 682 Z M437 228 L461 0 L559 0 L469 765 L348 765 L-8 0 L87 0 L190 228 L437 228 Z M453 827 L406 960 L271 960 L372 827 L453 827 Z " />
<glyph glyph-name="Aacute" unicode="&#xc1;" horiz-adv-x="640" d="M387 682 L395 682 C396 666 397 650 398 633 C401 605 402 571 405 548 L430 303 L224 303 L334 548 C353 591 385 677 387 682 L387 682 Z M437 228 L461 0 L559 0 L469 765 L348 765 L-8 0 L87 0 L190 228 L437 228 Z M441 960 L372 827 L456 827 L576 960 L441 960 Z " />
<glyph glyph-name="Acircumflex" unicode="&#xc2;" horiz-adv-x="640" d="M387 682 L395 682 C396 666 397 650 398 633 C401 605 402 571 405 548 L430 303 L224 303 L334 548 C353 591 385 677 387 682 L387 682 Z M437 228 L461 0 L559 0 L469 765 L348 765 L-8 0 L87 0 L190 228 L437 228 Z M566 827 L492 960 L378 960 L258 827 L346 827 L424 893 L427 893 L483 827 L566 827 Z " />
<glyph glyph-name="Atilde" unicode="&#xc3;" horiz-adv-x="640" d="M387 682 L395 682 C396 666 397 650 398 633 C401 605 402 571 405 548 L430 303 L224 303 L334 548 C353 591 385 677 387 682 L387 682 Z M437 228 L461 0 L559 0 L469 765 L348 765 L-8 0 L87 0 L190 228 L437 228 Z M238 827 L309 827 C314 870 332 884 356 884 C393 884 428 830 487 830 C563 830 599 889 606 966 L535 966 C530 923 513 907 490 907 C453 907 418 962 358 962 C282 962 243 904 238 827 L238 827 Z " />
<glyph glyph-name="Adieresis" unicode="&#xc4;" horiz-adv-x="640" d="M387 682 L395 682 C396 666 397 650 398 633 C401 605 402 571 405 548 L430 303 L224 303 L334 548 C353 591 385 677 387 682 L387 682 Z M437 228 L461 0 L559 0 L469 765 L348 765 L-8 0 L87 0 L190 228 L437 228 Z M477 956 L454 827 L583 827 L606 956 L477 956 Z M261 956 L238 827 L368 827 L391 956 L261 956 Z " />
<glyph glyph-name="Aring" unicode="&#xc5;" horiz-adv-x="640" d="M387 682 L395 682 C396 666 397 650 398 633 C401 605 402 571 405 548 L430 303 L224 303 L334 548 C353 591 385 677 387 682 L387 682 Z M437 228 L461 0 L559 0 L469 765 L348 765 L-8 0 L87 0 L190 228 L437 228 Z M297 913 C297 845 344 798 417 797 C497 797 556 857 556 933 C556 1001 510 1052 435 1052 C354 1052 297 989 297 913 L297 913 Z M359 920 C359 963 388 998 431 998 C470 998 494 967 494 928 C494 885 464 851 421 851 C382 851 359 880 359 920 L359 920 Z " />
<glyph glyph-name="AE" unicode="&#xc6;" horiz-adv-x="640" d="M393 684 L325 303 L187 303 L376 684 L393 684 Z M37 0 L150 228 L312 228 L272 0 L586 0 L600 81 L373 81 L420 347 L610 347 L624 426 L434 426 L480 684 L702 684 L716 765 L329 765 L-54 0 L37 0 Z " />
<glyph glyph-name="Ccedilla" unicode="&#xc7;" horiz-adv-x="640" d="M272 -213 C345 -213 389 -173 389 -117 C389 -70 359 -41 298 -41 L276 -41 L292 -16 L308 -16 C477 -16 569 110 590 239 L498 239 C475 132 407 61 308 61 C226 61 161 115 161 245 C161 329 184 700 411 700 C519 700 548 617 545 537 L639 537 C647 686 560 776 418 776 C78 776 67 305 67 257 C67 94 136 13 245 -10 L185 -104 L254 -104 C263 -95 274 -91 287 -91 C308 -91 319 -101 319 -122 C319 -149 302 -159 279 -159 C260 -159 244 -150 243 -135 L170 -135 C163 -183 205 -213 272 -213 L272 -213 Z " />
<glyph glyph-name="Egrave" unicode="&#xc8;" horiz-adv-x="640" d="M193 765 L58 0 L522 0 L536 81 L165 81 L212 347 L526 347 L540 426 L226 426 L272 684 L638 684 L652 765 L193 765 Z M486 827 L439 960 L304 960 L405 827 L486 827 Z " />
<glyph glyph-name="Eacute" unicode="&#xc9;" horiz-adv-x="640" d="M193 765 L58 0 L522 0 L536 81 L165 81 L212 347 L526 347 L540 426 L226 426 L272 684 L638 684 L652 765 L193 765 Z M453 960 L384 827 L468 827 L588 960 L453 960 Z " />
<glyph glyph-name="Ecircumflex" unicode="&#xca;" horiz-adv-x="640" d="M193 765 L58 0 L522 0 L536 81 L165 81 L212 347 L526 347 L540 426 L226 426 L272 684 L638 684 L652 765 L193 765 Z M586 827 L512 960 L398 960 L278 827 L366 827 L444 893 L447 893 L503 827 L586 827 Z " />
<glyph glyph-name="Edieresis" unicode="&#xcb;" horiz-adv-x="640" d="M193 765 L58 0 L522 0 L536 81 L165 81 L212 347 L526 347 L540 426 L226 426 L272 684 L638 684 L652 765 L193 765 Z M500 956 L477 827 L606 827 L629 956 L500 956 Z M284 956 L261 827 L391 827 L414 956 L284 956 Z " />
<glyph glyph-name="Igrave" unicode="&#xcc;" horiz-adv-x="640" d="M332 75 L441 690 L615 690 L628 765 L188 765 L175 690 L349 690 L240 75 L66 75 L53 0 L493 0 L506 75 L332 75 Z M458 827 L411 960 L276 960 L377 827 L458 827 Z " />
<glyph glyph-name="Iacute" unicode="&#xcd;" horiz-adv-x="640" d="M332 75 L441 690 L615 690 L628 765 L188 765 L175 690 L349 690 L240 75 L66 75 L53 0 L493 0 L506 75 L332 75 Z M444 960 L375 827 L459 827 L579 960 L444 960 Z " />
<glyph glyph-name="Icircumflex" unicode="&#xce;" horiz-adv-x="640" d="M332 75 L441 690 L615 690 L628 765 L188 765 L175 690 L349 690 L240 75 L66 75 L53 0 L493 0 L506 75 L332 75 Z M569 827 L495 960 L381 960 L261 827 L349 827 L427 893 L430 893 L486 827 L569 827 Z " />
<glyph glyph-name="Idieresis" unicode="&#xcf;" horiz-adv-x="640" d="M332 75 L441 690 L615 690 L628 765 L188 765 L175 690 L349 690 L240 75 L66 75 L53 0 L493 0 L506 75 L332 75 Z M485 956 L462 827 L591 827 L614 956 L485 956 Z M269 956 L246 827 L376 827 L399 956 L269 956 Z " />
<glyph glyph-name="Eth" unicode="&#xd0;" horiz-adv-x="640" d="M40 0 L236 0 C514 0 624 225 624 470 C624 674 499 765 334 765 L175 765 L115 425 L27 425 L13 348 L101 348 L40 0 Z M250 80 L147 80 L194 348 L368 348 L382 425 L208 425 L254 685 L328 685 C453 685 529 623 529 475 C529 377 506 80 250 80 L250 80 Z " />
<glyph glyph-name="Ntilde" unicode="&#xd1;" horiz-adv-x="640" d="M162 765 L27 0 L111 0 L227 662 L233 662 C234 653 236 642 238 631 C241 612 245 588 252 561 L396 0 L519 0 L654 765 L570 765 L454 103 L448 103 C447 113 445 124 443 135 C440 154 435 180 428 207 L285 765 L162 765 Z M256 827 L327 827 C332 870 350 884 374 884 C411 884 446 830 505 830 C581 830 617 889 624 966 L553 966 C548 923 531 907 508 907 C471 907 436 962 376 962 C300 962 261 904 256 827 L256 827 Z " />
<glyph glyph-name="Ograve" unicode="&#xd2;" horiz-adv-x="640" d="M55 252 C55 43 160 -16 288 -16 C566 -16 623 358 623 507 C623 717 517 776 390 776 C113 776 55 404 55 252 L55 252 Z M290 62 C202 62 149 112 149 245 C149 365 191 698 388 698 C476 698 529 648 529 515 C529 395 487 62 290 62 L290 62 Z M459 827 L412 960 L277 960 L378 827 L459 827 Z " />
<glyph glyph-name="Oacute" unicode="&#xd3;" horiz-adv-x="640" d="M55 252 C55 43 160 -16 288 -16 C566 -16 623 358 623 507 C623 717 517 776 390 776 C113 776 55 404 55 252 L55 252 Z M290 62 C202 62 149 112 149 245 C149 365 191 698 388 698 C476 698 529 648 529 515 C529 395 487 62 290 62 L290 62 Z M433 960 L364 827 L448 827 L568 960 L433 960 Z " />
<glyph glyph-name="Ocircumflex" unicode="&#xd4;" horiz-adv-x="640" d="M55 252 C55 43 160 -16 288 -16 C566 -16 623 358 623 507 C623 717 517 776 390 776 C113 776 55 404 55 252 L55 252 Z M290 62 C202 62 149 112 149 245 C149 365 191 698 388 698 C476 698 529 648 529 515 C529 395 487 62 290 62 L290 62 Z M564 827 L490 960 L376 960 L256 827 L344 827 L422 893 L425 893 L481 827 L564 827 Z " />
<glyph glyph-name="Otilde" unicode="&#xd5;" horiz-adv-x="640" d="M55 252 C55 43 160 -16 288 -16 C566 -16 623 358 623 507 C623 717 517 776 390 776 C113 776 55 404 55 252 L55 252 Z M290 62 C202 62 149 112 149 245 C149 365 191 698 388 698 C476 698 529 648 529 515 C529 395 487 62 290 62 L290 62 Z M244 827 L315 827 C320 870 338 884 362 884 C399 884 434 830 493 830 C569 830 605 889 612 966 L541 966 C536 923 519 907 496 907 C459 907 424 962 364 962 C288 962 249 904 244 827 L244 827 Z " />
<glyph glyph-name="Odieresis" unicode="&#xd6;" horiz-adv-x="640" d="M55 252 C55 43 160 -16 288 -16 C566 -16 623 358 623 507 C623 717 517 776 390 776 C113 776 55 404 55 252 L55 252 Z M290 62 C202 62 149 112 149 245 C149 365 191 698 388 698 C476 698 529 648 529 515 C529 395 487 62 290 62 L290 62 Z M478 956 L455 827 L584 827 L607 956 L478 956 Z M262 956 L239 827 L369 827 L392 956 L262 956 Z " />
<glyph glyph-name="multiply" unicode="&#xd7;" horiz-adv-x="640" d="M96 185 L142 124 L338 293 L467 122 L529 175 L395 345 L594 513 L544 573 L349 401 L221 567 L159 514 L290 350 L96 185 Z " />
<glyph glyph-name="Oslash" unicode="&#xd8;" horiz-adv-x="640" d="M389 700 C440 700 480 683 504 643 L150 192 C148 207 147 223 147 242 C147 362 192 700 389 700 L389 700 Z M289 60 C236 60 195 78 171 122 L527 575 C530 559 531 541 531 521 C531 397 486 60 289 60 L289 60 Z M623 510 C623 573 613 622 594 661 L698 793 L622 793 L559 712 C516 757 458 776 390 776 C113 776 55 404 55 252 C55 192 65 144 82 105 L-20 -25 L56 -25 L116 51 C159 4 220 -16 288 -16 C566 -16 623 354 623 510 L623 510 Z " />
<glyph glyph-name="Ugrave" unicode="&#xd9;" horiz-adv-x="640" d="M160 765 L72 274 C32 58 143 -15 292 -15 C453 -15 537 63 566 228 L661 765 L570 765 L474 226 C458 132 411 61 297 61 C184 61 139 122 166 273 L253 765 L160 765 Z M465 827 L418 960 L283 960 L384 827 L465 827 Z " />
<glyph glyph-name="Uacute" unicode="&#xda;" horiz-adv-x="640" d="M160 765 L72 274 C32 58 143 -15 292 -15 C453 -15 537 63 566 228 L661 765 L570 765 L474 226 C458 132 411 61 297 61 C184 61 139 122 166 273 L253 765 L160 765 Z M432 960 L363 827 L447 827 L567 960 L432 960 Z " />
<glyph glyph-name="Ucircumflex" unicode="&#xdb;" horiz-adv-x="640" d="M160 765 L72 274 C32 58 143 -15 292 -15 C453 -15 537 63 566 228 L661 765 L570 765 L474 226 C458 132 411 61 297 61 C184 61 139 122 166 273 L253 765 L160 765 Z M574 827 L500 960 L386 960 L266 827 L354 827 L432 893 L435 893 L491 827 L574 827 Z " />
<glyph glyph-name="Udieresis" unicode="&#xdc;" horiz-adv-x="640" d="M160 765 L72 274 C32 58 143 -15 292 -15 C453 -15 537 63 566 228 L661 765 L570 765 L474 226 C458 132 411 61 297 61 C184 61 139 122 166 273 L253 765 L160 765 Z M486 956 L463 827 L592 827 L615 956 L486 956 Z M270 956 L247 827 L377 827 L400 956 L270 956 Z " />
<glyph glyph-name="Yacute" unicode="&#xdd;" horiz-adv-x="640" d="M286 323 L229 0 L321 0 L378 326 L691 765 L590 765 L347 413 L345 413 L222 765 L125 765 L286 323 Z M431 960 L362 827 L446 827 L566 960 L431 960 Z " />
<glyph glyph-name="Thorn" unicode="&#xde;" horiz-adv-x="640" d="M333 249 L194 249 L243 528 L372 528 C448 528 498 495 498 411 C498 315 445 249 333 249 L333 249 Z M180 172 L343 172 C484 172 594 255 594 415 C594 543 509 605 393 605 L257 605 L285 765 L192 765 L57 0 L150 0 L180 172 Z " />
<glyph glyph-name="germandbls" unicode="&#xdf;" horiz-adv-x="640" d="M169 584 L65 0 L153 0 L253 567 C272 670 320 712 396 712 C456 712 505 676 505 600 C505 515 457 454 362 454 L338 454 L324 378 L346 378 C434 378 484 319 484 235 C484 136 409 76 297 76 L254 76 L240 0 L291 0 C482 0 571 112 571 240 C571 336 514 394 441 411 L441 416 C526 435 594 495 594 602 C594 715 521 785 400 785 C288 785 193 722 169 584 L169 584 Z " />
<glyph glyph-name="agrave" unicode="&#xe0;" horiz-adv-x="640" d="M433 254 L427 222 C409 130 345 63 260 63 C200 63 169 87 169 147 C169 190 192 219 239 234 C284 249 337 254 433 254 L433 254 Z M409 86 L412 86 L412 82 C412 27 442 0 503 0 L536 0 L548 73 L523 73 C500 73 486 83 493 114 L532 332 C553 454 494 540 349 540 C223 540 141 473 136 380 L223 380 C230 443 279 471 342 471 C433 471 462 423 447 339 L443 318 C344 318 298 314 233 303 C140 286 77 231 77 139 C77 42 142 -8 241 -8 C320 -8 376 31 409 86 L409 86 Z M324 609 L401 609 L353 788 L221 788 L324 609 Z " />
<glyph glyph-name="aacute" unicode="&#xe1;" horiz-adv-x="640" d="M433 254 L427 222 C409 130 345 63 260 63 C200 63 169 87 169 147 C169 190 192 219 239 234 C284 249 337 254 433 254 L433 254 Z M409 86 L412 86 L412 82 C412 27 442 0 503 0 L536 0 L548 73 L523 73 C500 73 486 83 493 114 L532 332 C553 454 494 540 349 540 C223 540 141 473 136 380 L223 380 C230 443 279 471 342 471 C433 471 462 423 447 339 L443 318 C344 318 298 314 233 303 C140 286 77 231 77 139 C77 42 142 -8 241 -8 C320 -8 376 31 409 86 L409 86 Z M408 788 L316 609 L393 609 L543 788 L408 788 Z " />
<glyph glyph-name="acircumflex" unicode="&#xe2;" horiz-adv-x="640" d="M433 254 L427 222 C409 130 345 63 260 63 C200 63 169 87 169 147 C169 190 192 219 239 234 C284 249 337 254 433 254 L433 254 Z M409 86 L412 86 L412 82 C412 27 442 0 503 0 L536 0 L548 73 L523 73 C500 73 486 83 493 114 L532 332 C553 454 494 540 349 540 C223 540 141 473 136 380 L223 380 C230 443 279 471 342 471 C433 471 462 423 447 339 L443 318 C344 318 298 314 233 303 C140 286 77 231 77 139 C77 42 142 -8 241 -8 C320 -8 376 31 409 86 L409 86 Z M520 609 L444 788 L345 788 L214 609 L295 609 L383 707 L384 707 L444 609 L520 609 Z " />
<glyph glyph-name="atilde" unicode="&#xe3;" horiz-adv-x="640" d="M433 254 L427 222 C409 130 345 63 260 63 C200 63 169 87 169 147 C169 190 192 219 239 234 C284 249 337 254 433 254 L433 254 Z M409 86 L412 86 L412 82 C412 27 442 0 503 0 L536 0 L548 73 L523 73 C500 73 486 83 493 114 L532 332 C553 454 494 540 349 540 C223 540 141 473 136 380 L223 380 C230 443 279 471 342 471 C433 471 462 423 447 339 L443 318 C344 318 298 314 233 303 C140 286 77 231 77 139 C77 42 142 -8 241 -8 C320 -8 376 31 409 86 L409 86 Z M199 627 L271 627 C276 668 290 689 315 689 C353 689 387 631 450 631 C527 631 557 695 565 772 L493 772 C488 731 474 710 450 710 C413 710 371 769 314 769 C238 769 204 703 199 627 L199 627 Z " />
<glyph glyph-name="adieresis" unicode="&#xe4;" horiz-adv-x="640" d="M433 254 L427 222 C409 130 345 63 260 63 C200 63 169 87 169 147 C169 190 192 219 239 234 C284 249 337 254 433 254 L433 254 Z M409 86 L412 86 L412 82 C412 27 442 0 503 0 L536 0 L548 73 L523 73 C500 73 486 83 493 114 L532 332 C553 454 494 540 349 540 C223 540 141 473 136 380 L223 380 C230 443 279 471 342 471 C433 471 462 423 447 339 L443 318 C344 318 298 314 233 303 C140 286 77 231 77 139 C77 42 142 -8 241 -8 C320 -8 376 31 409 86 L409 86 Z M437 755 L414 626 L543 626 L566 755 L437 755 Z M221 755 L198 626 L328 626 L351 755 L221 755 Z " />
<glyph glyph-name="aring" unicode="&#xe5;" horiz-adv-x="640" d="M433 254 L427 222 C409 130 345 63 260 63 C200 63 169 87 169 147 C169 190 192 219 239 234 C284 249 337 254 433 254 L433 254 Z M409 86 L412 86 L412 82 C412 27 442 0 503 0 L536 0 L548 73 L523 73 C500 73 486 83 493 114 L532 332 C553 454 494 540 349 540 C223 540 141 473 136 380 L223 380 C230 443 279 471 342 471 C433 471 462 423 447 339 L443 318 C344 318 298 314 233 303 C140 286 77 231 77 139 C77 42 142 -8 241 -8 C320 -8 376 31 409 86 L409 86 Z M249 698 C249 630 296 583 369 582 C449 582 508 642 508 718 C508 786 462 837 387 837 C306 837 249 774 249 698 L249 698 Z M373 636 C334 636 311 665 311 705 C311 748 340 783 383 783 C422 783 446 752 446 713 C446 670 416 636 373 636 L373 636 Z " />
<glyph glyph-name="ae" unicode="&#xe6;" horiz-adv-x="640" d="M540 312 L364 312 C384 420 415 468 478 468 C547 468 560 413 540 312 L540 312 Z M148 60 C105 60 78 88 78 143 C78 172 90 201 117 222 C143 243 176 246 268 246 L262 211 C249 128 216 60 148 60 L148 60 Z M587 138 L503 138 C495 100 477 61 418 61 C342 61 333 120 353 245 L612 245 L625 319 C647 440 608 540 492 540 C424 540 380 507 357 460 L353 460 C338 505 301 540 225 540 C127 540 55 475 52 381 L133 381 C137 428 162 470 222 470 C282 470 305 427 292 367 L280 312 C169 312 124 308 76 281 C21 250 -8 206 -8 134 C-8 49 45 -10 130 -10 C213 -10 255 36 278 89 L281 89 C294 34 329 -11 418 -11 C500 -11 571 38 587 138 L587 138 Z " />
<glyph glyph-name="ccedilla" unicode="&#xe7;" horiz-adv-x="640" d="M269 -213 C342 -213 386 -173 386 -117 C386 -70 356 -41 295 -41 L273 -41 L291 -13 L307 -13 C447 -13 531 73 544 172 L452 172 C441 107 391 60 312 60 C219 60 180 120 180 215 C180 312 220 469 364 469 C453 469 480 416 480 368 L567 368 C570 467 502 540 366 540 C166 540 88 368 88 209 C88 98 138 17 244 -7 L182 -104 L251 -104 C260 -95 271 -91 284 -91 C305 -91 316 -101 316 -122 C316 -149 299 -159 276 -159 C257 -159 241 -150 240 -135 L167 -135 C160 -183 202 -213 269 -213 L269 -213 Z " />
<glyph glyph-name="egrave" unicode="&#xe8;" horiz-adv-x="640" d="M472 310 L179 310 C198 395 249 470 357 470 C445 470 489 410 472 310 L472 310 Z M526 138 L433 138 C418 93 374 61 307 61 C215 61 169 110 169 208 C169 219 169 228 170 239 L549 239 L554 261 C589 403 528 540 360 540 C162 540 79 367 79 206 C79 82 144 -13 301 -13 C421 -13 499 46 526 138 L526 138 Z M337 609 L414 609 L366 788 L234 788 L337 609 Z " />
<glyph glyph-name="eacute" unicode="&#xe9;" horiz-adv-x="640" d="M472 310 L179 310 C198 395 249 470 357 470 C445 470 489 410 472 310 L472 310 Z M526 138 L433 138 C418 93 374 61 307 61 C215 61 169 110 169 208 C169 219 169 228 170 239 L549 239 L554 261 C589 403 528 540 360 540 C162 540 79 367 79 206 C79 82 144 -13 301 -13 C421 -13 499 46 526 138 L526 138 Z M411 788 L319 609 L396 609 L546 788 L411 788 Z " />
<glyph glyph-name="ecircumflex" unicode="&#xea;" horiz-adv-x="640" d="M472 310 L179 310 C198 395 249 470 357 470 C445 470 489 410 472 310 L472 310 Z M526 138 L433 138 C418 93 374 61 307 61 C215 61 169 110 169 208 C169 219 169 228 170 239 L549 239 L554 261 C589 403 528 540 360 540 C162 540 79 367 79 206 C79 82 144 -13 301 -13 C421 -13 499 46 526 138 L526 138 Z M525 609 L449 788 L350 788 L219 609 L300 609 L388 707 L389 707 L449 609 L525 609 Z " />
<glyph glyph-name="edieresis" unicode="&#xeb;" horiz-adv-x="640" d="M472 310 L179 310 C198 395 249 470 357 470 C445 470 489 410 472 310 L472 310 Z M526 138 L433 138 C418 93 374 61 307 61 C215 61 169 110 169 208 C169 219 169 228 170 239 L549 239 L554 261 C589 403 528 540 360 540 C162 540 79 367 79 206 C79 82 144 -13 301 -13 C421 -13 499 46 526 138 L526 138 Z M439 755 L416 626 L545 626 L568 755 L439 755 Z M223 755 L200 626 L330 626 L353 755 L223 755 Z " />
<glyph glyph-name="igrave" unicode="&#xec;" horiz-adv-x="640" d="M45 0 L522 0 L535 75 L338 75 L418 527 L167 527 L154 455 L317 455 L250 75 L58 75 L45 0 Z M340 609 L417 609 L369 788 L237 788 L340 609 Z " />
<glyph glyph-name="iacute" unicode="&#xed;" horiz-adv-x="640" d="M45 0 L522 0 L535 75 L338 75 L418 527 L167 527 L154 455 L317 455 L250 75 L58 75 L45 0 Z M437 788 L345 609 L422 609 L572 788 L437 788 Z " />
<glyph glyph-name="icircumflex" unicode="&#xee;" horiz-adv-x="640" d="M45 0 L522 0 L535 75 L338 75 L418 527 L167 527 L154 455 L317 455 L250 75 L58 75 L45 0 Z M508 609 L432 788 L333 788 L202 609 L283 609 L371 707 L372 707 L432 609 L508 609 Z " />
<glyph glyph-name="idieresis" unicode="&#xef;" horiz-adv-x="640" d="M45 0 L522 0 L535 75 L338 75 L418 527 L167 527 L154 455 L317 455 L250 75 L58 75 L45 0 Z M432 755 L409 626 L538 626 L561 755 L432 755 Z M216 755 L193 626 L323 626 L346 755 L216 755 Z " />
<glyph glyph-name="eth" unicode="&#xf0;" horiz-adv-x="640" d="M290 -13 C485 -13 571 162 571 359 C571 499 534 596 477 669 L573 702 L555 752 L438 712 C405 744 368 771 329 794 L254 764 C294 737 329 711 358 684 L230 640 L246 589 L400 642 C435 602 459 555 475 494 L471 494 C443 519 420 539 350 539 C154 539 71 364 71 196 C71 78 132 -13 290 -13 L290 -13 Z M477 337 C477 236 441 56 294 56 C207 56 164 103 164 196 C164 302 208 470 351 470 C440 470 477 425 477 337 L477 337 Z " />
<glyph glyph-name="ntilde" unicode="&#xf1;" horiz-adv-x="640" d="M454 326 L396 0 L487 0 L545 328 C569 465 516 539 404 539 C303 539 250 475 223 423 L221 423 L240 527 L155 527 L62 0 L153 0 L203 285 C222 386 284 466 370 466 C453 466 470 418 454 326 L454 326 Z M199 627 L271 627 C276 668 290 689 315 689 C353 689 387 631 450 631 C527 631 557 695 565 772 L493 772 C488 731 474 710 450 710 C413 710 371 769 314 769 C238 769 204 703 199 627 L199 627 Z " />
<glyph glyph-name="ograve" unicode="&#xf2;" horiz-adv-x="640" d="M292 -13 C484 -13 569 156 569 329 C569 454 496 539 347 539 C155 539 71 368 71 197 C71 72 143 -13 292 -13 L292 -13 Z M295 57 C201 57 164 116 164 196 C164 301 205 469 344 469 C437 469 476 410 476 330 C476 225 433 57 295 57 L295 57 Z M347 609 L424 609 L376 788 L244 788 L347 609 Z " />
<glyph glyph-name="oacute" unicode="&#xf3;" horiz-adv-x="640" d="M292 -13 C484 -13 569 156 569 329 C569 454 496 539 347 539 C155 539 71 368 71 197 C71 72 143 -13 292 -13 L292 -13 Z M295 57 C201 57 164 116 164 196 C164 301 205 469 344 469 C437 469 476 410 476 330 C476 225 433 57 295 57 L295 57 Z M414 788 L322 609 L399 609 L549 788 L414 788 Z " />
<glyph glyph-name="ocircumflex" unicode="&#xf4;" horiz-adv-x="640" d="M292 -13 C484 -13 569 156 569 329 C569 454 496 539 347 539 C155 539 71 368 71 197 C71 72 143 -13 292 -13 L292 -13 Z M295 57 C201 57 164 116 164 196 C164 301 205 469 344 469 C437 469 476 410 476 330 C476 225 433 57 295 57 L295 57 Z M526 609 L450 788 L351 788 L220 609 L301 609 L389 707 L390 707 L450 609 L526 609 Z " />
<glyph glyph-name="otilde" unicode="&#xf5;" horiz-adv-x="640" d="M292 -13 C484 -13 569 156 569 329 C569 454 496 539 347 539 C155 539 71 368 71 197 C71 72 143 -13 292 -13 L292 -13 Z M295 57 C201 57 164 116 164 196 C164 301 205 469 344 469 C437 469 476 410 476 330 C476 225 433 57 295 57 L295 57 Z M207 627 L279 627 C284 668 298 689 323 689 C361 689 395 631 458 631 C535 631 565 695 573 772 L501 772 C496 731 482 710 458 710 C421 710 379 769 322 769 C246 769 212 703 207 627 L207 627 Z " />
<glyph glyph-name="odieresis" unicode="&#xf6;" horiz-adv-x="640" d="M292 -13 C484 -13 569 156 569 329 C569 454 496 539 347 539 C155 539 71 368 71 197 C71 72 143 -13 292 -13 L292 -13 Z M295 57 C201 57 164 116 164 196 C164 301 205 469 344 469 C437 469 476 410 476 330 C476 225 433 57 295 57 L295 57 Z M441 755 L418 626 L547 626 L570 755 L441 755 Z M225 755 L202 626 L332 626 L355 755 L225 755 Z " />
<glyph glyph-name="divide" unicode="&#xf7;" horiz-adv-x="640" d="M332 614 L306 479 L436 479 L462 614 L332 614 Z M130 397 L114 318 L568 318 L584 397 L130 397 Z M233 101 L363 101 L389 236 L259 236 L233 101 Z " />
<glyph glyph-name="oslash" unicode="&#xf8;" horiz-adv-x="640" d="M345 470 C388 470 420 458 442 435 L171 137 C166 156 163 176 163 195 C163 300 204 470 345 470 L345 470 Z M294 56 C255 56 224 66 202 87 L471 381 C475 366 477 349 477 331 C477 226 437 56 294 56 L294 56 Z M569 329 C569 377 558 418 536 452 L626 550 L547 550 L497 495 C460 523 411 539 347 539 C155 539 71 368 71 197 C71 146 83 103 108 68 L21 -27 L98 -27 L148 28 C184 1 232 -13 292 -13 C484 -13 569 156 569 329 L569 329 Z " />
<glyph glyph-name="ugrave" unicode="&#xf9;" horiz-adv-x="640" d="M186 195 L244 527 L154 527 L95 191 C71 50 131 -13 240 -13 C337 -13 386 53 413 98 L417 98 L399 0 L484 0 L577 527 L487 527 L442 269 C419 137 354 61 270 61 C189 61 170 104 186 195 L186 195 Z M343 609 L420 609 L372 788 L240 788 L343 609 Z " />
<glyph glyph-name="uacute" unicode="&#xfa;" horiz-adv-x="640" d="M186 195 L244 527 L154 527 L95 191 C71 50 131 -13 240 -13 C337 -13 386 53 413 98 L417 98 L399 0 L484 0 L577 527 L487 527 L442 269 C419 137 354 61 270 61 C189 61 170 104 186 195 L186 195 Z M422 788 L330 609 L407 609 L557 788 L422 788 Z " />
<glyph glyph-name="ucircumflex" unicode="&#xfb;" horiz-adv-x="640" d="M186 195 L244 527 L154 527 L95 191 C71 50 131 -13 240 -13 C337 -13 386 53 413 98 L417 98 L399 0 L484 0 L577 527 L487 527 L442 269 C419 137 354 61 270 61 C189 61 170 104 186 195 L186 195 Z M533 609 L457 788 L358 788 L227 609 L308 609 L396 707 L397 707 L457 609 L533 609 Z " />
<glyph glyph-name="udieresis" unicode="&#xfc;" horiz-adv-x="640" d="M186 195 L244 527 L154 527 L95 191 C71 50 131 -13 240 -13 C337 -13 386 53 413 98 L417 98 L399 0 L484 0 L577 527 L487 527 L442 269 C419 137 354 61 270 61 C189 61 170 104 186 195 L186 195 Z M448 755 L425 626 L554 626 L577 755 L448 755 Z M232 755 L209 626 L339 626 L362 755 L232 755 Z " />
<glyph glyph-name="yacute" unicode="&#xfd;" horiz-adv-x="640" d="M107 527 L225 0 L194 -49 C161 -102 129 -123 77 -123 C46 -123 17 -118 -19 -105 L-40 -176 C-4 -191 33 -198 70 -198 C157 -198 217 -167 272 -72 L611 527 L515 527 L331 189 C318 165 307 142 300 126 C295 117 291 108 288 100 L284 100 C283 108 282 117 281 126 C279 142 275 162 270 187 L197 527 L107 527 Z M397 788 L305 609 L382 609 L532 788 L397 788 Z " />
<glyph glyph-name="thorn" unicode="&#xfe;" horiz-adv-x="640" d="M181 244 L191 300 C207 384 256 468 363 468 C450 468 488 410 488 325 C488 216 441 56 308 56 C195 56 165 147 181 244 L181 244 Z M189 788 L17 -188 L107 -188 L154 80 L157 80 C178 27 224 -13 316 -13 C488 -13 581 155 581 323 C581 454 512 538 393 538 C305 538 253 495 221 447 L219 447 L278 788 L189 788 Z " />
<glyph glyph-name="ydieresis" unicode="&#xff;" horiz-adv-x="640" d="M434 755 L411 626 L540 626 L563 755 L434 755 Z M218 755 L195 626 L325 626 L348 755 L218 755 Z M106 527 L224 0 L193 -49 C160 -102 128 -123 76 -123 C45 -123 16 -118 -20 -105 L-41 -176 C-5 -191 32 -198 69 -198 C156 -198 216 -167 271 -72 L610 527 L514 527 L330 189 C317 165 306 142 299 126 C294 117 290 108 287 100 L283 100 C282 108 281 117 280 126 C278 142 274 162 269 187 L196 527 L106 527 Z " />
<glyph glyph-name="Amacron" unicode="&#x100;" horiz-adv-x="640" d="M387 682 L395 682 C396 666 397 650 398 633 C401 605 402 571 405 548 L430 303 L224 303 L334 548 C353 591 385 677 387 682 L387 682 Z M437 228 L461 0 L559 0 L469 765 L348 765 L-8 0 L87 0 L190 228 L437 228 Z M271 929 L257 846 L575 846 L589 929 L271 929 Z " />
<glyph glyph-name="amacron" unicode="&#x101;" horiz-adv-x="640" d="M433 254 L427 222 C409 130 345 63 260 63 C200 63 169 87 169 147 C169 190 192 219 239 234 C284 249 337 254 433 254 L433 254 Z M409 86 L412 86 L412 82 C412 27 442 0 503 0 L536 0 L548 73 L523 73 C500 73 486 83 493 114 L532 332 C553 454 494 540 349 540 C223 540 141 473 136 380 L223 380 C230 443 279 471 342 471 C433 471 462 423 447 339 L443 318 C344 318 298 314 233 303 C140 286 77 231 77 139 C77 42 142 -8 241 -8 C320 -8 376 31 409 86 L409 86 Z M229 719 L214 636 L532 636 L547 719 L229 719 Z " />
<glyph glyph-name="Abreve" unicode="&#x102;" horiz-adv-x="640" d="M387 682 L395 682 C396 666 397 650 398 633 C401 605 402 571 405 548 L430 303 L224 303 L334 548 C353 591 385 677 387 682 L387 682 Z M437 228 L461 0 L559 0 L469 765 L348 765 L-8 0 L87 0 L190 228 L437 228 Z M357 970 L282 970 C274 875 341 830 425 830 C505 830 569 874 592 970 L515 970 C500 925 467 903 423 903 C387 903 360 926 357 970 L357 970 Z " />
<glyph glyph-name="abreve" unicode="&#x103;" horiz-adv-x="640" d="M433 254 L427 222 C409 130 345 63 260 63 C200 63 169 87 169 147 C169 190 192 219 239 234 C284 249 337 254 433 254 L433 254 Z M409 86 L412 86 L412 82 C412 27 442 0 503 0 L536 0 L548 73 L523 73 C500 73 486 83 493 114 L532 332 C553 454 494 540 349 540 C223 540 141 473 136 380 L223 380 C230 443 279 471 342 471 C433 471 462 423 447 339 L443 318 C344 318 298 314 233 303 C140 286 77 231 77 139 C77 42 142 -8 241 -8 C320 -8 376 31 409 86 L409 86 Z M319 776 L246 776 C225 664 294 612 384 612 C470 612 541 663 557 776 L482 776 C471 713 436 686 385 686 C342 686 311 716 319 776 L319 776 Z " />
<glyph glyph-name="Aogonek" unicode="&#x104;" horiz-adv-x="640" d="M430 303 L224 303 L334 548 C353 591 385 677 387 682 L395 682 C396 666 397 650 398 633 C401 605 402 571 405 548 L430 303 Z M526 -188 L539 -118 C504 -118 483 -107 483 -79 C483 -44 516 -23 559 0 L469 765 L348 765 L-8 0 L87 0 L190 228 L437 228 L461 0 L498 0 C422 -27 396 -60 396 -107 C396 -158 431 -188 508 -188 L526 -188 Z " />
<glyph glyph-name="aogonek" unicode="&#x105;" horiz-adv-x="640" d="M503 -188 L516 -118 C480 -117 460 -109 460 -78 C460 -46 481 -31 536 0 L548 73 L523 73 C500 73 486 83 493 114 L532 332 C553 454 495 540 350 540 C224 540 141 473 136 380 L223 380 C230 443 279 471 342 471 C433 471 462 423 447 339 L443 318 C344 318 298 314 233 303 C140 286 77 231 77 139 C77 42 142 -8 241 -8 C321 -8 376 31 409 86 L412 86 L412 82 C412 42 428 15 467 4 L467 1 C407 -19 373 -60 373 -104 C373 -164 416 -188 485 -188 L503 -188 Z M433 254 L427 222 C409 130 345 63 260 63 C200 63 169 87 169 147 C169 190 192 219 239 234 C284 249 337 254 433 254 L433 254 Z " />
<glyph glyph-name="Cacute" unicode="&#x106;" horiz-adv-x="640" d="M545 537 L639 537 C647 686 560 776 418 776 C78 776 67 305 67 257 C67 65 164 -16 308 -16 C477 -16 569 110 590 239 L498 239 C475 132 407 61 308 61 C226 61 161 115 161 245 C161 329 184 700 411 700 C519 700 548 617 545 537 L545 537 Z M461 960 L392 827 L476 827 L596 960 L461 960 Z " />
<glyph glyph-name="cacute" unicode="&#x107;" horiz-adv-x="640" d="M480 368 L567 368 C570 467 502 540 366 540 C166 540 88 368 88 209 C88 79 159 -13 307 -13 C447 -13 531 73 544 172 L452 172 C441 107 391 60 312 60 C219 60 180 120 180 215 C180 312 220 469 364 469 C453 469 480 416 480 368 L480 368 Z M418 788 L326 609 L403 609 L553 788 L418 788 Z " />
<glyph glyph-name="Ccircumflex" unicode="&#x108;" horiz-adv-x="640" d="M545 537 L639 537 C647 686 560 776 418 776 C78 776 67 305 67 257 C67 65 164 -16 308 -16 C477 -16 569 110 590 239 L498 239 C475 132 407 61 308 61 C226 61 161 115 161 245 C161 329 184 700 411 700 C519 700 548 617 545 537 L545 537 Z M582 827 L508 960 L394 960 L274 827 L362 827 L440 893 L443 893 L499 827 L582 827 Z " />
<glyph glyph-name="ccircumflex" unicode="&#x109;" horiz-adv-x="640" d="M480 368 L567 368 C570 467 502 540 366 540 C166 540 88 368 88 209 C88 79 159 -13 307 -13 C447 -13 531 73 544 172 L452 172 C441 107 391 60 312 60 C219 60 180 120 180 215 C180 312 220 469 364 469 C453 469 480 416 480 368 L480 368 Z M528 609 L452 788 L353 788 L222 609 L303 609 L391 707 L392 707 L452 609 L528 609 Z " />
<glyph glyph-name="Cdotaccent" unicode="&#x10a;" horiz-adv-x="640" d="M545 537 L639 537 C647 686 560 776 418 776 C78 776 67 305 67 257 C67 65 164 -16 308 -16 C477 -16 569 110 590 239 L498 239 C475 132 407 61 308 61 C226 61 161 115 161 245 C161 329 184 700 411 700 C519 700 548 617 545 537 L545 537 Z M387 958 L363 824 L497 824 L521 958 L387 958 Z " />
<glyph glyph-name="cdotaccent" unicode="&#x10b;" horiz-adv-x="640" d="M480 368 L567 368 C570 467 502 540 366 540 C166 540 88 368 88 209 C88 79 159 -13 307 -13 C447 -13 531 73 544 172 L452 172 C441 107 391 60 312 60 C219 60 180 120 180 215 C180 312 220 469 364 469 C453 469 480 416 480 368 L480 368 Z M332 760 L308 626 L442 626 L466 760 L332 760 Z " />
<glyph glyph-name="Ccaron" unicode="&#x10c;" horiz-adv-x="640" d="M545 537 L639 537 C647 686 560 776 418 776 C78 776 67 305 67 257 C67 65 164 -16 308 -16 C477 -16 569 110 590 239 L498 239 C475 132 407 61 308 61 C226 61 161 115 161 245 C161 329 184 700 411 700 C519 700 548 617 545 537 L545 537 Z M292 960 L366 827 L480 827 L600 960 L512 960 L434 894 L431 894 L375 960 L292 960 Z " />
<glyph glyph-name="ccaron" unicode="&#x10d;" horiz-adv-x="640" d="M480 368 L567 368 C570 467 502 540 366 540 C166 540 88 368 88 209 C88 79 159 -13 307 -13 C447 -13 531 73 544 172 L452 172 C441 107 391 60 312 60 C219 60 180 120 180 215 C180 312 220 469 364 469 C453 469 480 416 480 368 L480 368 Z M247 788 L323 609 L422 609 L553 788 L472 788 L384 690 L383 690 L323 788 L247 788 Z " />
<glyph glyph-name="Dcaron" unicode="&#x10e;" horiz-adv-x="640" d="M163 765 L28 0 L236 0 C514 0 624 225 624 470 C624 674 499 765 334 765 L163 765 Z M250 80 L135 80 L242 685 L328 685 C453 685 529 623 529 475 C529 377 506 80 250 80 L250 80 Z M236 960 L310 827 L424 827 L544 960 L456 960 L378 894 L375 894 L319 960 L236 960 Z " />
<glyph glyph-name="dcaron" unicode="&#x10f;" horiz-adv-x="640" d="M414 284 L404 228 C388 143 338 59 234 59 C147 59 111 119 111 200 C111 335 157 471 293 471 C397 471 430 377 414 284 L414 284 Z M451 0 L590 788 L499 788 L440 450 L438 450 C418 501 363 540 279 540 C107 540 18 389 18 202 C18 73 85 -12 210 -12 C293 -12 338 23 373 72 L377 72 L365 0 L451 0 Z M661 788 L602 584 L660 584 L774 788 L661 788 Z " />
<glyph glyph-name="Dcroat" unicode="&#x110;" horiz-adv-x="640" d="M40 0 L236 0 C514 0 624 225 624 470 C624 674 499 765 334 765 L175 765 L115 425 L27 425 L13 348 L101 348 L40 0 Z M250 80 L147 80 L194 348 L368 348 L382 425 L208 425 L254 685 L328 685 C453 685 529 623 529 475 C529 377 506 80 250 80 L250 80 Z " />
<glyph glyph-name="dcroat" unicode="&#x111;" horiz-adv-x="640" d="M464 284 L454 228 C438 143 391 59 281 59 C194 59 156 119 156 200 C156 319 207 471 343 471 C450 471 480 377 464 284 L464 284 Z M423 72 L427 72 L415 0 L501 0 L611 621 L687 621 L698 686 L622 686 L640 788 L549 788 L531 686 L363 686 L352 621 L520 621 L489 446 L487 446 C465 492 422 540 326 540 C158 540 63 371 63 202 C63 73 130 -12 255 -12 C336 -12 384 21 423 72 L423 72 Z " />
<glyph glyph-name="Emacron" unicode="&#x112;" horiz-adv-x="640" d="M193 765 L58 0 L522 0 L536 81 L165 81 L212 347 L526 347 L540 426 L226 426 L272 684 L638 684 L652 765 L193 765 Z M289 929 L275 846 L593 846 L607 929 L289 929 Z " />
<glyph glyph-name="emacron" unicode="&#x113;" horiz-adv-x="640" d="M472 310 L179 310 C198 395 249 470 357 470 C445 470 489 410 472 310 L472 310 Z M526 138 L433 138 C418 93 374 61 307 61 C215 61 169 110 169 208 C169 219 169 228 170 239 L549 239 L554 261 C589 403 528 540 360 540 C162 540 79 367 79 206 C79 82 144 -13 301 -13 C421 -13 499 46 526 138 L526 138 Z M228 719 L213 636 L531 636 L546 719 L228 719 Z " />
<glyph glyph-name="Ebreve" unicode="&#x114;" horiz-adv-x="640" d="M193 765 L58 0 L522 0 L536 81 L165 81 L212 347 L526 347 L540 426 L226 426 L272 684 L638 684 L652 765 L193 765 Z M365 970 L290 970 C282 875 349 830 433 830 C513 830 577 874 600 970 L523 970 C508 925 475 903 431 903 C395 903 368 926 365 970 L365 970 Z " />
<glyph glyph-name="ebreve" unicode="&#x115;" horiz-adv-x="640" d="M472 310 L179 310 C198 395 249 470 357 470 C445 470 489 410 472 310 L472 310 Z M526 138 L433 138 C418 93 374 61 307 61 C215 61 169 110 169 208 C169 219 169 228 170 239 L549 239 L554 261 C589 403 528 540 360 540 C162 540 79 367 79 206 C79 82 144 -13 301 -13 C421 -13 499 46 526 138 L526 138 Z M321 776 L248 776 C227 664 296 612 386 612 C472 612 543 663 559 776 L484 776 C473 713 438 686 387 686 C344 686 313 716 321 776 L321 776 Z " />
<glyph glyph-name="Edotaccent" unicode="&#x116;" horiz-adv-x="640" d="M193 765 L58 0 L522 0 L536 81 L165 81 L212 347 L526 347 L540 426 L226 426 L272 684 L638 684 L652 765 L193 765 Z M393 958 L369 824 L503 824 L527 958 L393 958 Z " />
<glyph glyph-name="edotaccent" unicode="&#x117;" horiz-adv-x="640" d="M472 310 L179 310 C198 395 249 470 357 470 C445 470 489 410 472 310 L472 310 Z M526 138 L433 138 C418 93 374 61 307 61 C215 61 169 110 169 208 C169 219 169 228 170 239 L549 239 L554 261 C589 403 528 540 360 540 C162 540 79 367 79 206 C79 82 144 -13 301 -13 C421 -13 499 46 526 138 L526 138 Z M329 760 L305 626 L439 626 L463 760 L329 760 Z " />
<glyph glyph-name="Eogonek" unicode="&#x118;" horiz-adv-x="640" d="M450 -188 L463 -118 C428 -118 407 -107 407 -79 C407 -44 440 -23 483 0 L522 0 L536 81 L165 81 L212 347 L526 347 L540 426 L226 426 L272 684 L638 684 L652 765 L193 765 L58 0 L406 0 C346 -28 320 -60 320 -107 C320 -158 355 -188 432 -188 L450 -188 Z " />
<glyph glyph-name="eogonek" unicode="&#x119;" horiz-adv-x="640" d="M350 -79 C350 -47 378 -20 442 24 C489 56 513 91 526 138 L433 138 C418 93 374 61 307 61 C215 61 169 110 169 208 C169 219 169 228 170 239 L549 239 L554 261 C589 403 528 540 360 540 C162 540 79 367 79 206 C79 82 144 -13 301 -13 C312 -13 320 -13 331 -12 L331 -17 C288 -36 263 -68 263 -107 C263 -158 298 -188 375 -188 L393 -188 L406 -118 C371 -118 350 -107 350 -79 L350 -79 Z M472 310 L179 310 C198 395 249 470 357 470 C442 470 489 414 472 310 L472 310 Z " />
<glyph glyph-name="Ecaron" unicode="&#x11a;" horiz-adv-x="640" d="M193 765 L58 0 L522 0 L536 81 L165 81 L212 347 L526 347 L540 426 L226 426 L272 684 L638 684 L652 765 L193 765 Z M299 960 L373 827 L487 827 L607 960 L519 960 L441 894 L438 894 L382 960 L299 960 Z " />
<glyph glyph-name="ecaron" unicode="&#x11b;" horiz-adv-x="640" d="M472 310 L179 310 C198 395 249 470 357 470 C445 470 489 410 472 310 L472 310 Z M526 138 L433 138 C418 93 374 61 307 61 C215 61 169 110 169 208 C169 219 169 228 170 239 L549 239 L554 261 C589 403 528 540 360 540 C162 540 79 367 79 206 C79 82 144 -13 301 -13 C421 -13 499 46 526 138 L526 138 Z M243 788 L319 609 L418 609 L549 788 L468 788 L380 690 L379 690 L319 788 L243 788 Z " />
<glyph glyph-name="Gcircumflex" unicode="&#x11c;" horiz-adv-x="639" d="M409 701 C508 701 543 639 540 562 L629 562 C634 699 548 776 409 776 C133 776 56 436 56 252 C56 56 148 -15 284 -15 C369 -15 425 26 464 87 L468 87 L453 0 L534 0 L602 386 L335 386 L321 310 L503 310 L492 247 C479 172 432 58 292 58 C201 58 150 111 150 240 C150 357 189 701 409 701 L409 701 Z M573 827 L499 960 L385 960 L265 827 L353 827 L431 893 L434 893 L490 827 L573 827 Z " />
<glyph glyph-name="gcircumflex" unicode="&#x11d;" horiz-adv-x="640" d="M475 292 L465 239 C449 149 383 76 288 76 C188 76 163 134 163 213 C163 306 211 470 345 470 C452 470 491 379 475 292 L475 292 Z M246 -199 C381 -199 489 -137 518 33 L605 527 L519 527 L504 444 L501 444 C481 493 429 538 344 538 C156 538 69 370 69 199 C69 64 159 4 259 4 C350 4 401 42 438 101 L441 101 L431 43 C407 -90 347 -129 253 -129 C168 -129 136 -94 133 -50 L48 -50 C45 -151 137 -199 246 -199 L246 -199 Z M545 609 L469 788 L370 788 L239 609 L320 609 L408 707 L409 707 L469 609 L545 609 Z " />
<glyph glyph-name="Gbreve" unicode="&#x11e;" horiz-adv-x="639" d="M409 701 C508 701 543 639 540 562 L629 562 C634 699 548 776 409 776 C133 776 56 436 56 252 C56 56 148 -15 284 -15 C369 -15 425 26 464 87 L468 87 L453 0 L534 0 L602 386 L335 386 L321 310 L503 310 L492 247 C479 172 432 58 292 58 C201 58 150 111 150 240 C150 357 189 701 409 701 L409 701 Z M362 970 L287 970 C279 875 346 830 430 830 C510 830 574 874 597 970 L520 970 C505 925 472 903 428 903 C392 903 365 926 362 970 L362 970 Z " />
<glyph glyph-name="gbreve" unicode="&#x11f;" horiz-adv-x="640" d="M475 292 L465 239 C449 149 383 76 288 76 C188 76 163 134 163 213 C163 306 211 470 345 470 C452 470 491 379 475 292 L475 292 Z M246 -199 C381 -199 489 -137 518 33 L605 527 L519 527 L504 444 L501 444 C481 493 429 538 344 538 C156 538 69 370 69 199 C69 64 159 4 259 4 C350 4 401 42 438 101 L441 101 L431 43 C407 -90 347 -129 253 -129 C168 -129 136 -94 133 -50 L48 -50 C45 -151 137 -199 246 -199 L246 -199 Z M335 776 L262 776 C241 664 310 612 400 612 C486 612 557 663 573 776 L498 776 C487 713 452 686 401 686 C358 686 327 716 335 776 L335 776 Z " />
<glyph glyph-name="Gdotaccent" unicode="&#x120;" horiz-adv-x="639" d="M409 701 C508 701 543 639 540 562 L629 562 C634 699 548 776 409 776 C133 776 56 436 56 252 C56 56 148 -15 284 -15 C369 -15 425 26 464 87 L468 87 L453 0 L534 0 L602 386 L335 386 L321 310 L503 310 L492 247 C479 172 432 58 292 58 C201 58 150 111 150 240 C150 357 189 701 409 701 L409 701 Z M378 958 L354 824 L488 824 L512 958 L378 958 Z " />
<glyph glyph-name="gdotaccent" unicode="&#x121;" horiz-adv-x="640" d="M475 292 L465 239 C449 149 383 76 288 76 C188 76 163 134 163 213 C163 306 211 470 345 470 C452 470 491 379 475 292 L475 292 Z M246 -199 C381 -199 489 -137 518 33 L605 527 L519 527 L504 444 L501 444 C481 493 429 538 344 538 C156 538 69 370 69 199 C69 64 159 4 259 4 C350 4 401 42 438 101 L441 101 L431 43 C407 -90 347 -129 253 -129 C168 -129 136 -94 133 -50 L48 -50 C45 -151 137 -199 246 -199 L246 -199 Z M345 760 L321 626 L455 626 L479 760 L345 760 Z " />
<glyph glyph-name="Gcommaaccent" unicode="&#x122;" horiz-adv-x="639" d="M409 701 C508 701 543 639 540 562 L629 562 C634 699 548 776 409 776 C133 776 56 436 56 252 C56 56 148 -15 284 -15 C369 -15 425 26 464 87 L468 87 L453 0 L534 0 L602 386 L335 386 L321 310 L503 310 L492 247 C479 172 432 58 292 58 C201 58 150 111 150 240 C150 357 189 701 409 701 L409 701 Z M207 -53 L149 -202 L226 -202 L342 -53 L207 -53 Z " />
<glyph glyph-name="gcommaaccent" unicode="&#x123;" horiz-adv-x="640" d="M475 292 L465 239 C449 149 383 76 288 76 C188 76 163 134 163 213 C163 306 211 470 345 470 C452 470 491 379 475 292 L475 292 Z M246 -199 C381 -199 489 -137 518 33 L605 527 L519 527 L504 444 L501 444 C481 493 429 538 344 538 C156 538 69 370 69 199 C69 64 159 4 259 4 C350 4 401 42 438 101 L441 101 L431 43 C407 -90 347 -129 253 -129 C168 -129 136 -94 133 -50 L48 -50 C45 -151 137 -199 246 -199 L246 -199 Z M441 609 L508 774 L431 774 L306 609 L441 609 Z " />
<glyph glyph-name="Hcircumflex" unicode="&#x124;" horiz-adv-x="640" d="M120 0 L181 346 L485 346 L424 0 L517 0 L652 765 L559 765 L499 425 L195 425 L255 765 L162 765 L27 0 L120 0 Z M568 827 L494 960 L380 960 L260 827 L348 827 L426 893 L429 893 L485 827 L568 827 Z " />
<glyph glyph-name="hcircumflex" unicode="&#x125;" horiz-adv-x="640" d="M454 325 L397 0 L487 0 L546 335 C569 468 508 540 405 540 C304 540 251 475 232 431 L229 431 L293 788 L202 788 L63 0 L154 0 L204 285 C223 386 284 466 370 466 C453 466 470 417 454 325 L454 325 Z M562 827 L488 960 L374 960 L254 827 L342 827 L420 893 L423 893 L479 827 L562 827 Z " />
<glyph glyph-name="Hbar" unicode="&#x126;" horiz-adv-x="640" d="M499 425 L195 425 L220 564 L524 564 L499 425 Z M120 0 L181 346 L485 346 L424 0 L517 0 L617 564 L672 564 L685 635 L629 635 L652 765 L559 765 L536 635 L232 635 L255 765 L162 765 L139 635 L85 635 L72 564 L127 564 L27 0 L120 0 Z " />
<glyph glyph-name="hbar" unicode="&#x127;" horiz-adv-x="640" d="M154 0 L204 285 C223 386 284 466 370 466 C453 466 470 417 454 325 L397 0 L487 0 L546 335 C569 468 508 540 405 540 C304 540 251 475 232 431 L229 431 L263 621 L431 621 L443 686 L275 686 L293 788 L202 788 L184 686 L108 686 L96 621 L173 621 L63 0 L154 0 Z " />
<glyph glyph-name="Itilde" unicode="&#x128;" horiz-adv-x="640" d="M332 75 L441 690 L615 690 L628 765 L188 765 L175 690 L349 690 L240 75 L66 75 L53 0 L493 0 L506 75 L332 75 Z M249 827 L320 827 C325 870 343 884 367 884 C404 884 439 830 498 830 C574 830 610 889 617 966 L546 966 C541 923 524 907 501 907 C464 907 429 962 369 962 C293 962 254 904 249 827 L249 827 Z " />
<glyph glyph-name="itilde" unicode="&#x129;" horiz-adv-x="640" d="M45 0 L522 0 L535 75 L338 75 L418 527 L167 527 L154 455 L317 455 L250 75 L58 75 L45 0 Z M191 627 L263 627 C268 668 282 689 307 689 C345 689 379 631 442 631 C519 631 549 695 557 772 L485 772 C480 731 466 710 442 710 C405 710 363 769 306 769 C230 769 196 703 191 627 L191 627 Z " />
<glyph glyph-name="Imacron" unicode="&#x12a;" horiz-adv-x="640" d="M332 75 L441 690 L615 690 L628 765 L188 765 L175 690 L349 690 L240 75 L66 75 L53 0 L493 0 L506 75 L332 75 Z M277 929 L263 846 L581 846 L595 929 L277 929 Z " />
<glyph glyph-name="imacron" unicode="&#x12b;" horiz-adv-x="640" d="M45 0 L522 0 L535 75 L338 75 L418 527 L167 527 L154 455 L317 455 L250 75 L58 75 L45 0 Z M230 719 L215 636 L533 636 L548 719 L230 719 Z " />
<glyph glyph-name="Ibreve" unicode="&#x12c;" horiz-adv-x="640" d="M332 75 L441 690 L615 690 L628 765 L188 765 L175 690 L349 690 L240 75 L66 75 L53 0 L493 0 L506 75 L332 75 Z M357 970 L282 970 C274 875 341 830 425 830 C505 830 569 874 592 970 L515 970 C500 925 467 903 423 903 C387 903 360 926 357 970 L357 970 Z " />
<glyph glyph-name="ibreve" unicode="&#x12d;" horiz-adv-x="640" d="M45 0 L522 0 L535 75 L338 75 L418 527 L167 527 L154 455 L317 455 L250 75 L58 75 L45 0 Z M305 776 L232 776 C211 664 280 612 370 612 C456 612 527 663 543 776 L468 776 C457 713 422 686 371 686 C328 686 297 716 305 776 L305 776 Z " />
<glyph glyph-name="Iogonek" unicode="&#x12e;" horiz-adv-x="640" d="M417 -188 L430 -118 C395 -118 374 -107 374 -79 C374 -44 407 -23 450 0 L493 0 L506 75 L332 75 L441 690 L615 690 L628 765 L188 765 L175 690 L349 690 L240 75 L66 75 L53 0 L373 0 C313 -28 287 -60 287 -107 C287 -158 322 -188 399 -188 L417 -188 Z " />
<glyph glyph-name="iogonek" unicode="&#x12f;" horiz-adv-x="640" d="M337 760 L313 626 L447 626 L471 760 L337 760 Z M437 -188 L450 -118 C415 -118 394 -107 394 -79 C394 -44 427 -23 470 0 L522 0 L535 75 L338 75 L418 527 L167 527 L154 455 L317 455 L250 75 L58 75 L45 0 L393 0 C333 -28 307 -60 307 -107 C307 -158 342 -188 419 -188 L437 -188 Z " />
<glyph glyph-name="Idotaccent" unicode="&#x130;" horiz-adv-x="640" d="M332 75 L441 690 L615 690 L628 765 L188 765 L175 690 L349 690 L240 75 L66 75 L53 0 L493 0 L506 75 L332 75 Z M375 958 L351 824 L485 824 L509 958 L375 958 Z " />
<glyph glyph-name="dotlessi" unicode="&#x131;" horiz-adv-x="640" d="M45 0 L522 0 L535 75 L338 75 L418 527 L167 527 L154 455 L317 455 L250 75 L58 75 L45 0 Z " />
<glyph glyph-name="IJ" unicode="&#x132;" horiz-adv-x="1280" d="M332 75 L441 690 L615 690 L628 765 L188 765 L175 690 L349 690 L240 75 L66 75 L53 0 L493 0 L506 75 L332 75 Z M857 -10 C1014 -10 1111 59 1138 212 L1236 765 L883 765 L869 686 L1129 686 L1046 218 C1030 126 982 73 871 73 C803 73 753 83 718 92 L703 8 C742 -1 785 -10 857 -10 L857 -10 Z " />
<glyph glyph-name="ij" unicode="&#x133;" horiz-adv-x="1280" d="M337 760 L313 626 L447 626 L471 760 L337 760 Z M45 0 L522 0 L535 75 L338 75 L418 527 L167 527 L154 455 L317 455 L250 75 L58 75 L45 0 Z M1008 626 L1142 626 L1166 760 L1032 760 L1008 626 Z M809 -199 C936 -199 995 -138 1018 -10 L1113 527 L819 527 L806 455 L1012 455 L932 4 C916 -90 890 -123 813 -123 C782 -123 750 -118 714 -103 L693 -176 C731 -191 770 -199 809 -199 L809 -199 Z " />
<glyph glyph-name="Jcircumflex" unicode="&#x134;" horiz-adv-x="640" d="M217 -10 C374 -10 471 59 498 212 L596 765 L243 765 L229 686 L489 686 L406 218 C390 126 342 73 231 73 C163 73 113 83 78 92 L63 8 C102 -1 145 -10 217 -10 L217 -10 Z M592 827 L518 960 L404 960 L284 827 L372 827 L450 893 L453 893 L509 827 L592 827 Z " />
<glyph glyph-name="jcircumflex" unicode="&#x135;" horiz-adv-x="640" d="M74 -103 L53 -176 C91 -191 130 -199 169 -199 C296 -199 355 -138 378 -10 L473 527 L179 527 L166 455 L372 455 L292 4 C276 -90 250 -123 173 -123 C142 -123 110 -118 74 -103 L74 -103 Z M553 609 L477 788 L378 788 L247 609 L328 609 L416 707 L417 707 L477 609 L553 609 Z " />
<glyph glyph-name="Kcommaaccent" unicode="&#x136;" horiz-adv-x="640" d="M140 0 L188 273 L290 377 L470 0 L568 0 L358 441 L677 765 L566 765 L211 404 L275 765 L183 765 L48 0 L140 0 Z M238 -53 L180 -202 L257 -202 L373 -53 L238 -53 Z " />
<glyph glyph-name="kcommaaccent" unicode="&#x137;" horiz-adv-x="640" d="M165 0 L192 155 L296 252 L449 0 L551 0 L360 306 L601 527 L488 527 L213 270 L304 788 L218 788 L79 0 L165 0 Z M228 -53 L170 -202 L247 -202 L363 -53 L228 -53 Z " />
<glyph glyph-name="kgreenlandic" unicode="&#x138;" horiz-adv-x="640" d="M165 0 L192 155 L296 252 L449 0 L551 0 L360 306 L601 527 L488 527 L213 270 L258 527 L172 527 L79 0 L165 0 Z " />
<glyph glyph-name="Lacute" unicode="&#x139;" horiz-adv-x="640" d="M213 765 L78 0 L551 0 L565 81 L185 81 L306 765 L213 765 Z M300 960 L231 827 L315 827 L435 960 L300 960 Z " />
<glyph glyph-name="lacute" unicode="&#x13a;" horiz-adv-x="640" d="M45 0 L522 0 L535 75 L339 75 L465 788 L203 788 L190 716 L363 716 L250 75 L58 75 L45 0 Z M456 960 L387 827 L471 827 L591 960 L456 960 Z " />
<glyph glyph-name="Lcommaaccent" unicode="&#x13b;" horiz-adv-x="640" d="M213 765 L78 0 L551 0 L565 81 L185 81 L306 765 L213 765 Z M260 -53 L202 -202 L279 -202 L395 -53 L260 -53 Z " />
<glyph glyph-name="lcommaaccent" unicode="&#x13c;" horiz-adv-x="640" d="M45 0 L522 0 L535 75 L339 75 L465 788 L203 788 L190 716 L363 716 L250 75 L58 75 L45 0 Z M207 -53 L149 -202 L226 -202 L342 -53 L207 -53 Z " />
<glyph glyph-name="Lcaron" unicode="&#x13d;" horiz-adv-x="640" d="M213 765 L78 0 L551 0 L565 81 L185 81 L306 765 L213 765 Z M442 788 L383 584 L441 584 L555 788 L442 788 Z " />
<glyph glyph-name="lcaron" unicode="&#x13e;" horiz-adv-x="640" d="M45 0 L522 0 L535 75 L339 75 L465 788 L203 788 L190 716 L363 716 L250 75 L58 75 L45 0 Z M568 788 L509 584 L567 584 L681 788 L568 788 Z " />
<glyph glyph-name="Ldot" unicode="&#x13f;" horiz-adv-x="640" d="M213 765 L78 0 L551 0 L565 81 L185 81 L306 765 L213 765 Z M463 463 L439 329 L573 329 L597 463 L463 463 Z " />
<glyph glyph-name="ldot" unicode="&#x140;" horiz-adv-x="640" d="M45 0 L522 0 L535 75 L339 75 L465 788 L203 788 L190 716 L363 716 L250 75 L58 75 L45 0 Z M598 452 L579 341 L689 341 L709 452 L598 452 Z " />
<glyph glyph-name="Lslash" unicode="&#x141;" horiz-adv-x="640" d="M83 0 L556 0 L570 81 L190 81 L233 324 L504 430 L518 514 L248 408 L311 765 L218 765 L148 369 L66 337 L51 253 L133 285 L83 0 Z " />
<glyph glyph-name="lslash" unicode="&#x142;" horiz-adv-x="640" d="M46 0 L523 0 L536 75 L340 75 L392 372 L557 450 L572 531 L407 452 L466 788 L204 788 L191 716 L364 716 L309 406 L147 329 L133 248 L295 325 L251 75 L59 75 L46 0 Z " />
<glyph glyph-name="Nacute" unicode="&#x143;" horiz-adv-x="640" d="M162 765 L27 0 L111 0 L227 662 L233 662 C234 653 236 642 238 631 C241 612 245 588 252 561 L396 0 L519 0 L654 765 L570 765 L454 103 L448 103 C447 113 445 124 443 135 C440 154 435 180 428 207 L285 765 L162 765 Z M448 960 L379 827 L463 827 L583 960 L448 960 Z " />
<glyph glyph-name="nacute" unicode="&#x144;" horiz-adv-x="640" d="M454 326 L396 0 L487 0 L545 328 C569 465 516 539 404 539 C303 539 250 475 223 423 L221 423 L240 527 L155 527 L62 0 L153 0 L203 285 C222 386 284 466 370 466 C453 466 470 418 454 326 L454 326 Z M419 788 L327 609 L404 609 L554 788 L419 788 Z " />
<glyph glyph-name="Ncommaaccent" unicode="&#x145;" horiz-adv-x="640" d="M162 765 L27 0 L111 0 L227 662 L233 662 C234 653 236 642 238 631 C241 612 245 588 252 561 L396 0 L519 0 L654 765 L570 765 L454 103 L448 103 C447 113 445 124 443 135 C440 154 435 180 428 207 L285 765 L162 765 Z M202 -53 L144 -202 L221 -202 L337 -53 L202 -53 Z " />
<glyph glyph-name="ncommaaccent" unicode="&#x146;" horiz-adv-x="640" d="M454 326 L396 0 L487 0 L545 328 C569 465 516 539 404 539 C303 539 250 475 223 423 L221 423 L240 527 L155 527 L62 0 L153 0 L203 285 C222 386 284 466 370 466 C453 466 470 418 454 326 L454 326 Z M206 -53 L148 -202 L225 -202 L341 -53 L206 -53 Z " />
<glyph glyph-name="Ncaron" unicode="&#x147;" horiz-adv-x="640" d="M162 765 L27 0 L111 0 L227 662 L233 662 C234 653 236 642 238 631 C241 612 245 588 252 561 L396 0 L519 0 L654 765 L570 765 L454 103 L448 103 C447 113 445 124 443 135 C440 154 435 180 428 207 L285 765 L162 765 Z M289 960 L363 827 L477 827 L597 960 L509 960 L431 894 L428 894 L372 960 L289 960 Z " />
<glyph glyph-name="ncaron" unicode="&#x148;" horiz-adv-x="640" d="M454 326 L396 0 L487 0 L545 328 C569 465 516 539 404 539 C303 539 250 475 223 423 L221 423 L240 527 L155 527 L62 0 L153 0 L203 285 C222 386 284 466 370 466 C453 466 470 418 454 326 L454 326 Z M241 788 L317 609 L416 609 L547 788 L466 788 L378 690 L377 690 L317 788 L241 788 Z " />
<glyph glyph-name="napostrophe" unicode="&#x149;" horiz-adv-x="640" d="M454 326 L396 0 L487 0 L545 328 C569 465 516 539 404 539 C303 539 250 475 223 423 L221 423 L240 527 L155 527 L62 0 L153 0 L203 285 C222 386 284 466 370 466 C453 466 470 418 454 326 L454 326 Z M38 571 L117 571 L282 788 L138 788 L38 571 Z " />
<glyph glyph-name="Eng" unicode="&#x14a;" horiz-adv-x="640" d="M233 -188 L271 -188 C418 -188 495 -140 522 16 L654 765 L570 765 L454 103 L448 103 C447 113 445 124 443 135 C440 154 435 180 428 207 L285 765 L162 765 L27 0 L111 0 L227 662 L233 662 C234 653 236 642 238 631 C241 612 245 588 252 561 L396 0 L435 0 C419 -71 382 -109 286 -109 L247 -109 L233 -188 Z " />
<glyph glyph-name="eng" unicode="&#x14b;" horiz-adv-x="640" d="M313 -199 C394 -199 457 -164 476 -64 L545 328 C569 465 516 539 404 539 C303 539 250 475 223 423 L221 423 L240 527 L155 527 L62 0 L153 0 L203 285 C222 386 284 466 370 466 C453 466 470 418 454 326 L386 -54 C377 -105 353 -122 310 -122 C291 -122 276 -119 264 -115 L249 -188 C264 -193 282 -199 313 -199 L313 -199 Z " />
<glyph glyph-name="Omacron" unicode="&#x14c;" horiz-adv-x="640" d="M55 252 C55 43 160 -16 288 -16 C566 -16 623 358 623 507 C623 717 517 776 390 776 C113 776 55 404 55 252 L55 252 Z M290 62 C202 62 149 112 149 245 C149 365 191 698 388 698 C476 698 529 648 529 515 C529 395 487 62 290 62 L290 62 Z M272 929 L258 846 L576 846 L590 929 L272 929 Z " />
<glyph glyph-name="omacron" unicode="&#x14d;" horiz-adv-x="640" d="M292 -13 C484 -13 569 156 569 329 C569 454 496 539 347 539 C155 539 71 368 71 197 C71 72 143 -13 292 -13 L292 -13 Z M295 57 C201 57 164 116 164 196 C164 301 205 469 344 469 C437 469 476 410 476 330 C476 225 433 57 295 57 L295 57 Z M236 719 L221 636 L539 636 L554 719 L236 719 Z " />
<glyph glyph-name="Obreve" unicode="&#x14e;" horiz-adv-x="640" d="M55 252 C55 43 160 -16 288 -16 C566 -16 623 358 623 507 C623 717 517 776 390 776 C113 776 55 404 55 252 L55 252 Z M290 62 C202 62 149 112 149 245 C149 365 191 698 388 698 C476 698 529 648 529 515 C529 395 487 62 290 62 L290 62 Z M359 970 L284 970 C276 875 343 830 427 830 C507 830 571 874 594 970 L517 970 C502 925 469 903 425 903 C389 903 362 926 359 970 L359 970 Z " />
<glyph glyph-name="obreve" unicode="&#x14f;" horiz-adv-x="640" d="M292 -13 C484 -13 569 156 569 329 C569 454 496 539 347 539 C155 539 71 368 71 197 C71 72 143 -13 292 -13 L292 -13 Z M295 57 C201 57 164 116 164 196 C164 301 205 469 344 469 C437 469 476 410 476 330 C476 225 433 57 295 57 L295 57 Z M321 776 L248 776 C227 664 296 612 386 612 C472 612 543 663 559 776 L484 776 C473 713 438 686 387 686 C344 686 313 716 321 776 L321 776 Z " />
<glyph glyph-name="Ohungarumlaut" unicode="&#x150;" horiz-adv-x="640" d="M55 252 C55 43 160 -16 288 -16 C566 -16 623 358 623 507 C623 717 517 776 390 776 C113 776 55 404 55 252 L55 252 Z M290 62 C202 62 149 112 149 245 C149 365 191 698 388 698 C476 698 529 648 529 515 C529 395 487 62 290 62 L290 62 Z M497 960 L446 827 L524 827 L610 960 L497 960 Z M336 960 L285 827 L363 827 L449 960 L336 960 Z " />
<glyph glyph-name="ohungarumlaut" unicode="&#x151;" horiz-adv-x="640" d="M292 -13 C484 -13 569 156 569 329 C569 454 496 539 347 539 C155 539 71 368 71 197 C71 72 143 -13 292 -13 L292 -13 Z M295 57 C201 57 164 116 164 196 C164 301 205 469 344 469 C437 469 476 410 476 330 C476 225 433 57 295 57 L295 57 Z M489 788 L400 609 L474 609 L601 788 L489 788 Z M335 788 L246 609 L320 609 L447 788 L335 788 Z " />
<glyph glyph-name="OE" unicode="&#x152;" horiz-adv-x="640" d="M378 687 L390 687 L283 78 C159 78 127 149 127 245 C127 284 135 687 378 687 L378 687 Z M269 0 L586 0 L600 81 L373 81 L420 347 L610 347 L624 426 L434 426 L480 684 L702 684 L716 765 L391 765 C44 765 32 312 32 265 C32 75 130 0 269 0 L269 0 Z " />
<glyph glyph-name="oe" unicode="&#x153;" horiz-adv-x="640" d="M154 57 C117 57 99 79 99 143 C99 175 118 471 232 471 C272 471 290 447 290 383 C290 353 266 57 154 57 L154 57 Z M542 312 L367 312 C387 421 416 468 480 468 C551 468 562 412 542 312 L542 312 Z M589 138 L505 138 C497 99 478 61 423 61 C343 61 335 122 355 245 L614 245 L627 320 C646 438 612 540 494 540 C425 540 379 504 355 456 L352 456 C337 503 304 540 228 540 C40 540 12 224 12 140 C12 37 64 -10 145 -10 C214 -10 253 26 282 78 L288 78 C312 13 355 -11 420 -11 C502 -11 573 38 589 138 L589 138 Z " />
<glyph glyph-name="Racute" unicode="&#x154;" horiz-adv-x="640" d="M356 401 L208 401 L258 689 L409 689 C484 689 532 647 532 567 C532 458 464 401 356 401 L356 401 Z M343 324 L454 0 L551 0 L430 338 L430 341 C520 357 628 412 628 568 C628 693 546 765 413 765 L179 765 L44 0 L137 0 L194 324 L343 324 Z M414 960 L345 827 L429 827 L549 960 L414 960 Z " />
<glyph glyph-name="racute" unicode="&#x155;" horiz-adv-x="640" d="M473 454 C520 454 553 449 592 437 L608 518 C580 529 549 537 502 537 C399 537 325 498 265 389 L263 389 L287 527 L202 527 L109 0 L201 0 L238 217 C257 334 347 454 473 454 L473 454 Z M458 788 L366 609 L443 609 L593 788 L458 788 Z " />
<glyph glyph-name="Rcommaaccent" unicode="&#x156;" horiz-adv-x="640" d="M356 401 L208 401 L258 689 L409 689 C484 689 532 647 532 567 C532 458 464 401 356 401 L356 401 Z M343 324 L454 0 L551 0 L430 338 L430 341 C520 357 628 412 628 568 C628 693 546 765 413 765 L179 765 L44 0 L137 0 L194 324 L343 324 Z M225 -53 L167 -202 L244 -202 L360 -53 L225 -53 Z " />
<glyph glyph-name="rcommaaccent" unicode="&#x157;" horiz-adv-x="640" d="M473 454 C520 454 553 449 592 437 L608 518 C580 529 549 537 502 537 C399 537 325 498 265 389 L263 389 L287 527 L202 527 L109 0 L201 0 L238 217 C257 334 347 454 473 454 L473 454 Z M78 -53 L20 -202 L97 -202 L213 -53 L78 -53 Z " />
<glyph glyph-name="Rcaron" unicode="&#x158;" horiz-adv-x="640" d="M356 401 L208 401 L258 689 L409 689 C484 689 532 647 532 567 C532 458 464 401 356 401 L356 401 Z M343 324 L454 0 L551 0 L430 338 L430 341 C520 357 628 412 628 568 C628 693 546 765 413 765 L179 765 L44 0 L137 0 L194 324 L343 324 Z M267 960 L341 827 L455 827 L575 960 L487 960 L409 894 L406 894 L350 960 L267 960 Z " />
<glyph glyph-name="rcaron" unicode="&#x159;" horiz-adv-x="640" d="M473 454 C520 454 553 449 592 437 L608 518 C580 529 549 537 502 537 C399 537 325 498 265 389 L263 389 L287 527 L202 527 L109 0 L201 0 L238 217 C257 334 347 454 473 454 L473 454 Z M291 788 L367 609 L466 609 L597 788 L516 788 L428 690 L427 690 L367 788 L291 788 Z " />
<glyph glyph-name="Sacute" unicode="&#x15a;" horiz-adv-x="640" d="M119 214 L32 215 C24 55 136 -16 287 -16 C451 -16 571 73 571 221 C571 323 526 371 406 414 L315 447 C253 469 211 494 211 569 C211 655 284 701 371 701 C480 701 528 644 527 559 L615 559 C620 703 523 775 374 775 C222 775 120 686 120 558 C120 449 181 403 274 368 L369 333 C446 304 478 275 478 210 C478 106 384 60 295 60 C177 60 118 111 119 214 L119 214 Z M409 960 L340 827 L424 827 L544 960 L409 960 Z " />
<glyph glyph-name="sacute" unicode="&#x15b;" horiz-adv-x="640" d="M456 380 L540 380 C543 492 451 539 346 539 C212 539 147 466 147 385 C147 298 202 262 274 243 L345 224 C401 209 429 187 429 148 C429 84 376 57 296 57 C195 57 164 99 164 152 L81 152 C74 47 156 -13 295 -13 C450 -13 515 65 515 156 C515 239 467 272 368 299 L313 314 C256 330 233 350 233 387 C233 440 271 470 344 470 C413 470 453 440 456 380 L456 380 Z M407 788 L315 609 L392 609 L542 788 L407 788 Z " />
<glyph glyph-name="Scircumflex" unicode="&#x15c;" horiz-adv-x="640" d="M119 214 L32 215 C24 55 136 -16 287 -16 C451 -16 571 73 571 221 C571 323 526 371 406 414 L315 447 C253 469 211 494 211 569 C211 655 284 701 371 701 C480 701 528 644 527 559 L615 559 C620 703 523 775 374 775 C222 775 120 686 120 558 C120 449 181 403 274 368 L369 333 C446 304 478 275 478 210 C478 106 384 60 295 60 C177 60 118 111 119 214 L119 214 Z M541 827 L467 960 L353 960 L233 827 L321 827 L399 893 L402 893 L458 827 L541 827 Z " />
<glyph glyph-name="scircumflex" unicode="&#x15d;" horiz-adv-x="640" d="M456 380 L540 380 C543 492 451 539 346 539 C212 539 147 466 147 385 C147 298 202 262 274 243 L345 224 C401 209 429 187 429 148 C429 84 376 57 296 57 C195 57 164 99 164 152 L81 152 C74 47 156 -13 295 -13 C450 -13 515 65 515 156 C515 239 467 272 368 299 L313 314 C256 330 233 350 233 387 C233 440 271 470 344 470 C413 470 453 440 456 380 L456 380 Z M524 609 L448 788 L349 788 L218 609 L299 609 L387 707 L388 707 L448 609 L524 609 Z " />
<glyph glyph-name="Scedilla" unicode="&#x15e;" horiz-adv-x="640" d="M255 -213 C328 -213 372 -173 372 -117 C372 -70 342 -41 281 -41 L259 -41 L275 -16 L287 -16 C451 -16 571 73 571 221 C571 323 526 371 406 414 L315 447 C253 469 211 494 211 569 C211 655 284 701 371 701 C480 701 528 644 527 559 L615 559 C620 703 523 775 374 775 C222 775 120 686 120 558 C120 449 181 403 274 368 L369 333 C446 304 478 275 478 210 C478 106 384 60 295 60 C177 60 118 111 119 214 L32 215 C24 76 109 7 226 -12 L168 -104 L237 -104 C246 -95 257 -91 270 -91 C291 -91 302 -101 302 -122 C302 -149 285 -159 262 -159 C243 -159 227 -150 226 -135 L153 -135 C146 -183 188 -213 255 -213 L255 -213 Z " />
<glyph glyph-name="scedilla" unicode="&#x15f;" horiz-adv-x="640" d="M259 -213 C332 -213 376 -173 376 -117 C376 -70 346 -41 285 -41 L263 -41 L281 -13 L295 -13 C450 -13 515 65 515 156 C515 239 467 272 368 299 L313 314 C256 330 233 350 233 387 C233 440 271 470 344 470 C413 470 453 440 456 380 L540 380 C543 492 451 539 346 539 C212 539 147 466 147 385 C147 298 202 262 274 243 L345 224 C401 209 429 187 429 148 C429 84 376 57 296 57 C195 57 164 99 164 152 L81 152 C76 64 132 7 233 -8 L172 -104 L241 -104 C250 -95 261 -91 274 -91 C295 -91 306 -101 306 -122 C306 -149 289 -159 266 -159 C247 -159 231 -150 230 -135 L157 -135 C150 -183 192 -213 259 -213 L259 -213 Z " />
<glyph glyph-name="Scaron" unicode="&#x160;" horiz-adv-x="640" d="M119 214 L32 215 C24 55 136 -16 287 -16 C451 -16 571 73 571 221 C571 323 526 371 406 414 L315 447 C253 469 211 494 211 569 C211 655 284 701 371 701 C480 701 528 644 527 559 L615 559 C620 703 523 775 374 775 C222 775 120 686 120 558 C120 449 181 403 274 368 L369 333 C446 304 478 275 478 210 C478 106 384 60 295 60 C177 60 118 111 119 214 L119 214 Z M252 960 L326 827 L440 827 L560 960 L472 960 L394 894 L391 894 L335 960 L252 960 Z " />
<glyph glyph-name="scaron" unicode="&#x161;" horiz-adv-x="640" d="M456 380 L540 380 C543 492 451 539 346 539 C212 539 147 466 147 385 C147 298 202 262 274 243 L345 224 C401 209 429 187 429 148 C429 84 376 57 296 57 C195 57 164 99 164 152 L81 152 C74 47 156 -13 295 -13 C450 -13 515 65 515 156 C515 239 467 272 368 299 L313 314 C256 330 233 350 233 387 C233 440 271 470 344 470 C413 470 453 440 456 380 L456 380 Z M237 788 L313 609 L412 609 L543 788 L462 788 L374 690 L373 690 L313 788 L237 788 Z " />
<glyph glyph-name="Tcommaaccent" unicode="&#x162;" horiz-adv-x="640" d="M685 686 L699 765 L116 765 L102 686 L347 686 L226 0 L319 0 L440 686 L685 686 Z M197 -53 L139 -202 L216 -202 L332 -53 L197 -53 Z " />
<glyph glyph-name="tcommaaccent" unicode="&#x163;" horiz-adv-x="640" d="M271 452 L223 177 C200 42 253 -12 389 -12 C429 -12 462 -4 497 8 L510 82 C475 71 450 65 401 65 C335 65 294 81 310 173 L360 452 L576 452 L589 527 L373 527 L402 689 L319 689 L300 582 C293 541 276 527 235 527 L103 527 L90 452 L271 452 Z M295 -53 L237 -202 L314 -202 L430 -53 L295 -53 Z " />
<glyph glyph-name="Tcaron" unicode="&#x164;" horiz-adv-x="640" d="M685 686 L699 765 L116 765 L102 686 L347 686 L226 0 L319 0 L440 686 L685 686 Z M284 960 L358 827 L472 827 L592 960 L504 960 L426 894 L423 894 L367 960 L284 960 Z " />
<glyph glyph-name="tcaron" unicode="&#x165;" horiz-adv-x="640" d="M271 452 L223 177 C200 42 253 -12 389 -12 C429 -12 462 -4 497 8 L510 82 C475 71 450 65 401 65 C335 65 294 81 310 173 L360 452 L576 452 L589 527 L373 527 L402 689 L319 689 L300 582 C293 541 276 527 235 527 L103 527 L90 452 L271 452 Z M514 788 L455 584 L513 584 L627 788 L514 788 Z " />
<glyph glyph-name="Tbar" unicode="&#x166;" horiz-adv-x="640" d="M319 0 L393 419 L563 419 L576 494 L406 494 L440 686 L685 686 L699 765 L116 765 L102 686 L347 686 L313 494 L143 494 L130 419 L300 419 L226 0 L319 0 Z " />
<glyph glyph-name="tbar" unicode="&#x167;" horiz-adv-x="640" d="M497 8 L510 82 C475 71 450 65 401 65 C335 65 294 81 310 173 L324 251 L541 251 L554 322 L337 322 L360 452 L576 452 L589 527 L373 527 L402 689 L319 689 L300 582 C293 541 276 527 235 527 L103 527 L90 452 L271 452 L248 322 L68 322 L55 251 L236 251 L223 177 C200 42 253 -12 389 -12 C429 -12 462 -4 497 8 L497 8 Z " />
<glyph glyph-name="Utilde" unicode="&#x168;" horiz-adv-x="640" d="M160 765 L72 274 C32 58 143 -15 292 -15 C453 -15 537 63 566 228 L661 765 L570 765 L474 226 C458 132 411 61 297 61 C184 61 139 122 166 273 L253 765 L160 765 Z M249 827 L320 827 C325 870 343 884 367 884 C404 884 439 830 498 830 C574 830 610 889 617 966 L546 966 C541 923 524 907 501 907 C464 907 429 962 369 962 C293 962 254 904 249 827 L249 827 Z " />
<glyph glyph-name="utilde" unicode="&#x169;" horiz-adv-x="640" d="M186 195 L244 527 L154 527 L95 191 C71 50 131 -13 240 -13 C337 -13 386 53 413 98 L417 98 L399 0 L484 0 L577 527 L487 527 L442 269 C419 137 354 61 270 61 C189 61 170 104 186 195 L186 195 Z M214 627 L286 627 C291 668 305 689 330 689 C368 689 402 631 465 631 C542 631 572 695 580 772 L508 772 C503 731 489 710 465 710 C428 710 386 769 329 769 C253 769 219 703 214 627 L214 627 Z " />
<glyph glyph-name="Umacron" unicode="&#x16a;" horiz-adv-x="640" d="M160 765 L72 274 C32 58 143 -15 292 -15 C453 -15 537 63 566 228 L661 765 L570 765 L474 226 C458 132 411 61 297 61 C184 61 139 122 166 273 L253 765 L160 765 Z M276 929 L262 846 L580 846 L594 929 L276 929 Z " />
<glyph glyph-name="umacron" unicode="&#x16b;" horiz-adv-x="640" d="M186 195 L244 527 L154 527 L95 191 C71 50 131 -13 240 -13 C337 -13 386 53 413 98 L417 98 L399 0 L484 0 L577 527 L487 527 L442 269 C419 137 354 61 270 61 C189 61 170 104 186 195 L186 195 Z M239 719 L224 636 L542 636 L557 719 L239 719 Z " />
<glyph glyph-name="Ubreve" unicode="&#x16c;" horiz-adv-x="640" d="M160 765 L72 274 C32 58 143 -15 292 -15 C453 -15 537 63 566 228 L661 765 L570 765 L474 226 C458 132 411 61 297 61 C184 61 139 122 166 273 L253 765 L160 765 Z M360 970 L285 970 C277 875 344 830 428 830 C508 830 572 874 595 970 L518 970 C503 925 470 903 426 903 C390 903 363 926 360 970 L360 970 Z " />
<glyph glyph-name="ubreve" unicode="&#x16d;" horiz-adv-x="640" d="M186 195 L244 527 L154 527 L95 191 C71 50 131 -13 240 -13 C337 -13 386 53 413 98 L417 98 L399 0 L484 0 L577 527 L487 527 L442 269 C419 137 354 61 270 61 C189 61 170 104 186 195 L186 195 Z M317 776 L244 776 C223 664 292 612 382 612 C468 612 539 663 555 776 L480 776 C469 713 434 686 383 686 C340 686 309 716 317 776 L317 776 Z " />
<glyph glyph-name="Uring" unicode="&#x16e;" horiz-adv-x="640" d="M160 765 L72 274 C32 58 143 -15 292 -15 C453 -15 537 63 566 228 L661 765 L570 765 L474 226 C458 132 411 61 297 61 C184 61 139 122 166 273 L253 765 L160 765 Z M296 904 C296 836 343 789 416 788 C496 788 555 848 555 924 C555 992 509 1043 434 1043 C353 1043 296 980 296 904 L296 904 Z M358 911 C358 954 387 989 430 989 C469 989 493 958 493 919 C493 876 463 842 420 842 C381 842 358 871 358 911 L358 911 Z " />
<glyph glyph-name="uring" unicode="&#x16f;" horiz-adv-x="640" d="M186 195 L244 527 L154 527 L95 191 C71 50 131 -13 240 -13 C337 -13 386 53 413 98 L417 98 L399 0 L484 0 L577 527 L487 527 L442 269 C419 137 354 61 270 61 C189 61 170 104 186 195 L186 195 Z M258 698 C258 630 305 583 378 582 C458 582 517 642 517 718 C517 786 471 837 396 837 C315 837 258 774 258 698 L258 698 Z M382 636 C343 636 320 665 320 705 C320 748 349 783 392 783 C431 783 455 752 455 713 C455 670 425 636 382 636 L382 636 Z " />
<glyph glyph-name="Uhungarumlaut" unicode="&#x170;" horiz-adv-x="640" d="M160 765 L72 274 C32 58 143 -15 292 -15 C453 -15 537 63 566 228 L661 765 L570 765 L474 226 C458 132 411 61 297 61 C184 61 139 122 166 273 L253 765 L160 765 Z M501 960 L450 827 L528 827 L614 960 L501 960 Z M340 960 L289 827 L367 827 L453 960 L340 960 Z " />
<glyph glyph-name="uhungarumlaut" unicode="&#x171;" horiz-adv-x="640" d="M186 195 L244 527 L154 527 L95 191 C71 50 131 -13 240 -13 C337 -13 386 53 413 98 L417 98 L399 0 L484 0 L577 527 L487 527 L442 269 C419 137 354 61 270 61 C189 61 170 104 186 195 L186 195 Z M500 788 L411 609 L485 609 L612 788 L500 788 Z M346 788 L257 609 L331 609 L458 788 L346 788 Z " />
<glyph glyph-name="Uogonek" unicode="&#x172;" horiz-adv-x="640" d="M287 -79 C287 -41 311 -18 360 -10 C476 9 541 85 566 228 L661 765 L570 765 L474 226 C458 132 411 61 297 61 C184 61 139 122 166 273 L253 765 L160 765 L72 274 C35 69 131 -3 263 -14 L263 -17 C221 -34 200 -64 200 -107 C200 -158 235 -188 312 -188 L330 -188 L343 -118 C308 -118 287 -107 287 -79 L287 -79 Z " />
<glyph glyph-name="uogonek" unicode="&#x173;" horiz-adv-x="640" d="M451 -188 L464 -118 C429 -118 408 -107 408 -79 C408 -44 441 -23 484 0 L577 527 L487 527 L442 269 C419 137 354 61 270 61 C189 61 170 104 186 195 L244 527 L154 527 L95 191 C71 50 131 -13 240 -13 C337 -13 386 53 413 98 L417 98 L399 0 L427 0 C355 -31 321 -60 321 -107 C321 -158 356 -188 433 -188 L451 -188 Z " />
<glyph glyph-name="Wcircumflex" unicode="&#x174;" horiz-adv-x="640" d="M45 0 L173 0 L317 374 C328 401 336 427 343 450 C347 463 351 475 355 487 L360 487 C359 475 359 463 358 451 C357 429 357 403 358 374 L374 0 L501 0 L686 765 L600 765 L443 99 L435 99 C435 112 435 126 436 142 C436 169 437 206 436 246 L424 605 L334 605 L184 221 C169 186 160 157 153 134 C149 121 145 110 142 99 L136 99 L215 765 L130 765 L45 0 Z M566 827 L492 960 L378 960 L258 827 L346 827 L424 893 L427 893 L483 827 L566 827 Z " />
<glyph glyph-name="wcircumflex" unicode="&#x175;" horiz-adv-x="640" d="M84 527 L87 0 L189 0 L305 300 C316 327 325 356 332 380 C336 394 340 408 344 421 L350 421 C349 408 349 394 348 380 C347 356 346 327 347 300 L357 0 L460 0 L647 527 L565 527 L447 175 C442 160 436 137 431 118 C428 107 426 95 423 83 L417 83 C418 95 418 107 419 118 C420 137 421 160 421 175 L411 527 L322 527 L186 175 C179 160 173 137 168 118 C165 107 163 95 160 83 L154 83 C155 94 156 106 157 117 C160 136 161 159 161 176 L164 527 L84 527 Z M530 609 L454 788 L355 788 L224 609 L305 609 L393 707 L394 707 L454 609 L530 609 Z " />
<glyph glyph-name="Ycircumflex" unicode="&#x176;" horiz-adv-x="640" d="M286 323 L229 0 L321 0 L378 326 L691 765 L590 765 L347 413 L345 413 L222 765 L125 765 L286 323 Z M567 827 L493 960 L379 960 L259 827 L347 827 L425 893 L428 893 L484 827 L567 827 Z " />
<glyph glyph-name="ycircumflex" unicode="&#x177;" horiz-adv-x="640" d="M106 527 L224 0 L193 -49 C160 -102 128 -123 76 -123 C45 -123 16 -118 -20 -105 L-41 -176 C-5 -191 32 -198 69 -198 C156 -198 216 -167 271 -72 L610 527 L514 527 L330 189 C317 165 306 142 299 126 C294 117 290 108 287 100 L283 100 C282 108 281 117 280 126 C278 142 274 162 269 187 L196 527 L106 527 Z M508 609 L432 788 L333 788 L202 609 L283 609 L371 707 L372 707 L432 609 L508 609 Z " />
<glyph glyph-name="Ydieresis" unicode="&#x178;" horiz-adv-x="640" d="M286 323 L229 0 L321 0 L378 326 L691 765 L590 765 L347 413 L345 413 L222 765 L125 765 L286 323 Z M477 956 L454 827 L583 827 L606 956 L477 956 Z M261 956 L238 827 L368 827 L391 956 L261 956 Z " />
<glyph glyph-name="Zacute" unicode="&#x179;" horiz-adv-x="640" d="M166 765 L152 685 L537 685 L29 71 L16 0 L540 0 L554 80 L145 80 L654 694 L667 765 L166 765 Z M429 960 L360 827 L444 827 L564 960 L429 960 Z " />
<glyph glyph-name="zacute" unicode="&#x17a;" horiz-adv-x="640" d="M146 527 L133 453 L456 453 L57 74 L44 0 L498 0 L511 73 L166 73 L565 450 L579 527 L146 527 Z M405 788 L313 609 L390 609 L540 788 L405 788 Z " />
<glyph glyph-name="Zdotaccent" unicode="&#x17b;" horiz-adv-x="640" d="M166 765 L152 685 L537 685 L29 71 L16 0 L540 0 L554 80 L145 80 L654 694 L667 765 L166 765 Z M366 958 L342 824 L476 824 L500 958 L366 958 Z " />
<glyph glyph-name="zdotaccent" unicode="&#x17c;" horiz-adv-x="640" d="M146 527 L133 453 L456 453 L57 74 L44 0 L498 0 L511 73 L166 73 L565 450 L579 527 L146 527 Z M317 760 L293 626 L427 626 L451 760 L317 760 Z " />
<glyph glyph-name="Zcaron" unicode="&#x17d;" horiz-adv-x="640" d="M166 765 L152 685 L537 685 L29 71 L16 0 L540 0 L554 80 L145 80 L654 694 L667 765 L166 765 Z M279 960 L353 827 L467 827 L587 960 L499 960 L421 894 L418 894 L362 960 L279 960 Z " />
<glyph glyph-name="zcaron" unicode="&#x17e;" horiz-adv-x="640" d="M146 527 L133 453 L456 453 L57 74 L44 0 L498 0 L511 73 L166 73 L565 450 L579 527 L146 527 Z M237 788 L313 609 L412 609 L543 788 L462 788 L374 690 L373 690 L313 788 L237 788 Z " />
<glyph glyph-name="florin" unicode="&#x192;" horiz-adv-x="640" d="M231 -188 L367 365 L595 365 L608 440 L385 440 L422 590 C449 697 491 714 548 714 C588 714 621 705 652 696 L664 768 C631 780 593 790 550 790 C442 790 372 756 335 604 L295 440 L82 440 L70 365 L277 365 L143 -188 L231 -188 Z " />
<glyph glyph-name="Aringacute" unicode="&#x1fa;" horiz-adv-x="640" d="M387 682 L395 682 C396 666 397 650 398 633 C401 605 402 571 405 548 L430 303 L224 303 L334 548 C353 591 385 677 387 682 L387 682 Z M437 228 L461 0 L559 0 L469 765 L348 765 L-8 0 L87 0 L190 228 L437 228 Z M300 904 C300 836 347 789 420 788 C500 788 559 848 559 924 C559 992 513 1043 438 1043 C357 1043 300 980 300 904 L300 904 Z M362 911 C362 954 391 989 434 989 C473 989 497 958 497 919 C497 876 467 842 424 842 C385 842 362 871 362 911 L362 911 Z M474 1197 L405 1064 L489 1064 L609 1197 L474 1197 Z " />
<glyph glyph-name="aringacute" unicode="&#x1fb;" horiz-adv-x="640" d="M433 254 L427 222 C409 130 345 63 260 63 C200 63 169 87 169 147 C169 190 192 219 239 234 C284 249 337 254 433 254 L433 254 Z M409 86 L412 86 L412 82 C412 27 442 0 503 0 L536 0 L548 73 L523 73 C500 73 486 83 493 114 L532 332 C553 454 494 540 349 540 C223 540 141 473 136 380 L223 380 C230 443 279 471 342 471 C433 471 462 423 447 339 L443 318 C344 318 298 314 233 303 C140 286 77 231 77 139 C77 42 142 -8 241 -8 C320 -8 376 31 409 86 L409 86 Z M256 689 C256 621 303 574 376 573 C456 573 515 633 515 709 C515 777 469 828 394 828 C313 828 256 765 256 689 L256 689 Z M380 627 C341 627 318 656 318 696 C318 739 347 774 390 774 C429 774 453 743 453 704 C453 661 423 627 380 627 L380 627 Z M435 990 L366 857 L450 857 L570 990 L435 990 Z " />
<glyph glyph-name="AEacute" unicode="&#x1fc;" horiz-adv-x="640" d="M393 684 L325 303 L187 303 L376 684 L393 684 Z M37 0 L150 228 L312 228 L272 0 L586 0 L600 81 L373 81 L420 347 L610 347 L624 426 L434 426 L480 684 L702 684 L716 765 L329 765 L-54 0 L37 0 Z M536 960 L467 827 L551 827 L671 960 L536 960 Z " />
<glyph glyph-name="aeacute" unicode="&#x1fd;" horiz-adv-x="640" d="M540 312 L364 312 C384 420 415 468 478 468 C547 468 560 413 540 312 L540 312 Z M148 60 C105 60 78 88 78 143 C78 172 90 201 117 222 C143 243 176 246 268 246 L262 211 C249 128 216 60 148 60 L148 60 Z M587 138 L503 138 C495 100 477 61 418 61 C342 61 333 120 353 245 L612 245 L625 319 C647 440 608 540 492 540 C424 540 380 507 357 460 L353 460 C338 505 301 540 225 540 C127 540 55 475 52 381 L133 381 C137 428 162 470 222 470 C282 470 305 427 292 367 L280 312 C169 312 124 308 76 281 C21 250 -8 206 -8 134 C-8 49 45 -10 130 -10 C213 -10 255 36 278 89 L281 89 C294 34 329 -11 418 -11 C500 -11 571 38 587 138 L587 138 Z M437 788 L345 609 L422 609 L572 788 L437 788 Z " />
<glyph glyph-name="Oslashacute" unicode="&#x1fe;" horiz-adv-x="640" d="M437 960 L368 827 L452 827 L572 960 L437 960 Z M389 700 C440 700 480 683 504 643 L150 192 C148 207 147 223 147 242 C147 362 192 700 389 700 L389 700 Z M289 60 C236 60 195 78 171 122 L527 575 C530 559 531 541 531 521 C531 397 486 60 289 60 L289 60 Z M623 510 C623 573 613 622 594 661 L698 793 L622 793 L559 712 C516 757 458 776 390 776 C113 776 55 404 55 252 C55 192 65 144 82 105 L-20 -25 L56 -25 L116 51 C159 4 220 -16 288 -16 C566 -16 623 354 623 510 L623 510 Z " />
<glyph glyph-name="oslashacute" unicode="&#x1ff;" horiz-adv-x="640" d="M414 788 L322 609 L399 609 L549 788 L414 788 Z M345 470 C388 470 420 458 442 435 L171 137 C166 156 163 176 163 195 C163 300 204 470 345 470 L345 470 Z M294 56 C255 56 224 66 202 87 L471 381 C475 366 477 349 477 331 C477 226 437 56 294 56 L294 56 Z M569 329 C569 377 558 418 536 452 L626 550 L547 550 L497 495 C460 523 411 539 347 539 C155 539 71 368 71 197 C71 146 83 103 108 68 L21 -27 L98 -27 L148 28 C184 1 232 -13 292 -13 C484 -13 569 156 569 329 L569 329 Z " />
<glyph glyph-name="Scommaaccent" unicode="&#x218;" horiz-adv-x="640" d="M119 214 L32 215 C24 55 136 -16 287 -16 C451 -16 571 73 571 221 C571 323 526 371 406 414 L315 447 C253 469 211 494 211 569 C211 655 284 701 371 701 C480 701 528 644 527 559 L615 559 C620 703 523 775 374 775 C222 775 120 686 120 558 C120 449 181 403 274 368 L369 333 C446 304 478 275 478 210 C478 106 384 60 295 60 C177 60 118 111 119 214 L119 214 Z M218 -53 L160 -202 L237 -202 L353 -53 L218 -53 Z " />
<glyph glyph-name="scommaaccent" unicode="&#x219;" horiz-adv-x="640" d="M456 380 L540 380 C543 492 451 539 346 539 C212 539 147 466 147 385 C147 298 202 262 274 243 L345 224 C401 209 429 187 429 148 C429 84 376 57 296 57 C195 57 164 99 164 152 L81 152 C74 47 156 -13 295 -13 C450 -13 515 65 515 156 C515 239 467 272 368 299 L313 314 C256 330 233 350 233 387 C233 440 271 470 344 470 C413 470 453 440 456 380 L456 380 Z M220 -53 L162 -202 L239 -202 L355 -53 L220 -53 Z " />
<glyph glyph-name="uni021A" unicode="&#x21a;" horiz-adv-x="640" d="M685 686 L699 765 L116 765 L102 686 L347 686 L226 0 L319 0 L440 686 L685 686 Z M197 -53 L139 -202 L216 -202 L332 -53 L197 -53 Z " />
<glyph glyph-name="uni021B" unicode="&#x21b;" horiz-adv-x="640" d="M271 452 L223 177 C200 42 253 -12 389 -12 C429 -12 462 -4 497 8 L510 82 C475 71 450 65 401 65 C335 65 294 81 310 173 L360 452 L576 452 L589 527 L373 527 L402 689 L319 689 L300 582 C293 541 276 527 235 527 L103 527 L90 452 L271 452 Z M295 -53 L237 -202 L314 -202 L430 -53 L295 -53 Z " />
<glyph glyph-name="uni0237" unicode="&#x237;" horiz-adv-x="640" d="M74 -103 L53 -176 C91 -191 130 -199 169 -199 C296 -199 355 -138 378 -10 L473 527 L179 527 L166 455 L372 455 L292 4 C276 -90 250 -123 173 -123 C142 -123 110 -118 74 -103 L74 -103 Z " />
<glyph glyph-name="circumflex" unicode="&#x2c6;" horiz-adv-x="640" d="M526 609 L450 788 L351 788 L220 609 L301 609 L389 707 L390 707 L450 609 L526 609 Z " />
<glyph glyph-name="caron" unicode="&#x2c7;" horiz-adv-x="640" d="M240 788 L316 609 L415 609 L546 788 L465 788 L377 690 L376 690 L316 788 L240 788 Z " />
<glyph glyph-name="breve" unicode="&#x2d8;" horiz-adv-x="640" d="M323 776 L250 776 C229 664 298 612 388 612 C474 612 545 663 561 776 L486 776 C475 713 440 686 389 686 C346 686 315 716 323 776 L323 776 Z " />
<glyph glyph-name="dotaccent" unicode="&#x2d9;" horiz-adv-x="640" d="M330 760 L306 626 L440 626 L464 760 L330 760 Z " />
<glyph glyph-name="ring" unicode="&#x2da;" horiz-adv-x="640" d="M263 698 C263 630 310 583 383 582 C463 582 522 642 522 718 C522 786 476 837 401 837 C320 837 263 774 263 698 L263 698 Z M387 636 C348 636 325 665 325 705 C325 748 354 783 397 783 C436 783 460 752 460 713 C460 670 430 636 387 636 L387 636 Z " />
<glyph glyph-name="ogonek" unicode="&#x2db;" horiz-adv-x="640" d="M387 0 L375 25 C271 -10 224 -44 224 -107 C224 -158 259 -188 336 -188 L354 -188 L367 -118 C332 -118 311 -107 311 -79 C311 -44 344 -23 387 0 L387 0 Z " />
<glyph glyph-name="tilde" unicode="&#x2dc;" horiz-adv-x="640" d="M205 620 L277 620 C282 661 296 682 321 682 C359 682 393 624 456 624 C533 624 563 688 571 765 L499 765 C494 724 480 703 456 703 C419 703 377 762 320 762 C244 762 210 696 205 620 L205 620 Z " />
<glyph glyph-name="hungarumlaut" unicode="&#x2dd;" horiz-adv-x="640" d="M465 788 L376 609 L450 609 L577 788 L465 788 Z M311 788 L222 609 L296 609 L423 788 L311 788 Z " />
<glyph glyph-name="Wgrave" unicode="&#x1e80;" horiz-adv-x="640" d="M45 0 L173 0 L317 374 C328 401 336 427 343 450 C347 463 351 475 355 487 L360 487 C359 475 359 463 358 451 C357 429 357 403 358 374 L374 0 L501 0 L686 765 L600 765 L443 99 L435 99 C435 112 435 126 436 142 C436 169 437 206 436 246 L424 605 L334 605 L184 221 C169 186 160 157 153 134 C149 121 145 110 142 99 L136 99 L215 765 L130 765 L45 0 Z M450 827 L403 960 L268 960 L369 827 L450 827 Z " />
<glyph glyph-name="wgrave" unicode="&#x1e81;" horiz-adv-x="640" d="M84 527 L87 0 L189 0 L305 300 C316 327 325 356 332 380 C336 394 340 408 344 421 L350 421 C349 408 349 394 348 380 C347 356 346 327 347 300 L357 0 L460 0 L647 527 L565 527 L447 175 C442 160 436 137 431 118 C428 107 426 95 423 83 L417 83 C418 95 418 107 419 118 C420 137 421 160 421 175 L411 527 L322 527 L186 175 C179 160 173 137 168 118 C165 107 163 95 160 83 L154 83 C155 94 156 106 157 117 C160 136 161 159 161 176 L164 527 L84 527 Z M336 609 L413 609 L365 788 L233 788 L336 609 Z " />
<glyph glyph-name="Wacute" unicode="&#x1e82;" horiz-adv-x="640" d="M45 0 L173 0 L317 374 C328 401 336 427 343 450 C347 463 351 475 355 487 L360 487 C359 475 359 463 358 451 C357 429 357 403 358 374 L374 0 L501 0 L686 765 L600 765 L443 99 L435 99 C435 112 435 126 436 142 C436 169 437 206 436 246 L424 605 L334 605 L184 221 C169 186 160 157 153 134 C149 121 145 110 142 99 L136 99 L215 765 L130 765 L45 0 Z M441 960 L372 827 L456 827 L576 960 L441 960 Z " />
<glyph glyph-name="wacute" unicode="&#x1e83;" horiz-adv-x="640" d="M84 527 L87 0 L189 0 L305 300 C316 327 325 356 332 380 C336 394 340 408 344 421 L350 421 C349 408 349 394 348 380 C347 356 346 327 347 300 L357 0 L460 0 L647 527 L565 527 L447 175 C442 160 436 137 431 118 C428 107 426 95 423 83 L417 83 C418 95 418 107 419 118 C420 137 421 160 421 175 L411 527 L322 527 L186 175 C179 160 173 137 168 118 C165 107 163 95 160 83 L154 83 C155 94 156 106 157 117 C160 136 161 159 161 176 L164 527 L84 527 Z M428 788 L336 609 L413 609 L563 788 L428 788 Z " />
<glyph glyph-name="Wdieresis" unicode="&#x1e84;" horiz-adv-x="640" d="M45 0 L173 0 L317 374 C328 401 336 427 343 450 C347 463 351 475 355 487 L360 487 C359 475 359 463 358 451 C357 429 357 403 358 374 L374 0 L501 0 L686 765 L600 765 L443 99 L435 99 C435 112 435 126 436 142 C436 169 437 206 436 246 L424 605 L334 605 L184 221 C169 186 160 157 153 134 C149 121 145 110 142 99 L136 99 L215 765 L130 765 L45 0 Z M478 956 L455 827 L584 827 L607 956 L478 956 Z M262 956 L239 827 L369 827 L392 956 L262 956 Z " />
<glyph glyph-name="wdieresis" unicode="&#x1e85;" horiz-adv-x="640" d="M84 527 L87 0 L189 0 L305 300 C316 327 325 356 332 380 C336 394 340 408 344 421 L350 421 C349 408 349 394 348 380 C347 356 346 327 347 300 L357 0 L460 0 L647 527 L565 527 L447 175 C442 160 436 137 431 118 C428 107 426 95 423 83 L417 83 C418 95 418 107 419 118 C420 137 421 160 421 175 L411 527 L322 527 L186 175 C179 160 173 137 168 118 C165 107 163 95 160 83 L154 83 C155 94 156 106 157 117 C160 136 161 159 161 176 L164 527 L84 527 Z M446 755 L423 626 L552 626 L575 755 L446 755 Z M230 755 L207 626 L337 626 L360 755 L230 755 Z " />
<glyph glyph-name="Ygrave" unicode="&#x1ef2;" horiz-adv-x="640" d="M286 323 L229 0 L321 0 L378 326 L691 765 L590 765 L347 413 L345 413 L222 765 L125 765 L286 323 Z M454 827 L407 960 L272 960 L373 827 L454 827 Z " />
<glyph glyph-name="ygrave" unicode="&#x1ef3;" horiz-adv-x="640" d="M107 527 L225 0 L194 -49 C161 -102 129 -123 77 -123 C46 -123 17 -118 -19 -105 L-40 -176 C-4 -191 33 -198 70 -198 C157 -198 217 -167 272 -72 L611 527 L515 527 L331 189 C318 165 307 142 300 126 C295 117 291 108 288 100 L284 100 C283 108 282 117 281 126 C279 142 275 162 270 187 L197 527 L107 527 Z M319 609 L396 609 L348 788 L216 788 L319 609 Z " />
<glyph glyph-name="uni2009" unicode="&#x2009;" d="" />
<glyph glyph-name="endash" unicode="&#x2013;" horiz-adv-x="640" d="M152 366 L138 289 L498 289 L512 366 L152 366 Z " />
<glyph glyph-name="emdash" unicode="&#x2014;" horiz-adv-x="640" d="M25 366 L11 289 L631 289 L645 366 L25 366 Z " />
<glyph glyph-name="quoteleft" unicode="&#x2018;" horiz-adv-x="640" d="M487 765 L408 765 L243 504 L387 504 L487 765 Z " />
<glyph glyph-name="quoteright" unicode="&#x2019;" horiz-adv-x="640" d="M263 504 L342 504 L507 765 L363 765 L263 504 Z " />
<glyph glyph-name="quotesinglbase" unicode="&#x201a;" horiz-adv-x="640" d="M169 -127 L248 -127 L413 134 L269 134 L169 -127 Z " />
<glyph glyph-name="quotedblleft" unicode="&#x201c;" horiz-adv-x="640" d="M603 765 L524 765 L359 504 L503 504 L603 765 Z M402 765 L323 765 L158 504 L302 504 L402 765 Z " />
<glyph glyph-name="quotedblright" unicode="&#x201d;" horiz-adv-x="640" d="M369 504 L448 504 L613 765 L469 765 L369 504 Z M168 504 L247 504 L412 765 L268 765 L168 504 Z " />
<glyph glyph-name="quotedblbase" unicode="&#x201e;" horiz-adv-x="640" d="M264 -127 L343 -127 L508 134 L364 134 L264 -127 Z M65 -127 L144 -127 L309 134 L165 134 L65 -127 Z " />
<glyph glyph-name="dagger" unicode="&#x2020;" horiz-adv-x="640" d="M295 -80 L387 442 L585 442 L598 518 L400 518 L444 765 L361 765 L317 518 L119 518 L106 442 L304 442 L212 -80 L295 -80 Z " />
<glyph glyph-name="daggerdbl" unicode="&#x2021;" horiz-adv-x="640" d="M295 -80 L339 172 L537 172 L551 248 L353 248 L389 452 L587 452 L600 528 L402 528 L444 765 L361 765 L319 528 L121 528 L108 452 L306 452 L270 248 L72 248 L58 172 L256 172 L212 -80 L295 -80 Z " />
<glyph glyph-name="bullet" unicode="&#x2022;" horiz-adv-x="640" d="M319 188 C385 188 438 235 438 308 C438 379 391 428 320 428 C256 428 202 377 202 308 C202 235 251 188 319 188 L319 188 Z " />
<glyph glyph-name="ellipsis" unicode="&#x2026;" horiz-adv-x="640" d="M230 134 L206 0 L340 0 L364 134 L230 134 Z M445 134 L421 0 L555 0 L579 134 L445 134 Z M15 134 L-9 0 L125 0 L149 134 L15 134 Z " />
<glyph glyph-name="perthousand" unicode="&#x2030;" horiz-adv-x="640" d="M78 557 C78 488 115 448 179 448 C290 448 319 596 319 664 C319 733 282 773 218 773 C107 773 78 625 78 557 L78 557 Z M180 500 C148 500 140 523 140 554 C140 597 157 721 217 721 C248 721 257 701 257 666 C257 623 238 500 180 500 L180 500 Z M31 324 L19 253 L536 518 L548 589 L31 324 Z M476 -8 C587 -8 616 140 616 208 C616 277 579 317 515 317 C404 317 375 169 375 101 C375 32 412 -8 476 -8 L476 -8 Z M207 -8 C318 -8 347 140 347 208 C347 277 310 317 246 317 C135 317 106 169 106 101 C106 32 143 -8 207 -8 L207 -8 Z M477 44 C445 44 437 67 437 98 C437 141 454 265 514 265 C545 265 554 245 554 210 C554 167 535 44 477 44 L477 44 Z M208 44 C176 44 168 67 168 98 C168 141 185 265 245 265 C276 265 285 245 285 210 C285 167 266 44 208 44 L208 44 Z " />
<glyph glyph-name="uni2032" unicode="&#x2032;" horiz-adv-x="640" d="M379 765 L287 468 L360 468 L499 765 L379 765 Z " />
<glyph glyph-name="uni2033" unicode="&#x2033;" horiz-adv-x="640" d="M459 765 L367 468 L440 468 L579 765 L459 765 Z M279 765 L187 468 L260 468 L399 765 L279 765 Z " />
<glyph glyph-name="guilsinglleft" unicode="&#x2039;" horiz-adv-x="640" d="M283 259 L498 464 L381 464 L164 263 L331 57 L440 57 L283 259 Z " />
<glyph glyph-name="guilsinglright" unicode="&#x203a;" horiz-adv-x="640" d="M358 267 L139 57 L256 57 L477 263 L312 464 L203 464 L358 267 Z " />
<glyph glyph-name="fraction" unicode="&#x2044;" horiz-adv-x="640" d="M640 780 L-51 -40 L33 -40 L724 780 L640 780 Z " />
<glyph glyph-name="Euro" unicode="&#x20ac;" horiz-adv-x="640" d="M583 207 L495 207 C471 128 413 59 331 59 C244 59 200 115 208 251 L426 251 L439 322 L216 322 C219 337 221 352 224 368 C227 384 230 399 233 413 L455 413 L467 484 L251 484 C288 611 339 678 438 678 C522 678 553 627 544 528 L631 528 C650 659 574 752 446 752 C301 752 215 664 160 484 L76 484 L64 413 L142 413 C139 401 137 389 134 377 C130 358 127 339 125 322 L48 322 L35 251 L118 251 C110 60 192 -16 327 -16 C462 -16 548 76 583 207 L583 207 Z " />
<glyph glyph-name="trademark" unicode="&#x2122;" horiz-adv-x="640" d="M178 439 L227 716 L309 716 L317 765 L100 765 L92 716 L172 716 L123 439 L178 439 Z M362 765 L305 439 L357 439 L402 694 L406 694 L406 675 C406 663 407 645 410 626 L434 439 L481 439 L570 627 C579 646 586 663 591 675 C594 682 596 689 598 694 L602 694 L557 439 L613 439 L670 765 L586 765 L491 562 C484 547 479 534 476 525 L471 510 L468 510 L468 525 C468 534 468 547 467 562 L443 765 L362 765 Z " />
<glyph glyph-name="onethird" unicode="&#x2153;" horiz-adv-x="1920" d="M1287 780 L596 -40 L680 -40 L1371 780 L1287 780 Z M1441 198 L1494 198 C1555 198 1582 167 1582 116 C1582 57 1536 13 1463 13 C1392 13 1359 48 1359 111 L1282 111 C1277 12 1345 -51 1459 -51 C1571 -51 1660 14 1660 115 C1660 179 1629 212 1577 227 L1577 232 C1641 245 1693 288 1693 364 C1693 452 1626 500 1529 500 C1418 500 1344 432 1336 339 L1413 339 C1422 410 1467 437 1527 437 C1578 437 1615 410 1615 357 C1615 300 1572 264 1503 264 L1454 264 L1441 198 Z M161 257 L500 257 L513 323 L384 323 L474 791 L408 791 C401 756 389 735 369 718 C350 703 323 695 288 695 L243 695 L232 638 L366 638 L305 323 L174 323 L161 257 Z " />
<glyph glyph-name="twothirds" unicode="&#x2154;" horiz-adv-x="1920" d="M1304 780 L613 -40 L697 -40 L1388 780 L1304 780 Z M1441 198 L1494 198 C1555 198 1582 167 1582 116 C1582 57 1536 13 1463 13 C1392 13 1359 48 1359 111 L1282 111 C1277 12 1345 -51 1459 -51 C1571 -51 1660 14 1660 115 C1660 179 1629 212 1577 227 L1577 232 C1641 245 1693 288 1693 364 C1693 452 1626 500 1529 500 C1418 500 1344 432 1336 339 L1413 339 C1422 410 1467 437 1527 437 C1578 437 1615 410 1615 357 C1615 300 1572 264 1503 264 L1454 264 L1441 198 Z M204 609 L279 609 C284 700 337 733 393 733 C449 733 484 700 484 648 C484 587 449 550 385 501 L144 319 L133 257 L514 257 L526 325 L259 325 L259 328 C268 333 277 338 286 344 C302 355 324 368 347 385 L438 454 C523 517 564 569 564 652 C564 737 502 797 398 797 C287 797 204 725 204 609 L204 609 Z " />
<glyph glyph-name="oneeighth" unicode="&#x215b;" horiz-adv-x="1920" d="M1280 780 L589 -40 L673 -40 L1364 780 L1280 780 Z M1533 501 C1430 501 1347 436 1347 344 C1347 289 1371 255 1410 236 L1410 234 C1334 218 1283 168 1283 89 C1283 1 1347 -52 1464 -52 C1578 -52 1668 11 1668 115 C1668 171 1635 209 1588 225 L1588 227 C1649 246 1696 294 1696 363 C1696 448 1626 501 1533 501 L1533 501 Z M1513 258 C1462 258 1426 285 1426 340 C1426 396 1463 439 1530 439 C1577 439 1617 411 1617 362 C1617 299 1577 258 1513 258 L1513 258 Z M1467 9 C1410 9 1365 33 1365 94 C1365 158 1407 200 1483 200 C1536 200 1586 174 1586 113 C1586 53 1544 9 1467 9 L1467 9 Z M161 257 L500 257 L513 323 L384 323 L474 791 L408 791 C401 756 389 735 369 718 C350 703 323 695 288 695 L243 695 L232 638 L366 638 L305 323 L174 323 L161 257 Z " />
<glyph glyph-name="threeeighths" unicode="&#x215c;" horiz-adv-x="1920" d="M1280 780 L589 -40 L673 -40 L1364 780 L1280 780 Z M1533 501 C1430 501 1347 436 1347 344 C1347 289 1371 255 1410 236 L1410 234 C1334 218 1283 168 1283 89 C1283 1 1347 -52 1464 -52 C1578 -52 1668 11 1668 115 C1668 171 1635 209 1588 225 L1588 227 C1649 246 1696 294 1696 363 C1696 448 1626 501 1533 501 L1533 501 Z M1513 258 C1462 258 1426 285 1426 340 C1426 396 1463 439 1530 439 C1577 439 1617 411 1617 362 C1617 299 1577 258 1513 258 L1513 258 Z M1467 9 C1410 9 1365 33 1365 94 C1365 158 1407 200 1483 200 C1536 200 1586 174 1586 113 C1586 53 1544 9 1467 9 L1467 9 Z M311 495 L364 495 C425 495 452 464 452 413 C452 354 406 310 333 310 C262 310 229 345 229 408 L152 408 C147 309 215 246 329 246 C441 246 530 311 530 412 C530 476 499 509 447 524 L447 529 C511 542 563 585 563 661 C563 749 496 797 399 797 C288 797 214 729 206 636 L283 636 C292 707 337 734 397 734 C448 734 485 707 485 654 C485 597 442 561 373 561 L324 561 L311 495 Z " />
<glyph glyph-name="fiveeighths" unicode="&#x215d;" horiz-adv-x="1920" d="M1280 780 L589 -40 L673 -40 L1364 780 L1280 780 Z M1533 501 C1430 501 1347 436 1347 344 C1347 289 1371 255 1410 236 L1410 234 C1334 218 1283 168 1283 89 C1283 1 1347 -52 1464 -52 C1578 -52 1668 11 1668 115 C1668 171 1635 209 1588 225 L1588 227 C1649 246 1696 294 1696 363 C1696 448 1626 501 1533 501 L1533 501 Z M1513 258 C1462 258 1426 285 1426 340 C1426 396 1463 439 1530 439 C1577 439 1617 411 1617 362 C1617 299 1577 258 1513 258 L1513 258 Z M1467 9 C1410 9 1365 33 1365 94 C1365 158 1407 200 1483 200 C1536 200 1586 174 1586 113 C1586 53 1544 9 1467 9 L1467 9 Z M232 399 L152 399 C148 302 213 246 325 246 C456 246 538 337 538 453 C538 546 481 609 388 609 C337 609 304 588 281 565 L279 565 L318 718 L557 718 L570 790 L263 790 L192 499 L263 499 C286 527 316 545 363 545 C424 545 457 506 457 446 C457 381 421 311 327 311 C271 311 231 338 232 399 L232 399 Z " />
<glyph glyph-name="seveneighths" unicode="&#x215e;" horiz-adv-x="1920" d="M1210 780 L519 -40 L603 -40 L1294 780 L1210 780 Z M1523 501 C1420 501 1337 436 1337 344 C1337 289 1361 255 1400 236 L1400 234 C1324 218 1273 168 1273 89 C1273 1 1337 -52 1454 -52 C1568 -52 1658 11 1658 115 C1658 171 1625 209 1578 225 L1578 227 C1639 246 1686 294 1686 363 C1686 448 1616 501 1523 501 L1523 501 Z M1503 258 C1452 258 1416 285 1416 340 C1416 396 1453 439 1520 439 C1567 439 1607 411 1607 362 C1607 299 1567 258 1503 258 L1503 258 Z M1457 9 C1400 9 1355 33 1355 94 C1355 158 1397 200 1473 200 C1526 200 1576 174 1576 113 C1576 53 1534 9 1457 9 L1457 9 Z M495 717 L186 257 L276 257 L595 738 L606 790 L219 790 L205 717 L495 717 Z " />
<glyph glyph-name="minus" unicode="&#x2212;" horiz-adv-x="640" d="M133 397 L117 318 L571 318 L587 397 L133 397 Z " />
<glyph glyph-name="approxequal" unicode="&#x2248;" horiz-adv-x="640" d="M134 370 L207 370 C210 414 233 429 254 429 C294 429 380 372 445 372 C516 372 570 422 570 507 L497 507 C494 463 473 447 450 447 C415 447 325 505 260 505 C191 505 134 455 134 370 L134 370 Z M223 267 C263 267 349 210 414 210 C485 210 539 260 539 345 L466 345 C463 301 442 285 419 285 C384 285 294 343 229 343 C160 343 103 293 103 208 L176 208 C179 252 202 267 223 267 L223 267 Z " />
<glyph glyph-name="notequal" unicode="&#x2260;" horiz-adv-x="640" d="M215 109 L296 229 L552 229 L567 305 L348 305 L419 410 L587 410 L602 486 L471 486 L552 606 L473 606 L392 486 L148 486 L133 410 L340 410 L269 305 L113 305 L98 229 L217 229 L136 109 L215 109 Z " />
<glyph glyph-name="lessequal" unicode="&#x2264;" horiz-adv-x="640" d="M115 360 L530 131 L546 211 L228 383 L614 550 L629 640 L127 418 L115 360 Z M50 0 L504 0 L520 77 L66 77 L50 0 Z " />
<glyph glyph-name="greaterequal" unicode="&#x2265;" horiz-adv-x="640" d="M588 403 L173 632 L157 553 L475 381 L89 214 L74 123 L576 345 L588 403 Z M51 0 L505 0 L521 77 L67 77 L51 0 Z " />
<glyph glyph-name="uni24C5" unicode="&#x24c5;" horiz-adv-x="640" d="M83 468 L68 388 C60 344 55 299 55 262 C58 81 142 -15 301 -15 C470 -15 561 107 596 294 L611 374 C619 414 623 458 623 494 C623 669 542 775 377 775 C209 775 117 654 83 468 L83 468 Z M129 381 L143 454 C170 596 229 720 380 720 C507 720 561 626 561 500 C561 461 556 420 549 381 L536 308 C509 164 448 40 298 40 C171 40 117 134 117 260 C117 297 121 338 129 381 L129 381 Z M291 326 L343 326 C431 326 498 377 498 473 C498 553 439 591 373 591 L268 591 L194 171 L264 171 L291 326 Z M341 382 L301 382 L328 535 L366 535 C406 535 430 512 430 469 C430 409 397 382 341 382 L341 382 Z " />
<glyph glyph-name="fi" unicode="&#xfb01;" horiz-adv-x="1280" d="M303 0 L383 452 L589 452 L602 527 L396 527 L412 617 C424 686 460 715 528 715 C567 715 602 709 633 700 L645 771 C610 784 572 790 529 790 C422 790 346 750 324 632 L305 527 L116 527 L103 452 L292 452 L212 0 L303 0 Z M978 760 L954 626 L1088 626 L1112 760 L978 760 Z M686 0 L1163 0 L1176 75 L979 75 L1059 527 L808 527 L795 455 L958 455 L891 75 L699 75 L686 0 Z " />
<glyph glyph-name="fl" unicode="&#xfb02;" horiz-adv-x="1280" d="M303 0 L383 452 L589 452 L602 527 L396 527 L412 617 C424 686 460 715 528 715 C567 715 602 709 633 700 L645 771 C610 784 572 790 529 790 C422 790 346 750 324 632 L305 527 L116 527 L103 452 L292 452 L212 0 L303 0 Z M685 0 L1162 0 L1175 75 L979 75 L1105 788 L843 788 L830 716 L1003 716 L890 75 L698 75 L685 0 Z " />
</font>
</svg>
